<?xml version="1.0" encoding="utf-8"?>
<!-- Generator: Adobe Illustrator 16.0.0, SVG Export Plug-In . SVG Version: 6.00 Build 0)  -->
<!DOCTYPE svg PUBLIC "-//W3C//DTD SVG 1.1//EN" "http://www.w3.org/Graphics/SVG/1.1/DTD/svg11.dtd">
<svg version="1.1" id="Layer_1" xmlns="http://www.w3.org/2000/svg" xmlns:xlink="http://www.w3.org/1999/xlink" x="0px" y="0px"
	 width="90px" height="70px" viewBox="0 0 90 70" enable-background="new 0 0 90 70" xml:space="preserve">
<g>
	<path fill="#E9A219" d="M9.144,70h71.712V0H9.144V70z M63.801,51.874h-6.422v-25.9h6.422V51.874z M60.586,15.267
		c2.07,0,3.743,1.682,3.743,3.748c0,2.07-1.673,3.748-3.743,3.748c-2.071,0-3.743-1.677-3.743-3.748
		C56.843,16.949,58.515,15.267,60.586,15.267 M35.005,16.443h8.35l11.78,35.431h-7.281l-3.107-9.847H33.508l-2.889,10.058h-7.388
		L35.005,16.443z"/>
	<polygon fill="#E9A219" points="39.075,21.904 34.688,36.567 43.354,36.567 	"/>
</g>
</svg>
