<?xml version="1.0" encoding="utf-8"?>
<!-- Generator: Adobe Illustrator 16.0.0, SVG Export Plug-In . SVG Version: 6.00 Build 0)  -->
<!DOCTYPE svg PUBLIC "-//W3C//DTD SVG 1.1//EN" "http://www.w3.org/Graphics/SVG/1.1/DTD/svg11.dtd">
<svg version="1.1" id="Layer_1" xmlns="http://www.w3.org/2000/svg" xmlns:xlink="http://www.w3.org/1999/xlink" x="0px" y="0px"
	 width="90px" height="70px" viewBox="0 0 90 70" enable-background="new 0 0 90 70" xml:space="preserve">
<path fill="#563D7C" d="M9.815,60.996c0,4.988,4.042,9.03,9.029,9.03h51.967c4.988,0,9.029-4.043,9.029-9.03V9.029
	C79.841,4.042,75.799,0,70.813,0H18.845c-4.987,0-9.029,4.043-9.029,9.029V60.996L9.815,60.996z"/>
<path fill="#FFFFFF" d="M38.854,30.976v-9.917h8.729c0.831,0,1.633,0.069,2.404,0.208c0.772,0.138,1.455,0.386,2.05,0.742
	c0.594,0.356,1.068,0.851,1.424,1.484c0.356,0.633,0.535,1.445,0.535,2.435c0,1.781-0.535,3.068-1.604,3.859
	c-1.068,0.793-2.435,1.188-4.097,1.188H38.854L38.854,30.976z M29.531,13.814v42.398h20.546c1.9,0,3.751-0.236,5.553-0.712
	c1.801-0.476,3.404-1.208,4.81-2.197c1.404-0.989,2.523-2.267,3.354-3.829c0.832-1.565,1.248-3.415,1.248-5.553
	c0-2.653-0.644-4.919-1.929-6.799c-1.288-1.881-3.237-3.197-5.851-3.95c1.9-0.91,3.336-2.078,4.306-3.503
	c0.97-1.426,1.455-3.206,1.455-5.345c0-1.979-0.326-3.642-0.98-4.988c-0.652-1.346-1.573-2.425-2.761-3.236
	s-2.612-1.396-4.276-1.751c-1.661-0.356-3.503-0.535-5.521-0.535H29.531L29.531,13.814z M38.854,48.968V37.329h10.154
	c2.02,0,3.643,0.465,4.869,1.396c1.228,0.931,1.842,2.484,1.842,4.661c0,1.108-0.188,2.019-0.564,2.731
	c-0.376,0.713-0.882,1.277-1.515,1.693s-1.366,0.712-2.197,0.89s-1.702,0.268-2.612,0.268H38.854L38.854,48.968z"/>
</svg>
