<?xml version="1.0" encoding="utf-8"?>
<!-- Generator: Adobe Illustrator 16.0.0, SVG Export Plug-In . SVG Version: 6.00 Build 0)  -->
<!DOCTYPE svg PUBLIC "-//W3C//DTD SVG 1.1//EN" "http://www.w3.org/Graphics/SVG/1.1/DTD/svg11.dtd">
<svg version="1.1" id="Layer_1" xmlns="http://www.w3.org/2000/svg" xmlns:xlink="http://www.w3.org/1999/xlink" x="0px" y="0px"
	 width="107.5px" height="77.5px" viewBox="0 0 107.5 77.5" enable-background="new 0 0 107.5 77.5" xml:space="preserve">
<path fill="none" stroke="#000000" stroke-width="4" stroke-miterlimit="10" d="M77.008,46.751
	c-3.6,16.118-17.99,28.166-35.194,28.166c-19.915,0-36.063-16.146-36.063-36.063c0-19.915,16.147-36.063,36.063-36.063
	c9.498,0,18.139,3.673,24.58,9.676"/>
<path d="M25.184,36.901c-1.1-0.896-3.502-3.813-0.767-7.477c2.736-3.663,6.377-1.664,7.476-0.767l15.782,13.023
	c1.292,1.048,3.167,0.957,4.351-0.216L77.175,16.47c2.081-2.064,5.452-2.047,7.516,0.036c2.062,2.081,2.046,5.454-0.035,7.514
	l-30.62,30.417c-2.7,2.604-5.674,1.52-7.094,0.346L25.184,36.901z"/>
</svg>
