<?xml version="1.0" encoding="utf-8"?>
<!-- Generator: Adobe Illustrator 16.0.0, SVG Export Plug-In . SVG Version: 6.00 Build 0)  -->
<!DOCTYPE svg PUBLIC "-//W3C//DTD SVG 1.1//EN" "http://www.w3.org/Graphics/SVG/1.1/DTD/svg11.dtd">
<svg version="1.1" id="Layer_1" xmlns="http://www.w3.org/2000/svg" xmlns:xlink="http://www.w3.org/1999/xlink" x="0px" y="0px"
	 width="50px" height="55px" viewBox="0 0 50 55" enable-background="new 0 0 50 55" xml:space="preserve">
<g>
	<g>
		<path fill="#FFD400" d="M9.826,19.04c-1.161,0-2.104,0.944-2.104,2.105v21.437c0,1.161,0.944,2.104,2.104,2.104h34.018
			c1.16,0,2.104-0.943,2.104-2.104V21.145c0-1.161-0.944-2.105-2.104-2.105H9.826z"/>
	</g>
	<g>
		<g>
			<path d="M38.602,38.736c-0.172,0-0.345-0.063-0.479-0.191l-8.075-7.576c-0.282-0.263-0.297-0.708-0.031-0.99
				c0.266-0.284,0.707-0.298,0.993-0.031l8.074,7.576c0.282,0.264,0.296,0.709,0.031,0.99C38.976,38.661,38.79,38.736,38.602,38.736
				z"/>
			<path d="M11.647,38.736c-0.187,0-0.374-0.075-0.512-0.223c-0.266-0.281-0.251-0.727,0.031-0.99l8.078-7.576
				c0.284-0.264,0.729-0.252,0.992,0.031c0.266,0.282,0.251,0.728-0.031,0.99l-8.078,7.576
				C11.992,38.673,11.819,38.736,11.647,38.736z"/>
		</g>
		<path d="M43.378,45.779H6.873c-1.934,0-3.508-1.573-3.508-3.508V18.347c0-1.935,1.575-3.508,3.508-3.508h36.505
			c1.933,0,3.508,1.573,3.508,3.508v23.924C46.886,44.206,45.311,45.779,43.378,45.779z M6.873,16.242
			c-1.161,0-2.105,0.945-2.105,2.105v23.924c0,1.16,0.944,2.104,2.105,2.104h36.505c1.16,0,2.104-0.944,2.104-2.104V18.347
			c0-1.16-0.944-2.105-2.104-2.105H6.873z"/>
		<path d="M25.125,33.835c-0.933,0-1.866-0.31-2.577-0.929L4.529,17.187c-0.292-0.254-0.323-0.698-0.069-0.991
			c0.257-0.292,0.699-0.318,0.991-0.067l18.02,15.718c0.896,0.781,2.412,0.781,3.308,0l17.997-15.693
			c0.29-0.254,0.732-0.226,0.991,0.067c0.254,0.293,0.225,0.735-0.068,0.991L27.702,32.905
			C26.99,33.525,26.059,33.835,25.125,33.835z"/>
	</g>
</g>
</svg>
