<?xml version="1.0" encoding="utf-8"?>
<!-- Generator: Adobe Illustrator 16.0.0, SVG Export Plug-In . SVG Version: 6.00 Build 0)  -->
<!DOCTYPE svg PUBLIC "-//W3C//DTD SVG 1.1//EN" "http://www.w3.org/Graphics/SVG/1.1/DTD/svg11.dtd">
<svg version="1.1" id="Layer_1" xmlns="http://www.w3.org/2000/svg" xmlns:xlink="http://www.w3.org/1999/xlink" x="0px" y="0px"
	 width="90px" height="70px" viewBox="0 0 90 70" enable-background="new 0 0 90 70" xml:space="preserve">
<g>
	<path fill="#E61176" d="M9.146,70h71.708V0H9.146V70z M33.979,52.018h-6.637V16.591h6.637V52.018z M62.131,52.232h-5.246v-3.85
		c-2.138,2.67-4.816,4.597-7.813,4.597s-10.17-2.46-10.17-12.843c0-10.385,6.852-14.342,10.487-14.342
		c3.645,0,6.104,2.142,6.529,2.996V14.883h6.212V52.232z"/>
	<path fill="#E61176" d="M50.78,31.147c-4.279,0-5.777,4.499-5.777,8.456c0,3.958,2.249,7.92,5.885,7.92
		c3.641,0,5.143-4.391,5.143-6.1v-5.246C56.03,34.139,54.421,31.147,50.78,31.147"/>
</g>
</svg>
