<?xml version="1.0" encoding="utf-8"?>
<!-- Generator: Adobe Illustrator 16.0.0, SVG Export Plug-In . SVG Version: 6.00 Build 0)  -->
<!DOCTYPE svg PUBLIC "-//W3C//DTD SVG 1.1//EN" "http://www.w3.org/Graphics/SVG/1.1/DTD/svg11.dtd">
<svg version="1.1" id="Layer_1" xmlns="http://www.w3.org/2000/svg" xmlns:xlink="http://www.w3.org/1999/xlink" x="0px" y="0px"
	 width="145px" height="135px" viewBox="0 0 145 135" enable-background="new 0 0 145 135" xml:space="preserve">
<g>
	<circle fill="#FFD400" cx="78.316" cy="35.297" r="17.348"/>
	<polyline fill="none" stroke="#000000" stroke-width="2" stroke-miterlimit="10" points="71.578,46.69 46.821,120.146 
		35.408,132.082 35.408,116.133 60.967,42.529 	"/>
	<line fill="none" stroke="#000000" stroke-width="2" stroke-miterlimit="10" x1="74.274" y1="46.69" x2="105.608" y2="134.396"/>
	<path fill="none" stroke="#000000" stroke-width="2" stroke-miterlimit="10" d="M84.879,42.529l22.85,62.069
		c3.471,9.253,1.35,15.42-5.484,20.385"/>
	<circle fill="none" stroke="#000000" stroke-width="2" stroke-miterlimit="10" cx="72.926" cy="29.968" r="17.348"/>
	<line fill="none" stroke="#000000" stroke-width="2" stroke-miterlimit="10" x1="94.056" y1="67.557" x2="107.816" y2="67.557"/>
	<line fill="none" stroke="#000000" stroke-width="2" stroke-miterlimit="10" x1="64.124" y1="67.557" x2="81.729" y2="67.557"/>
	<line fill="none" stroke="#000000" stroke-width="2" stroke-miterlimit="10" x1="39.386" y1="67.557" x2="51.792" y2="67.557"/>
	<line fill="none" stroke="#000000" stroke-width="2" stroke-miterlimit="10" x1="107.816" y1="61.39" x2="107.816" y2="73.724"/>
	<line fill="none" stroke="#000000" stroke-width="2" stroke-miterlimit="10" x1="39.386" y1="61.39" x2="39.386" y2="73.724"/>
	<circle fill="none" stroke="#000000" stroke-width="2" stroke-miterlimit="10" cx="72.926" cy="29.968" r="3.759"/>
	<line fill="none" stroke="#000000" stroke-width="2" stroke-miterlimit="10" x1="72.927" y1="12.62" x2="72.927" y2="2.5"/>
	<circle fill="#FFFFFF" stroke="#000000" stroke-width="2" stroke-miterlimit="10" cx="101.043" cy="103.987" r="8.674"/>
</g>
</svg>
