<?xml version="1.0" encoding="utf-8"?>
<!-- Generator: Adobe Illustrator 16.0.0, SVG Export Plug-In . SVG Version: 6.00 Build 0)  -->
<!DOCTYPE svg PUBLIC "-//W3C//DTD SVG 1.1//EN" "http://www.w3.org/Graphics/SVG/1.1/DTD/svg11.dtd">
<svg version="1.1" id="Layer_1" xmlns="http://www.w3.org/2000/svg" xmlns:xlink="http://www.w3.org/1999/xlink" x="0px" y="0px"
	 width="145px" height="135px" viewBox="0 0 145 135" enable-background="new 0 0 145 135" xml:space="preserve">
<g>
	<circle fill="#FFD400" cx="74.645" cy="27.22" r="9.475"/>
	<circle fill="#FFD400" cx="108.616" cy="111.091" r="5.087"/>
	<g>
		<path fill="#231F20" d="M72.753,29.089c0,0,0.118,0.008,0.339,0.021c0.223,0.036,0.542-0.018,0.961,0.127
			c0.207,0.061,0.447,0.108,0.69,0.201c0.229,0.117,0.496,0.211,0.778,0.336c0.265,0.145,0.527,0.34,0.821,0.533
			c0.262,0.239,0.536,0.491,0.823,0.752c0.482,0.608,1.01,1.36,1.252,2.31l0.095,0.361l0.048,0.184l0.021,0.094
			c0.007-0.088-0.003,0.133-0.002,0.113v0.01l0.002,0.021l0.004,0.039c0.021,0.212,0.041,0.426,0.062,0.642
			c0.005,0.116,0.031,0.201,0.018,0.342l-0.056,0.448c-0.043,0.296-0.087,0.635-0.182,0.914c-0.328,1.114-1.032,2.175-2.034,2.977
			c-1.014,0.805-2.34,1.168-3.652,1.25l-0.205-0.012l-0.011-0.001l-0.021-0.002l-0.044-0.007l-0.088-0.011l-0.176-0.024
			l-0.351-0.049c-0.18-0.007-0.58-0.112-0.939-0.227c-0.775-0.193-1.284-0.562-1.811-0.924c-1.001-0.801-1.699-1.865-2.03-2.974
			c-0.277-1.118-0.298-2.237,0.008-3.152c0.081-0.36,0.323-0.872,0.529-1.282c0.2-0.419,0.495-0.715,0.718-1.037
			c0.292-0.272,0.564-0.526,0.822-0.754c0.294-0.192,0.555-0.388,0.821-0.533c0.281-0.125,0.548-0.218,0.776-0.336
			c0.242-0.091,0.477-0.137,0.681-0.199c0.405-0.144,0.752-0.095,0.975-0.13c0.227-0.014,0.347-0.022,0.347-0.022L72.753,29.089z
			 M72.742,29.303c0,0-0.115,0.012-0.33,0.036c-0.211,0.044-0.541,0.007-0.919,0.163c-0.19,0.066-0.41,0.118-0.632,0.213
			c-0.213,0.117-0.442,0.243-0.688,0.38c-0.229,0.159-0.448,0.367-0.692,0.563c-0.215,0.227-0.415,0.494-0.63,0.76
			c-0.341,0.607-0.667,1.254-0.72,2.071c-0.13,0.786,0.063,1.62,0.368,2.409c0.361,0.779,0.957,1.457,1.686,1.972
			c0.767,0.479,1.624,0.718,2.558,0.755c0.905-0.034,1.796-0.275,2.557-0.755c0.729-0.516,1.323-1.193,1.686-1.972
			c0.094-0.19,0.133-0.396,0.205-0.59c0.067-0.193,0.131-0.388,0.139-0.607c0.022-0.212,0.045-0.422,0.068-0.629
			c0.007-0.173-0.031-0.391-0.045-0.581c-0.046-0.791-0.381-1.479-0.719-2.073c-0.217-0.266-0.414-0.534-0.631-0.76
			c-0.243-0.196-0.461-0.404-0.689-0.563c-0.247-0.136-0.478-0.263-0.689-0.38c-0.22-0.095-0.437-0.145-0.624-0.212
			c-0.368-0.154-0.719-0.121-0.931-0.164c-0.22-0.024-0.337-0.036-0.337-0.036L72.742,29.303z"/>
		<path fill="#231F20" d="M101.848,113.835c0,0-0.11-0.131-0.317-0.38c-0.184-0.264-0.565-0.57-0.824-1.122
			c-0.143-0.265-0.332-0.549-0.481-0.882c-0.122-0.348-0.255-0.724-0.396-1.125c-0.096-0.413-0.148-0.866-0.237-1.349
			c-0.023-0.479-0.006-0.996,0-1.542c0.178-1.057,0.461-2.269,1.201-3.353l0.271-0.415l0.141-0.21l0.072-0.106l0.138-0.138
			c0.213-0.221,0.428-0.442,0.645-0.667c0.116-0.112,0.199-0.229,0.347-0.338l0.47-0.325c0.32-0.206,0.654-0.46,1.003-0.615
			c1.362-0.652,2.978-0.934,4.614-0.728c1.634,0.259,3.178,1.08,4.419,2.23l0.15,0.168l0.039,0.051l0.081,0.102l0.16,0.201
			l0.321,0.403c0.208,0.214,0.449,0.645,0.656,1.059c0.488,0.83,0.637,1.633,0.826,2.432c0.209,1.638-0.069,3.256-0.725,4.619
			c-0.723,1.316-1.674,2.44-2.811,3.085c-0.448,0.341-1.118,0.588-1.687,0.813c-0.571,0.235-1.151,0.266-1.674,0.391
			c-0.548,0.007-1.064,0.022-1.545-0.001c-0.482-0.088-0.936-0.144-1.349-0.238c-0.401-0.142-0.777-0.273-1.124-0.397
			c-0.333-0.149-0.616-0.338-0.881-0.48c-0.55-0.259-0.861-0.642-1.124-0.825C101.98,113.945,101.848,113.835,101.848,113.835z
			 M101.848,113.835c0,0,0.136,0.108,0.387,0.31c0.127,0.1,0.281,0.223,0.464,0.369c0.172,0.162,0.403,0.295,0.681,0.415
			c0.274,0.125,0.563,0.29,0.898,0.416c0.349,0.082,0.727,0.175,1.13,0.271c0.405,0.055,0.852,0.033,1.304,0.052
			c0.455-0.04,0.927-0.161,1.402-0.257c0.446-0.212,0.959-0.34,1.372-0.627c0.409-0.302,0.81-0.509,1.223-1
			c0.811-0.732,1.255-1.787,1.575-2.802c0.257-1.067,0.18-2.171-0.054-3.209c-0.205-0.495-0.351-1.04-0.604-1.382
			c-0.11-0.191-0.161-0.391-0.436-0.677l-0.33-0.397l-0.166-0.196l-0.083-0.1l-0.041-0.049l-0.021-0.025l-0.009-0.014
			c0.044,0.05-0.115-0.128,0.098,0.108c-0.788-0.722-1.698-1.273-2.729-1.597c-1.038-0.238-2.146-0.313-3.214-0.055
			c-0.259,0.059-0.463,0.164-0.712,0.234l-0.368,0.115c-0.125,0.042-0.264,0.157-0.393,0.232c-0.264,0.167-0.524,0.334-0.782,0.499
			l-0.048,0.03l-0.024,0.015l-0.013,0.007c0.115-0.104,0.026-0.022,0.051-0.044l-0.071,0.068l-0.146,0.139l-0.293,0.275
			c-0.433,0.342-0.695,0.8-1,1.225c-0.294,0.434-0.416,0.932-0.63,1.382c-0.097,0.479-0.216,0.95-0.255,1.403
			c0.018,0.454-0.002,0.898,0.053,1.307c0.099,0.401,0.189,0.778,0.274,1.127c0.124,0.336,0.291,0.622,0.414,0.897
			c0.119,0.277,0.254,0.509,0.416,0.682c0.146,0.182,0.27,0.339,0.371,0.465C101.739,113.699,101.848,113.835,101.848,113.835z"/>
		<path fill="#231F20" d="M35.621,101.601c0,0-0.213,0.215-0.601,0.562c-0.181,0.18-0.464,0.357-0.678,0.626
			c-0.215,0.269-0.444,0.562-0.702,0.846c-0.184,0.243-0.549,0.75-0.712,1.083c-0.106,0.178-0.206,0.376-0.294,0.597
			c-0.097,0.213-0.196,0.425-0.27,0.653c-0.182,0.44-0.274,0.926-0.37,1.408c-0.086,0.484-0.122,0.984-0.125,1.484
			c0.012,0.499,0.052,1,0.146,1.487c0.101,0.484,0.195,0.972,0.379,1.415c0.072,0.231,0.178,0.441,0.271,0.658
			c0.085,0.219,0.188,0.425,0.302,0.62c0.103,0.202,0.218,0.39,0.339,0.567l0.168,0.274c0.011,0.025,0.094,0.131,0.045,0.092
			l0.109,0.125c0.293,0.308,0.537,0.689,0.769,0.877c0.242,0.211,0.426,0.451,0.63,0.606c0.381,0.338,0.617,0.531,0.617,0.531
			s-0.3-0.023-0.815-0.156c-0.261-0.05-0.569-0.183-0.933-0.332c-0.396-0.143-0.69-0.366-1.076-0.597
			c-0.447-0.326-0.796-0.626-1.157-1.06c-0.366-0.406-0.719-0.879-0.987-1.423c-0.289-0.53-0.537-1.117-0.69-1.74
			c-0.172-0.62-0.236-1.277-0.26-1.932c0.015-0.656,0.073-1.313,0.239-1.938c0.152-0.628,0.396-1.22,0.686-1.753
			c0.138-0.271,0.283-0.532,0.467-0.762c0.162-0.237,0.344-0.464,0.546-0.677c0.406-0.479,0.685-0.672,1.14-1.008
			c0.412-0.267,0.797-0.478,1.127-0.654c0.324-0.188,0.642-0.21,0.888-0.296C35.324,101.658,35.621,101.601,35.621,101.601z"/>
		<path fill="#231F20" d="M40.966,116.394c0,0,0.274-0.156,0.691-0.463c0.211-0.145,0.455-0.347,0.724-0.569
			c0.272-0.219,0.543-0.505,0.832-0.806c0.143-0.153,0.284-0.315,0.419-0.493c0.132-0.184,0.269-0.375,0.409-0.571
			c0.292-0.413,0.468-0.773,0.685-1.245c0.213-0.444,0.367-0.929,0.489-1.424c0.096-0.501,0.186-1.008,0.196-1.524
			c0.031-0.513-0.016-1.03-0.086-1.532c-0.072-0.503-0.208-0.986-0.351-1.455c-0.162-0.461-0.354-0.897-0.573-1.297
			c-0.125-0.189-0.225-0.39-0.335-0.579c-0.125-0.179-0.246-0.352-0.362-0.516c-0.202-0.267-0.493-0.713-0.68-0.909
			c-0.188-0.27-0.414-0.489-0.585-0.69c-0.172-0.205-0.331-0.336-0.427-0.456c-0.103-0.111-0.157-0.17-0.157-0.17
			s0.08,0.005,0.229,0.015c0.149,0.014,0.377,0.023,0.648,0.093c0.273,0.07,0.604,0.155,0.982,0.34
			c0.412,0.212,0.71,0.344,1.138,0.704c0.361,0.33,0.74,0.709,1.084,1.166c0.332,0.463,0.64,0.98,0.915,1.549
			c0.246,0.575,0.456,1.197,0.569,1.851c0.115,0.651,0.173,1.329,0.114,2.003c-0.033,0.674-0.184,1.339-0.379,1.97
			c-0.229,0.624-0.501,1.215-0.835,1.743c-0.326,0.502-0.773,1.027-1.151,1.384c-0.206,0.187-0.338,0.312-0.607,0.519
			c-0.208,0.158-0.419,0.3-0.625,0.426c-0.825,0.509-1.594,0.729-2.128,0.839c-0.27,0.059-0.481,0.071-0.623,0.083
			C41.042,116.388,40.966,116.394,40.966,116.394z"/>
		<path fill="#231F20" d="M79.651,32.108c0,0,0.154-0.184,0.444-0.528c0.279-0.342,0.659-0.873,1.074-1.567
			c0.811-1.386,1.638-3.588,1.474-6.184c-0.104-1.357-0.431-2.619-1.046-3.926c-0.627-1.284-1.608-2.441-2.772-3.401
			c-1.177-0.968-2.65-1.566-4.163-1.892c-0.766-0.127-1.565-0.195-2.333-0.141c-0.226,0.017-0.497,0.02-0.684,0.049l-0.521,0.091
			c-0.341,0.042-0.75,0.187-1.12,0.275c-1.489,0.488-2.887,1.317-3.962,2.452c-0.562,0.546-0.997,1.194-1.426,1.834
			c-0.365,0.675-0.716,1.363-0.908,2.096c-0.24,0.72-0.315,1.467-0.403,2.203c-0.026,0.248-0.031,0.837-0.019,1.157
			c0.03,0.338,0.024,0.664,0.097,1.023c0.22,1.407,0.684,2.722,1.373,3.8l0.262,0.397l0.064,0.099l0.016,0.024
			c-0.014-0.015,0.044,0.05-0.03-0.029l0.011,0.013l0.042,0.05l0.165,0.198c0.22,0.262,0.437,0.532,0.626,0.708
			c0.364,0.407,0.829,0.779,1.257,1.108c0.883,0.64,1.754,1.088,2.5,1.412c0.753,0.292,1.37,0.525,1.803,0.615
			c0.435,0.118,0.667,0.181,0.667,0.181s-0.241,0.01-0.69,0.031c-0.454,0.024-1.124,0.007-1.977-0.117
			c-0.845-0.146-1.893-0.366-3.013-0.893c-0.557-0.273-1.139-0.562-1.75-1.011c-0.333-0.215-0.57-0.434-0.827-0.658l-0.194-0.17
			l-0.049-0.042l-0.012-0.01l-0.051-0.055l-0.023-0.026l-0.098-0.105l-0.396-0.429c-1.057-1.173-1.932-2.721-2.397-4.504
			c-0.136-0.43-0.209-0.931-0.296-1.423c-0.068-0.511-0.103-0.771-0.133-1.377c-0.028-0.974,0.051-1.984,0.287-2.981
			c0.436-2,1.386-3.992,2.866-5.595c1.434-1.646,3.392-2.848,5.497-3.552c0.55-0.137,1.047-0.303,1.648-0.383l0.884-0.124
			c0.282-0.032,0.485-0.027,0.732-0.042c1.122-0.072,2.208,0.082,3.276,0.298c2.126,0.497,4.062,1.559,5.559,2.949
			c1.517,1.379,2.589,3.093,3.201,4.828c0.631,1.716,0.763,3.565,0.612,5.051c-0.137,1.562-0.617,2.928-1.185,4.023
			c-0.554,1.11-1.249,1.936-1.845,2.557c-0.601,0.623-1.153,1.014-1.522,1.277C79.86,31.99,79.651,32.108,79.651,32.108z"/>
		<path fill="#231F20" d="M67.091,39.695c0,0-0.082,0.389-0.237,1.12c-0.162,0.729-0.362,1.809-0.692,3.158
			c-0.629,2.709-1.565,6.566-2.836,11.142c-0.623,2.293-1.306,4.774-2.097,7.374c-0.771,2.606-1.569,5.361-2.49,8.176
			c-0.917,2.816-1.781,5.759-2.814,8.692C54.92,82.3,53.899,85.29,52.88,88.28c-1.08,2.969-2.159,5.939-3.221,8.86
			c-1.043,2.93-2.204,5.767-3.255,8.537c-1.046,2.771-2.156,5.417-3.183,7.932c-1.013,2.522-2.038,4.883-2.985,7.061
			c-1.877,4.363-3.561,7.958-4.766,10.463c-0.588,1.259-1.108,2.228-1.437,2.896c-0.336,0.667-0.517,1.022-0.517,1.022l-0.303-0.107
			c0,0,8.317-23.865,16.635-47.73C58.319,63.4,66.788,39.589,66.788,39.589L67.091,39.695z"/>
		<path fill="#231F20" d="M63.011,25.178c0,0-1.709,6.496-4.673,16.1c-0.736,2.403-1.534,5.005-2.421,7.743
			c-0.879,2.741-1.788,5.638-2.79,8.612c-0.999,2.976-1.988,6.066-3.07,9.179c-1.073,3.116-2.163,6.282-3.253,9.447
			c-1.125,3.154-2.248,6.307-3.355,9.411c-1.09,3.109-2.251,6.141-3.329,9.088c-1.076,2.949-2.167,5.78-3.195,8.469
			c-1.018,2.692-2.013,5.226-2.942,7.561c-0.462,1.169-0.906,2.288-1.328,3.352c-0.107,0.266-0.214,0.527-0.319,0.786
			c-0.074,0.153-0.168,0.496-0.249,0.729c-0.182,0.524-0.291,0.994-0.427,1.471c-0.465,1.926-0.606,3.664-0.438,5.077
			c0.172,1.411,0.606,2.476,1.036,3.119c0.209,0.324,0.4,0.56,0.541,0.703c0.14,0.146,0.212,0.224,0.212,0.224
			s-0.083-0.066-0.243-0.191c-0.164-0.122-0.389-0.328-0.651-0.628c-0.528-0.595-1.18-1.629-1.534-3.111
			c-0.362-1.473-0.45-3.344-0.147-5.428c0.09-0.516,0.17-1.084,0.293-1.6c0.07-0.288,0.089-0.486,0.202-0.857
			c0.079-0.268,0.159-0.538,0.24-0.813c0.335-1.096,0.688-2.247,1.056-3.448c0.733-2.403,1.538-5.005,2.424-7.741
			c0.874-2.743,1.792-5.636,2.792-8.611c0.999-2.975,1.985-6.067,3.075-9.177c1.074-3.115,2.165-6.28,3.255-9.445
			c1.125-3.154,2.251-6.308,3.358-9.411c1.099-3.107,2.255-6.139,3.334-9.086c1.074-2.949,2.173-5.779,3.198-8.469
			c1.016-2.691,2.02-5.223,2.944-7.56C60.289,31.319,63.011,25.178,63.011,25.178z"/>
		<path fill="#231F20" d="M99.347,99.256c0,0-1.611-4.018-4.03-10.046c-2.43-6.023-5.534-14.101-8.683-22.163
			c-0.797-2.012-1.595-4.024-2.38-6.004c-0.803-1.975-1.569-3.926-2.264-5.83c-0.682-1.911-1.314-3.766-1.857-5.546
			c-0.563-1.773-1.068-3.458-1.51-5.023c-1.807-6.246-2.582-10.562-2.584-10.562l0.304-0.109c-0.001,0,2.136,3.831,4.7,9.805
			c0.649,1.491,1.329,3.115,2.018,4.843c0.708,1.72,1.396,3.557,2.081,5.465c0.67,1.914,1.314,3.909,1.946,5.943
			c0.649,2.03,1.308,4.092,1.968,6.152c2.677,8.231,5.399,16.446,7.339,22.645c1.954,6.192,3.255,10.321,3.255,10.321L99.347,99.256
			z"/>
		<path fill="#231F20" d="M112.016,135.034c0,0-0.682-1.479-1.706-3.696c-1.032-2.214-2.319-5.202-3.637-8.179
			c-0.646-1.492-1.383-2.949-1.947-4.366c-0.54-1.423-0.945-2.791-1.245-3.982c-0.618-2.373-0.75-4.061-0.751-4.061l0.201-0.078
			c-0.001,0,1.029,1.347,2.15,3.526c0.571,1.089,1.183,2.378,1.729,3.798c0.525,1.431,0.95,3.009,1.463,4.551
			c1.006,3.096,2.04,6.18,2.748,8.519c0.718,2.336,1.195,3.893,1.195,3.893L112.016,135.034z"/>
		<path fill="#231F20" d="M80.332,22.679c0,0,2.347,4.895,5.467,12.381c0.784,1.871,1.634,3.896,2.49,6.056
			c0.865,2.155,1.793,4.421,2.691,6.789c0.903,2.366,1.879,4.795,2.793,7.292c0.923,2.493,1.861,5.025,2.8,7.557
			c0.903,2.546,1.808,5.091,2.696,7.596c0.906,2.501,1.708,4.993,2.534,7.386c1.62,4.8,3.068,9.302,4.255,13.181
			c2.403,7.746,3.735,13.01,3.735,13.01s-2.35-4.894-5.47-12.381c-1.577-3.737-3.352-8.122-5.182-12.845
			c-0.902-2.364-1.883-4.792-2.79-7.293c-0.924-2.493-1.861-5.025-2.8-7.558c-0.903-2.546-1.807-5.09-2.695-7.596
			c-0.9-2.502-1.706-4.992-2.53-7.386c-0.826-2.394-1.568-4.729-2.285-6.938c-0.728-2.205-1.373-4.305-1.97-6.244
			C81.669,27.94,80.332,22.679,80.332,22.679z"/>
		<path fill="#231F20" d="M114.264,112.267c0,0,0.295,0.919,0.738,2.298c0.111,0.345,0.23,0.717,0.357,1.113
			c0.068,0.221,0.141,0.449,0.213,0.683c0.052,0.211,0.104,0.43,0.156,0.648c0.1,0.516,0.191,1.052,0.224,1.558
			c0.04,0.516,0.054,1.038,0.022,1.553c-0.092,2.07-0.732,4.037-1.532,5.309c-0.4,0.634-0.808,1.104-1.131,1.388
			c-0.15,0.151-0.301,0.236-0.387,0.31c-0.091,0.068-0.14,0.104-0.14,0.104s0.041-0.047,0.114-0.131
			c0.07-0.092,0.194-0.199,0.307-0.377c0.247-0.336,0.531-0.861,0.768-1.519c0.238-0.66,0.402-1.466,0.468-2.325
			c0.03-0.432,0.042-0.876,0.017-1.326c-0.019-0.447-0.062-0.899-0.146-1.342c-0.068-0.445-0.179-0.878-0.304-1.295
			c-0.122-0.428-0.277-0.791-0.424-1.144c-0.099-0.204-0.195-0.403-0.289-0.601l-0.036-0.074l-0.018-0.036
			c-0.007-0.019,0.053,0.135,0.026,0.067l-0.003-0.005l-0.004-0.008l-0.011-0.019l-0.076-0.14l-0.152-0.277
			c-0.197-0.364-0.386-0.709-0.56-1.027c-0.691-1.271-1.154-2.119-1.154-2.119L114.264,112.267z"/>
		<rect x="38.189" y="59.73" fill="#231F20" width="12.554" height="3.214"/>
		<path fill="#231F20" d="M89.617,61.499c0,0-2.143,0.192-5.357,0.412c-1.607,0.116-3.482,0.255-5.49,0.372
			c-2.01,0.135-4.152,0.23-6.295,0.341c-1.071,0.073-2.143,0.147-3.197,0.22c-1.055,0.09-2.093,0.155-3.098,0.169
			c-1.004-0.003-1.975-0.031-2.896-0.12c-0.921-0.067-1.792-0.158-2.595-0.269c-3.215-0.403-5.357-1.125-5.357-1.125v-0.321
			c0,0,2.143-0.722,5.357-1.125c0.803-0.111,1.674-0.202,2.595-0.268c0.92-0.088,1.892-0.117,2.896-0.121
			c1.005,0.014,2.043,0.08,3.098,0.169c1.055,0.073,2.126,0.146,3.197,0.22c2.143,0.111,4.285,0.207,6.295,0.341
			c2.008,0.116,3.883,0.256,5.49,0.373c3.215,0.22,5.357,0.412,5.357,0.412V61.499z"/>
		<path fill="#231F20" d="M38.189,67.409c0,0-0.139-0.19-0.318-0.521c-0.182-0.332-0.402-0.807-0.608-1.376
			c-0.41-1.138-0.678-2.656-0.68-4.173c-0.002-1.518,0.263-3.037,0.676-4.174c0.206-0.569,0.427-1.043,0.611-1.376
			c0.18-0.332,0.32-0.522,0.32-0.522s0.141,0.19,0.32,0.522c0.184,0.333,0.406,0.807,0.612,1.376
			c0.412,1.137,0.677,2.656,0.675,4.174c-0.001,1.517-0.27,3.036-0.68,4.173c-0.207,0.569-0.427,1.044-0.609,1.376
			C38.329,67.219,38.189,67.409,38.189,67.409z"/>
		<path fill="#231F20" d="M94.673,61.178c0,0,1.039-0.192,2.596-0.412c0.777-0.116,1.686-0.256,2.66-0.373
			c0.973-0.135,2.01-0.229,3.05-0.341c1.037-0.093,2.074-0.367,3.049-0.388c0.973,0,1.881,0.171,2.658,0.383
			c0.779,0.226,1.428,0.473,1.883,0.713c0.453,0.229,0.713,0.417,0.713,0.417V61.5c0,0-0.26,0.188-0.713,0.416
			c-0.455,0.241-1.104,0.488-1.883,0.714c-0.777,0.211-1.686,0.383-2.658,0.383c-0.975-0.021-2.012-0.294-3.049-0.388
			c-1.04-0.112-2.077-0.208-3.05-0.342c-0.975-0.116-1.883-0.255-2.66-0.372c-1.557-0.22-2.596-0.412-2.596-0.412V61.178z"/>
		<path fill="#231F20" d="M72.433,12.322c0,0-0.223-0.771-0.492-1.926c-0.13-0.577-0.284-1.251-0.423-1.973
			c-0.157-0.722-0.268-1.492-0.398-2.263c-0.109-0.77-0.427-1.54-0.454-2.262c-0.009-0.722,0.207-1.396,0.448-1.974
			c0.263-0.577,0.553-1.059,0.833-1.396C72.213,0.192,72.433,0,72.433,0h0.374c0,0,0.221,0.192,0.486,0.529
			c0.279,0.337,0.568,0.818,0.832,1.396c0.24,0.578,0.458,1.252,0.447,1.974c-0.024,0.722-0.343,1.492-0.452,2.262
			c-0.13,0.771-0.241,1.541-0.399,2.263c-0.137,0.722-0.293,1.396-0.422,1.973c-0.269,1.155-0.492,1.926-0.492,1.926H72.433z"/>
		<path fill="#231F20" d="M108.959,55.267c0,0,0.139,0.19,0.318,0.522c0.183,0.333,0.401,0.807,0.607,1.376
			c0.41,1.137,0.678,2.656,0.682,4.174c0.001,1.517-0.264,3.036-0.676,4.173c-0.207,0.569-0.429,1.044-0.611,1.376
			c-0.182,0.332-0.32,0.521-0.32,0.521s-0.141-0.19-0.32-0.521c-0.183-0.332-0.405-0.807-0.611-1.376
			c-0.412-1.138-0.677-2.656-0.676-4.173c0.002-1.518,0.27-3.037,0.68-4.174c0.206-0.569,0.427-1.043,0.609-1.376
			C108.819,55.457,108.959,55.267,108.959,55.267z"/>
	</g>
</g>
</svg>
