<?xml version="1.0" encoding="utf-8"?>
<!-- Generator: Adobe Illustrator 16.0.0, SVG Export Plug-In . SVG Version: 6.00 Build 0)  -->
<!DOCTYPE svg PUBLIC "-//W3C//DTD SVG 1.1//EN" "http://www.w3.org/Graphics/SVG/1.1/DTD/svg11.dtd">
<svg version="1.1" id="Layer_1" xmlns="http://www.w3.org/2000/svg" xmlns:xlink="http://www.w3.org/1999/xlink" x="0px" y="0px"
	 width="90px" height="70px" viewBox="0 0 90 70" enable-background="new 0 0 90 70" xml:space="preserve">
<g>
	<path fill="#1A1918" d="M86.09,27.587l3.762,0.021c0,0-6.994,9.478-7.565,10.25c-0.186,0.25-0.467,0.52-0.61,0.854
		c-0.36,0.842-0.732,2.685-0.732,2.685l-3.441,0.019c0,0,0.535-1.923,0.514-2.946c-0.02-0.895-0.477-1.788-0.732-2.686
		c-0.259-0.907-0.61-2.684-0.61-2.684h3.539l0.488,1.952L86.09,27.587"/>
	<path fill="#1A1918" d="M78.966,29.586c0.694,0.418,1.12,2.728,1.12,2.728s-3.633,0.054-5.609,0.054h-1.709l-2.074,9.029h-3.172
		c0,0,1.975-9.813,2.439-11.592c0.151-0.576,1.036-0.478,2.527-0.478h2.383C76.41,29.327,78.21,29.131,78.966,29.586 M64.195,33.984
		c0,0,0.099-0.58-0.335-1.25c-0.371-0.572-0.714-0.705-1.69-0.736c-2.757-0.087-2.702,1.956-2.702,1.956L64.195,33.984z
		 M67.186,31.645c0.403,1.458-0.366,4.882-0.366,4.882s-4.021-0.067-6.224,0c-0.685,0.021-1.505-0.075-1.708,0.243
		c-0.287,0.446,0.104,1.134,0.436,1.424c0.383,0.335,1.126,0.373,1.396,0.406c1.787,0.228,5.527,0.06,5.527,0.06l-0.647,2.869
		c0,0-5.287,0.266-7.933-0.365c-0.521-0.125-1.011-0.376-1.341-0.732c-0.091-0.098-0.169-0.23-0.254-0.346
		c-0.068-0.092-0.269-0.393-0.356-0.63c-0.604-1.61,0.071-4.694,0.731-6.346c0.077-0.191,0.174-0.434,0.275-0.641
		c0.127-0.257,0.233-0.548,0.335-0.702c0.069-0.106,0.152-0.175,0.223-0.274c0.083-0.118,0.178-0.233,0.266-0.335
		c0.244-0.283,0.521-0.483,0.854-0.732c1.103-0.825,3.097-1.466,5.492-1.221c0.902,0.092,2.263,0.415,2.929,1.342
		C66.998,30.794,67.085,31.286,67.186,31.645L67.186,31.645z M52.633,29.316l3.077-0.018c0,0-1.715,8.133-2.588,12.098h-3.539
		c-2.475,0-4.677,0.308-5.613-1.465c-0.91-1.719-0.042-4.546,0.366-6.467c0.288-1.359,0.895-4.138,0.895-4.138l3.187-0.029
		c0,0-0.9,4.326-1.275,6.485c-0.134,0.774-0.411,1.504-0.121,2.075c0.274,0.545,0.659,0.584,1.83,0.61c0.37,0.009,1.586,0,1.586,0
		L52.633,29.316 M38.234,35.174c0.322-1.144,0.792-2.386,0.732-3.417c-0.064-1.103-0.99-2.107-1.586-2.318
		c-1.799-0.635-3.481,0.252-4.149,0.977c-0.865,0.937-1.159,2.032-1.465,3.539c-0.228,1.119-0.415,2.3,0,3.172
		c0.734,1.543,3.025,1.207,5.491,1.221C37.624,37.365,37.926,36.264,38.234,35.174L38.234,35.174z M42.505,30.659
		c0.351,2.555-0.998,5.375-1.926,7.828c0.946,0.086,1.776-0.012,1.836,0.058c0.063,0.091-0.635,2.928-0.877,2.936
		c-0.751,0.019-3.241,0.04-4.281,0.04c-3.388,0-6.559,0.221-8.175-1.465c-0.657-0.685-1.111-1.858-1.22-2.684
		c-0.184-1.379,0.046-2.898,0.366-4.15c0.289-1.13,0.66-2.197,1.221-3.173c1.423-2.486,3.901-4.33,8.053-3.905
		c0.806,0.083,1.962,0.436,2.685,0.854c0.05,0.029,0.225,0.168,0.264,0.192C41.427,27.812,42.317,29.294,42.505,30.659
		L42.505,30.659z M27.512,29.331c-0.205,0.934-0.411,1.992-0.626,2.915h-3.417c0.265-1.023,0.467-2.039,0.732-2.929
		C25.294,29.316,26.311,29.331,27.512,29.331 M23.347,33.099h3.294c-0.431,2.385-1.284,6.231-1.953,8.908
		c-0.418,1.677-0.698,2.899-1.83,3.783c-0.102,0.079-0.16,0.043-0.244,0.123c-0.208,0.197-1.174,0.43-1.708,0.487
		c-0.869,0.094-1.851,0.012-2.919-0.009c0.28-1.022,0.595-2.249,0.845-3.165c2.603,0.316,2.668-2.145,3.172-4.515
		C22.295,37.344,23.179,33.648,23.347,33.099"/>
	<g>
		<path fill="#21609B" d="M15.659,39.322l-0.071,0.183c-1.203,2.344-3.335,3.781-6.376,3.845c-1.421,0.028-2.776-0.335-3.661-0.732
			c-1.909-0.857-3.516-2.448-4.393-4.148c-1.259-2.437-1.485-5.827,1.131-8.359c0.041,0-0.317,0.549-0.277,0.549L1.94,30.893
			c-1.885,5.903,3.923,10.96,9.57,10.381C12.867,41.136,14.597,40.394,15.659,39.322"/>
		<path fill="#21609B" d="M12.242,36.882c1.42,0.011,2.904-0.653,3.783-1.586c-0.769,1.951-2.995,3.206-5.979,2.806
			c-2.5-0.333-4.88-2.849-5.125-5.368c-0.179-1.834,0.46-2.929,1.513-4.256c-0.366,0.694-0.502,1.23-0.537,1.571
			C5.496,34.016,9.065,36.861,12.242,36.882"/>
		<path fill="#21609B" d="M15.882,31.955c-0.221,0.506-1.492,1.463-2.053,1.583c-2.224,0.474-3.647-0.58-4.394-1.78
			c-0.111-0.179-0.315-0.668-0.353-0.793c-0.29-0.983-0.156-2.471,0.707-3.241c-0.26,0.732-0.298,1.583-0.161,2.135
			c0.083,0.334,0.335,0.918,0.588,1.285c0.46,0.668,0.751,0.831,1.342,1.186c0.266,0.16,0.551,0.288,0.675,0.324
			C12.793,32.817,13.976,33.252,15.882,31.955"/>
	</g>
</g>
</svg>
