<?xml version="1.0" encoding="utf-8"?>
<!-- Generator: Adobe Illustrator 16.0.0, SVG Export Plug-In . SVG Version: 6.00 Build 0)  -->
<!DOCTYPE svg PUBLIC "-//W3C//DTD SVG 1.1//EN" "http://www.w3.org/Graphics/SVG/1.1/DTD/svg11.dtd">
<svg version="1.1" id="Layer_1" xmlns="http://www.w3.org/2000/svg" xmlns:xlink="http://www.w3.org/1999/xlink" x="0px" y="0px"
	 width="90px" height="70px" viewBox="0 0 90 70" enable-background="new 0 0 90 70" xml:space="preserve">
<rect x="24.667" y="21.667" width="51.667" height="46.333"/>
<path fill="#FFD400" d="M9.646,69.657h69.424V0.233H9.646V69.657z M47.616,55.116c0,6.019-4.322,8.986-9.842,8.986
	c-4.924,0-8.386-2.672-9.628-6.02c0,0,5.228-3.151,5.228-3.186c0.641,0.938,1.842,3.416,4.281,3.416
	c2.443,0,3.352-1.471,3.352-3.835v-22.47h6.609V55.116z M62.495,64.067c-7.098,0-10.521-4.742-11.309-6.692
	c-0.041,0,5.258-3.087,5.258-3.087c2.26,3.311,3.912,4.056,6.432,4.056c2.51,0,4.432-1.686,4.432-3.109
	c0-1.427,0.109-2.746-7.82-5.753c-5.373-2.173-6.426-6.422-6.426-9.396c0-2.967,1.842-8.412,9.586-8.412
	c4.961,0,7.816,2.668,9.207,5.109l-5.035,3.374c-1.465-2.322-2.594-2.812-4.324-2.812c-1.734,0-3.008,1.2-3.008,2.895
	c0,1.691,0.607,2.482,7.182,5.299s7.033,6.911,7.033,10.032C73.702,60.27,69.897,64.067,62.495,64.067"/>
</svg>
