<?xml version="1.0" encoding="utf-8"?>
<!-- Generator: Adobe Illustrator 16.0.0, SVG Export Plug-In . SVG Version: 6.00 Build 0)  -->
<!DOCTYPE svg PUBLIC "-//W3C//DTD SVG 1.1//EN" "http://www.w3.org/Graphics/SVG/1.1/DTD/svg11.dtd">
<svg version="1.1" id="Layer_1" xmlns="http://www.w3.org/2000/svg" xmlns:xlink="http://www.w3.org/1999/xlink" x="0px" y="0px"
	 width="239.833px" height="43.167px" viewBox="0 0 239.833 43.167" enable-background="new 0 0 239.833 43.167"
	 xml:space="preserve">
<rect x="7.5" y="5.333" fill="#FFD400" width="230.667" height="36.833"/>
<g>
	<g>
		<path d="M31.229,22.688l-0.436,6.085c-1.184,0.264-2.334,0.466-3.452,0.606c-1.118,0.142-2.247,0.212-3.384,0.212
			c-1.564-0.019-3.015-0.271-4.352-0.758c-1.338-0.486-2.49-1.159-3.459-2.019c-0.969-0.86-1.729-1.89-2.278-3.091
			c-0.55-1.2-0.825-2.528-0.825-3.983c0-1.492,0.257-2.874,0.771-4.147c0.514-1.273,1.245-2.374,2.195-3.302
			c0.951-0.928,2.1-1.653,3.445-2.176s2.847-0.785,4.502-0.785c1.137,0,2.266,0.07,3.384,0.211s2.269,0.343,3.452,0.607l0.436,6.085
			h-0.327c-0.136-0.437-0.351-0.953-0.642-1.548S29.6,13.5,29.149,12.913c-0.45-0.586-0.98-1.116-1.59-1.589
			c-0.609-0.473-1.296-0.805-2.06-0.996c-0.218-0.045-0.419-0.075-0.601-0.089s-0.336-0.021-0.464-0.021
			c-0.8,0-1.496,0.218-2.087,0.655c-0.592,0.437-1.082,1.064-1.474,1.883s-0.681,1.808-0.866,2.967
			c-0.187,1.16-0.279,2.462-0.279,3.909c0,1.455,0.108,2.745,0.326,3.868c0.219,1.123,0.53,2.072,0.936,2.845
			c0.404,0.772,0.898,1.36,1.48,1.76c0.582,0.4,1.236,0.601,1.964,0.601c0.118,0,0.259-0.005,0.423-0.014
			c0.164-0.01,0.35-0.032,0.56-0.068l0.014-0.014c0.782-0.182,1.48-0.51,2.095-0.982c0.613-0.473,1.15-1.002,1.609-1.59
			c0.459-0.586,0.834-1.182,1.125-1.787c0.291-0.604,0.506-1.125,0.642-1.562H31.229z"/>
		<path d="M43.809,15.444V15.28h3.711v0.164l-1.869,2.592L40.275,29.77c-0.313,0.68-3.263,6.459-3.567,7.021
			c-0.237,0.438-0.472,0.84-0.704,1.205c-0.533,0.838-1.028,1.523-1.488,2.061c-0.459,0.537-0.863,0.941-1.214,1.215
			c-0.351,0.271-0.625,0.445-0.825,0.518l-2.088-4.025l0.15-0.299c0.037,0,0.078-0.002,0.123-0.008
			c0.045-0.004,0.096-0.006,0.15-0.006c0.182,0,0.397,0.004,0.647,0.014c0.251,0.008,0.525,0.014,0.825,0.014
			c0.328,0,0.669-0.012,1.023-0.035c0.355-0.021,0.705-0.066,1.051-0.129c0.346-0.064,0.676-0.156,0.989-0.279
			s0.589-0.289,0.825-0.498l3.188-6.332l-5.607-12.224l-1.487-2.538V15.28h9.059v0.164l-1.037,2.551l2.211,5.621l2.496-5.621
			L43.809,15.444z"/>
		<path d="M60.125,20.26H59.88c-0.164-0.2-0.355-0.42-0.573-0.662c-0.218-0.241-0.462-0.468-0.729-0.682
			c-0.269-0.213-0.564-0.391-0.887-0.532c-0.323-0.141-0.676-0.211-1.058-0.211c-0.373,0-0.664,0.066-0.874,0.198
			c-0.209,0.132-0.363,0.261-0.463,0.389v7.79l1.159,2.552v0.163h-8.227v-0.163l1.159-2.524v-8.186l-1.118-1.814v-0.177l6.89-1.46
			l0.137,0.15v2.633c0.145-0.345,0.389-0.691,0.729-1.037s0.724-0.655,1.146-0.928c0.424-0.273,0.862-0.496,1.317-0.668
			c0.454-0.173,0.873-0.259,1.255-0.259c0.219,0,0.432,0.014,0.641,0.041c0.21,0.027,0.419,0.086,0.629,0.177L60.125,20.26z"/>
		<path d="M68.884,14.939l0.137,0.15v11.459l1.159,2.552v0.163h-8.227v-0.163l1.159-2.524v-8.186l-1.118-1.787v-0.205L68.884,14.939
			z M62.895,9.83c0.155-0.359,0.37-0.668,0.647-0.928s0.607-0.461,0.99-0.607c0.381-0.145,0.8-0.218,1.255-0.218
			c0.464,0,0.889,0.075,1.275,0.225c0.387,0.15,0.721,0.355,1.003,0.614c0.281,0.259,0.502,0.568,0.662,0.928
			c0.158,0.359,0.238,0.743,0.238,1.153c0,0.437-0.08,0.834-0.238,1.193c-0.16,0.36-0.381,0.669-0.662,0.928
			c-0.282,0.259-0.616,0.459-1.003,0.601s-0.812,0.211-1.275,0.211c-0.455,0-0.874-0.07-1.255-0.211
			c-0.383-0.141-0.713-0.341-0.99-0.601c-0.277-0.259-0.492-0.568-0.647-0.928c-0.155-0.359-0.231-0.757-0.231-1.193
			C62.663,10.578,62.739,10.189,62.895,9.83z"/>
		<path d="M78.312,8.541l0.163,0.15v17.858l1.159,2.552v0.163h-8.227v-0.163l1.16-2.524V11.992l-1.119-1.814V10L78.312,8.541z"/>
	</g>
</g>
<g>
	<g>
		<path d="M111.861,21.867c1.028,0.877,1.542,1.957,1.542,3.24c0,1-0.225,1.832-0.675,2.496s-1.105,1.193-1.964,1.59
			c-0.859,0.396-1.912,0.673-3.158,0.832s-2.665,0.238-4.257,0.238h-9.031V30.06l1.432-3.315V14.138l-1.432-3.301v-0.205h10.641
			c1.237,0,2.326,0.114,3.268,0.341c0.941,0.228,1.728,0.546,2.36,0.955c0.632,0.409,1.109,0.9,1.433,1.474
			c0.322,0.573,0.484,1.205,0.484,1.896c0,0.519-0.098,1.021-0.293,1.508c-0.196,0.486-0.5,0.937-0.914,1.351
			c-0.414,0.414-0.944,0.784-1.589,1.112c-0.646,0.328-1.419,0.586-2.319,0.778C109.341,20.382,110.833,20.989,111.861,21.867z
			 M106.015,14.036c-0.078-0.496-0.228-0.93-0.45-1.303c-0.223-0.373-0.532-0.668-0.928-0.887c-0.396-0.218-0.912-0.327-1.549-0.327
			h-1.037v8.145h0.6c0.637,0,1.176-0.098,1.617-0.293c0.441-0.196,0.8-0.471,1.078-0.826c0.277-0.354,0.478-0.782,0.6-1.282
			s0.184-1.055,0.184-1.665C106.131,15.052,106.092,14.532,106.015,14.036z M102.052,20.55v8.827h0.614
			c0.755,0,1.392-0.098,1.91-0.293s0.937-0.479,1.255-0.853c0.318-0.373,0.55-0.837,0.695-1.392s0.219-1.191,0.219-1.91
			c0-0.654-0.071-1.25-0.212-1.787c-0.141-0.537-0.366-0.996-0.675-1.378s-0.711-0.68-1.207-0.894
			c-0.496-0.213-1.103-0.321-1.821-0.321H102.052z"/>
		<path d="M121.343,9.541l0.164,0.15v17.858l1.159,2.552v0.163h-8.227v-0.163l1.16-2.524V12.992l-1.119-1.814V11L121.343,9.541z"/>
		<path d="M134.692,16.499c0.979,0.373,1.824,0.887,2.537,1.542c0.715,0.655,1.273,1.428,1.679,2.319
			c0.405,0.892,0.606,1.86,0.606,2.906s-0.201,2.017-0.606,2.912c-0.405,0.896-0.964,1.672-1.679,2.326
			c-0.713,0.655-1.559,1.167-2.537,1.535c-0.978,0.368-2.039,0.553-3.186,0.553c-1.137,0-2.191-0.185-3.165-0.553
			s-1.814-0.88-2.524-1.535c-0.709-0.654-1.266-1.43-1.671-2.326c-0.405-0.896-0.606-1.866-0.606-2.912s0.201-2.015,0.606-2.906
			c0.405-0.891,0.964-1.665,1.679-2.319c0.713-0.655,1.557-1.168,2.53-1.542s2.023-0.56,3.151-0.56
			C132.653,15.939,133.715,16.125,134.692,16.499z M130.048,28.34c0.281,1.11,0.777,1.665,1.486,1.665
			c0.7,0,1.195-0.555,1.487-1.665c0.291-1.109,0.437-2.801,0.437-5.074c0-2.265-0.146-3.954-0.437-5.068
			c-0.292-1.114-0.796-1.671-1.515-1.671c-0.709,0-1.2,0.557-1.473,1.671c-0.273,1.114-0.41,2.803-0.41,5.068
			C129.624,25.539,129.765,27.23,130.048,28.34z"/>
		<path d="M149.706,30.264v-0.163l1.023-2.511v-7.681c0-0.519-0.127-0.932-0.382-1.241s-0.618-0.464-1.091-0.464
			c-0.365,0-0.705,0.063-1.023,0.191s-0.578,0.3-0.778,0.519v8.635l1.023,2.552v0.163h-8.091v-0.163l1.16-2.524v-8.186l-1.119-1.814
			v-0.177l6.891-1.46l0.136,0.15v2.087c0.282-0.291,0.599-0.571,0.948-0.839c0.35-0.268,0.734-0.507,1.152-0.716
			c0.419-0.209,0.867-0.375,1.344-0.498c0.479-0.123,0.98-0.185,1.508-0.185c0.592,0,1.145,0.094,1.658,0.28
			c0.514,0.187,0.961,0.45,1.344,0.792c0.382,0.341,0.682,0.748,0.9,1.221c0.219,0.473,0.327,0.996,0.327,1.569v7.749l1.159,2.552
			v0.163H149.706z"/>
		<path d="M174.222,9.527l0.191,0.15v17.176l1.352,2.21v0.164l-6.426,1.364l-0.683-2.319c-0.228,0.255-0.498,0.519-0.812,0.791
			c-0.314,0.272-0.669,0.523-1.064,0.751c-0.396,0.227-0.834,0.414-1.316,0.559c-0.482,0.146-1.006,0.219-1.569,0.219
			c-0.8,0-1.523-0.164-2.169-0.491c-0.646-0.327-1.196-0.786-1.65-1.378c-0.455-0.592-0.808-1.294-1.058-2.107
			c-0.251-0.814-0.376-1.713-0.376-2.695c0-1.164,0.183-2.235,0.547-3.212c0.363-0.978,0.884-1.819,1.562-2.524
			c0.677-0.705,1.496-1.255,2.456-1.651c0.959-0.396,2.035-0.594,3.227-0.594c0.772,0,1.464,0.101,2.073,0.3v-3.247l-1.118-1.828
			v-0.177L174.222,9.527z M165.375,18.108c-0.433,0.964-0.647,2.447-0.647,4.448c0,3.657,0.818,5.485,2.455,5.485
			c0.219,0,0.447-0.041,0.689-0.123c0.24-0.082,0.451-0.2,0.634-0.355v-8.895c-0.055-0.637-0.173-1.13-0.354-1.48
			s-0.478-0.525-0.887-0.525C166.437,16.662,165.807,17.145,165.375,18.108z"/>
		<path d="M190.28,26.799c-0.355,0.592-0.748,1.121-1.18,1.59c-0.433,0.469-0.92,0.865-1.461,1.193s-1.146,0.578-1.814,0.75
			c-0.668,0.173-1.421,0.26-2.258,0.26c-1.1,0-2.092-0.178-2.974-0.532s-1.63-0.851-2.244-1.487s-1.087-1.392-1.419-2.265
			s-0.498-1.828-0.498-2.865c0-1.101,0.184-2.11,0.553-3.029c0.368-0.918,0.887-1.71,1.555-2.374
			c0.669-0.664,1.472-1.18,2.408-1.548c0.938-0.368,1.979-0.553,3.125-0.553c1.055,0,1.991,0.171,2.811,0.512
			c0.818,0.341,1.512,0.81,2.08,1.405s1,1.289,1.296,2.081s0.443,1.637,0.443,2.538h-8.322v0.055
			c0.046,0.837,0.183,1.569,0.409,2.196c0.228,0.628,0.532,1.153,0.914,1.576c0.383,0.423,0.832,0.739,1.351,0.948
			c0.519,0.21,1.092,0.313,1.72,0.313c0.399,0,0.768-0.031,1.104-0.096c0.337-0.063,0.642-0.143,0.914-0.238
			s0.514-0.199,0.724-0.313c0.209-0.114,0.391-0.216,0.545-0.308L190.28,26.799z M185.001,21.724c0-0.955-0.02-1.755-0.055-2.401
			c-0.037-0.646-0.101-1.167-0.191-1.562c-0.092-0.396-0.217-0.678-0.375-0.846c-0.16-0.168-0.361-0.252-0.607-0.252
			c-0.273,0-0.498,0.121-0.676,0.362c-0.177,0.241-0.32,0.589-0.43,1.043c-0.109,0.455-0.184,1.014-0.225,1.678
			s-0.062,1.415-0.062,2.251L185.001,21.724z"/>
		<path d="M205.273,26.854l1.351,2.21v0.164l-6.426,1.364l-0.641-2.17c-0.547,0.646-1.186,1.17-1.918,1.569
			c-0.731,0.4-1.507,0.601-2.326,0.601c-0.509,0-0.984-0.068-1.425-0.205c-0.441-0.137-0.825-0.334-1.153-0.594
			c-0.327-0.259-0.584-0.574-0.771-0.947s-0.28-0.801-0.28-1.283c0-0.754,0.205-1.428,0.615-2.019
			c0.408-0.591,0.966-1.101,1.67-1.528c0.705-0.428,1.521-0.777,2.449-1.05s1.91-0.468,2.947-0.587v-1.882
			c0-1.528-1.051-2.292-3.151-2.292c-0.556,0-1.087,0.082-1.597,0.246c-0.51,0.164-1.082,0.423-1.719,0.777l-0.219-0.259
			c0.41-0.445,0.871-0.853,1.385-1.221c0.514-0.369,1.074-0.685,1.679-0.948s1.253-0.468,1.944-0.614
			c0.69-0.145,1.418-0.218,2.183-0.218c1.091,0,1.987,0.116,2.688,0.348s1.253,0.564,1.657,0.996
			c0.404,0.432,0.683,0.955,0.832,1.569c0.15,0.614,0.226,1.308,0.226,2.081V26.854z M197.231,26.765
			c0.059,0.231,0.152,0.433,0.279,0.601s0.291,0.303,0.491,0.402s0.44,0.15,0.724,0.15c0.127,0,0.24-0.012,0.34-0.035
			c0.101-0.021,0.201-0.047,0.301-0.074v-4.843c-0.773,0.236-1.337,0.63-1.691,1.18c-0.355,0.55-0.533,1.175-0.533,1.876
			C197.142,26.285,197.172,26.533,197.231,26.765z"/>
		<path d="M223.909,15.939l0.137,0.15v10.778l1.351,2.196v0.164l-6.453,1.364l-0.683-2.456c-0.227,0.228-0.529,0.482-0.906,0.765
			c-0.378,0.281-0.805,0.547-1.283,0.797c-0.477,0.251-0.988,0.463-1.534,0.635c-0.546,0.173-1.092,0.26-1.638,0.26
			c-0.482,0-0.957-0.078-1.426-0.232s-0.889-0.396-1.262-0.723c-0.373-0.328-0.676-0.75-0.907-1.27
			c-0.231-0.518-0.348-1.141-0.348-1.869v-7.107l-1.118-1.787v-0.205l6.889-1.46l0.137,0.15v9.073c0,0.309,0.002,0.632,0.007,0.969
			c0.005,0.336,0.046,0.646,0.123,0.928c0.077,0.281,0.206,0.512,0.389,0.688c0.182,0.177,0.454,0.267,0.818,0.267
			c0.155,0,0.323-0.016,0.505-0.049c0.182-0.031,0.363-0.079,0.546-0.143c0.182-0.063,0.353-0.141,0.512-0.232
			c0.159-0.09,0.284-0.195,0.375-0.313v-7.886l-1.118-1.787v-0.205L223.909,15.939z"/>
	</g>
</g>
<rect x="2.376" y="18.103" transform="matrix(0.7073 0.707 -0.707 0.7073 15.0832 2.9614)" width="3.18" height="3.181"/>
<rect x="84.727" y="18.054" transform="matrix(0.7074 0.7068 -0.7068 0.7074 39.8395 -55.5501)" width="4.58" height="4.584"/>
<rect x="232.493" y="18.103" transform="matrix(0.7073 0.707 -0.707 0.7073 82.4477 -159.7207)" width="3.18" height="3.181"/>
<polyline fill="none" stroke="#000000" stroke-width="0.5" stroke-miterlimit="10" points="234.666,14.75 234.666,1.75 4,1.75 
	4,14.75 "/>
<polyline fill="none" stroke="#000000" stroke-width="0.5" stroke-miterlimit="10" points="39.833,37.75 234.666,37.75 
	234.666,24.75 "/>
<polyline fill="none" stroke="#000000" stroke-width="0.5" stroke-miterlimit="10" points="4,24.75 4,37.75 27.833,37.75 "/>
</svg>
