<?xml version="1.0" encoding="utf-8"?>
<!-- Generator: Adobe Illustrator 16.0.0, SVG Export Plug-In . SVG Version: 6.00 Build 0)  -->
<!DOCTYPE svg PUBLIC "-//W3C//DTD SVG 1.1//EN" "http://www.w3.org/Graphics/SVG/1.1/DTD/svg11.dtd">
<svg version="1.1" id="Layer_1" xmlns="http://www.w3.org/2000/svg" xmlns:xlink="http://www.w3.org/1999/xlink" x="0px" y="0px"
	 width="393.334px" height="393.334px" viewBox="0 0 393.334 393.334" enable-background="new 0 0 393.334 393.334"
	 xml:space="preserve">
<g id="Bg">
	<rect x="0" fill="#F9D619" width="393.334" height="393.334"/>
</g>
<g id="Map">
	<path fill="#FFFFFF" d="M117.616,118.063c-10.5,3-32,8-49.5-10.5c-8.334,2.132-48.5,11-48.5,11l2.5,26.5
		c53.548,6.896,81.753,52.631,97.164,93.943c0,0,10.167,24.558,11.667,37.058c-1.5-1.75-7.75-13-15.331-22.5
		c2.5,38-8.5,83-21.5,96.5c22,17.5,53,26.5,69.5,28.5v-9c15,2,28,7,38,18.5c13.5,4,35.831,3.774,43.331,0.774
		c-13.5-50.926,55.668-52.774,77.168-26.274c1.5,1.5,28,2.5,28,2.5c7-22.5,30.5-40.5,41-47.5
		c-25.333-10.666-32.834-36.666-23.167-55.332c0-0.334-15.167-46.502-15.167-46.502l-17.832,7.168
		c2.333-26,25.666-47.001,38.666-54.333c-6.666-33,4.667-54.667,12-67.667c-55.333-14-109.666-35.667-155.999-83.333
		c-10.666,2.667-27,7-27,7c2,20.5-5.5,41-42,51.5c-2,16-29.5,29-38.5-2l-18,0.5C109.616,86.063,118.116,104.563,117.616,118.063"/>
	<g>
		<g>
			<path d="M377.948,89.23c-7.396-1.205-14.75-2.723-22.044-4.474c-3.656-0.854-7.285-1.814-10.903-2.819
				c-3.617-1.012-7.241-2.023-10.815-3.193c-3.583-1.144-7.153-2.335-10.703-3.595c-1.777-0.624-3.554-1.252-5.308-1.941
				c-1.764-0.666-3.521-1.345-5.269-2.056c-1.756-0.688-3.496-1.413-5.228-2.165c-1.739-0.73-3.467-1.488-5.188-2.268
				c-1.729-0.755-3.436-1.564-5.138-2.382c-1.71-0.801-3.403-1.638-5.091-2.488c-1.699-0.828-3.369-1.711-5.036-2.603
				c-1.676-0.874-3.329-1.79-4.979-2.712c-1.66-0.905-3.295-1.854-4.92-2.822c-1.637-0.948-3.245-1.941-4.854-2.938
				c-1.615-0.983-3.21-1.999-4.789-3.042c-1.59-1.023-3.152-2.089-4.71-3.163c-1.566-1.058-3.113-2.147-4.64-3.263
				c-1.539-1.099-3.054-2.231-4.554-3.383c-1.512-1.135-3.014-2.284-4.476-3.482c-1.479-1.177-2.945-2.368-4.383-3.596
				c-1.45-1.21-2.897-2.424-4.29-3.702c-1.405-1.262-2.824-2.506-4.19-3.81c-2.767-2.567-5.483-5.185-8.119-7.882l-3.891-4.101
				l-3.804-4.175l1.762,0.501c-2.275,0.445-4.563,0.824-6.844,1.235c-2.28,0.416-4.563,0.769-6.851,1.126
				c-4.571,0.699-9.15,1.339-13.752,1.857l6.648-1.983c2.222-0.627,4.436-1.282,6.647-1.937c2.214-0.65,4.444-1.236,6.644-1.914
				c2.207-0.65,4.404-1.333,6.615-1.949l0.936-0.26l0.826,0.762l4.097,3.772l4.167,3.686c2.801,2.428,5.589,4.863,8.465,7.191
				c2.858,2.349,5.781,4.615,8.714,6.861c1.457,1.136,2.94,2.235,4.436,3.319l2.229,1.644l2.258,1.602
				c1.498,1.076,3.011,2.133,4.546,3.157c1.521,1.042,3.041,2.088,4.593,3.086c1.539,1.018,3.081,2.027,4.652,2.995
				c1.562,0.982,3.11,1.981,4.695,2.924c1.574,0.962,3.149,1.921,4.752,2.835c1.597,0.926,3.184,1.865,4.798,2.759
				c3.204,1.829,6.463,3.566,9.733,5.278c1.633,0.861,3.272,1.712,4.931,2.527c1.647,0.835,3.308,1.646,4.974,2.449
				c1.657,0.817,3.325,1.613,5.008,2.383c1.673,0.789,3.357,1.551,5.047,2.31c3.365,1.542,6.778,2.981,10.186,4.442
				c3.41,1.457,6.852,2.85,10.312,4.198c3.465,1.334,6.921,2.707,10.411,3.999l10.501,3.822l10.568,3.706L377.948,89.23z"/>
		</g>
		<g>
			<path d="M194.948,12.896c0.162,0.755,0.313,1.512,0.454,2.268c0.138,0.759,0.321,1.506,0.386,2.283
				c0.15,1.542,0.384,3.115,0.383,4.679l0.048,2.361l-0.156,2.366c-0.059,1.592-0.383,3.154-0.651,4.737
				c-0.107,0.799-0.364,1.562-0.569,2.341l-0.667,2.333l-0.905,2.258c-0.316,0.748-0.573,1.533-0.995,2.23l-1.17,2.152
				c-0.199,0.357-0.385,0.726-0.599,1.073l-0.696,1.006c-0.945,1.333-1.85,2.715-2.975,3.898l-1.629,1.837
				c-0.539,0.621-1.179,1.121-1.767,1.687l-1.805,1.651c-0.588,0.574-1.279,0.991-1.916,1.495c-1.313,0.94-2.57,1.998-3.968,2.785
				c-1.381,0.818-2.74,1.704-4.157,2.445l-4.299,2.121c-1.445,0.678-2.938,1.203-4.407,1.81l-2.214,0.876l-2.255,0.714l-4.513,1.419
				l2.479-2.898c-0.237,1.49-0.595,2.956-1.161,4.311l-0.42,1.018l-0.499,0.967c-0.317,0.657-0.717,1.25-1.101,1.856
				c-0.373,0.614-0.847,1.144-1.27,1.714c-0.454,0.541-0.934,1.056-1.411,1.57c-0.997,0.983-2.042,1.908-3.168,2.715
				c-0.57,0.393-1.13,0.8-1.735,1.135c-0.592,0.358-1.19,0.699-1.816,0.991c-0.611,0.32-1.244,0.593-1.888,0.843
				c-0.63,0.278-1.295,0.475-1.954,0.678c-1.32,0.401-2.685,0.659-4.056,0.831c-0.688,0.074-1.385,0.099-2.073,0.135
				c-0.696-0.026-1.391-0.033-2.08-0.09c-1.381-0.147-2.753-0.384-4.071-0.809c-1.315-0.42-2.591-0.963-3.769-1.651
				c-0.589-0.343-1.18-0.682-1.707-1.107c-0.54-0.406-1.09-0.793-1.566-1.264c-1.012-0.873-1.881-1.875-2.688-2.896
				c-0.38-0.53-0.77-1.049-1.13-1.582l-0.968-1.663c-0.322-0.549-0.565-1.14-0.837-1.71l-0.392-0.86l-0.324-0.886
				c-0.209-0.591-0.44-1.17-0.627-1.763l-0.498-1.794c-0.326-1.191-0.508-2.419-0.731-3.619c0.568,1.097,1.005,2.229,1.61,3.282
				l0.857,1.59c0.297,0.521,0.633,1.019,0.943,1.524l0.475,0.752l0.53,0.711c0.366,0.463,0.668,0.966,1.059,1.401l1.135,1.315
				l1.218,1.206c0.844,0.758,1.712,1.468,2.642,2.06c0.441,0.331,0.938,0.568,1.414,0.828c0.465,0.281,0.976,0.465,1.466,0.678
				c0.983,0.417,2.014,0.698,3.047,0.885c1.033,0.191,2.082,0.262,3.125,0.257c0.523-0.017,1.046-0.075,1.564-0.106
				c0.519-0.098,1.036-0.15,1.55-0.256c1.023-0.229,2.036-0.514,3.011-0.914c0.485-0.206,0.977-0.388,1.443-0.638
				c0.477-0.224,0.943-0.463,1.391-0.745c0.462-0.252,0.897-0.547,1.326-0.852c0.442-0.282,0.84-0.627,1.25-0.952
				c0.818-0.65,1.558-1.385,2.257-2.141c0.325-0.397,0.657-0.789,0.964-1.193c0.274-0.424,0.6-0.821,0.84-1.256
				c0.25-0.431,0.526-0.85,0.717-1.3l0.32-0.661l0.249-0.678c0.354-0.898,0.514-1.821,0.661-2.729l0.356-2.206l2.123-0.693
				l4.225-1.378l2.111-0.689l2.055-0.803c1.361-0.549,2.767-1.022,4.095-1.631c1.315-0.632,2.646-1.231,3.975-1.842
				c1.313-0.631,2.534-1.402,3.816-2.084c1.313-0.645,2.441-1.526,3.658-2.301c1.236-0.758,2.329-1.671,3.448-2.563
				c0.546-0.458,1.155-0.859,1.653-1.366l1.533-1.484c1.088-0.942,1.955-2.064,2.885-3.146l0.702-0.811
				c0.221-0.281,0.409-0.582,0.615-0.872l1.225-1.76c0.442-0.571,0.729-1.228,1.1-1.845l1.061-1.886l0.865-1.99
				c0.286-0.667,0.627-1.32,0.824-2.024c0.437-1.391,1.002-2.766,1.291-4.22l0.542-2.167l0.376-2.214
				c0.318-1.483,0.41-2.973,0.584-4.488C194.811,15.983,194.81,14.433,194.948,12.896z"/>
		</g>
		<g>
			<path d="M114.448,62.396c-1.489,0.409-2.981,0.739-4.474,1.048c-1.492,0.328-2.986,0.589-4.479,0.848
				c-2.988,0.506-5.979,0.92-8.973,1.272l2.333-3.819c0.892,1.37,1.749,2.76,2.595,4.168c0.828,1.419,1.641,2.857,2.406,4.331
				c0.395,0.735,0.746,1.489,1.115,2.238c0.362,0.757,0.717,1.517,1.046,2.291c0.32,0.783,0.668,1.552,0.963,2.346l0.861,2.404
				l0.737,2.461l0.595,2.516l0.433,2.56c0.082,0.87,0.188,1.729,0.243,2.594c0.021,0.875,0.054,1.741,0.035,2.607
				c-0.042,0.873-0.111,1.74-0.196,2.597c-0.132,0.864-0.286,1.718-0.473,2.559c-0.215,0.842-0.479,1.671-0.77,2.48
				c-0.285-0.83-0.543-1.64-0.753-2.436c-0.273-0.795-0.541-1.577-0.771-2.349c-0.267-0.77-0.552-1.528-0.791-2.282
				c-0.293-0.749-0.568-1.493-0.836-2.23c-0.585-1.471-1.17-2.923-1.785-4.362c-0.622-1.44-1.252-2.874-1.899-4.307l-1.963-4.323
				c-0.345-0.72-0.676-1.449-0.993-2.183c-0.327-0.734-0.682-1.458-0.988-2.204c-0.661-1.478-1.289-2.983-1.911-4.503l-0.892-2.311
				l-0.825-2.358l-1.418-4.051l3.752,0.231c3.008,0.186,6.017,0.433,9.027,0.772c1.506,0.175,3.013,0.354,4.521,0.598
				C111.43,61.824,112.938,62.071,114.448,62.396z"/>
		</g>
		<g>
			<path d="M109.948,106.396c-4.214,1.488-8.556,2.733-13.039,3.378c-1.12,0.165-2.246,0.305-3.379,0.395
				c-1.132,0.102-2.271,0.16-3.411,0.177c-1.142,0.025-2.287,0.003-3.431-0.076c-1.144-0.069-2.29-0.182-3.429-0.35
				c-0.572-0.07-1.14-0.169-1.707-0.277c-0.57-0.095-1.135-0.211-1.698-0.347c-1.13-0.244-2.249-0.556-3.354-0.905
				c-1.11-0.342-2.198-0.753-3.28-1.185l-1.604-0.697l-1.563-0.783c-1.025-0.554-2.053-1.115-3.028-1.756
				c-0.999-0.608-1.938-1.301-2.889-1.98c-0.918-0.718-1.848-1.429-2.715-2.208c-0.9-0.747-1.715-1.578-2.567-2.376l2.14,0.618
				c-4.02,1.082-8.052,2.164-12.086,3.175l-12.076,3.006c-4.025,1.009-8.053,1.994-12.09,2.938L12.634,110l2.479-3.402l1.422,13.234
				l1.308,13.244l-2.958-3.06c7.317,0.927,14.569,2.593,21.55,5.072c6.964,2.523,13.63,5.859,19.839,9.862
				c3.106,2,6.102,4.165,8.976,6.47c2.878,2.301,5.594,4.791,8.208,7.366c5.219,5.166,9.939,10.781,14.215,16.682
				c4.229,5.938,8.006,12.155,11.414,18.543c3.421,6.38,6.354,12.994,9.048,19.671c2.688,6.685,4.964,13.514,7.047,20.377
				c2.022,6.887,3.799,13.832,5.27,20.838c-2.324-6.771-4.706-13.502-7.332-20.129c-2.567-6.646-5.417-13.166-8.436-19.582
				c-3.014-6.42-6.37-12.66-9.94-18.737c-3.586-6.072-7.508-11.926-11.812-17.451c-4.255-5.56-8.903-10.795-13.969-15.552
				c-2.527-2.385-5.181-4.622-7.895-6.767c-2.718-2.142-5.539-4.143-8.456-5.985c-5.832-3.687-12.053-6.731-18.544-9.02
				c-6.469-2.352-13.205-3.97-20.054-4.897l-2.716-0.368l-0.242-2.693l-1.192-13.255l-1.078-13.266l-0.231-2.837l2.71-0.565
				l12.167-2.537c4.05-0.867,8.12-1.661,12.176-2.492l12.178-2.478l6.056-1.278l6.064-1.239l1.299-0.265l0.841,0.883
				c0.734,0.772,1.437,1.586,2.217,2.313c0.75,0.763,1.557,1.457,2.356,2.166c0.828,0.668,1.647,1.356,2.524,1.963
				c0.854,0.641,1.76,1.205,2.666,1.769l1.385,0.805l1.417,0.75c0.96,0.47,1.933,0.927,2.932,1.32
				c0.996,0.4,2.008,0.769,3.042,1.076c0.513,0.167,1.031,0.315,1.557,0.444c0.522,0.141,1.046,0.275,1.577,0.381
				c1.056,0.24,2.127,0.428,3.205,0.577c1.077,0.152,2.163,0.27,3.254,0.35c1.09,0.084,2.188,0.131,3.286,0.133
				c1.099,0.016,2.201-0.019,3.303-0.078c2.204-0.123,4.41-0.366,6.61-0.701C105.574,107.322,107.761,106.873,109.948,106.396z"/>
		</g>
		<g>
			<path d="M107.948,241.896c0.271,2.086,0.502,4.172,0.681,6.273c0.186,2.102,0.327,4.203,0.406,6.311
				c0.104,2.105,0.145,4.215,0.177,6.326c0.02,2.111-0.022,4.223-0.075,6.336c-0.138,4.221-0.345,8.45-0.768,12.662
				c-0.197,2.108-0.443,4.211-0.697,6.314c-0.271,2.102-0.563,4.201-0.892,6.298c-0.33,2.097-0.684,4.188-1.108,6.271
				c-0.413,2.084-0.854,4.164-1.345,6.235c-0.478,2.075-1.001,4.142-1.57,6.2c-0.561,2.061-1.163,4.113-1.828,6.152
				c-0.638,2.049-1.396,4.063-2.181,6.074c-0.785,2.012-1.656,4.002-2.593,5.978c-0.967,1.966-1.979,3.921-3.179,5.823
				c-1.203,1.9-2.522,3.771-4.153,5.531l-0.322-4.867c1.217,0.928,2.452,1.828,3.696,2.721c1.25,0.886,2.512,1.758,3.803,2.59
				c1.281,0.845,2.591,1.652,3.913,2.439c1.317,0.793,2.66,1.549,4.009,2.297c1.352,0.74,2.719,1.455,4.095,2.154
				c1.382,0.689,2.77,1.37,4.172,2.021c1.402,0.651,2.813,1.288,4.236,1.894c1.421,0.61,2.846,1.219,4.281,1.801
				c5.737,2.334,11.615,4.356,17.58,6.043c2.98,0.847,5.986,1.592,9,2.264c3.009,0.689,6.035,1.262,9.047,1.686l-3.583,3.174
				l0.132-9l0.053-3.593l3.418,0.554l2.75,0.445l2.744,0.523l2.733,0.615l2.712,0.729c0.899,0.262,1.793,0.555,2.688,0.831
				c0.893,0.297,1.774,0.627,2.66,0.938l2.622,1.058l2.574,1.177l2.517,1.305l2.447,1.434l2.367,1.563
				c0.762,0.559,1.524,1.116,2.269,1.698c0.724,0.608,1.456,1.203,2.164,1.825c0.688,0.646,1.385,1.279,2.058,1.938l1.944,2.037
				l1.832,2.131l-0.927-0.597c1.658,0.55,3.37,1.013,5.104,1.407c1.738,0.389,3.493,0.751,5.267,1.047
				c3.543,0.602,7.137,1.01,10.746,1.255c3.608,0.257,7.238,0.396,10.866,0.293c1.813-0.058,3.628-0.137,5.433-0.331
				c1.805-0.197,3.606-0.463,5.354-1.006c-1.662,0.773-3.455,1.253-5.249,1.654c-1.798,0.396-3.615,0.709-5.442,0.932
				c-1.827,0.229-3.661,0.4-5.499,0.525c-1.839,0.119-3.682,0.213-5.525,0.232c-3.688,0.045-7.387-0.074-11.088-0.398
				c-3.701-0.316-7.4-0.869-11.087-1.831l-0.458-0.119l-0.47-0.478l-1.825-1.854l-1.913-1.751l-1.999-1.643
				c-0.684-0.521-1.389-1.017-2.079-1.525l-2.15-1.417l-2.215-1.312l-2.279-1.19l-2.343-1.071l-2.396-0.957l-2.44-0.848
				l-2.479-0.743l-2.514-0.646c-1.688-0.39-3.393-0.726-5.104-1.041l-2.582-0.414l-2.6-0.344l3.471-3.039l0.132,9l0.054,3.576
				l-3.636-0.4c-3.267-0.361-6.479-0.875-9.657-1.504c-1.592-0.312-3.168-0.678-4.738-1.053c-1.572-0.377-3.135-0.783-4.693-1.205
				c-6.229-1.695-12.354-3.736-18.361-6.113c-1.5-0.596-3-1.195-4.474-1.86c-1.48-0.646-2.948-1.326-4.409-2.021
				c-1.461-0.693-2.907-1.422-4.349-2.158c-1.438-0.748-2.865-1.514-4.28-2.307c-1.412-0.8-2.817-1.609-4.202-2.461
				c-1.387-0.846-2.763-1.712-4.113-2.621c-1.359-0.895-2.692-1.834-4.015-2.791c-1.325-0.953-2.598-1.979-3.875-3l-2.858-2.287
				l2.536-2.58c1.263-1.284,2.426-2.815,3.512-4.426c1.087-1.617,2.06-3.363,2.997-5.135c0.913-1.791,1.779-3.619,2.575-5.494
				c0.806-1.871,1.544-3.777,2.266-5.697c0.729-1.916,1.405-3.859,2.04-5.82c0.645-1.957,1.248-3.932,1.808-5.922
				c1.144-3.975,2.106-8.006,3.042-12.051c0.458-2.023,0.88-4.059,1.284-6.098c0.387-2.042,0.768-4.087,1.099-6.142
				c0.181-1.024,0.328-2.056,0.484-3.083c0.169-1.028,0.329-2.059,0.469-3.09c0.308-2.063,0.561-4.131,0.808-6.202
				c0.235-2.072,0.435-4.149,0.621-6.229c0.183-2.08,0.358-4.164,0.471-6.254c0.136-2.087,0.206-4.181,0.288-6.273
				C107.912,246.103,107.919,243.998,107.948,241.896z"/>
		</g>
		<g>
			<path d="M238.046,374.873c-0.791-2.201-1.438-4.472-1.943-6.788c-0.456-2.322-0.751-4.697-0.813-7.105
				c-0.054-2.408,0.168-4.846,0.688-7.25c0.529-2.399,1.349-4.783,2.563-6.981c1.198-2.203,2.715-4.259,4.5-6.047
				c1.78-1.79,3.78-3.366,5.94-4.651c4.325-2.582,9.121-4.176,13.972-5.086c2.429-0.466,4.886-0.714,7.341-0.832
				c2.455-0.111,4.914-0.093,7.359,0.096c4.892,0.361,9.739,1.25,14.441,2.688c4.706,1.422,9.274,3.389,13.549,5.971
				c4.273,2.568,8.241,5.819,11.498,9.826l-0.241-0.268c-0.135-0.141-0.29-0.269-0.454-0.373c-0.076-0.051-0.131-0.084-0.202-0.121
				c-0.127-0.063-0.118-0.059-0.168-0.076c-0.014-0.006,0.03,0.011,0.099,0.029c0.146,0.041,0.372,0.093,0.6,0.14
				c0.474,0.091,1.004,0.183,1.545,0.263c1.085,0.158,2.218,0.293,3.356,0.414c2.28,0.241,4.599,0.432,6.919,0.614
				c4.639,0.388,9.319,0.672,13.971,0.979l-3.063,2.166c0.467-1.334,0.953-2.658,1.507-3.949c0.551-1.291,1.141-2.563,1.797-3.795
				c0.313-0.625,0.649-1.232,0.995-1.836c0.339-0.607,0.682-1.211,1.05-1.799c0.71-1.19,1.471-2.345,2.242-3.486
				c0.777-1.137,1.589-2.246,2.415-3.342c0.843-1.08,1.682-2.162,2.573-3.196c0.893-1.034,1.797-2.056,2.73-3.044
				c0.923-1,1.876-1.969,2.838-2.924c0.96-0.957,1.942-1.891,2.934-2.812c0.987-0.922,2.005-1.812,3.034-2.685
				c2.061-1.742,4.171-3.416,6.32-5.027c2.152-1.607,4.377-3.113,6.618-4.579c2.248-1.457,4.547-2.831,6.893-4.108
				c-2.079,1.678-4.118,3.389-6.121,5.135c-1.005,0.867-1.992,1.753-2.973,2.646l-2.904,2.708c-1.921,1.815-3.791,3.678-5.594,5.594
				c-1.793,1.928-3.576,3.852-5.254,5.856c-0.842,1.001-1.672,2.009-2.467,3.041c-0.808,1.022-1.579,2.069-2.335,3.124
				c-0.76,1.052-1.502,2.109-2.225,3.182c-0.709,1.078-1.399,2.164-2.057,3.27c-0.648,1.107-1.285,2.22-1.865,3.355
				c-0.305,0.563-0.582,1.135-0.854,1.709c-0.28,0.57-0.554,1.146-0.798,1.729c-0.52,1.156-0.979,2.33-1.43,3.505
				c-0.44,1.178-0.817,2.37-1.178,3.565l-0.663,2.201l-2.399-0.035c-4.738-0.067-9.44-0.254-14.179-0.479
				c-2.367-0.128-4.735-0.283-7.132-0.486c-1.199-0.104-2.402-0.222-3.645-0.379c-0.623-0.08-1.254-0.168-1.934-0.299
				c-0.349-0.068-0.696-0.141-1.117-0.255c-0.216-0.06-0.451-0.131-0.74-0.239c-0.185-0.074-0.314-0.123-0.569-0.256
				c-0.136-0.072-0.256-0.141-0.395-0.229c-0.223-0.15-0.436-0.323-0.628-0.51l-0.105-0.104l-0.135-0.165
				c-2.654-3.239-6.042-5.96-9.735-8.239c-3.71-2.268-7.765-4.059-11.962-5.438c-4.208-1.354-8.566-2.318-12.979-2.789
				c-2.205-0.229-4.42-0.373-6.632-0.364c-2.214,0-4.417,0.149-6.604,0.405c-4.363,0.531-8.652,1.673-12.495,3.647
				c-1.917,0.986-3.749,2.134-5.388,3.524c-1.648,1.378-3.085,3.001-4.284,4.801c-1.186,1.807-2.188,3.77-2.892,5.871
				c-0.718,2.098-1.152,4.313-1.396,6.566c-0.252,2.258-0.285,4.561-0.151,6.869C237.366,370.246,237.676,372.551,238.046,374.873z"
				/>
		</g>
		<g>
			<path d="M381.281,302.563c-1.308-0.344-2.592-0.703-3.878-1.166c-0.646-0.223-1.283-0.467-1.907-0.734
				c-0.626-0.266-1.271-0.505-1.883-0.809c-1.245-0.571-2.455-1.225-3.653-1.914l-1.759-1.11c-0.581-0.382-1.135-0.804-1.704-1.209
				c-2.236-1.673-4.313-3.616-6.144-5.806c-0.911-1.098-1.768-2.25-2.549-3.461c-0.774-1.213-1.472-2.48-2.11-3.785
				c-0.312-0.653-0.582-1.327-0.871-1.996c-0.247-0.682-0.505-1.363-0.736-2.055c-0.441-1.389-0.821-2.802-1.079-4.238
				c-0.264-1.438-0.459-2.889-0.545-4.346c-0.053-0.729-0.074-1.461-0.063-2.189c-0.012-0.73,0.02-1.46,0.063-2.188
				c0.151-2.916,0.692-5.793,1.487-8.578c0.396-1.396,0.896-2.754,1.433-4.095l0.866-1.979l0.958-1.934l-0.388,1.592
				c-0.031,0.103-0.041,0.209-0.03,0.312c0.007,0.051,0.017,0.101,0.03,0.147c0.019,0.051-0.021-0.082-0.031-0.112l-0.192-0.658
				l-0.395-1.329l-0.801-2.678l-1.547-5.387l-1.477-5.412c-0.474-1.813-0.957-3.618-1.399-5.439
				c-0.914-3.633-1.756-7.289-2.528-10.969c-0.39-1.839-0.756-3.686-1.084-5.544c-0.344-1.854-0.66-3.716-0.918-5.599
				c0.902,1.672,1.747,3.361,2.563,5.063c0.832,1.693,1.625,3.4,2.395,5.115c1.546,3.429,3.021,6.881,4.42,10.355
				c0.714,1.733,1.387,3.48,2.068,5.225l1.985,5.252l1.901,5.285l0.912,2.66l0.455,1.344l0.228,0.678l0.072,0.223
				c0.048,0.159,0.091,0.32,0.128,0.483c0.076,0.325,0.132,0.657,0.166,0.985l0.066,0.646l-0.454,0.946l-0.796,1.654l-0.715,1.688
				c-0.442,1.137-0.833,2.289-1.19,3.448c-0.342,1.166-0.64,2.342-0.863,3.529c-0.216,1.188-0.409,2.381-0.512,3.582
				c-0.059,0.6-0.106,1.199-0.116,1.801c-0.034,0.603-0.03,1.203-0.016,1.805c-0.002,1.203,0.093,2.404,0.239,3.6
				c0.15,1.193,0.376,2.377,0.64,3.557l0.471,1.752l0.578,1.727c0.421,1.141,0.894,2.27,1.442,3.365
				c0.549,1.098,1.141,2.184,1.812,3.229c1.329,2.1,2.894,4.082,4.64,5.943l1.345,1.371l1.409,1.324l1.474,1.273
				c0.494,0.424,1.022,0.807,1.529,1.225c0.503,0.427,1.045,0.796,1.574,1.191c0.527,0.4,1.067,0.778,1.622,1.135
				C378.992,301.129,380.158,301.817,381.281,302.563z"/>
		</g>
		<g>
			<path d="M344.448,203.896c-2.729,1.526-5.482,3.002-8.25,4.447c-2.754,1.473-5.542,2.865-8.319,4.282l-2.205,1.125l0.099-2.655
				c0.055-1.484,0.104-2.98,0.303-4.459c0.188-1.479,0.412-2.96,0.729-4.421c0.139-0.735,0.307-1.465,0.498-2.188
				c0.18-0.727,0.358-1.455,0.583-2.168c0.397-1.447,0.928-2.849,1.453-4.25l0.845-2.082l0.915-2.051
				c0.646-1.35,1.311-2.691,2.027-4.004c0.711-1.315,1.483-2.597,2.286-3.855c0.801-1.262,1.631-2.504,2.503-3.713
				c3.493-4.842,7.485-9.295,11.865-13.333c4.407-4.02,9.124-7.673,14.468-10.688l-1.691,3.7c-0.239-1.425-0.524-2.838-0.715-4.274
				c-0.225-1.428-0.4-2.865-0.561-4.304c-0.144-1.441-0.263-2.887-0.339-4.335c-0.085-1.448-0.129-2.899-0.141-4.352
				c0.013-1.454,0.023-2.906,0.111-4.359c0.063-1.451,0.18-2.903,0.347-4.348c0.164-1.445,0.38-2.884,0.614-4.317
				c0.256-1.432,0.538-2.855,0.863-4.27c0.34-1.411,0.687-2.818,1.119-4.201c0.434-1.382,0.906-2.749,1.407-4.102
				c1.021-2.698,2.166-5.338,3.513-7.864c1.333-2.53,2.748-4.998,4.32-7.354c1.541-2.375,3.178-4.667,4.851-6.939
				c-1.083,2.607-2.235,5.176-3.321,7.751c-1.066,2.587-2.122,5.154-3.014,7.768c-0.455,1.303-0.853,2.621-1.267,3.927
				c-0.402,1.311-0.759,2.63-1.092,3.953c-0.318,1.327-0.607,2.657-0.857,3.992c-0.237,1.338-0.487,2.668-0.678,4.009
				c-0.188,1.34-0.337,2.685-0.46,4.03c-0.104,1.348-0.188,2.695-0.227,4.045c-0.022,1.35-0.07,2.697-0.042,4.047
				c-0.001,1.349,0.072,2.699,0.143,4.046c0.08,1.348,0.172,2.695,0.313,4.04c0.128,1.345,0.302,2.688,0.488,4.028
				c0.185,1.341,0.385,2.681,0.63,4.016c0.211,1.338,0.521,2.665,0.775,3.998l0.468,2.452l-2.16,1.248
				c-2.32,1.34-4.603,2.875-6.798,4.541c-2.211,1.646-4.357,3.401-6.419,5.253c-2.071,1.842-4.077,3.763-5.98,5.778
				c-0.953,1.006-1.9,2.02-2.81,3.064c-0.914,1.041-1.81,2.102-2.662,3.189c-0.877,1.072-1.713,2.176-2.522,3.296
				c-0.82,1.114-1.578,2.269-2.352,3.415c-0.764,1.152-1.479,2.333-2.181,3.524l-1.002,1.813l-0.939,1.846
				c-0.604,1.24-1.16,2.504-1.698,3.775c-0.285,0.633-0.525,1.277-0.771,1.926c-0.256,0.645-0.489,1.295-0.696,1.955
				c-0.453,1.309-0.82,2.646-1.156,3.992l-0.468,2.031l-0.4,2.055l-2.106-1.531c2.943-1.027,5.878-2.078,8.846-3.053
				C338.488,205.784,341.456,204.813,344.448,203.896z"/>
		</g>
	</g>
</g>
<g>
	<g>
		<polygon fill="#F9D619" points="166.39,257.856 161.75,252.595 140.313,252.595 135.534,257.856 		"/>
		<polygon fill="#F9D619" points="219.576,257.856 214.938,252.595 193.501,252.595 188.722,257.856 		"/>
		<path fill="#F9D619" d="M184.357,258.065h0.502l-0.787-0.326l-2.01-5.492l-2.362-1.793h-0.928v-4.021
			c0-0.67-0.546-1.218-1.219-1.218c-0.671,0-1.219,0.548-1.219,1.218v4.021h-0.965l-2.363,1.793l-2.021,5.521l-0.707,0.297h0.434
			H184.357z"/>
	</g>
	<g>
		<g>
			
				<rect x="134.788" y="256.797" fill="none" stroke="#231F20" stroke-width="0.5" stroke-miterlimit="10" width="30.854" height="14.856"/>
			<polyline fill="none" stroke="#231F20" stroke-width="0.5" stroke-miterlimit="10" points="165.643,256.797 161.003,251.534 
				139.567,251.534 134.788,256.797 			"/>
			
				<line fill="none" stroke="#231F20" stroke-width="0.5" stroke-miterlimit="10" x1="134.061" y1="257.731" x2="166.266" y2="257.731"/>
			
				<line fill="none" stroke="#231F20" stroke-width="0.5" stroke-miterlimit="10" x1="134.061" y1="265.903" x2="166.266" y2="265.903"/>
			<g>
				<g>
					
						<line fill="none" stroke="#231F20" stroke-width="0.5" stroke-miterlimit="10" x1="136.777" y1="257.731" x2="136.777" y2="265.903"/>
					
						<line fill="none" stroke="#231F20" stroke-width="0.5" stroke-miterlimit="10" x1="139.293" y1="257.731" x2="139.293" y2="265.903"/>
				</g>
				<g>
					
						<line fill="none" stroke="#231F20" stroke-width="0.5" stroke-miterlimit="10" x1="137.634" y1="259.187" x2="137.634" y2="260.397"/>
					
						<line fill="none" stroke="#231F20" stroke-width="0.5" stroke-miterlimit="10" x1="137.634" y1="262.58" x2="137.634" y2="264.658"/>
					
						<line fill="none" stroke="#231F20" stroke-width="0.5" stroke-miterlimit="10" x1="138.459" y1="259.187" x2="138.459" y2="260.397"/>
					
						<line fill="none" stroke="#231F20" stroke-width="0.5" stroke-miterlimit="10" x1="138.459" y1="262.58" x2="138.459" y2="264.658"/>
				</g>
			</g>
			<g>
				<g>
					
						<line fill="none" stroke="#231F20" stroke-width="0.5" stroke-miterlimit="10" x1="161.226" y1="257.731" x2="161.226" y2="265.903"/>
					
						<line fill="none" stroke="#231F20" stroke-width="0.5" stroke-miterlimit="10" x1="163.742" y1="257.731" x2="163.742" y2="265.903"/>
				</g>
				<g>
					
						<line fill="none" stroke="#231F20" stroke-width="0.5" stroke-miterlimit="10" x1="162.083" y1="259.187" x2="162.083" y2="260.397"/>
					
						<line fill="none" stroke="#231F20" stroke-width="0.5" stroke-miterlimit="10" x1="162.083" y1="262.58" x2="162.083" y2="264.658"/>
					
						<line fill="none" stroke="#231F20" stroke-width="0.5" stroke-miterlimit="10" x1="162.908" y1="259.187" x2="162.908" y2="260.397"/>
					
						<line fill="none" stroke="#231F20" stroke-width="0.5" stroke-miterlimit="10" x1="162.908" y1="262.58" x2="162.908" y2="264.658"/>
				</g>
			</g>
			<g>
				<g>
					
						<line fill="none" stroke="#231F20" stroke-width="0.5" stroke-miterlimit="10" x1="157.151" y1="257.731" x2="157.151" y2="265.903"/>
					
						<line fill="none" stroke="#231F20" stroke-width="0.5" stroke-miterlimit="10" x1="159.667" y1="257.731" x2="159.667" y2="265.903"/>
				</g>
				<g>
					
						<line fill="none" stroke="#231F20" stroke-width="0.5" stroke-miterlimit="10" x1="158.009" y1="259.187" x2="158.009" y2="260.397"/>
					
						<line fill="none" stroke="#231F20" stroke-width="0.5" stroke-miterlimit="10" x1="158.009" y1="262.58" x2="158.009" y2="264.658"/>
					
						<line fill="none" stroke="#231F20" stroke-width="0.5" stroke-miterlimit="10" x1="158.833" y1="259.187" x2="158.833" y2="260.397"/>
					
						<line fill="none" stroke="#231F20" stroke-width="0.5" stroke-miterlimit="10" x1="158.833" y1="262.58" x2="158.833" y2="264.658"/>
				</g>
			</g>
			<g>
				<g>
					
						<line fill="none" stroke="#231F20" stroke-width="0.5" stroke-miterlimit="10" x1="153.077" y1="257.731" x2="153.077" y2="265.903"/>
					
						<line fill="none" stroke="#231F20" stroke-width="0.5" stroke-miterlimit="10" x1="155.593" y1="257.731" x2="155.593" y2="265.903"/>
				</g>
				<g>
					
						<line fill="none" stroke="#231F20" stroke-width="0.5" stroke-miterlimit="10" x1="153.933" y1="259.187" x2="153.933" y2="260.397"/>
					
						<line fill="none" stroke="#231F20" stroke-width="0.5" stroke-miterlimit="10" x1="153.933" y1="262.58" x2="153.933" y2="264.658"/>
					
						<line fill="none" stroke="#231F20" stroke-width="0.5" stroke-miterlimit="10" x1="154.759" y1="259.187" x2="154.759" y2="260.397"/>
					
						<line fill="none" stroke="#231F20" stroke-width="0.5" stroke-miterlimit="10" x1="154.759" y1="262.58" x2="154.759" y2="264.658"/>
				</g>
			</g>
			<g>
				<g>
					
						<line fill="none" stroke="#231F20" stroke-width="0.5" stroke-miterlimit="10" x1="149.002" y1="257.731" x2="149.002" y2="265.903"/>
					
						<line fill="none" stroke="#231F20" stroke-width="0.5" stroke-miterlimit="10" x1="151.518" y1="257.731" x2="151.518" y2="265.903"/>
				</g>
				<g>
					
						<line fill="none" stroke="#231F20" stroke-width="0.5" stroke-miterlimit="10" x1="149.859" y1="259.187" x2="149.859" y2="260.397"/>
					
						<line fill="none" stroke="#231F20" stroke-width="0.5" stroke-miterlimit="10" x1="149.859" y1="262.58" x2="149.859" y2="264.658"/>
					
						<line fill="none" stroke="#231F20" stroke-width="0.5" stroke-miterlimit="10" x1="150.684" y1="259.187" x2="150.684" y2="260.397"/>
					
						<line fill="none" stroke="#231F20" stroke-width="0.5" stroke-miterlimit="10" x1="150.684" y1="262.58" x2="150.684" y2="264.658"/>
				</g>
			</g>
			<g>
				<g>
					
						<line fill="none" stroke="#231F20" stroke-width="0.5" stroke-miterlimit="10" x1="144.927" y1="257.731" x2="144.927" y2="265.903"/>
					
						<line fill="none" stroke="#231F20" stroke-width="0.5" stroke-miterlimit="10" x1="147.443" y1="257.731" x2="147.443" y2="265.903"/>
				</g>
				<g>
					
						<line fill="none" stroke="#231F20" stroke-width="0.5" stroke-miterlimit="10" x1="145.784" y1="259.187" x2="145.784" y2="260.397"/>
					
						<line fill="none" stroke="#231F20" stroke-width="0.5" stroke-miterlimit="10" x1="145.784" y1="262.58" x2="145.784" y2="264.658"/>
					
						<line fill="none" stroke="#231F20" stroke-width="0.5" stroke-miterlimit="10" x1="146.609" y1="259.187" x2="146.609" y2="260.397"/>
					
						<line fill="none" stroke="#231F20" stroke-width="0.5" stroke-miterlimit="10" x1="146.609" y1="262.58" x2="146.609" y2="264.658"/>
				</g>
			</g>
			<g>
				<g>
					
						<line fill="none" stroke="#231F20" stroke-width="0.5" stroke-miterlimit="10" x1="140.852" y1="257.731" x2="140.852" y2="265.903"/>
					
						<line fill="none" stroke="#231F20" stroke-width="0.5" stroke-miterlimit="10" x1="143.368" y1="257.731" x2="143.368" y2="265.903"/>
				</g>
				<g>
					
						<line fill="none" stroke="#231F20" stroke-width="0.5" stroke-miterlimit="10" x1="141.709" y1="259.187" x2="141.709" y2="260.397"/>
					
						<line fill="none" stroke="#231F20" stroke-width="0.5" stroke-miterlimit="10" x1="141.709" y1="262.58" x2="141.709" y2="264.658"/>
					
						<line fill="none" stroke="#231F20" stroke-width="0.5" stroke-miterlimit="10" x1="142.533" y1="259.187" x2="142.533" y2="260.397"/>
					
						<line fill="none" stroke="#231F20" stroke-width="0.5" stroke-miterlimit="10" x1="142.533" y1="262.58" x2="142.533" y2="264.658"/>
				</g>
			</g>
			
				<line fill="none" stroke="#231F20" stroke-width="0.5" stroke-miterlimit="10" x1="163.742" y1="261.092" x2="136.777" y2="261.092"/>
			<g>
				<path fill="none" stroke="#231F20" stroke-width="0.5" stroke-miterlimit="10" d="M136.547,271.653v-3.271
					c0-0.922,0.749-1.671,1.671-1.671l0,0c0.923,0,1.672,0.749,1.672,1.671v3.271"/>
				
					<line fill="none" stroke="#231F20" stroke-width="0.5" stroke-miterlimit="10" x1="139.891" y1="268.383" x2="136.547" y2="268.383"/>
			</g>
			<g>
				<path fill="none" stroke="#231F20" stroke-width="0.5" stroke-miterlimit="10" d="M160.72,271.653v-3.271
					c0-0.922,0.749-1.671,1.67-1.671l0,0c0.923,0,1.672,0.749,1.672,1.671v3.271"/>
				
					<line fill="none" stroke="#231F20" stroke-width="0.5" stroke-miterlimit="10" x1="164.063" y1="268.383" x2="160.72" y2="268.383"/>
			</g>
			<g>
				<path fill="none" stroke="#231F20" stroke-width="0.5" stroke-miterlimit="10" d="M155.885,271.653v-3.271
					c0-0.922,0.749-1.671,1.671-1.671l0,0c0.923,0,1.672,0.749,1.672,1.671v3.271"/>
				
					<line fill="none" stroke="#231F20" stroke-width="0.5" stroke-miterlimit="10" x1="159.229" y1="268.383" x2="155.885" y2="268.383"/>
			</g>
			<g>
				<path fill="none" stroke="#231F20" stroke-width="0.5" stroke-miterlimit="10" d="M151.051,271.653v-3.271
					c0-0.922,0.749-1.671,1.672-1.671l0,0c0.923,0,1.671,0.749,1.671,1.671v3.271"/>
				
					<line fill="none" stroke="#231F20" stroke-width="0.5" stroke-miterlimit="10" x1="154.394" y1="268.383" x2="151.051" y2="268.383"/>
			</g>
			<g>
				<path fill="none" stroke="#231F20" stroke-width="0.5" stroke-miterlimit="10" d="M146.217,271.653v-3.271
					c0-0.922,0.75-1.671,1.671-1.671l0,0c0.922,0,1.671,0.749,1.671,1.671v3.271"/>
				
					<line fill="none" stroke="#231F20" stroke-width="0.5" stroke-miterlimit="10" x1="149.56" y1="268.383" x2="146.217" y2="268.383"/>
			</g>
			<g>
				<path fill="none" stroke="#231F20" stroke-width="0.5" stroke-miterlimit="10" d="M141.382,271.653v-3.271
					c0-0.922,0.749-1.671,1.671-1.671l0,0c0.922,0,1.671,0.749,1.671,1.671v3.271"/>
				
					<line fill="none" stroke="#231F20" stroke-width="0.5" stroke-miterlimit="10" x1="144.725" y1="268.383" x2="141.382" y2="268.383"/>
			</g>
		</g>
		<g>
			
				<rect x="188.037" y="256.797" fill="none" stroke="#231F20" stroke-width="0.5" stroke-miterlimit="10" width="30.854" height="14.856"/>
			<polyline fill="none" stroke="#231F20" stroke-width="0.5" stroke-miterlimit="10" points="218.893,256.797 214.252,251.534 
				192.816,251.534 188.037,256.797 			"/>
			
				<line fill="none" stroke="#231F20" stroke-width="0.5" stroke-miterlimit="10" x1="187.311" y1="257.731" x2="219.516" y2="257.731"/>
			
				<line fill="none" stroke="#231F20" stroke-width="0.5" stroke-miterlimit="10" x1="187.311" y1="265.903" x2="219.516" y2="265.903"/>
			<g>
				<g>
					
						<line fill="none" stroke="#231F20" stroke-width="0.5" stroke-miterlimit="10" x1="190.027" y1="257.731" x2="190.027" y2="265.903"/>
					
						<line fill="none" stroke="#231F20" stroke-width="0.5" stroke-miterlimit="10" x1="192.543" y1="257.731" x2="192.543" y2="265.903"/>
				</g>
				<g>
					
						<line fill="none" stroke="#231F20" stroke-width="0.5" stroke-miterlimit="10" x1="190.884" y1="259.187" x2="190.884" y2="260.397"/>
					
						<line fill="none" stroke="#231F20" stroke-width="0.5" stroke-miterlimit="10" x1="190.884" y1="262.58" x2="190.884" y2="264.658"/>
					
						<line fill="none" stroke="#231F20" stroke-width="0.5" stroke-miterlimit="10" x1="191.709" y1="259.187" x2="191.709" y2="260.397"/>
					
						<line fill="none" stroke="#231F20" stroke-width="0.5" stroke-miterlimit="10" x1="191.709" y1="262.58" x2="191.709" y2="264.658"/>
				</g>
			</g>
			<g>
				<g>
					
						<line fill="none" stroke="#231F20" stroke-width="0.5" stroke-miterlimit="10" x1="214.477" y1="257.731" x2="214.477" y2="265.903"/>
					
						<line fill="none" stroke="#231F20" stroke-width="0.5" stroke-miterlimit="10" x1="216.992" y1="257.731" x2="216.992" y2="265.903"/>
				</g>
				<g>
					
						<line fill="none" stroke="#231F20" stroke-width="0.5" stroke-miterlimit="10" x1="215.334" y1="259.187" x2="215.334" y2="260.397"/>
					
						<line fill="none" stroke="#231F20" stroke-width="0.5" stroke-miterlimit="10" x1="215.334" y1="262.58" x2="215.334" y2="264.658"/>
					
						<line fill="none" stroke="#231F20" stroke-width="0.5" stroke-miterlimit="10" x1="216.158" y1="259.187" x2="216.158" y2="260.397"/>
					
						<line fill="none" stroke="#231F20" stroke-width="0.5" stroke-miterlimit="10" x1="216.158" y1="262.58" x2="216.158" y2="264.658"/>
				</g>
			</g>
			<g>
				<g>
					
						<line fill="none" stroke="#231F20" stroke-width="0.5" stroke-miterlimit="10" x1="210.4" y1="257.731" x2="210.4" y2="265.903"/>
					
						<line fill="none" stroke="#231F20" stroke-width="0.5" stroke-miterlimit="10" x1="212.918" y1="257.731" x2="212.918" y2="265.903"/>
				</g>
				<g>
					
						<line fill="none" stroke="#231F20" stroke-width="0.5" stroke-miterlimit="10" x1="211.258" y1="259.187" x2="211.258" y2="260.397"/>
					
						<line fill="none" stroke="#231F20" stroke-width="0.5" stroke-miterlimit="10" x1="211.258" y1="262.58" x2="211.258" y2="264.658"/>
					
						<line fill="none" stroke="#231F20" stroke-width="0.5" stroke-miterlimit="10" x1="212.082" y1="259.187" x2="212.082" y2="260.397"/>
					
						<line fill="none" stroke="#231F20" stroke-width="0.5" stroke-miterlimit="10" x1="212.082" y1="262.58" x2="212.082" y2="264.658"/>
				</g>
			</g>
			<g>
				<g>
					
						<line fill="none" stroke="#231F20" stroke-width="0.5" stroke-miterlimit="10" x1="206.326" y1="257.731" x2="206.326" y2="265.903"/>
					
						<line fill="none" stroke="#231F20" stroke-width="0.5" stroke-miterlimit="10" x1="208.842" y1="257.731" x2="208.842" y2="265.903"/>
				</g>
				<g>
					
						<line fill="none" stroke="#231F20" stroke-width="0.5" stroke-miterlimit="10" x1="207.184" y1="259.187" x2="207.184" y2="260.397"/>
					
						<line fill="none" stroke="#231F20" stroke-width="0.5" stroke-miterlimit="10" x1="207.184" y1="262.58" x2="207.184" y2="264.658"/>
					
						<line fill="none" stroke="#231F20" stroke-width="0.5" stroke-miterlimit="10" x1="208.008" y1="259.187" x2="208.008" y2="260.397"/>
					
						<line fill="none" stroke="#231F20" stroke-width="0.5" stroke-miterlimit="10" x1="208.008" y1="262.58" x2="208.008" y2="264.658"/>
				</g>
			</g>
			<g>
				<g>
					
						<line fill="none" stroke="#231F20" stroke-width="0.5" stroke-miterlimit="10" x1="202.252" y1="257.731" x2="202.252" y2="265.903"/>
					
						<line fill="none" stroke="#231F20" stroke-width="0.5" stroke-miterlimit="10" x1="204.768" y1="257.731" x2="204.768" y2="265.903"/>
				</g>
				<g>
					
						<line fill="none" stroke="#231F20" stroke-width="0.5" stroke-miterlimit="10" x1="203.109" y1="259.187" x2="203.109" y2="260.397"/>
					
						<line fill="none" stroke="#231F20" stroke-width="0.5" stroke-miterlimit="10" x1="203.109" y1="262.58" x2="203.109" y2="264.658"/>
					
						<line fill="none" stroke="#231F20" stroke-width="0.5" stroke-miterlimit="10" x1="203.934" y1="259.187" x2="203.934" y2="260.397"/>
					
						<line fill="none" stroke="#231F20" stroke-width="0.5" stroke-miterlimit="10" x1="203.934" y1="262.58" x2="203.934" y2="264.658"/>
				</g>
			</g>
			<g>
				<g>
					
						<line fill="none" stroke="#231F20" stroke-width="0.5" stroke-miterlimit="10" x1="198.178" y1="257.731" x2="198.178" y2="265.903"/>
					
						<line fill="none" stroke="#231F20" stroke-width="0.5" stroke-miterlimit="10" x1="200.693" y1="257.731" x2="200.693" y2="265.903"/>
				</g>
				<g>
					
						<line fill="none" stroke="#231F20" stroke-width="0.5" stroke-miterlimit="10" x1="199.033" y1="259.187" x2="199.033" y2="260.397"/>
					
						<line fill="none" stroke="#231F20" stroke-width="0.5" stroke-miterlimit="10" x1="199.033" y1="262.58" x2="199.033" y2="264.658"/>
					
						<line fill="none" stroke="#231F20" stroke-width="0.5" stroke-miterlimit="10" x1="199.859" y1="259.187" x2="199.859" y2="260.397"/>
					
						<line fill="none" stroke="#231F20" stroke-width="0.5" stroke-miterlimit="10" x1="199.859" y1="262.58" x2="199.859" y2="264.658"/>
				</g>
			</g>
			<g>
				<g>
					
						<line fill="none" stroke="#231F20" stroke-width="0.5" stroke-miterlimit="10" x1="194.102" y1="257.731" x2="194.102" y2="265.903"/>
					
						<line fill="none" stroke="#231F20" stroke-width="0.5" stroke-miterlimit="10" x1="196.618" y1="257.731" x2="196.618" y2="265.903"/>
				</g>
				<g>
					
						<line fill="none" stroke="#231F20" stroke-width="0.5" stroke-miterlimit="10" x1="194.959" y1="259.187" x2="194.959" y2="260.397"/>
					
						<line fill="none" stroke="#231F20" stroke-width="0.5" stroke-miterlimit="10" x1="194.959" y1="262.58" x2="194.959" y2="264.658"/>
					
						<line fill="none" stroke="#231F20" stroke-width="0.5" stroke-miterlimit="10" x1="195.783" y1="259.187" x2="195.783" y2="260.397"/>
					
						<line fill="none" stroke="#231F20" stroke-width="0.5" stroke-miterlimit="10" x1="195.783" y1="262.58" x2="195.783" y2="264.658"/>
				</g>
			</g>
			
				<line fill="none" stroke="#231F20" stroke-width="0.5" stroke-miterlimit="10" x1="216.992" y1="261.092" x2="190.027" y2="261.092"/>
			<g>
				<path fill="none" stroke="#231F20" stroke-width="0.5" stroke-miterlimit="10" d="M189.797,271.653v-3.271
					c0-0.922,0.75-1.671,1.672-1.671l0,0c0.922,0,1.672,0.749,1.672,1.671v3.271"/>
				
					<line fill="none" stroke="#231F20" stroke-width="0.5" stroke-miterlimit="10" x1="193.141" y1="268.383" x2="189.797" y2="268.383"/>
			</g>
			<g>
				<path fill="none" stroke="#231F20" stroke-width="0.5" stroke-miterlimit="10" d="M213.971,271.653v-3.271
					c0-0.922,0.748-1.671,1.67-1.671l0,0c0.922,0,1.672,0.749,1.672,1.671v3.271"/>
				
					<line fill="none" stroke="#231F20" stroke-width="0.5" stroke-miterlimit="10" x1="217.313" y1="268.383" x2="213.971" y2="268.383"/>
			</g>
			<g>
				<path fill="none" stroke="#231F20" stroke-width="0.5" stroke-miterlimit="10" d="M209.135,271.653v-3.271
					c0-0.922,0.75-1.671,1.672-1.671l0,0c0.922,0,1.672,0.749,1.672,1.671v3.271"/>
				
					<line fill="none" stroke="#231F20" stroke-width="0.5" stroke-miterlimit="10" x1="212.479" y1="268.383" x2="209.135" y2="268.383"/>
			</g>
			<g>
				<path fill="none" stroke="#231F20" stroke-width="0.5" stroke-miterlimit="10" d="M204.301,271.653v-3.271
					c0-0.922,0.748-1.671,1.672-1.671l0,0c0.922,0,1.672,0.749,1.672,1.671v3.271"/>
				
					<line fill="none" stroke="#231F20" stroke-width="0.5" stroke-miterlimit="10" x1="207.645" y1="268.383" x2="204.301" y2="268.383"/>
			</g>
			<g>
				<path fill="none" stroke="#231F20" stroke-width="0.5" stroke-miterlimit="10" d="M199.467,271.653v-3.271
					c0-0.922,0.75-1.671,1.672-1.671l0,0c0.922,0,1.67,0.749,1.67,1.671v3.271"/>
				
					<line fill="none" stroke="#231F20" stroke-width="0.5" stroke-miterlimit="10" x1="202.809" y1="268.383" x2="199.467" y2="268.383"/>
			</g>
			<g>
				<path fill="none" stroke="#231F20" stroke-width="0.5" stroke-miterlimit="10" d="M194.633,271.653v-3.271
					c0-0.922,0.748-1.671,1.671-1.671l0,0c0.923,0,1.671,0.749,1.671,1.671v3.271"/>
				
					<line fill="none" stroke="#231F20" stroke-width="0.5" stroke-miterlimit="10" x1="197.975" y1="268.383" x2="194.633" y2="268.383"/>
			</g>
		</g>
		<g>
			<g>
				<path fill="none" stroke="#231F20" stroke-width="0.5" stroke-miterlimit="10" d="M171.982,271.653v-3.666
					c0-1.033,0.841-1.875,1.873-1.875l0,0c1.035,0,1.874,0.842,1.874,1.875v3.666"/>
				
					<line fill="none" stroke="#231F20" stroke-width="0.5" stroke-miterlimit="10" x1="175.729" y1="267.987" x2="171.982" y2="267.987"/>
			</g>
			<g>
				<path fill="none" stroke="#231F20" stroke-width="0.5" stroke-miterlimit="10" d="M175.588,249.396v-4.131
					c0-0.672,0.548-1.219,1.219-1.219l0,0c0.673,0,1.219,0.547,1.219,1.219v4.131"/>
				
					<line fill="none" stroke="#231F20" stroke-width="0.5" stroke-miterlimit="10" x1="178.597" y1="245.265" x2="175.052" y2="245.265"/>
			</g>
			<g>
				<path fill="none" stroke="#231F20" stroke-width="0.5" stroke-miterlimit="10" d="M177.826,271.653v-3.666
					c0-1.033,0.84-1.875,1.874-1.875l0,0c1.032,0,1.872,0.842,1.872,1.875v3.666"/>
				
					<line fill="none" stroke="#231F20" stroke-width="0.5" stroke-miterlimit="10" x1="181.573" y1="267.987" x2="177.826" y2="267.987"/>
			</g>
			
				<rect x="169.966" y="257.007" fill="none" stroke="#231F20" stroke-width="0.5" stroke-miterlimit="10" width="13.645" height="14.646"/>
			
				<line fill="none" stroke="#231F20" stroke-width="0.5" stroke-miterlimit="10" x1="184.787" y1="265.04" x2="168.79" y2="265.04"/>
			
				<line fill="none" stroke="#231F20" stroke-width="0.5" stroke-miterlimit="10" x1="184.787" y1="257.007" x2="168.79" y2="257.007"/>
			<polyline fill="none" stroke="#231F20" stroke-width="0.5" stroke-miterlimit="10" points="184.113,257.007 176.789,253.959 
				169.534,257.007 			"/>
			<polyline fill="none" stroke="#231F20" stroke-width="0.5" stroke-miterlimit="10" points="183.369,256.797 181.316,251.188 
				178.953,249.396 174.624,249.396 172.26,251.188 170.208,256.797 			"/>
			
				<line fill="none" stroke="#231F20" stroke-width="0.5" stroke-miterlimit="10" x1="181.316" y1="251.188" x2="172.26" y2="251.188"/>
			
				<line fill="none" stroke="#231F20" stroke-width="0.5" stroke-miterlimit="10" x1="176.807" y1="244.046" x2="176.807" y2="240.306"/>
			<g>
				<g>
					<g>
						
							<line fill="none" stroke="#231F20" stroke-width="0.5" stroke-miterlimit="10" x1="171.259" y1="258.192" x2="171.259" y2="265.04"/>
						
							<line fill="none" stroke="#231F20" stroke-width="0.5" stroke-miterlimit="10" x1="173.776" y1="258.192" x2="173.776" y2="265.04"/>
					</g>
					<g>
						
							<line fill="none" stroke="#231F20" stroke-width="0.5" stroke-miterlimit="10" x1="172.117" y1="259.187" x2="172.117" y2="260.426"/>
						
							<line fill="none" stroke="#231F20" stroke-width="0.5" stroke-miterlimit="10" x1="172.117" y1="261.966" x2="172.117" y2="263.995"/>
						
							<line fill="none" stroke="#231F20" stroke-width="0.5" stroke-miterlimit="10" x1="172.942" y1="259.187" x2="172.942" y2="260.426"/>
						
							<line fill="none" stroke="#231F20" stroke-width="0.5" stroke-miterlimit="10" x1="172.942" y1="261.966" x2="172.942" y2="263.995"/>
					</g>
				</g>
				
					<line fill="none" stroke="#231F20" stroke-width="0.5" stroke-miterlimit="10" x1="171.049" y1="258.192" x2="174.024" y2="258.192"/>
			</g>
			<g>
				<g>
					<g>
						
							<line fill="none" stroke="#231F20" stroke-width="0.5" stroke-miterlimit="10" x1="179.831" y1="258.192" x2="179.831" y2="265.04"/>
						
							<line fill="none" stroke="#231F20" stroke-width="0.5" stroke-miterlimit="10" x1="182.346" y1="258.192" x2="182.346" y2="265.04"/>
					</g>
					<g>
						
							<line fill="none" stroke="#231F20" stroke-width="0.5" stroke-miterlimit="10" x1="180.688" y1="259.187" x2="180.688" y2="260.426"/>
						
							<line fill="none" stroke="#231F20" stroke-width="0.5" stroke-miterlimit="10" x1="180.688" y1="261.966" x2="180.688" y2="263.995"/>
						
							<line fill="none" stroke="#231F20" stroke-width="0.5" stroke-miterlimit="10" x1="181.512" y1="259.187" x2="181.512" y2="260.426"/>
						
							<line fill="none" stroke="#231F20" stroke-width="0.5" stroke-miterlimit="10" x1="181.512" y1="261.966" x2="181.512" y2="263.995"/>
					</g>
				</g>
				
					<line fill="none" stroke="#231F20" stroke-width="0.5" stroke-miterlimit="10" x1="179.621" y1="258.192" x2="182.595" y2="258.192"/>
			</g>
			<g>
				<g>
					<g>
						
							<line fill="none" stroke="#231F20" stroke-width="0.5" stroke-miterlimit="10" x1="175.545" y1="258.192" x2="175.545" y2="265.04"/>
						
							<line fill="none" stroke="#231F20" stroke-width="0.5" stroke-miterlimit="10" x1="178.061" y1="258.192" x2="178.061" y2="265.04"/>
					</g>
					<g>
						
							<line fill="none" stroke="#231F20" stroke-width="0.5" stroke-miterlimit="10" x1="176.402" y1="259.187" x2="176.402" y2="260.426"/>
						
							<line fill="none" stroke="#231F20" stroke-width="0.5" stroke-miterlimit="10" x1="176.402" y1="261.966" x2="176.402" y2="263.995"/>
						
							<line fill="none" stroke="#231F20" stroke-width="0.5" stroke-miterlimit="10" x1="177.227" y1="259.187" x2="177.227" y2="260.426"/>
						
							<line fill="none" stroke="#231F20" stroke-width="0.5" stroke-miterlimit="10" x1="177.227" y1="261.966" x2="177.227" y2="263.995"/>
					</g>
				</g>
				
					<line fill="none" stroke="#231F20" stroke-width="0.5" stroke-miterlimit="10" x1="175.335" y1="258.192" x2="178.31" y2="258.192"/>
			</g>
		</g>
	</g>
</g>
<g>
	<path d="M151.338,292.146v-7.388c0-0.444,0.24-0.684,0.684-0.684h3.059c2.063,0,3.237,1.271,3.237,2.542
		c0,0.779-0.312,1.212-0.863,1.56c-0.217,0.132-0.217,0.349-0.013,0.468c0.695,0.42,1.067,1.104,1.067,1.774
		c0,1.522-1.391,2.411-3.334,2.411h-3.154C151.578,292.829,151.338,292.589,151.338,292.146z M153.88,287.636l1.066-0.012
		c0.637-0.012,1.056-0.348,1.056-0.863c0-0.492-0.408-0.828-1.007-0.828h-1.115c-0.145,0-0.24,0.098-0.24,0.24v1.225
		C153.641,287.54,153.736,287.636,153.88,287.636z M153.88,290.97h1.115c0.708,0,1.175-0.334,1.175-0.852
		c0-0.479-0.468-0.791-1.163-0.791h-1.127c-0.145,0-0.24,0.096-0.24,0.252v1.15C153.641,290.874,153.736,290.97,153.88,290.97z"/>
	<path d="M164.031,283.954c2.866,0,4.773,1.955,4.773,4.449c0,2.555-1.907,4.546-4.773,4.546c-2.878,0-4.772-1.991-4.772-4.546
		C159.258,285.909,161.153,283.954,164.031,283.954z M164.031,290.862c1.523,0,2.339-1.067,2.339-2.459
		c0-1.344-0.815-2.362-2.339-2.362c-1.522,0-2.339,1.021-2.339,2.362C161.692,289.795,162.508,290.862,164.031,290.862z"/>
	<path d="M169.95,284.638c0-0.371,0.191-0.563,0.563-0.563h2.65c2.051,0,3.634,1.223,3.634,3.01c0,1.15-0.601,2.111-1.644,2.555
		c-0.203,0.084-0.287,0.264-0.132,0.457l1.535,2.098c0.276,0.324,0.156,0.637-0.274,0.637h-1.739c-0.252,0-0.456-0.072-0.588-0.301
		l-1.211-2.158c-0.156-0.275-0.42-0.168-0.42,0.145v1.822c0,0.313-0.181,0.492-0.492,0.492h-1.392c-0.312,0-0.491-0.18-0.491-0.492
		L169.95,284.638L169.95,284.638z M172.564,288.283h0.601c0.756,0,1.199-0.455,1.199-1.14c0-0.672-0.443-1.115-1.188-1.115h-0.612
		c-0.144,0-0.239,0.097-0.239,0.24v1.774C172.324,288.188,172.42,288.283,172.564,288.283z"/>
	<path d="M178.074,292.146v-7.388c0-0.444,0.239-0.684,0.684-0.684h2.746c2.831,0,4.688,1.87,4.688,4.377
		c0,2.614-1.871,4.378-4.688,4.378h-2.746C178.313,292.829,178.074,292.589,178.074,292.146z M180.688,290.91h0.815
		c1.14,0,2.255-0.647,2.255-2.459c0-1.847-1.115-2.458-2.255-2.458h-0.815c-0.144,0-0.24,0.096-0.24,0.238v4.438
		C180.448,290.813,180.544,290.91,180.688,290.91z"/>
	<path d="M187.35,292.146v-7.388c0-0.444,0.24-0.684,0.685-0.684h4.102c0.313,0,0.492,0.18,0.492,0.491v0.924
		c0,0.313-0.18,0.504-0.492,0.504h-2.195c-0.155,0-0.239,0.096-0.239,0.238v1.045c0,0.144,0.084,0.238,0.239,0.238h1.979
		c0.312,0,0.492,0.182,0.492,0.492v0.911c0,0.313-0.181,0.492-0.492,0.492h-1.979c-0.155,0-0.239,0.096-0.239,0.252v1.007
		c0,0.145,0.084,0.24,0.239,0.24h2.388c0.312,0,0.491,0.191,0.491,0.504v0.923c0,0.313-0.18,0.492-0.491,0.492h-4.293
		C187.589,292.829,187.35,292.589,187.35,292.146z"/>
	<path d="M193.493,292.267l2.435-7.473c0.167-0.492,0.479-0.72,0.995-0.72h1.211c0.504,0,0.828,0.216,1.007,0.694l2.903,7.496
		c0.12,0.336-0.012,0.563-0.384,0.563h-1.523c-0.276,0-0.456-0.12-0.563-0.396l-0.276-0.865c-0.048-0.096-0.12-0.166-0.229-0.166
		h-2.77c-0.12,0-0.192,0.06-0.229,0.166l-0.216,0.853c-0.084,0.265-0.264,0.408-0.552,0.408h-1.415
		C193.542,292.829,193.385,292.603,193.493,292.267z M196.996,289.435h1.318c0.132,0,0.216-0.07,0.156-0.228l-0.768-2.351
		c-0.072-0.205-0.204-0.192-0.276,0l-0.6,2.351C196.792,289.339,196.852,289.435,196.996,289.435z"/>
	<path d="M202.421,284.565c0-0.313,0.18-0.491,0.492-0.491h1.45c0.313,0,0.491,0.18,0.491,0.491v4.713
		c0,1.021,0.769,1.535,1.464,1.535c0.731,0,1.477-0.539,1.477-1.535v-4.713c0-0.313,0.18-0.491,0.491-0.491h1.438
		c0.313,0,0.503,0.18,0.503,0.491v4.558c0,2.291-1.75,3.826-3.909,3.826c-2.183,0-3.897-1.571-3.897-3.826V284.565L202.421,284.565z
		"/>
	<path d="M211.134,292.218l2.866-3.67c0.107-0.145,0.084-0.275-0.013-0.396l-2.603-3.465c-0.239-0.324-0.108-0.611,0.312-0.611
		h1.607c0.252,0,0.455,0.084,0.611,0.313l1.379,2.014c0.121,0.168,0.289,0.181,0.408-0.012l1.224-2.002
		c0.132-0.217,0.336-0.313,0.587-0.313h1.464c0.42,0,0.552,0.287,0.313,0.611l-2.494,3.418c-0.096,0.131-0.096,0.275,0,0.408
		l2.817,3.705c0.24,0.323,0.097,0.611-0.313,0.611h-1.644c-0.252,0-0.454-0.084-0.61-0.313l-1.512-2.207
		c-0.119-0.168-0.287-0.18-0.408-0.012l-1.522,2.219c-0.154,0.217-0.348,0.313-0.611,0.313h-1.56
		C211.014,292.829,210.895,292.541,211.134,292.218z"/>
</g>
<circle fill="#F9D619" cx="136.264" cy="287.447" r="10.333"/>
<g>
	<path fill="#F9D619" d="M224.994,269.708c-1.064-0.475-1.467-0.895-1.467-1.661c0-0.766,0.768-6.019,1.518-6.019
		c0.748,0,1.577,4.985,1.577,5.902C226.622,268.849,225.765,269.56,224.994,269.708z"/>
	<path d="M224.403,267.278c-0.119,0-0.217,0.097-0.217,0.216v3.898c0,0.119,0.098,0.216,0.217,0.216s0.216-0.097,0.216-0.216v-3.898
		C224.618,267.375,224.522,267.278,224.403,267.278z"/>
	<path d="M224.403,261.475c-1.323,0-1.948,6.063-1.948,6.452c0,0.693,0.373,1.341,0.974,1.688c0.104,0.061,0.235,0.025,0.297-0.078
		c0.06-0.104,0.024-0.237-0.08-0.296c-0.467-0.271-0.759-0.774-0.759-1.313c0-1.44,0.902-6.021,1.517-6.021
		c0.613,0,1.516,4.58,1.516,6.021c0,0.539-0.29,1.043-0.759,1.313c-0.103,0.059-0.14,0.191-0.078,0.296
		c0.039,0.068,0.112,0.107,0.188,0.107c0.036,0,0.074-0.009,0.107-0.029c0.604-0.347,0.976-0.994,0.976-1.688
		C226.352,267.538,225.725,261.475,224.403,261.475z"/>
</g>
<g>
	<path fill="#F9D619" d="M233.791,269.859c-0.979-0.437-1.35-0.822-1.35-1.528c0-0.704,0.706-5.537,1.396-5.537
		c0.688,0,1.451,4.587,1.451,5.431C235.289,269.069,234.5,269.724,233.791,269.859z"/>
	<path d="M233.247,267.624c-0.11,0-0.2,0.089-0.2,0.199v3.587c0,0.109,0.09,0.198,0.2,0.198c0.109,0,0.198-0.089,0.198-0.198v-3.587
		C233.446,267.713,233.357,267.624,233.247,267.624z"/>
	<path d="M233.247,262.284c-1.218,0-1.793,5.579-1.793,5.937c0,0.638,0.343,1.234,0.896,1.553c0.097,0.056,0.217,0.023,0.273-0.071
		c0.055-0.097,0.022-0.219-0.073-0.272c-0.43-0.25-0.698-0.713-0.698-1.209c0-1.325,0.83-5.539,1.396-5.539
		c0.563,0,1.395,4.214,1.395,5.539c0,0.496-0.268,0.96-0.698,1.209c-0.095,0.054-0.129,0.176-0.072,0.272
		c0.036,0.063,0.104,0.099,0.173,0.099c0.033,0,0.068-0.009,0.099-0.027c0.556-0.318,0.897-0.915,0.897-1.553
		C235.04,267.863,234.463,262.284,233.247,262.284z"/>
</g>
<g>
	<path fill="#F9D619" d="M229.525,270.221c-0.777-0.347-1.071-0.653-1.071-1.213c0-0.559,0.561-4.394,1.108-4.394
		c0.546,0,1.151,3.64,1.151,4.309C230.713,269.594,230.087,270.112,229.525,270.221z"/>
	<path d="M229.093,268.447c-0.088,0-0.159,0.07-0.159,0.157v2.847c0,0.087,0.071,0.157,0.159,0.157c0.087,0,0.157-0.07,0.157-0.157
		v-2.847C229.25,268.518,229.18,268.447,229.093,268.447z"/>
	<path d="M229.093,264.21c-0.967,0-1.423,4.427-1.423,4.711c0,0.506,0.272,0.979,0.711,1.231c0.076,0.044,0.172,0.019,0.217-0.057
		c0.043-0.076,0.018-0.174-0.059-0.216c-0.341-0.198-0.554-0.565-0.554-0.959c0-1.052,0.658-4.396,1.107-4.396
		c0.447,0,1.106,3.344,1.106,4.396c0,0.394-0.212,0.761-0.555,0.959c-0.074,0.042-0.102,0.14-0.057,0.216
		c0.028,0.05,0.082,0.078,0.137,0.078c0.026,0,0.055-0.007,0.078-0.021c0.441-0.253,0.713-0.726,0.713-1.231
		C230.516,268.637,230.058,264.21,229.093,264.21z"/>
</g>
</svg>
