<?xml version="1.0" encoding="utf-8"?>
<!-- Generator: Adobe Illustrator 16.0.0, SVG Export Plug-In . SVG Version: 6.00 Build 0)  -->
<!DOCTYPE svg PUBLIC "-//W3C//DTD SVG 1.1//EN" "http://www.w3.org/Graphics/SVG/1.1/DTD/svg11.dtd">
<svg version="1.1" id="Layer_1" xmlns="http://www.w3.org/2000/svg" xmlns:xlink="http://www.w3.org/1999/xlink" x="0px" y="0px"
	 width="50px" height="55px" viewBox="0 0 50 55" enable-background="new 0 0 50 55" xml:space="preserve">
<g>
	<rect x="14.08" y="14.416" fill="#FFFFFF" width="25.232" height="28.958"/>
	<g>
		<path d="M37.104,3.917H12.563c-1.655,0-3.001,1.347-3.001,3.002v41.414c0,1.653,1.346,3.002,3.002,3.002h24.538
			c1.655,0,3.002-1.349,3.002-3.002V6.918C40.104,5.263,38.758,3.917,37.104,3.917z M11.066,11.461h27.536v31.357H11.066V11.461z
			 M12.563,5.42h24.539c0.826,0,1.5,0.672,1.5,1.498v3.541H11.066V6.918C11.066,6.093,11.737,5.42,12.563,5.42z M37.104,49.828
			H12.563c-0.826,0-1.497-0.672-1.497-1.496v-4.51h27.536v4.51C38.602,49.157,37.93,49.828,37.104,49.828z"/>
		<path d="M24.834,44.488c-1.359,0-2.464,1.104-2.464,2.464c0,1.358,1.104,2.463,2.464,2.463c1.357,0,2.463-1.106,2.463-2.463
			C27.297,45.593,26.191,44.488,24.834,44.488z M24.834,48.412c-0.806,0-1.461-0.655-1.461-1.46c0-0.806,0.655-1.461,1.461-1.461
			c0.805,0,1.46,0.655,1.46,1.461C26.294,47.757,25.639,48.412,24.834,48.412z"/>
		<path d="M21.424,8.695h6.818c0.279,0,0.503-0.225,0.503-0.501c0-0.277-0.224-0.502-0.503-0.502h-6.818
			c-0.277,0-0.501,0.225-0.501,0.502C20.923,8.47,21.146,8.695,21.424,8.695z"/>
		<path d="M19.619,8.695c0.131,0,0.26-0.053,0.354-0.146c0.093-0.094,0.146-0.223,0.146-0.355c0-0.132-0.054-0.261-0.146-0.355
			c-0.095-0.093-0.224-0.146-0.354-0.146c-0.133,0-0.261,0.054-0.355,0.146c-0.093,0.094-0.146,0.223-0.146,0.355
			c0,0.132,0.054,0.261,0.146,0.355C19.357,8.642,19.486,8.695,19.619,8.695z"/>
	</g>
	<path d="M21.111,26.473c-0.222,0.223-0.582,0.222-0.805,0l0,0c-0.222-0.223-0.222-0.583,0-0.805l8.917-8.877
		c0.221-0.222,0.58-0.223,0.803,0l0,0c0.224,0.221,0.224,0.582,0,0.804L21.111,26.473z"/>
	<path d="M18.824,35.078c-0.224,0.222-0.583,0.222-0.804,0l0,0c-0.224-0.225-0.224-0.583-0.001-0.805l10.239-10.332
		c0.223-0.222,0.582-0.223,0.805,0l0,0c0.223,0.221,0.223,0.582,0,0.804L18.824,35.078z"/>
</g>
</svg>
