<?xml version="1.0" encoding="utf-8"?>
<!-- Generator: Adobe Illustrator 16.0.0, SVG Export Plug-In . SVG Version: 6.00 Build 0)  -->
<!DOCTYPE svg PUBLIC "-//W3C//DTD SVG 1.1//EN" "http://www.w3.org/Graphics/SVG/1.1/DTD/svg11.dtd">
<svg version="1.1" id="Layer_1" xmlns="http://www.w3.org/2000/svg" xmlns:xlink="http://www.w3.org/1999/xlink" x="0px" y="0px"
	 width="145px" height="135px" viewBox="0 0 145 135" enable-background="new 0 0 145 135" xml:space="preserve">
<polygon fill="#FFD400" points="24.537,71.167 24.537,42.504 69.307,42.504 69.307,68.167 61.981,61.315 50.608,71.682 
	38.167,59.334 "/>
<circle fill="#FFFFFF" cx="49.083" cy="51.751" r="4.25"/>
<rect x="23.559" y="102.637" fill="#FFD400" width="12.346" height="13.146"/>
<polygon points="16.088,69.594 34.675,55.167 35.513,54.517 36.156,55.242 52,73.125 34.595,56.758 36.075,56.833 18.662,72.656 "/>
<polygon points="45.724,66.719 58.61,57.082 59.477,56.434 60.091,57.157 70.67,69.617 58.53,58.673 60.01,58.748 48.297,69.781 "/>
<rect x="13.625" y="58.834" fill="#FFFFFF" width="5.875" height="17.916"/>
<path fill="#231F20" d="M44.387,53.472c0,0-0.081-0.096-0.232-0.277c-0.136-0.191-0.414-0.417-0.606-0.818
	c-0.106-0.193-0.247-0.399-0.359-0.643c-0.093-0.253-0.193-0.528-0.301-0.821c-0.075-0.303-0.121-0.635-0.193-0.989
	c-0.023-0.354-0.021-0.735-0.026-1.142c0.113-0.786,0.302-1.695,0.834-2.524l0.197-0.318l0.102-0.161l0.052-0.081
	c0.027-0.026-0.052,0.043,0.063-0.061l0.007-0.008l0.014-0.015l0.028-0.031c0.151-0.166,0.303-0.334,0.457-0.504
	c0.084-0.085,0.138-0.17,0.249-0.256l0.354-0.259c0.241-0.165,0.499-0.366,0.762-0.488c1.024-0.517,2.256-0.757,3.513-0.61
	c1.254,0.182,2.447,0.809,3.399,1.691l0.132,0.148l0.029,0.037l0.059,0.074l0.117,0.148l0.234,0.295
	c0.145,0.15,0.339,0.487,0.5,0.813c0.381,0.655,0.49,1.268,0.626,1.883c0.151,1.257-0.088,2.492-0.608,3.517
	c-0.568,0.992-1.315,1.821-2.179,2.282c-0.331,0.234-0.847,0.419-1.279,0.575c-0.433,0.167-0.863,0.179-1.254,0.263
	c-0.407-0.004-0.789-0.004-1.143-0.027c-0.354-0.071-0.687-0.119-0.99-0.193c-0.293-0.108-0.567-0.208-0.82-0.302
	c-0.243-0.112-0.449-0.252-0.642-0.358c-0.401-0.192-0.628-0.472-0.82-0.607C44.483,53.553,44.387,53.472,44.387,53.472z
	 M44.387,53.472c0,0,0.099,0.078,0.283,0.225c0.198,0.125,0.422,0.412,0.839,0.57c0.2,0.088,0.412,0.208,0.658,0.296
	c0.255,0.057,0.53,0.119,0.825,0.186c0.297,0.036,0.621,0.013,0.949,0.019c0.329-0.034,0.669-0.133,1.01-0.213
	c0.318-0.165,0.685-0.267,0.971-0.481c0.283-0.229,0.55-0.376,0.848-0.75c0.559-0.544,0.832-1.308,1.025-2.019
	c0.147-0.749,0.056-1.504-0.117-2.201c-0.152-0.331-0.258-0.703-0.42-0.903c-0.071-0.118-0.087-0.239-0.295-0.456l-0.243-0.289
	l-0.122-0.145l-0.061-0.072l-0.03-0.036l-0.015-0.019l-0.007-0.009c0.043,0.047-0.106-0.118,0.094,0.103
	c-0.53-0.483-1.131-0.861-1.824-1.104c-0.698-0.176-1.456-0.268-2.205-0.119c-0.181,0.033-0.317,0.096-0.492,0.132l-0.258,0.063
	c-0.089,0.025-0.196,0.108-0.292,0.16c-0.197,0.117-0.392,0.232-0.585,0.347l-0.036,0.021l-0.018,0.011l-0.009,0.005
	c0.108-0.099,0.026-0.024,0.048-0.044l-0.053,0.047l-0.107,0.094l-0.215,0.188c-0.611,0.485-0.964,1.167-1.234,1.829
	c-0.08,0.341-0.178,0.682-0.211,1.011c0.005,0.329-0.017,0.652,0.02,0.949c0.066,0.294,0.129,0.57,0.187,0.825
	c0.088,0.245,0.208,0.456,0.296,0.656c0.158,0.416,0.446,0.642,0.571,0.84C44.309,53.373,44.387,53.472,44.387,53.472z"/>
<path d="M43.31,108.064c0,0,2.137-0.334,5.342-0.571c1.603-0.129,3.472-0.235,5.476-0.307c1.002-0.026,2.037-0.083,3.088-0.087
	c1.052-0.012,2.12-0.022,3.189-0.034c1.068,0.011,2.137,0.022,3.188,0.033c1.052,0.001,2.087,0.06,3.088,0.085
	c2.003,0.07,3.873,0.178,5.476,0.307c3.206,0.237,5.342,0.574,5.342,0.574s-2.137,0.337-5.342,0.574
	c-1.603,0.129-3.472,0.236-5.476,0.307c-1.001,0.025-2.037,0.084-3.088,0.085c-1.052,0.011-2.12,0.022-3.188,0.033
	c-1.069-0.012-2.137-0.022-3.189-0.034c-1.052-0.004-2.086-0.061-3.088-0.087c-2.003-0.071-3.873-0.178-5.476-0.307
	C45.447,108.398,43.31,108.064,43.31,108.064z"/>
<path d="M44.31,115.631c0,0,1.855-0.103,4.639-0.257c2.783-0.161,6.495-0.288,10.206-0.443c1.855-0.067,3.711-0.224,5.451-0.242
	c1.74,0.004,3.363,0.106,4.755,0.242c2.784,0.251,4.639,0.7,4.639,0.7v0.199c0,0-1.855,0.449-4.639,0.7
	c-1.392,0.136-3.015,0.238-4.755,0.242c-1.74-0.019-3.595-0.175-5.451-0.242c-3.711-0.155-7.423-0.282-10.206-0.443
	c-2.784-0.154-4.639-0.257-4.639-0.257V115.631z"/>
<path d="M50.15,99.755c0,0,1.491-0.103,3.727-0.257c2.236-0.161,5.217-0.288,8.199-0.443c1.49-0.066,2.981-0.224,4.378-0.242
	c1.397,0.004,2.702,0.106,3.82,0.242c2.236,0.251,3.727,0.7,3.727,0.7v0.199c0,0-1.491,0.449-3.727,0.7
	c-1.118,0.136-2.422,0.238-3.82,0.242c-1.397-0.019-2.888-0.176-4.378-0.242c-2.981-0.155-5.963-0.282-8.199-0.443
	c-2.236-0.154-3.727-0.257-3.727-0.257V99.755z"/>
<path d="M5.25,113.75l-0.424-11.094l-0.35-11.094l-0.3-11.094L3.929,69.375c-0.173-7.396-0.297-14.792-0.4-22.188
	C3.403,39.792,3.306,32.396,3.253,25l-0.014-1.98l2.011-0.017l19.813-0.166l19.813-0.061c13.208-0.067,26.417,0.052,39.625,0.068
	l2.174,0.002L86.654,25l-0.242,27.125L86.006,79.25l-0.282,13.563l-0.332,13.563c-0.111,4.521-0.243,9.042-0.396,13.563
	c-0.132,4.521-0.324,9.042-0.495,13.563c-0.171-4.521-0.363-9.042-0.495-13.563c-0.153-4.521-0.285-9.042-0.396-13.563
	l-0.332-13.563L82.994,79.25l-0.406-27.125L82.346,25l2.154,2.155c-13.208,0.017-26.417,0.136-39.625,0.068l-19.813-0.061
	L5.25,26.997L7.247,25c-0.053,7.396-0.149,14.792-0.275,22.188c-0.103,7.396-0.227,14.792-0.4,22.188L6.324,80.469l-0.3,11.094
	l-0.35,11.094L5.25,113.75z"/>
<path d="M5,130.325c0,0,5.594-0.18,13.984-0.448c8.391-0.283,19.578-0.504,30.766-0.777c2.797-0.08,5.594-0.16,8.347-0.239
	c2.753-0.097,5.463-0.168,8.085-0.184c2.622,0.004,5.157,0.034,7.561,0.131c2.403,0.072,4.676,0.172,6.773,0.292
	c2.098,0.107,4.021,0.251,5.725,0.377c1.705,0.136,3.19,0.268,4.414,0.396c2.447,0.248,3.846,0.453,3.846,0.453v0.35
	c0,0-1.398,0.205-3.846,0.453c-1.224,0.128-2.709,0.26-4.414,0.396c-1.704,0.126-3.627,0.27-5.725,0.377
	c-2.098,0.12-4.37,0.22-6.773,0.292c-2.404,0.097-4.938,0.127-7.561,0.131c-2.622-0.016-5.332-0.087-8.085-0.184
	c-2.753-0.079-5.55-0.159-8.347-0.239c-11.188-0.273-22.375-0.494-30.766-0.777C10.594,130.854,5,130.675,5,130.675V130.325z"/>
<path d="M132.525,113.25l-0.941-54.375L130.856,4.5l1.894,1.894l-19.875,0.347l-9.938,0.103C99.625,6.837,96.313,6.839,93,6.789
	c-3.313-0.025-6.625-0.111-9.938-0.176c-3.313-0.058-6.625-0.15-9.938-0.258C69.813,6.265,66.5,6.14,63.188,6.002
	C59.875,5.884,56.563,5.7,53.25,5.543L54.293,4.5c-0.277,4.167-0.465,8.333-0.818,12.5h-0.45c-0.353-4.167-0.541-8.333-0.818-12.5
	l-0.066-0.991l1.109-0.052c3.313-0.157,6.625-0.341,9.938-0.459c3.313-0.138,6.625-0.263,9.938-0.353
	c3.313-0.108,6.625-0.2,9.938-0.258C86.375,2.322,89.688,2.236,93,2.211c3.313-0.051,6.625-0.049,9.938-0.055l9.938,0.103
	l19.875,0.347l1.919,0.033l-0.025,1.86l-0.728,54.375l-0.941,54.375H132.525z"/>
<path d="M81.43,19.632c0,0-1.85-0.779-4.595-2.004c-1.375-0.607-2.98-1.313-4.687-2.096c-1.714-0.768-3.521-1.626-5.335-2.472
	c-0.916-0.408-1.831-0.816-2.731-1.218c-0.908-0.388-1.792-0.788-2.626-1.216c-0.826-0.442-1.614-0.89-2.334-1.366
	c-0.729-0.458-1.407-0.914-2.02-1.356c-2.472-1.739-3.922-3.271-3.922-3.271l0.141-0.265c0,0,2.082,0.342,4.906,1.416
	c0.711,0.26,1.468,0.566,2.256,0.914c0.797,0.33,1.61,0.732,2.439,1.168c0.821,0.451,1.648,0.958,2.478,1.494
	c0.837,0.521,1.688,1.051,2.538,1.58c1.717,1.029,3.441,2.045,5.038,3.036c1.604,0.975,3.088,1.91,4.362,2.709
	c2.552,1.587,4.233,2.683,4.233,2.683L81.43,19.632z"/>
<path d="M19.35,115.75c-0.242-5.583-0.404-11.167-0.605-16.75l-0.026-0.731l0.782-0.024l17-0.513l1.23-0.037L37.769,99
	c0.082,2.792,0.272,5.583,0.292,8.375c0.009,1.396-0.017,2.792-0.067,4.188c-0.076,1.396-0.111,2.792-0.222,4.188l-0.108,1.345
	l-1.163-0.074c-1.657-0.106-3.314-0.248-4.972-0.428c-1.657-0.174-3.314-0.394-4.972-0.692V115.6
	c1.657-0.299,3.314-0.519,4.972-0.692c1.658-0.18,3.315-0.321,4.972-0.428l-1.271,1.271c-0.111-1.396-0.146-2.792-0.222-4.188
	c-0.05-1.396-0.077-2.792-0.067-4.188c0.019-2.792,0.21-5.583,0.292-8.375l1.269,1.269l-17-0.513L20.255,99
	c-0.202,5.583-0.364,11.167-0.605,16.75H19.35z"/>
<rect x="102.658" y="86.758" fill="#FFD400" width="18.059" height="10.775"/>
<path d="M98.923,97.504L98.519,83.5l-0.014-0.496l0.518-0.008l22.228-0.342l0.824-0.013l0.021,0.858
	c0.058,2.334,0.167,4.668,0.189,7.002c0.007,1.167-0.023,2.334-0.033,3.501c-0.04,1.167-0.075,2.334-0.135,3.501l-0.047,0.9
	l-0.82-0.033c-1.817-0.074-3.636-0.167-5.453-0.289c-0.909-0.063-1.817-0.126-2.727-0.213c-0.909-0.082-1.817-0.155-2.727-0.266
	v-0.199c0.909-0.11,1.817-0.184,2.727-0.266c0.909-0.087,1.817-0.15,2.727-0.213c1.817-0.122,3.636-0.215,5.453-0.289l-0.867,0.867
	c-0.06-1.167-0.095-2.334-0.135-3.501c-0.01-1.167-0.04-2.334-0.033-3.501c0.022-2.334,0.132-4.668,0.189-7.002l0.846,0.846
	l-22.228-0.342l0.504-0.504l-0.404,14.004H98.923z"/>
<rect x="99.309" y="28.137" fill="#FFD400" width="22.346" height="13.146"/>
<path d="M91.561,59.814c0,0,2.137-0.334,5.342-0.572c1.603-0.128,3.473-0.235,5.476-0.307c1.002-0.026,2.037-0.082,3.089-0.086
	c1.052-0.011,2.12-0.023,3.188-0.035c1.068,0.011,2.137,0.023,3.188,0.034c1.052,0,2.087,0.06,3.089,0.085
	c2.003,0.069,3.873,0.177,5.476,0.306c3.205,0.238,5.342,0.575,5.342,0.574s-2.137,0.336-5.342,0.574
	c-1.603,0.129-3.473,0.237-5.476,0.306c-1.002,0.026-2.037,0.085-3.089,0.085c-1.052,0.011-2.12,0.022-3.188,0.034
	c-1.068-0.012-2.137-0.023-3.188-0.035c-1.052-0.004-2.087-0.061-3.089-0.086c-2.003-0.071-3.873-0.178-5.476-0.307
	C93.697,60.149,91.561,59.814,91.561,59.814z"/>
<path d="M93.561,67.38c0,0,1.855-0.103,4.639-0.256c2.783-0.162,6.495-0.288,10.206-0.444c1.855-0.067,3.711-0.223,5.451-0.242
	c1.739,0.003,3.363,0.106,4.755,0.242c2.783,0.251,4.639,0.7,4.639,0.7v0.2c0,0-1.855,0.449-4.639,0.7
	c-1.392,0.136-3.016,0.238-4.755,0.242c-1.74-0.019-3.596-0.175-5.451-0.242c-3.711-0.155-7.423-0.282-10.206-0.444
	c-2.783-0.153-4.639-0.256-4.639-0.256V67.38z"/>
<path d="M98.4,51.504c0,0,1.49-0.103,3.727-0.256c2.236-0.162,5.217-0.288,8.198-0.444c1.49-0.067,2.981-0.223,4.379-0.242
	c1.397,0.004,2.701,0.107,3.819,0.242c2.236,0.251,3.727,0.7,3.727,0.7v0.2c0,0-1.49,0.449-3.727,0.7
	c-1.118,0.135-2.422,0.238-3.819,0.242c-1.397-0.019-2.889-0.175-4.379-0.242c-2.981-0.156-5.962-0.282-8.198-0.444
	c-2.236-0.153-3.727-0.256-3.727-0.256V51.504z"/>
<path d="M95.1,48.334L94.494,24.5l-0.018-0.72l0.773-0.036c5.208-0.239,10.417-0.409,15.625-0.732
	c1.302-0.07,2.604-0.087,3.906-0.058c1.302,0.034,2.604,0.131,3.906,0.225c1.302,0.113,2.604,0.251,3.906,0.437
	c1.302,0.19,2.604,0.411,3.906,0.734v0.3c-1.302,0.323-2.604,0.543-3.906,0.734c-1.302,0.186-2.604,0.324-3.906,0.437
	c-1.302,0.094-2.604,0.191-3.906,0.225c-1.302,0.029-2.604,0.012-3.906-0.058c-5.208-0.324-10.417-0.494-15.625-0.732l0.756-0.755
	L95.4,48.334H95.1z"/>
<path d="M19.1,86.333L18.494,37.5l-0.009-0.736l0.765-0.019c9.579-0.238,19.158-0.41,28.737-0.731l3.592-0.063
	c1.197-0.024,2.395-0.006,3.592,0.004c2.395,0.034,4.789,0.131,7.184,0.225c2.395,0.113,4.789,0.251,7.184,0.437
	c1.197,0.099,2.395,0.19,3.592,0.326c1.197,0.127,2.395,0.237,3.592,0.408v0.3c-1.197,0.17-2.395,0.28-3.592,0.408
	c-1.198,0.136-2.395,0.227-3.592,0.326c-2.395,0.186-4.79,0.324-7.184,0.437c-2.395,0.094-4.79,0.191-7.184,0.225
	c-1.198,0.01-2.395,0.028-3.592,0.004l-3.592-0.063c-9.579-0.322-19.158-0.493-28.737-0.731l0.755-0.755l-0.605,48.833H19.1z"/>
<path d="M122.4,19.5l0.605,22.417l0.019,0.72l-0.774,0.036c-5.181,0.239-10.361,0.409-15.542,0.732
	c-1.295,0.07-2.59,0.087-3.885,0.058c-1.295-0.034-2.591-0.131-3.886-0.225c-1.295-0.113-2.59-0.251-3.885-0.437
	c-1.296-0.19-2.591-0.411-3.886-0.734v-0.3c1.295-0.323,2.59-0.543,3.886-0.734c1.295-0.186,2.59-0.324,3.885-0.437
	c1.295-0.094,2.591-0.191,3.886-0.225c1.295-0.029,2.59-0.012,3.885,0.058c5.181,0.324,10.361,0.494,15.542,0.732l-0.756,0.755
	L122.1,19.5H122.4z"/>
<path d="M69.567,32.667l0.605,47.915l0.009,0.735l-0.765,0.021c-9.264,0.237-18.528,0.409-27.792,0.731l-3.474,0.063
	c-1.158,0.024-2.316,0.006-3.474-0.004c-2.316-0.034-4.632-0.131-6.948-0.225c-2.316-0.113-4.632-0.251-6.948-0.438
	c-1.158-0.1-2.316-0.19-3.474-0.326c-1.158-0.127-2.316-0.237-3.474-0.407v-0.301c1.158-0.17,2.316-0.28,3.474-0.407
	c1.158-0.136,2.316-0.227,3.474-0.326c2.316-0.187,4.632-0.324,6.948-0.438c2.316-0.094,4.632-0.19,6.948-0.225
	c1.158-0.01,2.316-0.028,3.474-0.004l3.474,0.063c9.264,0.322,18.528,0.494,27.792,0.731l-0.755,0.756l0.605-47.915H69.567z"/>
<path d="M143,108.25c0,0-3.984,0.418-9.961,0.715c-2.988,0.161-6.475,0.294-10.21,0.383c-1.868,0.033-3.798,0.103-5.759,0.108
	c-1.961,0.014-3.953,0.028-5.945,0.043c-1.992-0.014-3.984-0.028-5.945-0.042c-1.961-0.001-3.891-0.074-5.759-0.106
	c-3.735-0.087-7.222-0.222-10.21-0.383c-5.977-0.297-9.961-0.718-9.961-0.718s3.984-0.421,9.961-0.718
	c2.988-0.161,6.475-0.296,10.21-0.383c1.868-0.032,3.798-0.105,5.759-0.106c1.961-0.014,3.953-0.028,5.945-0.042
	c1.992,0.015,3.984,0.029,5.945,0.043c1.961,0.006,3.891,0.075,5.759,0.108c3.735,0.089,7.222,0.222,10.21,0.383
	C139.016,107.832,143,108.25,143,108.25z"/>
</svg>
