<?xml version="1.0" encoding="utf-8"?>
<!-- Generator: Adobe Illustrator 16.0.0, SVG Export Plug-In . SVG Version: 6.00 Build 0)  -->
<!DOCTYPE svg PUBLIC "-//W3C//DTD SVG 1.1//EN" "http://www.w3.org/Graphics/SVG/1.1/DTD/svg11.dtd">
<svg version="1.1" id="Layer_1" xmlns="http://www.w3.org/2000/svg" xmlns:xlink="http://www.w3.org/1999/xlink" x="0px" y="0px"
	 width="90px" height="70px" viewBox="0 0 90 70" enable-background="new 0 0 90 70" xml:space="preserve">
<g>
	<path fill="#2F5A93" d="M9.144,70h71.712V0H9.144V70z M56.957,41.74c-1.86-0.643-7.28-2.566-7.28-7.843
		c0-5.286,6.351-11.493,16.842-6.211l-1.643,4.641c-3.134-1.931-8.919-2.857-8.919,0.784c0,0.786,0.284,2.5,3.997,3.645
		c3.711,1.14,7.276,2.776,7.276,7.986c0,5.205-6.213,11.279-18.483,5.988c-0.067,0,1.499-4.706,1.499-4.706
		c3.285,1.57,10.771,3.498,10.771-0.786C61.018,43.315,58.808,42.385,56.957,41.74 M24.563,17.199
		c9.562-2.07,23.693-1.999,23.693,10.205c0,8.56-6.248,12.594-17.165,11.235c0.067,0-0.035,13.521-0.035,13.521h-6.493V17.199z"/>
	<path fill="#2F5A93" d="M41.899,27.614c0-5.849-4.852-6.708-10.915-5.925v11.994C35.33,34.323,41.899,33.463,41.899,27.614"/>
</g>
</svg>
