<?xml version="1.0" encoding="utf-8"?>
<!-- Generator: Adobe Illustrator 16.0.0, SVG Export Plug-In . SVG Version: 6.00 Build 0)  -->
<!DOCTYPE svg PUBLIC "-//W3C//DTD SVG 1.1//EN" "http://www.w3.org/Graphics/SVG/1.1/DTD/svg11.dtd">
<svg version="1.1" id="Layer_1" xmlns="http://www.w3.org/2000/svg" xmlns:xlink="http://www.w3.org/1999/xlink" x="0px" y="0px"
	 width="90px" height="70px" viewBox="0 0 90 70" enable-background="new 0 0 90 70" xml:space="preserve">
<g>
	<path fill="#00D8FF" d="M60.407,69.512c-7.889,0-19.535-10.939-28.323-26.6C21.652,24.308,19.337,6.45,26.811,2.25
		c1.077-0.601,2.296-0.907,3.639-0.907c7.885,0,19.53,10.934,28.321,26.598c10.434,18.605,12.748,36.47,5.274,40.672
		C62.966,69.205,61.747,69.512,60.407,69.512 M30.449,4.424c-0.806,0-1.521,0.175-2.128,0.517
		c-5.037,2.823-3.627,18.499,6.453,36.469c9.123,16.246,20.013,25.018,25.633,25.018c0.803,0,1.518-0.172,2.127-0.521
		c5.035-2.818,3.624-18.491-6.448-36.454C46.956,13.2,36.064,4.424,30.449,4.424"/>
	<path fill="#00D8FF" d="M30.446,69.512L30.446,69.512c-1.342,0-2.559-0.307-3.638-0.898c-7.472-4.202-5.158-22.07,5.275-40.672
		C40.872,12.277,52.519,1.344,60.407,1.344c1.34,0,2.563,0.306,3.635,0.907c7.48,4.199,5.162,22.058-5.271,40.662
		C49.979,58.572,38.333,69.512,30.446,69.512 M60.407,4.424c-5.62,0-16.51,8.775-25.632,25.029
		c-10.081,17.962-11.486,33.635-6.454,36.454c0.607,0.349,1.327,0.521,2.125,0.521c5.623,0,16.513-8.767,25.634-25.018
		C66.158,23.435,67.569,7.764,62.534,4.941C61.929,4.599,61.21,4.424,60.407,4.424"/>
	<path fill="#00D8FF" d="M46.417,50.725c-0.394,0-0.776,0-1.163-0.004C23.922,50.477,7.292,43.553,7.393,34.982
		c0.101-8.469,16.026-14.852,37.052-14.852c0.394,0,0.776,0,1.163,0.006c21.329,0.241,37.958,7.156,37.854,15.733
		C83.365,44.339,67.441,50.725,46.417,50.725 M44.444,23.203c-20.238,0-33.907,6.107-33.969,11.814
		c-0.068,5.775,14.216,12.375,34.813,12.619c0.381,0,0.753,0.005,1.129,0.005c20.235,0,33.907-6.104,33.964-11.803
		c0.069-5.786-14.213-12.387-34.811-12.627C45.19,23.212,44.82,23.203,44.444,23.203"/>
	<path fill="#00D8FF" d="M52.232,35.425c0,3.761-3.046,6.807-6.803,6.807c-3.763,0-6.807-3.046-6.807-6.807
		c0-3.757,3.044-6.803,6.807-6.803C49.187,28.623,52.232,31.668,52.232,35.425"/>
</g>
</svg>
