<?xml version="1.0" encoding="utf-8"?>
<!-- Generator: Adobe Illustrator 16.0.0, SVG Export Plug-In . SVG Version: 6.00 Build 0)  -->
<!DOCTYPE svg PUBLIC "-//W3C//DTD SVG 1.1//EN" "http://www.w3.org/Graphics/SVG/1.1/DTD/svg11.dtd">
<svg version="1.1" id="Layer_1" xmlns="http://www.w3.org/2000/svg" xmlns:xlink="http://www.w3.org/1999/xlink" x="0px" y="0px"
	 width="90px" height="70px" viewBox="0 0 90 70" enable-background="new 0 0 90 70" xml:space="preserve">
<path fill="#C76494" d="M79.734,39.746c-2.115-0.308-6.473-0.836-10.246,1.7c-0.59-0.709-1.643-3.712-2.119-5.715
	c-0.475-2.003,0.477-3.825,1.119-5.3c0.648-1.469-0.822-1.525-2.889-1.469c-2.053,0.059-2.646,0.94-2.646,1.121
	c0,0.174-0.533,1.526-0.707,2.766c-0.176,1.235-3.826,7.124-5.535,10.012c-0.59-0.943-1.355-3.713-1.527-5.299
	c-0.182-1.592,0.762-3.772,1.229-4.713c0.48-0.942-0.881-1.356-2.529-1.356c-1.65,0-2.768,0.299-3.121,1.474
	c-0.469,2.474-7.889,18.32-8.303,19.258c-0.411,0.938-0.469,1.058-0.765,0.877c-0.821-1.467,1.767-9.827,2.062-10.95
	c0.298-1.122,0-1.466-0.588-1.823c-0.59-0.355-1.297-0.527-2.183,0.181c0.417-1.713,0.297-5.244-2.413-5.71
	c-2.707-0.478-7.361,3.531-8.299,5.412l-9.14,4.95c-3.03-3.635-7.415-6.233-8.88-7.482c-2.415-2.058-5.188-4.829-4.831-9.301
	c2.766-16.31,30.267-21.614,33.563-21.969c3.304-0.353,11.486,0.057,11.07,6.419c-1.17,12.775-18.251,15.719-22.081,15.957
	c-3.826,0.237-6.475-1.414-7.831-2.824c-0.178-0.358-0.943,0-0.882,0.468c0.115,2.239,5.006,5.419,10.3,5.479
	c20.493-1.178,24.384-13.956,25.44-19.256c0.422-2.09-1.586-11.601-15.068-11.601c-17.375,0-38.167,13.013-41.225,26.849
	c-0.941,7.484,12.429,15.139,17.311,19.023c-1.057,0.356-4.241,2.476-5.888,3.36c-5.434,2.91-8.365,8.532-8.717,10.77
	c-0.354,2.238,0.883,6.599,4.77,7.068c9.307,0.469,15.079-6.653,15.962-14.657c0.242-2.185-0.355-4.209-1.402-6.021
	c1.64-0.931,5.348-2.758,5.348-2.758c-3.479,7.418,0.765,15.133,3.357,15.248c2.588,0.124,3.943-2.999,6.358-8.359
	c-1.355,4.536,0.706,7.303,1.939,7.184c3.713-0.766,8.127-11.716,11.844-19.608c-0.355,1.827,1.412,5.422,2.648,7.835
	c-0.832,1.119-6.068,7.471-6.365,7.885c-0.291,0.418-0.588,1.303,0,1.945c1.121,1.178,5.893,0.652,9.018-1.822
	c3.117-2.476,2.232-6.475,1.055-9.245c0.711-0.942,3.775-5.894,5.533-9.249c0,1.181,1.477,5.54,2.533,7.245
	c-7.535,7.245-5.123,10.122-3.709,10.544c3.355,0.647,7.291-3.282,8.068-4.713c1.115-2.057,1-4.122,0.119-5.88
	c13.658-4.188,17.367,3.643,17.725,5.704c0.355,2.062-2.063,4.123-2.596,4.594c-0.527,0.463-0.527,0.414-0.467,0.877
	c0.059,0.479,4.48-0.938,4.828-5.708C90.34,44.396,85.213,40.685,79.734,39.746 M17.492,59.875
	c-3.121,3.299-6.362,4.126-7.655,2.945c-1.295-1.176-1.652-4.297,1.354-7.535c2.998-3.241,8.36-5.946,9.007-6.479
	C20.906,51.634,20.975,56.195,17.492,59.875 M36.631,46.573c-1.534,4.471-3.474,7.88-4.243,7.945
	c-0.765,0.062-1.76-4.18,0.238-9.598c2.004-5.417,5.034-6.852,5.77-6.302C39.102,39.147,38.16,42.098,36.631,46.573 M50.885,54.752
	c2.119-2.766,4.471-5.413,4.471-5.413C55.469,51.101,53.297,55.048,50.885,54.752 M63.957,51.691
	c-0.533-0.938,1.053-4.771,3.18-6.241C69.252,47.982,64.484,52.277,63.957,51.691"/>
</svg>
