<?xml version="1.0" encoding="utf-8"?>
<!-- Generator: Adobe Illustrator 16.0.0, SVG Export Plug-In . SVG Version: 6.00 Build 0)  -->
<!DOCTYPE svg PUBLIC "-//W3C//DTD SVG 1.1//EN" "http://www.w3.org/Graphics/SVG/1.1/DTD/svg11.dtd">
<svg version="1.1" id="Layer_1" xmlns="http://www.w3.org/2000/svg" xmlns:xlink="http://www.w3.org/1999/xlink" x="0px" y="0px"
	 width="145px" height="135px" viewBox="0 0 145 135" enable-background="new 0 0 145 135" xml:space="preserve">
<path d="M66.525,127.667c0,0-0.103-1.458-0.256-3.646c-0.162-2.188-0.288-5.104-0.444-8.021c-0.067-1.458-0.223-2.917-0.242-4.284
	c0.004-1.367,0.107-2.644,0.242-3.737c0.251-2.188,0.7-3.646,0.7-3.646h0.2c0,0,0.449,1.458,0.7,3.646
	c0.135,1.094,0.238,2.37,0.242,3.737c-0.019,1.367-0.175,2.826-0.242,4.284c-0.156,2.917-0.282,5.833-0.444,8.021
	c-0.153,2.188-0.256,3.646-0.256,3.646H66.525z"/>
<path d="M78.65,120.708c0,0-0.12-0.977-0.257-2.441c-0.161-1.465-0.288-3.418-0.443-5.371c-0.067-0.977-0.224-1.953-0.242-2.869
	c0.004-0.915,0.106-1.77,0.242-2.502c0.251-1.465,0.7-2.441,0.7-2.441h0.199c0,0,0.449,0.977,0.7,2.441
	c0.136,0.732,0.238,1.587,0.242,2.502c-0.019,0.916-0.175,1.893-0.242,2.869c-0.155,1.953-0.282,3.906-0.443,5.371
	c-0.137,1.465-0.257,2.441-0.257,2.441H78.65z"/>
<rect x="62.833" y="123.167" fill="#FFFFFF" width="19.5" height="8.973"/>
<polygon fill="#FFFFFF" points="62.375,101.333 83.25,100.708 83.25,107.208 62.375,107.833 "/>
<path fill="#FFD400" d="M31.335,44.916c0-2.825,2.29-5.115,5.115-5.115h80.772c2.825,0,5.114,2.291,5.114,5.115v47.962H31.335
	V44.916z"/>
<path fill="#FFFFFF" d="M12.326,74.938c0-3.206,2.599-5.805,5.804-5.805h23.57c3.206,0,5.803,2.6,5.803,5.805v31.728H12.326V74.938z
	"/>
<path fill="#FFFFFF" d="M110.66,86.271c0-3.206,2.598-5.805,5.804-5.805H134c3.206,0,5.804,2.6,5.804,5.805v16.562H110.66V86.271z"
	/>
<path fill="#FFD400" d="M138.701,123.547h-19.539V90.331c0-1.079,0.875-1.953,1.955-1.953h15.631c1.078,0,1.953,0.874,1.953,1.953
	V123.547z"/>
<path fill="#FFD400" d="M6.001,80.252c0-1.079,0.875-1.953,1.953-1.953h34.169c1.079,0,1.954,0.874,1.954,1.953v42.938H6.001V80.252
	z"/>
<path d="M1.5,119.083c0,0-0.033-0.722-0.094-2.075c-0.054-1.354-0.171-3.34-0.245-5.866c-0.15-5.054-0.464-12.273-0.662-20.937
	c-0.053-2.166-0.108-4.422-0.165-6.757c-0.023-1.168-0.047-2.355-0.071-3.561c-0.011-0.603-0.021-1.21-0.032-1.822l-0.008-0.46
	l-0.004-0.23L0.217,77.26l-0.001-0.058l0.008-0.187l0.039-0.462c0.023-0.172-0.001-0.264,0.071-0.519
	c0.217-0.937,0.555-1.68,1.098-2.315c0.503-0.669,1.212-1.16,1.969-1.542c0.392-0.153,0.802-0.3,1.219-0.385l0.64-0.076l0.321-0.03
	l0.244-0.006c0.645-0.011,1.292-0.022,1.944-0.034c2.606-0.032,5.268-0.066,7.975-0.101c5.415-0.046,11.01-0.144,16.695-0.151
	c1.421-0.005,2.849-0.01,4.28-0.015l2.15-0.008l0.269-0.001h0.134l0.067-0.001l0.24,0.016l0.536,0.052
	c0.1,0.014,0.154,0.006,0.292,0.037l0.427,0.107c0.279,0.08,0.58,0.162,0.83,0.271c1.868,0.826,3.284,2.662,3.453,4.733
	c0.021,0.232,0.06,0.563,0.053,0.714l0.001,0.541l0.004,1.083l0.008,2.165c-0.02,5.776-0.04,11.552-0.059,17.237
	c-0.001,5.686-0.104,11.28-0.149,16.695c-0.034,2.707-0.067,5.369-0.099,7.975c-0.023,1.304-0.046,2.592-0.068,3.865l-0.009,0.198
	l-0.007,0.059l-0.014,0.119l-0.028,0.236c-0.027,0.172-0.02,0.282-0.074,0.504c-0.129,0.438-0.245,0.963-0.459,1.302
	c-0.199,0.368-0.397,0.733-0.684,1.035c-0.136,0.155-0.263,0.32-0.411,0.46l-0.477,0.389c-0.643,0.512-1.416,0.813-2.195,0.999
	c-0.387,0.05-0.816,0.088-1.171,0.101l-0.907-0.017c-1.206-0.023-2.393-0.047-3.561-0.07c-2.335-0.058-4.591-0.112-6.757-0.166
	c-8.664-0.195-15.883-0.515-20.937-0.664c-0.644-0.034-1.203-0.014-1.819-0.09c-0.536-0.044-1.135-0.242-1.579-0.487
	c-0.464-0.235-0.809-0.564-1.124-0.858c-0.255-0.349-0.519-0.639-0.645-0.968c-0.588-1.268-0.395-2.044-0.45-2.028
	c0.05-0.021-0.059,0.781,0.616,1.936c0.145,0.301,0.425,0.552,0.686,0.853c0.32,0.246,0.661,0.518,1.099,0.69
	c0.432,0.18,0.864,0.297,1.453,0.308c0.503,0.031,1.144-0.025,1.763-0.036c5.053-0.149,12.273-0.469,20.937-0.664
	c2.166-0.054,4.422-0.108,6.757-0.166c1.167-0.023,2.355-0.047,3.561-0.07l0.907-0.017l0.648-0.078
	c0.399-0.129,0.797-0.282,1.115-0.568l0.242-0.205c0.074-0.075,0.128-0.169,0.196-0.249c0.151-0.152,0.23-0.353,0.328-0.538
	c0.125-0.197,0.086-0.322,0.178-0.475c0.033-0.081,0.032-0.294,0.049-0.436l0.02-0.237l0.01-0.119l0.005-0.059
	c-0.013,0.256-0.004,0.036-0.008,0.078c-0.022-1.273-0.045-2.562-0.068-3.865c-0.032-2.605-0.065-5.268-0.099-7.975
	c-0.044-5.415-0.148-11.01-0.149-16.695c-0.02-5.686-0.039-11.461-0.059-17.237l0.008-2.165l0.004-1.083l0.001-0.541
	c0.007-0.211-0.027-0.236-0.031-0.363c-0.042-0.839-0.633-1.576-1.378-1.935c-0.361-0.291-2.231-0.19-3.571-0.216
	c-1.431-0.005-2.858-0.01-4.28-0.015c-5.686-0.008-11.28-0.105-16.695-0.151c-2.707-0.034-5.369-0.068-7.975-0.101
	c-0.651-0.012-1.299-0.023-1.944-0.034l-0.239-0.004l-0.158,0.018L5.11,74.52c-0.207,0.036-0.407,0.106-0.61,0.164
	c-0.373,0.188-0.756,0.401-1.016,0.742c-0.31,0.297-0.463,0.743-0.576,0.993c-0.049,0.036-0.048,0.264-0.072,0.396l-0.054,0.46
	l-0.013,0.791c-0.011,0.612-0.021,1.22-0.032,1.822c-0.024,1.205-0.048,2.393-0.071,3.561c-0.057,2.335-0.112,4.591-0.165,6.757
	c-0.197,8.663-0.512,15.883-0.662,20.937c-0.074,2.526-0.191,4.512-0.245,5.866C1.533,118.361,1.5,119.083,1.5,119.083z"/>
<path d="M44.833,131.792c0,0,0.212-0.04,0.609-0.115c0.397-0.069,0.98-0.201,1.722-0.308c1.483-0.238,3.603-0.548,6.146-0.797
	c1.271-0.135,2.649-0.275,4.106-0.366c1.457-0.107,2.993-0.233,4.583-0.285c1.589-0.055,3.232-0.18,4.901-0.181
	c1.669-0.023,3.364-0.048,5.06-0.072c1.695,0.025,3.391,0.05,5.06,0.074c1.669,0.009,3.311,0.128,4.9,0.184
	c1.589,0.051,3.126,0.183,4.583,0.286c1.456,0.09,2.834,0.233,4.105,0.365c2.543,0.25,4.662,0.558,6.146,0.795
	c0.741,0.105,1.324,0.237,1.722,0.306c0.397,0.074,0.609,0.114,0.609,0.114v0.25c0,0-13.563,0.063-27.125,0.125
	c-13.563-0.063-27.125-0.125-27.125-0.125V131.792z"/>
<path d="M95.387,127.371c0,0-0.011-0.056-0.031-0.163c-0.021-0.106-0.046-0.271-0.112-0.465c-0.118-0.39-0.368-0.952-0.842-1.502
	c-0.485-0.533-1.228-1.045-2.148-1.204c-0.475-0.09-0.896-0.029-1.551,0.021c-0.611,0.046-1.254,0.094-1.925,0.145
	c-1.341,0.113-2.794,0.177-4.331,0.263c-1.537,0.099-3.157,0.13-4.834,0.189c-1.677,0.07-3.409,0.078-5.17,0.097
	c-1.76,0.032-3.549,0.033-5.337,0c-1.789-0.018-3.577-0.03-5.337-0.104c-1.761-0.055-3.493-0.108-5.17-0.214
	c-0.838-0.047-1.663-0.093-2.469-0.137c-0.797-0.046-1.654-0.162-2.208-0.117c-1.21,0.118-2.348,0.935-2.84,2.04
	c-0.275,0.543-0.369,1.134-0.361,1.763c-0.021,0.611-0.042,1.191-0.061,1.736c-0.042,1.09-0.08,2.04-0.11,2.822
	c-0.061,1.564-0.096,2.459-0.096,2.459s-0.035-0.895-0.096-2.459c-0.031-0.782-0.068-1.732-0.11-2.822
	c-0.019-0.545-0.04-1.125-0.061-1.736c0.001-0.586-0.126-1.311,0.061-2.041c0.319-1.442,1.527-2.951,3.37-3.409
	c0.966-0.213,1.699-0.183,2.513-0.269c0.807-0.044,1.631-0.09,2.469-0.137c1.677-0.105,3.409-0.159,5.17-0.214
	c1.76-0.073,3.549-0.086,5.337-0.104c1.788-0.033,3.577-0.032,5.337,0c1.761,0.019,3.493,0.026,5.17,0.097
	c1.677,0.06,3.297,0.091,4.834,0.189c1.537,0.086,2.99,0.149,4.331,0.263c0.671,0.051,1.313,0.099,1.925,0.145
	c0.565,0.032,1.318,0.108,1.892,0.343c1.193,0.445,1.944,1.288,2.342,2.028c0.404,0.753,0.475,1.415,0.485,1.846
	c0.01,0.219-0.01,0.377-0.02,0.486C95.392,127.314,95.387,127.371,95.387,127.371z"/>
<path d="M24.167,67.166c0,0-0.065-0.672-0.188-1.932c-0.135-1.26-0.238-3.107-0.418-5.459c-0.084-1.176-0.177-2.478-0.279-3.895
	c-0.074-1.417-0.155-2.95-0.241-4.587c-0.098-1.638-0.14-3.38-0.216-5.218c-0.035-0.918-0.07-1.861-0.107-2.825
	c-0.015-0.482-0.029-0.97-0.044-1.463l-0.017-0.744l0.032-0.828c0.04-0.324,0.083-0.665,0.142-0.987
	c0.077-0.299,0.14-0.604,0.237-0.901c0.198-0.592,0.442-1.178,0.77-1.725c0.642-1.1,1.536-2.082,2.628-2.832
	c1.097-0.74,2.389-1.245,3.749-1.429c0.339-0.06,0.684-0.055,1.028-0.08l0.866-0.008c0.569-0.003,1.143-0.007,1.72-0.01
	c4.619-0.021,9.49-0.044,14.529-0.068c10.078-0.02,20.828-0.042,31.577-0.063c10.75,0.021,21.5,0.041,31.578,0.06
	c0.63,0.001,1.257,0.003,1.881,0.004l0.935,0.002l0.466,0.001l0.55,0.024c1.521,0.071,3.034,0.587,4.274,1.397
	c1.26,0.81,2.265,1.949,2.968,3.223c0.681,1.291,1.033,2.732,1.039,4.145c-0.078,4.638-0.145,8.992-0.283,13.027
	c-0.103,4.031-0.257,7.727-0.396,11.002c-0.132,3.275-0.334,6.13-0.456,8.482c-0.133,2.352-0.232,4.199-0.343,5.459
	c-0.096,1.26-0.147,1.932-0.147,1.932s-0.052-0.672-0.147-1.932c-0.11-1.26-0.21-3.107-0.343-5.459
	c-0.122-2.352-0.324-5.207-0.456-8.482c-0.139-3.275-0.293-6.971-0.396-11.002c-0.141-4.027-0.201-8.408-0.287-13.008
	c-0.02-0.896-0.252-1.787-0.683-2.59c-0.455-0.787-1.089-1.498-1.881-1.989c-0.8-0.493-1.678-0.807-2.635-0.847l-0.379-0.018
	l-0.466,0.001l-0.935,0.002c-0.624,0.001-1.251,0.002-1.881,0.004c-10.078,0.019-20.828,0.039-31.578,0.06
	c-10.75-0.021-21.5-0.043-31.577-0.063c-5.039-0.023-9.91-0.046-14.529-0.068c-0.577-0.003-1.151-0.007-1.72-0.01l-0.836-0.002
	c-0.219,0.02-0.441,0.001-0.656,0.041c-0.865,0.104-1.688,0.408-2.402,0.868c-0.708,0.47-1.295,1.095-1.722,1.797
	c-0.22,0.349-0.379,0.725-0.517,1.104c-0.067,0.19-0.105,0.388-0.164,0.58l-0.093,0.514c-0.073,1.988-0.143,3.894-0.209,5.707
	c-0.076,1.837-0.119,3.58-0.216,5.218c-0.086,1.637-0.167,3.17-0.241,4.587c-0.102,1.417-0.194,2.719-0.279,3.895
	c-0.181,2.352-0.283,4.199-0.418,5.459C24.232,66.494,24.167,67.166,24.167,67.166z"/>
<polygon points="43.748,124.835 6.998,123.335 43.748,121.835 "/>
<path d="M22.75,94.583c0,0-0.365,0.838-1.1,1.908c-0.715,1.09-1.805,2.405-3.006,3.611c-1.204,1.202-2.519,2.294-3.609,3.008
	c-1.071,0.734-1.91,1.098-1.91,1.098s0.364-0.84,1.098-1.91c0.714-1.091,1.806-2.405,3.008-3.609c1.206-1.2,2.521-2.291,3.611-3.006
	C21.912,94.948,22.75,94.583,22.75,94.583z"/>
<path d="M35.5,92.583c0,0-0.998,1.471-2.682,3.49c-0.835,1.017-1.839,2.172-2.946,3.38c-0.56,0.597-1.118,1.234-1.723,1.845
	c-0.6,0.616-1.208,1.241-1.817,1.867c-0.625,0.608-1.25,1.218-1.866,1.817c-0.608,0.607-1.248,1.164-1.844,1.725
	c-1.207,1.107-2.362,2.111-3.38,2.946c-2.02,1.684-3.492,2.68-3.492,2.68s0.997-1.473,2.68-3.492
	c0.834-1.017,1.838-2.173,2.947-3.38c0.561-0.597,1.116-1.236,1.724-1.844c0.6-0.615,1.209-1.24,1.818-1.866
	c0.625-0.608,1.251-1.218,1.867-1.817c0.61-0.604,1.248-1.162,1.845-1.723c1.208-1.106,2.363-2.111,3.38-2.946
	C34.029,93.581,35.5,92.583,35.5,92.583z"/>
<path d="M76.33,51.919c0,0-0.148,0.332-0.451,0.871c-0.299,0.541-0.754,1.287-1.339,2.143c-1.171,1.712-2.915,3.811-4.835,5.733
	s-4.017,3.669-5.73,4.839c-0.856,0.584-1.604,1.039-2.145,1.337c-0.539,0.302-0.872,0.45-0.872,0.45s0.147-0.333,0.45-0.872
	c0.299-0.542,0.753-1.289,1.337-2.145c1.169-1.713,2.916-3.81,4.838-5.73s4.021-3.665,5.733-4.836
	c0.856-0.584,1.603-1.04,2.144-1.339C75.998,52.067,76.33,51.919,76.33,51.919z"/>
<path d="M93.5,51.919c0,0-0.311,0.494-0.896,1.316s-1.438,1.981-2.521,3.313c-1.067,1.346-2.371,2.858-3.791,4.455
	c-1.431,1.587-2.999,3.237-4.604,4.85c-1.611,1.606-3.26,3.176-4.847,4.607c-1.596,1.422-3.108,2.726-4.455,3.792
	c-1.332,1.082-2.492,1.934-3.314,2.519c-0.822,0.586-1.317,0.896-1.317,0.896s0.31-0.495,0.896-1.317
	c0.585-0.822,1.436-1.983,2.519-3.314c1.066-1.347,2.37-2.859,3.791-4.456c1.431-1.586,3.001-3.234,4.607-4.846
	c1.612-1.606,3.263-3.174,4.85-4.604c1.597-1.42,3.108-2.724,4.455-3.792c1.331-1.083,2.49-1.935,3.313-2.521
	S93.5,51.919,93.5,51.919z"/>
<path d="M114.627,119.083c0,0-0.115-2.014-0.317-5.536c-0.082-1.762-0.183-3.901-0.297-6.354c-0.095-2.454-0.201-5.223-0.317-8.242
	c-0.092-3.02-0.191-6.291-0.296-9.752l-0.016-0.65l-0.007-0.328l0.008-0.391c0.001-0.186,0.054-0.624,0.114-0.877
	c0.058-0.285,0.147-0.562,0.25-0.836c0.436-1.083,1.223-2.05,2.269-2.662c0.52-0.308,1.096-0.532,1.698-0.656
	c0.302-0.063,0.607-0.097,0.916-0.107l0.715-0.022c0.927-0.024,1.863-0.048,2.807-0.072c3.775-0.062,7.676-0.126,11.64-0.19
	l1.489-0.009l0.187-0.001l0.271,0.011c0.125,0.006,0.226,0.004,0.458,0.037c0.424,0.049,0.749,0.134,1.088,0.239
	c1.351,0.432,2.519,1.385,3.224,2.621c0.354,0.616,0.595,1.303,0.702,2.008c0.031,0.176,0.051,0.353,0.057,0.531
	c0.01,0.178,0.019,0.369,0.017,0.474l0.004,0.754l0.018,3.019c-0.021,4.027-0.04,8.054-0.06,12.018
	c-0.022,3.963-0.122,7.864-0.177,11.639c-0.063,3.775-0.197,7.424-0.285,10.885l-0.013,0.385l-0.023,0.322
	c-0.031,0.249-0.079,0.622-0.159,0.859c-0.144,0.532-0.374,1.036-0.674,1.482c-0.589,0.904-1.45,1.582-2.401,1.969
	c-0.479,0.186-0.977,0.307-1.476,0.35c-0.539,0.034-0.91,0.004-1.302-0.006c-0.785-0.026-1.556-0.052-2.311-0.077
	c-3.021-0.125-5.788-0.239-8.242-0.341c-1.227-0.062-2.375-0.12-3.437-0.174c-0.531-0.027-1.04-0.053-1.526-0.078
	c-0.484-0.024-0.968-0.039-1.438-0.166c-0.91-0.243-1.604-0.745-2.08-1.267c-0.472-0.531-0.736-1.08-0.881-1.535
	c-0.289-0.922-0.167-1.445-0.195-1.439c0.027-0.009-0.043,0.528,0.319,1.394c0.18,0.426,0.481,0.924,0.965,1.377
	c0.485,0.443,1.162,0.836,1.98,0.976c0.79,0.126,1.803-0.022,2.856-0.05c1.062-0.054,2.21-0.112,3.437-0.174
	c2.454-0.102,5.222-0.216,8.242-0.341c0.755-0.025,1.525-0.051,2.311-0.077c0.395-0.013,0.817-0.021,1.075-0.06
	c0.297-0.048,0.584-0.143,0.856-0.268c0.537-0.269,1.005-0.694,1.297-1.228c0.152-0.261,0.258-0.549,0.313-0.845
	c0.041-0.173,0.035-0.229,0.058-0.404l0.009-0.323l-0.009-0.262c-0.088-3.461-0.223-7.109-0.285-10.885
	c-0.055-3.774-0.154-7.676-0.177-11.639c-0.02-3.964-0.039-7.99-0.06-12.018l0.018-3.019l0.004-0.754
	c0.004-0.147-0.005-0.206-0.007-0.279c0.002-0.073-0.006-0.146-0.021-0.218c-0.039-0.287-0.132-0.565-0.272-0.82
	c-0.28-0.511-0.763-0.917-1.314-1.099c-0.136-0.044-0.296-0.082-0.367-0.094c-0.013-0.015-0.161-0.021-0.285-0.028l-0.093-0.005
	l-0.047-0.003c0.022,0.001-0.116-0.004,0.039,0l-0.187-0.001l-1.489-0.009c-3.964-0.064-7.864-0.129-11.64-0.19
	c-0.943-0.024-1.88-0.048-2.807-0.072l-0.672-0.016c-0.153-0.002-0.306,0.007-0.455,0.029c-0.3,0.048-0.591,0.144-0.86,0.284
	c-0.545,0.277-0.974,0.76-1.231,1.307c-0.058,0.141-0.114,0.28-0.15,0.428c-0.038,0.175-0.06,0.175-0.08,0.426l-0.021,0.264
	l-0.007,0.328l-0.016,0.65c-0.104,3.461-0.204,6.732-0.296,9.752c-0.116,3.02-0.223,5.788-0.317,8.242
	c-0.114,2.453-0.215,4.593-0.297,6.354C114.742,117.069,114.627,119.083,114.627,119.083z"/>
<polygon points="139.875,124.835 120.125,123.335 139.875,121.835 "/>
<path d="M132.627,97.583c0,0-0.631,1.104-1.764,2.572c-0.56,0.742-1.243,1.576-2.006,2.439c-0.76,0.866-1.595,1.767-2.462,2.634
	s-1.765,1.705-2.632,2.463c-0.862,0.765-1.697,1.447-2.439,2.006c-1.469,1.134-2.574,1.763-2.574,1.763s0.629-1.105,1.763-2.574
	c0.559-0.742,1.241-1.577,2.005-2.439c0.759-0.867,1.597-1.765,2.464-2.632s1.768-1.702,2.634-2.462
	c0.863-0.763,1.697-1.446,2.439-2.006C131.523,98.214,132.627,97.583,132.627,97.583z"/>
<path d="M111.002,92.981c0,0-4.636,0.153-11.589,0.384c-6.953,0.243-16.225,0.432-25.495,0.666C71.6,94.1,69.282,94.169,67,94.236
	c-2.281,0.083-4.527,0.145-6.7,0.157c-2.173-0.003-4.273-0.029-6.265-0.111c-1.992-0.063-3.875-0.147-5.613-0.251
	c-6.953-0.377-11.589-1.051-11.589-1.05v-0.301c0,0.001,4.636-0.673,11.589-1.05c1.738-0.104,3.622-0.188,5.613-0.251
	c1.992-0.082,4.092-0.108,6.265-0.111c2.173,0.013,4.418,0.074,6.7,0.157c2.282,0.067,4.6,0.137,6.917,0.205
	c9.271,0.234,18.542,0.423,25.495,0.666c6.953,0.23,11.589,0.384,11.589,0.384V92.981z"/>
<path d="M48.166,107.685c0,0,4.313-0.153,10.781-0.384c6.469-0.243,15.094-0.432,23.719-0.666c2.156-0.068,4.313-0.138,6.435-0.205
	c2.123-0.083,4.212-0.145,6.233-0.157c2.021,0.003,3.976,0.029,5.828,0.111c1.854,0.063,3.605,0.147,5.223,0.251
	c6.469,0.377,10.781,1.051,10.781,1.05v0.301c0-0.001-4.313,0.673-10.781,1.05c-1.617,0.104-3.369,0.188-5.223,0.251
	c-1.853,0.082-3.807,0.108-5.828,0.111c-2.021-0.013-4.11-0.074-6.233-0.157c-2.122-0.067-4.278-0.137-6.435-0.205
	c-8.625-0.234-17.25-0.423-23.719-0.666c-6.469-0.23-10.781-0.384-10.781-0.384V107.685z"/>
<circle cx="73" cy="99.833" r="2.167"/>
<g>
	<g>
		<path d="M76.746,39.313h-7.815c-1.08,0-1.953,0.875-1.953,1.953s0.875,1.953,1.953,1.953h7.815c1.08,0,1.955-0.875,1.955-1.953
			C78.701,40.186,77.826,39.313,76.746,39.313z"/>
	</g>
</g>
</svg>
