<?xml version="1.0" encoding="utf-8"?>
<!-- Generator: Adobe Illustrator 16.0.0, SVG Export Plug-In . SVG Version: 6.00 Build 0)  -->
<!DOCTYPE svg PUBLIC "-//W3C//DTD SVG 1.1//EN" "http://www.w3.org/Graphics/SVG/1.1/DTD/svg11.dtd">
<svg version="1.1" id="Layer_1" xmlns="http://www.w3.org/2000/svg" xmlns:xlink="http://www.w3.org/1999/xlink" x="0px" y="0px"
	 width="90px" height="70px" viewBox="0 0 90 70" enable-background="new 0 0 90 70" xml:space="preserve">
<path fill="#276E96" d="M16.616,35.255c0,11.461,6.661,21.369,16.322,26.063L19.124,23.47
	C17.518,27.071,16.616,31.056,16.616,35.255z M65.125,33.794c0-3.58-1.286-6.059-2.388-7.986c-1.468-2.387-2.844-4.406-2.844-6.792
	c0-2.662,2.018-5.14,4.862-5.14c0.129,0,0.251,0.016,0.375,0.023c-5.151-4.721-12.017-7.604-19.556-7.604
	c-10.117,0-19.018,5.191-24.196,13.052c0.681,0.022,1.321,0.036,1.864,0.036c3.028,0,7.719-0.368,7.719-0.368
	c1.561-0.092,1.744,2.202,0.185,2.387c0,0-1.569,0.184-3.313,0.274l10.545,31.37l6.338-19.008l-4.512-12.362
	c-1.561-0.091-3.037-0.274-3.037-0.274c-1.561-0.093-1.378-2.479,0.184-2.387c0,0,4.781,0.368,7.627,0.368
	c3.028,0,7.719-0.368,7.719-0.368c1.561-0.092,1.745,2.202,0.185,2.387c0,0-1.571,0.184-3.313,0.274l10.465,31.129l2.889-9.65
	C64.39,39.392,65.125,36.272,65.125,33.794z M46.084,37.788l-8.689,25.248c2.595,0.762,5.339,1.18,8.181,1.18
	c3.373,0,6.607-0.582,9.617-1.643c-0.076-0.123-0.148-0.256-0.207-0.398L46.084,37.788z M70.987,21.362
	c0.125,0.922,0.195,1.911,0.195,2.977c0,2.938-0.551,6.242-2.203,10.373l-8.845,25.572c8.61-5.02,14.399-14.346,14.399-25.029
	C74.534,30.22,73.247,25.485,70.987,21.362z"/>
<g>
	<path fill="#276E96" d="M11.817,35.255c0,18.615,15.144,33.758,33.758,33.758c18.615,0,33.758-15.143,33.758-33.758
		c0-18.615-15.143-33.757-33.758-33.757C26.961,1.498,11.817,16.64,11.817,35.255z M13.366,35.255
		c0-17.761,14.449-32.209,32.209-32.209s32.211,14.448,32.211,32.209c0,17.76-14.451,32.211-32.211,32.211
		S13.366,53.015,13.366,35.255z"/>
</g>
</svg>
