<?xml version="1.0" encoding="utf-8"?>
<!-- Generator: Adobe Illustrator 16.0.0, SVG Export Plug-In . SVG Version: 6.00 Build 0)  -->
<!DOCTYPE svg PUBLIC "-//W3C//DTD SVG 1.1//EN" "http://www.w3.org/Graphics/SVG/1.1/DTD/svg11.dtd">
<svg version="1.1" id="Layer_1" xmlns="http://www.w3.org/2000/svg" xmlns:xlink="http://www.w3.org/1999/xlink" x="0px" y="0px"
	 width="90px" height="70px" viewBox="0 0 90 70" enable-background="new 0 0 90 70" xml:space="preserve">
<path fill="#2E001E" d="M12.094,2.992h65.813v64.017H12.094V2.992z"/>
<path fill="#FF2BC2" d="M9.102,0v70h71.794V0H9.102z M12.094,2.992h65.813v64.017H12.094V2.992z"/>
<path fill="#FF2BC2" d="M61.243,29.406c-0.448-0.209-1.018-0.299-1.735-0.299c-3.769,0-6.282,2.901-6.282,7.718
	c0,5.504,2.573,7.718,5.924,7.718c0.718,0,1.495-0.09,2.063-0.329V29.406H61.243z M47.842,37.064
	c0-6.971,4.487-12.415,11.846-12.415c0.629,0,0.957,0,1.556,0.06v-7.778c0-0.179,0.149-0.299,0.299-0.299h4.816
	c0.239,0,0.299,0.089,0.299,0.239v27.342c0,0.808,0,1.825,0.15,2.932c0,0.209,0,0.239-0.18,0.329
	c-2.514,1.196-5.146,1.734-7.658,1.734C52.479,49.209,47.842,45.2,47.842,37.064L47.842,37.064z M37.641,32.218l8.376,16.244
	c0.149,0.239,0.06,0.479-0.18,0.479h-5.205c-0.329,0-0.479-0.09-0.628-0.389c-1.915-3.949-3.859-8.048-5.863-12.296h-0.06
	c-1.795,4.009-3.769,8.377-5.684,12.325c-0.149,0.239-0.299,0.329-0.539,0.329h-4.966c-0.299,0-0.329-0.239-0.179-0.419
	l8.196-15.765l-7.927-15.675c-0.179-0.239,0-0.449,0.209-0.449h5.145c0.299,0,0.449,0.06,0.539,0.329
	c1.885,3.979,3.799,7.897,5.594,11.906h0.06c1.735-3.949,3.649-7.928,5.474-11.846c0.149-0.239,0.239-0.389,0.539-0.389h4.816
	c0.239,0,0.329,0.179,0.179,0.449L37.641,32.218L37.641,32.218z"/>
</svg>
