<?xml version="1.0" encoding="utf-8"?>
<!-- Generator: Adobe Illustrator 16.0.0, SVG Export Plug-In . SVG Version: 6.00 Build 0)  -->
<!DOCTYPE svg PUBLIC "-//W3C//DTD SVG 1.1//EN" "http://www.w3.org/Graphics/SVG/1.1/DTD/svg11.dtd">
<svg version="1.1" id="Layer_1" xmlns="http://www.w3.org/2000/svg" xmlns:xlink="http://www.w3.org/1999/xlink" x="0px" y="0px"
	 width="1500px" height="1000px" viewBox="0 0 1500 1000" enable-background="new 0 0 1500 1000" xml:space="preserve">
<g>
	<path fill="#28284E" d="M428.358,252.341c-132.146,0-239.65,107.507-239.65,239.646c0,132.144,107.517,239.649,239.65,239.649
		C560.504,731.636,668,624.129,668,491.987C668,359.847,560.504,252.341,428.358,252.341z M613.435,380.407
		c8.692,14.25,4.751,29.661-7.646,37.226c-12.697,7.75-28.374,4.313-37.071-9.938c-8.73-14.313-4.586-29.772,8.125-37.52
		C589.235,362.607,604.696,366.1,613.435,380.407z M556.532,318.285l11.743,10.063c9.081,7.784,11.439,19.215,4.652,27.13
		c-4.359,5.096-10.66,7.071-16.962,5.071c-1.229-0.403-2.282,0.074-2.313,1.517l-1.182,15.124c0,2.482-1.716,3.409-3.629,1.766
		l-7.705-6.6c-1.111-0.955-1.734-2.053-1.453-3.554l2.817-14.162c0.362-1.815-1.219-2.336-2.397-0.957l-6.926,8.07
		c-1.182,1.386-2.663,1.499-4.028,0.316l-6.173-5.282c-1.386-1.188-1.494-2.668-0.313-4.044l29.234-34.097
		C553.313,316.997,554.884,316.877,556.532,318.285z M472.972,329.117l17.799-41.264c0.86-1.99,2.324-2.575,4.324-1.712l2.183,0.947
		c1.541,0.659,2.479,1.673,2.917,3.307l9.694,33.538c0.304,1.271,1.299,1.404,1.854,0.112l10.048-23.264
		c0.723-1.672,2.088-2.22,3.767-1.498l5.782,2.498c1.608,0.693,2.225,2.099,1.504,3.774l-17.813,41.258
		c-0.848,1.99-2.318,2.575-4.318,1.718l-4.116-1.774c-1.541-0.664-2.468-1.679-2.897-3.313l-9.08-29.681
		c-0.32-1.21-1.363-1.278-1.854-0.121l-8.738,20.248c-0.723,1.668-2.107,2.219-3.773,1.492l-5.785-2.486
		C472.798,332.17,472.241,330.789,472.972,329.117z M412.49,299.692c1.101-14.515,12.99-25.04,29.739-23.766
		c16.679,1.271,26.899,13.479,25.788,27.994c-1.133,14.857-13.1,25.592-29.788,24.323
		C421.492,326.973,411.348,314.546,412.49,299.692z M358.336,286.32l15.012-3.738c11.604-2.898,22.308,1.789,24.822,11.907
		c1.627,6.517-0.42,12.803-5.695,16.781c-1.044,0.766-1.26,1.903-0.107,2.77l11.655,9.718c2.02,1.438,1.786,3.379-0.661,3.987
		l-9.843,2.453c-1.424,0.361-2.685,0.239-3.756-0.867l-9.909-10.511c-1.271-1.34-2.605-0.359-2.165,1.404l2.563,10.33
		c0.449,1.76-0.318,3.027-2.086,3.471l-7.872,1.966c-1.772,0.438-3.042-0.327-3.479-2.093l-10.875-43.595
		C355.409,288.201,356.228,286.845,358.336,286.32z M252.352,361.431l10.757-11.859c11.081-12.225,26.444-12.928,37.269-3.109
		c11.296,10.234,11.579,25.226,0.539,37.396l-10.759,11.86c-1.737,1.916-3.708,2.008-5.629,0.276l-31.903-28.933
		C250.703,365.323,250.605,363.348,252.352,361.431z M237.77,519.804c-4.652,0-8.417-3.766-8.417-8.427
		c0-4.645,3.765-8.407,8.417-8.407c4.642,0,8.407,3.765,8.407,8.407C246.177,516.038,242.412,519.804,237.77,519.804z
		 M262.906,459.189l-3.552,18.058c-0.496,2.537-2.146,3.646-4.683,3.144l-42.293-8.312c-2.533-0.497-3.637-2.141-3.141-4.682
		l3.434-17.503c2.322-11.813,10.915-17.108,18.201-15.68c4.467,0.879,6.583,3.146,7.959,6.699c0.506,1.383,1.745,1.624,2.662,0.597
		c3.183-3.519,7.521-4.871,11.363-4.116C261.569,439.106,265.08,448.071,262.906,459.189z M266.222,432.064l-38.616-19.097
		c-2.332-1.146-2.956-3.021-1.813-5.336l10.604-21.449c0.799-1.628,2.214-2.106,3.843-1.296l4.828,2.385
		c1.629,0.81,2.155,2.239,1.367,3.876l-5.688,11.471c-0.389,0.82-0.117,1.509,0.646,1.878l5.453,2.693
		c0.75,0.375,1.473,0.18,1.882-0.635l5.102-10.344c0.818-1.631,2.226-2.104,3.843-1.303l4.771,2.355
		c1.629,0.81,2.105,2.21,1.307,3.843l-5.121,10.345c-0.398,0.815-0.115,1.509,0.701,1.907l5.27,2.604
		c0.761,0.372,1.473,0.181,1.86-0.635l6.165-12.479c0.811-1.629,2.283-2.072,3.911-1.262l4.828,2.384
		c1.629,0.805,2.097,2.209,1.307,3.838l-11.106,22.449C270.415,432.571,268.553,433.209,266.222,432.064z M428.358,638.549
		c-80.813,0-146.562-65.744-146.562-146.563c0-80.796,65.748-146.555,146.562-146.555c80.808,0,146.55,65.758,146.55,146.555
		C574.908,572.806,509.166,638.549,428.358,638.549z M621.345,520.115c-4.644,0-8.406-3.765-8.406-8.428
		c-0.001-4.641,3.764-8.406,8.406-8.406c4.642,0,8.409,3.767,8.409,8.406C629.756,516.351,625.987,520.115,621.345,520.115z
		 M641.934,471.466l-43.894,9.39c-2.114,0.454-3.451-0.404-3.892-2.531l-0.947-4.369c-0.351-1.645-0.064-2.993,1.019-4.297
		l18.909-24.563c0.803-0.956,0.256-1.84-0.976-1.58l-21.537,4.608c-1.783,0.381-3.021-0.432-3.402-2.204l-1.316-6.155
		c-0.377-1.774,0.431-3.023,2.207-3.398l43.901-9.389c2.114-0.458,3.439,0.405,3.898,2.527l0.498,2.323
		c0.342,1.641,0.067,2.99-1.021,4.291l-21.676,27.304c-0.879,0.976-0.388,1.873,0.969,1.581l24.753-5.299
		c1.766-0.376,3.023,0.431,3.404,2.204l1.316,6.154C644.519,469.775,643.719,471.087,641.934,471.466z"/>
	<path fill="#28284E" d="M439.155,316.102c8.856,0.678,14.093-5.168,14.688-13.26c0.604-7.813-3.695-14.104-12.556-14.783
		c-8.846-0.672-14.031,4.897-14.639,12.709C426.037,308.86,430.309,315.429,439.155,316.102z"/>
	<path fill="#28284E" d="M374.196,306.235c0.195,0.816,0.877,1.228,1.697,1.021l3.395-0.851c4.282-1.063,6.146-4.271,5.182-8.14
		c-0.938-3.809-4.09-5.691-8.304-4.643l-3.462,0.861c-0.809,0.205-1.209,0.884-1.015,1.697L374.196,306.235z"/>
	<path fill="#28284E" d="M229.088,447.627c-2.799-0.554-5.188,1.396-5.859,4.837l-1.257,6.384c-0.158,0.825,0.28,1.481,1.102,1.643
		l7.002,1.376c0.829,0.16,1.483-0.277,1.659-1.102l1.11-6.12C233.498,450.987,232.054,448.206,229.088,447.627z"/>
	<path fill="#28284E" d="M287.465,379.955c0.624,0.57,1.404,0.526,1.973-0.092l3.188-3.523c4.466-4.921,6.037-12.271-1.785-19.366
		c-7.979-7.233-14.991-4.814-19.447,0.106l-3.189,3.525c-0.563,0.62-0.528,1.41,0.096,1.975L287.465,379.955z"/>
	<path fill="#28284E" d="M552.289,346.99c3.347,2.867,7.042,2.535,9.646-0.494c2.536-2.975,2.265-6.627-1.033-9.448l-2.722-2.318
		c-0.614-0.546-1.413-0.487-1.95,0.147l-6.749,7.864c-0.546,0.637-0.49,1.427,0.155,1.973L552.289,346.99z"/>
	<path fill="#28284E" d="M598.404,405.529c6.673-4.072,9.269-11.216,4.646-18.786c-4.623-7.571-12.146-8.536-18.824-4.461
		c-6.928,4.219-9.746,11.509-5.132,19.083C583.717,408.933,591.489,409.758,598.404,405.529z"/>
	<path fill="#28284E" d="M248.5,450.441c-2.739-0.531-5.054,1.795-5.834,5.771l-1.266,6.457c-0.157,0.818,0.283,1.478,1.17,1.65
		l6.593,1.298c0.817,0.164,1.483-0.277,1.64-1.102l1.267-6.38C252.858,454.076,251.464,451.026,248.5,450.441z"/>
</g>
<path fill="#E55C5F" d="M428.362,627.035c38.847,0,73.809-16.582,98.465-42.927H329.898
	C354.556,610.453,389.518,627.035,428.362,627.035"/>
<path fill="#FFFFFF" d="M337.17,349.79c4.771-2.794,7.443-6.959,8.604-11.46c0.293-0.74-0.021-1.285-0.821-1.55l-18.658-4.289
	c-0.683-0.17-1.249,0.089-1.805,0.808c-3.824,4.682-6.467,9.968-3.639,14.801C323.68,352.922,330.421,353.761,337.17,349.79
	 M323.379,328.362c0.675,0.176,1.19-0.048,1.648-0.646c4.925-6.131,6.33-10.771,3.773-14.859c-2.194-3.585-7.325-5.278-11.969-2.552
	c-5.249,3.083-6.563,7.899-4.146,12.002C314.59,325.569,318.94,327.156,323.379,328.362 M321.037,332.654
	c0.536-0.721,0.343-1.336-0.517-1.56c-4.506-1.328-8.826-3.17-11.071-6.969c-3.394-5.789-1.629-12.589,5.618-16.838
	c6.741-3.965,13.675-1.711,16.748,3.542c3.053,5.187,1.697,10.612-3.209,17.305c-0.546,0.727-0.41,1.38,0.545,1.629l16.24,3.771
	c0.857,0.226,1.463-0.132,1.434-1.009c0.059-4.176-1.024-8.404-2.79-11.817c-0.271-0.585-0.204-1.022,0.4-1.379l1.035-0.604
	c0.546-0.315,1.07-0.234,1.324,0.351c2.313,4.331,3.589,9.418,3.354,14.421c0,0.815,0.313,1.195,1.063,1.396l9.158,2.179
	c0.479,0.122,0.83,0.322,1.073,0.736c0.215,0.359,0,0.818-0.536,1.141l-1.27,0.742c-0.43,0.248-0.857,0.341-1.338,0.219
	l-7.606-1.778c-0.741-0.138-1.218,0.146-1.51,0.888c-1.31,5.39-4.673,10.28-10.352,13.604c-8.688,5.103-17.352,3.873-21.213-2.7
	C314.219,344.122,316.94,337.979,321.037,332.654"/>
<path fill="#FFFFFF" d="M234.02,545.881l18.214-5.6c0.43-0.122,0.757,0.043,0.884,0.492l0.409,1.321
	c0.126,0.438-0.038,0.751-0.469,0.893l-7.148,2.189c-0.488,0.148-0.674,0.506-0.517,1.006l3.191,10.519
	c0.151,0.498,0.502,0.688,0.99,0.554l7.155-2.2c0.424-0.131,0.736,0.045,0.872,0.481l0.399,1.321
	c0.137,0.433-0.028,0.765-0.465,0.89l-18.209,5.6c-0.429,0.131-0.747-0.045-0.879-0.483l-0.405-1.316
	c-0.131-0.449,0.029-0.771,0.466-0.901l7.075-2.172c0.479-0.142,0.662-0.506,0.508-1.004l-3.2-10.521
	c-0.146-0.497-0.496-0.695-0.98-0.543l-7.069,2.167c-0.436,0.136-0.751-0.04-0.885-0.478l-0.402-1.322
	C233.424,546.323,233.59,546.003,234.02,545.881"/>
<path fill="#FFFFFF" d="M265.548,566.423l3.392,2.687c0.381,0.299,0.556,0.659,0.538,1.151l-0.118,4.401
	c-0.038,0.333-0.249,0.526-0.585,0.526l-0.556,0.005c-0.344-0.005-0.527-0.204-0.552-0.546l-0.411-3.405
	c-0.053-0.444-0.197-0.753-0.502-1.098l-2.253-2.413c-0.244-0.244-0.292-0.497-0.079-0.759l0.356-0.424
	C265.002,566.295,265.27,566.227,265.548,566.423 M247.773,579.647c1.919,4.159,6.417,6.106,10.826,4.074
	c4.323-2.018,5.733-6.698,3.81-10.862c-1.917-4.12-6.386-6.087-10.716-4.083C247.284,570.82,245.86,575.522,247.773,579.647
	 M264.587,571.855c2.585,5.598,0.791,11.896-4.782,14.473c-5.644,2.624-11.615-0.063-14.207-5.666
	c-2.575-5.58-0.763-11.886,4.891-14.498C256.053,563.573,262.008,566.284,264.587,571.855"/>
<path fill="#FFFFFF" d="M268.06,583.875l0.994-0.617c0.381-0.235,0.73-0.139,0.971,0.242l7.701,12.568
	c0.244,0.381,0.166,0.748-0.21,0.978l-1.012,0.606c-0.376,0.229-0.722,0.144-0.965-0.248l-2.751-4.472
	c-0.233-0.4-0.585-0.488-0.965-0.25l-14.002,8.563c-0.375,0.224-0.728,0.142-0.971-0.25l-0.779-1.286
	c-0.243-0.389-0.167-0.741,0.215-0.974l14-8.557c0.376-0.239,0.463-0.58,0.215-0.984l-2.667-4.347
	C267.597,584.46,267.674,584.105,268.06,583.875"/>
<path fill="#FFFFFF" d="M264.632,611.513l15.084-11.313c0.4-0.305,0.797-0.24,1.107,0.181l6.114,8.168
	c0.276,0.378,0.229,0.729-0.13,0.995l-0.781,0.6c-0.356,0.265-0.712,0.199-0.989-0.159l-4.617-6.181
	c-0.185-0.253-0.464-0.287-0.713-0.104l-4.544,3.4c-0.243,0.185-0.282,0.463-0.091,0.717l4.276,5.717
	c0.271,0.369,0.222,0.72-0.127,0.995l-0.813,0.602c-0.36,0.267-0.711,0.219-0.99-0.156l-4.27-5.712
	c-0.191-0.253-0.469-0.298-0.712-0.116l-4.436,3.335c-0.242,0.179-0.28,0.457-0.096,0.713l4.7,6.286
	c0.282,0.375,0.232,0.729-0.126,0.995l-0.806,0.6c-0.354,0.272-0.717,0.213-0.989-0.143l-6.201-8.306
	C264.183,612.221,264.231,611.819,264.632,611.513"/>
<path fill="#FFFFFF" d="M276.273,626.048l13.857-12.656c0.332-0.304,0.697-0.278,1.006,0.067l0.938,1.01
	c0.316,0.353,0.303,0.702-0.029,1.01l-12.311,11.237c-0.222,0.208-0.232,0.491-0.02,0.723l6.248,6.831
	c0.308,0.335,0.298,0.696-0.033,0.995l-0.867,0.799c-0.328,0.307-0.693,0.278-1-0.063l-7.828-8.547
	C275.814,626.983,275.823,626.463,276.273,626.048"/>
<path fill="#FFFFFF" d="M302.891,641.916l1.646,1.351c2.615,2.135,5.882,2.063,7.619-0.06c1.858-2.268,1.068-5.301-1.503-7.402
	l-1.648-1.353c-0.248-0.191-0.524-0.179-0.725,0.065l-5.479,6.675C302.609,641.438,302.642,641.721,302.891,641.916
	 M295.438,645.715l12.002-14.627c0.315-0.386,0.718-0.431,1.116-0.102l3.573,2.927c3.863,3.154,5.012,7.771,2.255,11.123
	c-2.618,3.195-7.512,3.243-11.411,0.05l-1.614-1.31c-0.239-0.204-0.523-0.188-0.722,0.049l-3.017,3.681
	c-0.282,0.353-0.643,0.381-0.994,0.088l-1.072-0.873C295.195,646.422,295.156,646.062,295.438,645.715"/>
<path fill="#FFFFFF" d="M320.389,662.507c3.873,2.428,8.699,1.646,11.294-2.422c2.55-4.011,1.192-8.676-2.663-11.109
	c-3.841-2.426-8.661-1.649-11.208,2.354C315.214,655.395,316.556,660.077,320.389,662.507 M330.298,646.968
	c5.203,3.276,7.098,9.498,3.814,14.644c-3.321,5.225-9.804,6.194-15.007,2.905c-5.169-3.258-7.059-9.512-3.721-14.717
	C318.663,644.64,325.129,643.696,330.298,646.968"/>
<path fill="#FFFFFF" d="M342.979,655.42c0.188-0.403,0.538-0.532,0.957-0.327l1.305,0.594c0.41,0.196,0.541,0.529,0.356,0.928
	l-4.728,10.263c-1.521,3.291-0.409,6.611,2.812,8.086c3.083,1.416,6.394,0.293,7.973-3.132l4.728-10.257
	c0.186-0.396,0.525-0.531,0.945-0.327l1.313,0.6c0.415,0.191,0.541,0.523,0.354,0.93l-4.649,10.111
	c-2.156,4.662-6.901,6.571-11.717,4.356c-4.663-2.153-6.523-6.911-4.3-11.733L342.979,655.42z"/>
<path fill="#FFFFFF" d="M364.295,675.337l1.664,0.543c3.276,1.06,5.911,0.225,6.71-2.195c0.802-2.453-0.799-4.804-4.102-5.873
	l-1.634-0.531c-0.313-0.103-0.562,0.025-0.652,0.318l-2.322,7.102C363.856,674.989,363.983,675.24,364.295,675.337 M364.261,664.71
	c0.155-0.479,0.517-0.662,1.01-0.491l4.072,1.319c4.673,1.521,7.267,5.208,6.027,9.02c-1.103,3.383-5.229,4.771-8.252,3.966
	l-0.146-0.021c-0.292-0.025-0.498,0.231-0.282,0.589l4.048,7.497c0.292,0.563,0.01,0.918-0.606,0.722l-1.866-0.648
	c-0.332-0.103-0.57-0.304-0.736-0.609l-4.048-7.854c-0.205-0.418-0.546-0.39-0.685,0.046l-1.755,5.339
	c-0.137,0.425-0.458,0.582-0.896,0.438l-1.316-0.418c-0.429-0.144-0.601-0.458-0.464-0.896L364.261,664.71z"/>
<path fill="#FFFFFF" d="M387.026,690.643l3.17-18.66c0.088-0.504,0.409-0.723,0.928-0.646l10.096,1.744
	c0.459,0.076,0.674,0.366,0.595,0.812l-0.176,0.982c-0.067,0.442-0.359,0.647-0.818,0.576l-7.608-1.302
	c-0.313-0.063-0.545,0.091-0.595,0.397l-0.966,5.729c-0.058,0.305,0.105,0.526,0.42,0.598l7.461,1.275
	c0.459,0.074,0.674,0.361,0.604,0.805l-0.177,0.989c-0.079,0.446-0.371,0.654-0.817,0.571l-7.473-1.276
	c-0.313-0.063-0.546,0.102-0.604,0.407l-1.258,7.462c-0.079,0.446-0.371,0.648-0.83,0.563l-1.345-0.226
	C387.173,691.361,386.958,691.075,387.026,690.643"/>
<path fill="#FFFFFF" d="M416.111,669.825l0.146,1.05c0.077,0.445-0.105,0.724-0.604,0.76l-5.335,0.455
	c-0.439,0.054-0.742-0.131-0.858-0.563l-0.039-0.199c-0.088-0.424,0.078-0.694,0.558-0.829l5.286-1.232
	C415.692,669.153,416.024,669.4,416.111,669.825 M405.052,693.269l1.412-18.736c0.038-0.498,0.343-0.751,0.859-0.711l10.182,0.784
	c0.462,0.034,0.702,0.302,0.663,0.751l-0.065,0.973c-0.03,0.446-0.313,0.671-0.781,0.644l-7.686-0.598
	c-0.305-0.027-0.526,0.147-0.549,0.454l-0.419,5.651c-0.027,0.311,0.165,0.521,0.479,0.543l7.109,0.546
	c0.458,0.028,0.69,0.309,0.661,0.756l-0.064,0.995c-0.039,0.438-0.324,0.682-0.772,0.639l-7.119-0.548
	c-0.313-0.021-0.524,0.148-0.556,0.455l-0.41,5.505c-0.019,0.314,0.164,0.521,0.479,0.55l7.834,0.604
	c0.457,0.034,0.689,0.301,0.662,0.75l-0.077,0.995c-0.039,0.449-0.313,0.677-0.771,0.64l-10.318-0.79
	C405.285,694.067,405.022,693.775,405.052,693.269"/>
<path fill="#FFFFFF" d="M423.739,694.113l-0.419-18.743c-0.01-0.449,0.243-0.707,0.701-0.716l1.386-0.028
	c0.459-0.021,0.732,0.233,0.732,0.682l0.38,16.639c0,0.315,0.214,0.506,0.526,0.5l9.247-0.207c0.459-0.012,0.72,0.232,0.739,0.687
	l0.021,1.172c0.01,0.454-0.243,0.707-0.7,0.716l-11.58,0.259C424.14,695.094,423.76,694.733,423.739,694.113"/>
<path fill="#FFFFFF" d="M443.472,674.406l1.824,18.89c0.048,0.452-0.187,0.716-0.646,0.771l-1.367,0.125
	c-0.457,0.045-0.738-0.188-0.789-0.629l-1.821-18.888c-0.051-0.452,0.185-0.729,0.644-0.771l1.366-0.133
	C443.14,673.733,443.424,673.956,443.472,674.406"/>
<path fill="#FFFFFF" d="M453.226,692.524l-3.513-18.513c-0.106-0.58,0.167-0.977,0.763-1.1l0.281-0.048
	c0.485-0.091,0.85,0.009,1.228,0.312l14.974,12.56c0.353,0.31,0.674,0.131,0.577-0.335l-2.752-14.49
	c-0.078-0.435,0.128-0.734,0.586-0.813l1.033-0.211c0.459-0.082,0.762,0.122,0.849,0.558l3.521,18.507
	c0.108,0.577-0.175,0.966-0.761,1.089l-0.604,0.11c-0.478,0.088-0.879,0-1.258-0.296l-14.476-11.954
	c-0.341-0.298-0.673-0.15-0.574,0.327l2.622,13.814c0.088,0.449-0.127,0.73-0.574,0.83l-1.073,0.202
	C453.615,693.162,453.313,692.954,453.226,692.524"/>
<path fill="#FFFFFF" d="M476.322,682.262l1.316-0.424c0.381-0.113,0.684-0.011,0.937,0.287c1.563,1.766,3.755,2.15,5.972,1.43
	c2.478-0.775,3.842-2.632,3.296-4.341c-1.522-4.771-11.771,1.22-14.084-6.038c-0.978-3.033,1.073-5.986,4.935-7.231
	c3.57-1.138,6.614,0.082,8.409,2.688c0.271,0.411,0.097,0.791-0.371,0.942l-1.248,0.397c-0.391,0.128-0.703,0.018-0.946-0.281
	c-1.276-1.473-3.071-2.072-5.101-1.418c-2.303,0.739-3.532,2.371-2.986,4.042c1.563,4.936,11.901-0.906,14.085,5.979
	c1.043,3.244-1.464,6.365-5.236,7.589c-3.756,1.215-7.159,0.186-9.314-2.688C475.678,682.796,475.834,682.424,476.322,682.262"/>
<path fill="#FFFFFF" d="M506.666,676.596l-8.192-16.948c-0.224-0.458-0.087-0.833,0.381-1.061l9.158-4.471
	c0.411-0.211,0.743-0.097,0.938,0.313l0.429,0.878c0.195,0.41,0.077,0.736-0.342,0.944l-6.905,3.377
	c-0.281,0.146-0.38,0.396-0.243,0.677l2.459,5.111c0.137,0.268,0.41,0.359,0.683,0.219l6.399-3.121
	c0.406-0.205,0.76-0.088,0.953,0.313l0.431,0.907c0.195,0.4,0.078,0.741-0.331,0.946l-6.398,3.121
	c-0.281,0.137-0.382,0.396-0.243,0.683l2.409,4.977c0.125,0.268,0.392,0.359,0.673,0.225l7.043-3.439
	c0.419-0.191,0.762-0.085,0.955,0.313l0.438,0.918c0.196,0.39,0.068,0.736-0.35,0.93l-9.276,4.537
	C507.261,677.17,506.883,677.045,506.666,676.596"/>
<path fill="#FFFFFF" d="M521.726,669.051l1.189-11.493c0.037-0.381-0.14-0.611-0.448-0.736l-10.059-4.014
	c-0.546-0.222-0.563-0.64-0.077-0.944l1.387-0.867c0.32-0.191,0.613-0.213,0.967-0.069l8.057,3.185
	c0.407,0.173,0.731-0.021,0.761-0.466l0.762-8.702c0.027-0.381,0.193-0.604,0.508-0.802l1.249-0.771
	c0.506-0.325,0.848-0.103,0.799,0.489l-1.043,10.899c-0.021,0.353,0.146,0.604,0.457,0.734l10.555,4.207
	c0.535,0.224,0.556,0.636,0.078,0.943l-1.425,0.876c-0.312,0.202-0.604,0.21-0.967,0.074l-8.426-3.342
	c-0.422-0.188-0.731,0.016-0.763,0.465l-0.904,9.162c-0.04,0.365-0.188,0.618-0.511,0.819l-1.324,0.839
	C522.027,669.855,521.677,669.611,521.726,669.051"/>
<path fill="#FFFFFF" d="M532.659,639.142l11.314,15.261c0.271,0.36,0.215,0.71-0.146,0.983l-1.109,0.839
	c-0.371,0.27-0.724,0.225-0.995-0.137l-11.314-15.263c-0.263-0.354-0.215-0.71,0.156-0.979l1.102-0.836
	C532.035,638.74,532.387,638.782,532.659,639.142"/>
<path fill="#FFFFFF" d="M544.006,628.5c3.639-3.256,8.582-3.487,11.928-0.934c0.38,0.282,0.38,0.671,0.021,1.001l-0.896,0.799
	c-0.322,0.3-0.663,0.3-1.016,0.046c-2.459-1.695-5.706-1.522-8.408,0.892c-3.267,2.943-3.892,7.812-0.652,11.408
	c3.248,3.593,8.193,3.495,11.471,0.563c2.74-2.459,3.435-5.376,2.187-7.902c-0.156-0.311-0.449-0.336-0.712-0.1l-3.95,3.545
	c-0.342,0.312-0.702,0.292-1.005-0.043l-0.652-0.731c-0.303-0.321-0.284-0.688,0.061-0.989l5.626-5.043
	c0.479-0.432,0.928-0.392,1.249-0.028l0.078,0.082c3.44,3.81,3.052,9.123-1.261,13c-4.456,3.986-11.101,4.128-15.283-0.497
	C538.688,639.028,539.555,632.496,544.006,628.5"/>
<path fill="#FFFFFF" d="M569.196,631.671l-14.112-12.468c-0.382-0.335-0.398-0.74-0.059-1.126l6.788-7.644
	c0.303-0.336,0.664-0.358,0.994-0.063l0.729,0.643c0.332,0.29,0.354,0.654,0.052,1.001l-5.121,5.771
	c-0.205,0.229-0.196,0.508,0.04,0.711l4.253,3.768c0.223,0.199,0.506,0.174,0.712-0.061l4.739-5.337
	c0.303-0.347,0.663-0.372,1.005-0.074l0.75,0.671c0.331,0.293,0.353,0.651,0.04,0.992l-4.73,5.344
	c-0.206,0.239-0.194,0.515,0.028,0.705l4.156,3.679c0.232,0.199,0.506,0.177,0.722-0.063l5.207-5.876
	c0.303-0.34,0.664-0.372,1.005-0.071l0.752,0.666c0.341,0.292,0.35,0.662,0.038,0.997l-6.865,7.741
	C569.977,631.978,569.577,632.007,569.196,631.671"/>
<path fill="#FFFFFF" d="M578.151,610.663l4.283-6.058c0.164-0.239,0.097-0.472-0.177-0.515l-9.97-2.512
	c-0.342-0.097-0.508,0.135-0.295,0.428l5.603,8.646C577.732,610.89,577.985,610.896,578.151,610.663 M579.993,619.24l-11.06-17.432
	c-0.187-0.313-0.194-0.632,0.02-0.938l1.269-1.786c0.217-0.301,0.528-0.392,0.88-0.324l20.062,4.711
	c0.527,0.133,0.646,0.5,0.345,0.924l-0.858,1.22c-0.232,0.335-0.563,0.446-0.946,0.36l-3.948-1.021
	c-0.205-0.039-0.381,0.011-0.509,0.199l-5.654,7.979c-0.139,0.183-0.118,0.373-0.014,0.558l2.234,3.423
	c0.233,0.341,0.215,0.677-0.02,1.016l-0.82,1.141C580.697,619.644,580.268,619.677,579.993,619.24"/>
<path fill="#FFFFFF" d="M594.537,598.18l-16.568-8.841c-0.52-0.27-0.654-0.736-0.371-1.27l0.137-0.254
	c0.234-0.426,0.546-0.65,1.014-0.768l19.117-3.749c0.458-0.077,0.527-0.438,0.108-0.657l-12.976-6.922
	c-0.397-0.213-0.498-0.554-0.28-0.961l0.506-0.946c0.216-0.398,0.557-0.507,0.945-0.293l16.571,8.829
	c0.526,0.288,0.654,0.745,0.37,1.275l-0.282,0.531c-0.232,0.432-0.557,0.682-1.022,0.784l-18.326,3.767
	c-0.459,0.071-0.558,0.407-0.128,0.645l12.378,6.593c0.391,0.216,0.497,0.565,0.282,0.967l-0.525,0.958
	C595.278,598.281,594.927,598.391,594.537,598.18"/>
<path fill="#FFFFFF" d="M588.822,570.343l-1.104-0.437c-0.408-0.158-0.558-0.49-0.392-0.915l5.363-13.632
	c0.166-0.435,0.499-0.586,0.918-0.415l1.094,0.429c0.407,0.168,0.548,0.5,0.391,0.924l-1.91,4.862
	c-0.176,0.418-0.031,0.744,0.39,0.915l15.333,6.024c0.419,0.156,0.558,0.497,0.392,0.921l-0.538,1.39
	c-0.165,0.432-0.496,0.58-0.906,0.409l-15.352-6.018c-0.411-0.153-0.742-0.009-0.908,0.406l-1.86,4.729
	C589.563,570.354,589.24,570.497,588.822,570.343"/>
<path fill="#FFFFFF" d="M607.677,556.434l0.379-1.325c0.107-0.398,0.371-0.591,0.762-0.625c2.331-0.35,3.884-1.979,4.519-4.219
	c0.702-2.508-0.068-4.665-1.794-5.148c-4.82-1.354-5.521,10.523-12.856,8.454c-3.072-0.856-4.399-4.188-3.276-8.104
	c1.023-3.613,3.743-5.481,6.903-5.557c0.499-0.003,0.704,0.354,0.577,0.824l-0.361,1.271c-0.116,0.393-0.371,0.592-0.762,0.626
	c-1.94,0.271-3.431,1.438-4.021,3.491c-0.66,2.331,0.013,4.258,1.707,4.73c4.985,1.397,5.864-10.456,12.811-8.506
	c3.286,0.916,4.506,4.738,3.413,8.563c-1.083,3.8-3.823,6.091-7.413,6.305C607.756,557.269,607.53,556.931,607.677,556.434"/>
<polygon fill="#28284E" points="529.743,581.427 326.71,581.427 332.518,587.67 523.656,587.67 "/>
<g>
	<path fill="#28284E" d="M432.396,508.235c-1.561-1.56-5.258-2.652-9.58-2.652c-4.312,0-8.019,1.095-9.56,2.652
		c2.271,3.648,5.491,5.27,9.56,5.872C426.484,513.309,431.401,510.654,432.396,508.235"/>
	<path fill="#28284E" d="M486.1,449.875c6.449-15.313,7.706-32.656,1.561-46.352c-15.856-1.053-31.365,12.953-38.232,24.345
		c-24.608-5.462-40.267-2.651-52.124-0.154c-6.242-11.861-24.657-25.907-39.328-24.813c-6.145,13.693-6.007,31.173,0.469,46.504
		l-4.72,1.815c-7.552-17.946-7.844-34.88,0.097-51.09l0.829-1.699l1.883-0.193c17.127-1.755,35.513,11.898,42.419,23.252
		c15.078-3.179,32.235-3.2,47.306-0.058c6.896-11.334,25.291-24.97,42.653-23.194l1.883,0.193l0.85,1.699
		c7.9,16.189,7.471,33.455-0.127,51.383L486.1,449.875z"/>
	<path fill="#28284E" d="M422.896,552.244c19.487-1.766,32.771-5.561,46.554-13.638c-12.034,11.354-30.157,15.978-47.002,18.007
		l-0.398-0.06c-47.599-5.481-67.022-20.894-78.095-33.261c-13.313-3.336-20.498-7.275-25.803-14.786l-2.245-3.16l3.444-1.834
		c10.437-5.48,16.22-18.317,22.347-31.891c3.89-8.604,9.09-20.071,14.25-27.214c1.259,2.829,2.497,4.993,2.497,4.993
		c-4.458,7.746-6.058,9.833-11.597,23.41c-5.247,12.89-13.529,28.555-23.828,34.018c3.433,6.087,13.056,9.842,24.243,12.603
		C360.37,538.783,399.277,550.646,422.896,552.244"/>
	<path fill="#28284E" d="M517.05,498.08c-4.265-6.064-10.572-18.639-14.104-26.45c-3.893-8.604-9.092-20.073-14.251-27.214
		c-1.259,2.828-2.496,4.993-2.496,4.993c4.456,7.745,6.06,9.832,11.599,23.41c2.739,6.73,8.758,18.029,13.012,24.427L517.05,498.08z
		"/>
	<path fill="#28284E" d="M404.833,492.61c0-8.854-7.208-16.05-16.086-16.05c-8.836,0-16.044,7.194-16.044,16.05h-5.121
		c0-11.686,9.49-21.18,21.165-21.18c11.695,0,21.205,9.494,21.205,21.18H404.833z"/>
	<path fill="#28284E" d="M472.875,492.61c0-8.854-7.207-16.05-16.086-16.05c-8.835,0-16.043,7.194-16.043,16.05h-5.121
		c0-11.686,9.49-21.18,21.164-21.18c11.695,0,21.204,9.494,21.204,21.18H472.875z"/>
</g>
<rect x="376.917" y="514.069" fill="#28284E" width="25.187" height="3.082"/>
<polygon fill="#28284E" points="381.568,529.674 403.116,520.605 404.334,523.442 382.789,532.503 "/>
<polygon fill="#28284E" points="462.847,532.503 441.302,523.442 442.52,520.605 464.066,529.677 "/>
<rect x="442.638" y="514.069" fill="#28284E" width="22.492" height="3.082"/>
<g>
	<path fill="#28284E" d="M409.221,520.818c1.032,0,1.874-0.839,1.874-1.873c0-1.032-0.842-1.871-1.874-1.871
		c-1.023,0-1.873,0.839-1.873,1.871C407.348,519.979,408.197,520.818,409.221,520.818"/>
	<path fill="#28284E" d="M405.944,514.242c1.033,0,1.873-0.838,1.873-1.853c0-1.053-0.84-1.894-1.873-1.894
		c-1.044,0-1.882,0.856-1.882,1.894C404.063,513.406,404.9,514.242,405.944,514.242"/>
	<path fill="#28284E" d="M435.675,520.839c-1.033,0-1.873-0.839-1.873-1.874c0-1.034,0.84-1.873,1.873-1.873
		c1.043,0,1.883,0.839,1.883,1.873C437.556,520,436.726,520.839,435.675,520.839"/>
	<path fill="#28284E" d="M438.963,514.281c-1.035,0-1.874-0.856-1.874-1.873c0-1.052,0.839-1.892,1.874-1.892
		c1.043,0,1.883,0.84,1.883,1.892C440.844,513.425,440.014,514.281,438.963,514.281"/>
	<path fill="#28284E" d="M358.014,525.558c0.276,0.256,0.301,0.674,0.063,0.938c-0.121,0.146-0.307,0.214-0.479,0.214l-0.012,0.021
		c-0.149,0-0.32-0.057-0.454-0.156l-4.571-4.076c-0.273-0.253-0.299-0.652-0.045-0.936c0.236-0.256,0.651-0.293,0.917-0.06
		L358.014,525.558z"/>
	<path fill="#28284E" d="M358.755,583.28l-5.489-0.292c2.996-16.933,10.162-30.723,21.866-42.137l3.552,3.96
		C368.011,555.211,361.507,567.793,358.755,583.28"/>
	<path fill="#28284E" d="M378.672,556.752c-0.253,0-0.508-0.117-0.651-0.352c-0.243-0.373-0.146-0.842,0.205-1.095l11.432-7.804
		c0.361-0.254,0.849-0.156,1.092,0.216c0.234,0.35,0.146,0.839-0.214,1.071l-11.432,7.822
		C378.975,556.712,378.828,556.752,378.672,556.752"/>
	<path fill="#28284E" d="M385.655,556.672c-0.253,0-0.508-0.116-0.652-0.33c-0.242-0.369-0.146-0.858,0.204-1.111l9.442-6.729
		c0.361-0.236,0.849-0.159,1.092,0.213c0.244,0.35,0.146,0.839-0.225,1.092l-9.421,6.729
		C385.958,556.615,385.803,556.672,385.655,556.672"/>
	<path fill="#28284E" d="M392.6,556.029c-0.243,0-0.487-0.116-0.652-0.332c-0.243-0.37-0.146-0.856,0.205-1.092l7.853-5.364
		c0.361-0.253,0.849-0.154,1.094,0.196c0.241,0.369,0.146,0.838-0.206,1.091l-7.853,5.365
		C392.913,555.99,392.767,556.029,392.6,556.029"/>
	<path fill="#28284E" d="M372.684,555.951c-0.253,0-0.508-0.14-0.663-0.353c-0.233-0.37-0.14-0.858,0.225-1.092l12.848-8.409
		c0.369-0.233,0.849-0.153,1.093,0.216c0.23,0.37,0.135,0.858-0.235,1.092l-12.835,8.406
		C372.976,555.911,372.84,555.951,372.684,555.951"/>
	<path fill="#28284E" d="M368.69,441.079c-0.469-2.65-0.795-7.354-0.469-9.985c0.398,1.774,2.707,4.683,4.424,6.554
		c-0.604-2.028-1.614-7.022-1.771-11.079c0.751,1.618,5.208,6.359,7.181,8.114c-1.426-2.925-4.983-12.603-4.369-14.356
		c0.741,2.711,8.91,10.359,10.732,11.997c-0.342-1.287-2.105-6.847-4.604-10.571c2.848,1.833,7.228,5.44,10.729,8.936
		c-3.732-9.345-14.94-19.451-28.646-21.342c-4.242,10.61-1.229,28.813,2.78,35.465c0.283-0.253,0.552-4.438,0.895-6.74
		L368.69,441.079z"/>
	<path fill="#28284E" d="M480.067,438.067c0.341,2.302,0.609,6.486,0.895,6.741c4.009-6.653,7.021-24.854,2.777-35.466
		c-13.703,1.893-24.91,11.997-28.646,21.342c3.501-3.493,7.88-7.103,10.729-8.937c-2.497,3.728-4.263,9.285-4.604,10.573
		c1.824-1.638,9.993-9.286,10.733-11.998c0.615,1.756-2.945,11.434-4.37,14.358c1.973-1.757,6.429-6.496,7.181-8.116
		c-0.156,4.058-1.167,9.052-1.771,11.081c1.718-1.873,4.024-4.78,4.425-6.554c0.327,2.632,0,7.334-0.468,9.985L480.067,438.067z"/>
	<path fill="#28284E" d="M456.925,582.112h55.507c-1.365-14.104-13.294-25.167-27.758-25.167
		C470.207,556.945,458.287,567.986,456.925,582.112 M516.805,587.32h-64.271v-2.615c0-17.711,14.417-32.107,32.131-32.107
		c17.73,0,32.14,14.396,32.14,32.108V587.32z"/>
	<path fill="#28284E" d="M468.787,574.738l-2.953-1.854l0.916-1.464c2.067-3.354,5.022-6.009,8.543-7.727l1.553-0.762l1.521,3.121
		l-1.551,0.763c-2.929,1.44-5.403,3.627-7.111,6.416L468.787,574.738z"/>
</g>
<rect x="472.952" y="539.274" fill="#28284E" width="23.438" height="5.498"/>
<rect x="482.023" y="542.668" fill="#28284E" width="5.265" height="11.179"/>
<g>
	<path fill="#28284E" d="M346.427,519.317c5.93,1.404,9.472,2.087,14.152,1.774c-5.618,1.873-11.5,3.062-12.593,2.595
		C348.144,523.687,346.427,519.317,346.427,519.317"/>
	<path fill="#28284E" d="M407.534,531.684c-9.403,0-17.056-7.655-17.056-17.049c0-2.066,0.521-3.922,0.977-5.309
		c0.341-1.032,1.442-1.62,2.521-1.268c1.049,0.341,1.619,1.474,1.271,2.518c-0.36,1.104-0.771,2.556-0.771,4.059
		c0,7.197,5.856,13.052,13.056,13.052s13.051-5.854,13.051-13.052v-4.685c0-1.093,0.896-1.986,2-1.986s2,0.896,2,1.986v4.685
		C424.584,524.028,416.933,531.684,407.534,531.684"/>
	<path fill="#28284E" d="M437.635,531.684c-9.398,0-17.052-7.655-17.052-17.049v-4.685c0-1.093,0.898-1.986,2.001-1.986
		c1.104,0,2,0.896,2,1.986v4.685c0,7.197,5.854,13.052,13.051,13.052s13.057-5.854,13.057-13.052c0-1.503-0.41-2.955-0.771-4.059
		c-0.349-1.044,0.227-2.177,1.271-2.518c1.079-0.341,2.187,0.232,2.521,1.268c0.454,1.387,0.976,3.24,0.976,5.309
		C454.688,524.028,447.035,531.684,437.635,531.684"/>
	<path fill="#28284E" d="M521.16,531.244l0.989,1.501c3.629,5.475,8.141,6.291,10.51,6.291c3.731,0,7.005-1.979,8.134-4.936
		c1.698-4.116,0.898-12.084-8.382-16.201l-1.116-0.497l-0.293-1.188c-2.087-8.446-11.025-14.815-20.791-14.815
		c-4.063,0-9.938,1.151-14.867,6.652l-0.811,0.905l-1.221-0.089c-6.354-0.34-11.002,1.174-13.454,4.586
		c-2.116,2.945-2.249,6.698-1.435,9.117c1.303,3.903,4.231,6.061,8.24,6.061c2.83,0,5.921-1.092,8.694-3.07l1.688-1.191l1.492,1.426
		c6.646,6.38,12.695,8.085,20.883,5.919L521.16,531.244z M532.659,544.031L532.659,544.031c-5.209,0-10.095-2.563-13.636-7.093
		c-8.486,1.833-15.479-0.068-22.477-6.203c-3.179,1.873-6.618,2.889-9.881,2.889c-6.146,0-10.998-3.543-12.982-9.473
		c-1.123-3.354-1.243-8.933,2.121-13.615c2.299-3.188,7.184-6.981,16.646-6.71c4.725-4.799,10.983-7.423,17.76-7.423
		c11.549,0,22.193,7.423,25.312,17.439c10.87,5.439,12.401,16.072,9.91,22.11C543.589,540.764,538.444,544.031,532.659,544.031"/>
</g>
<polygon fill="#28284E" points="498.575,527.764 495.043,527.431 496.084,516.291 499.614,516.625 "/>
<polygon fill="#28284E" points="521.712,534.783 518.426,533.46 522.677,522.951 525.967,524.281 "/>
<g>
	<path fill="#28284E" d="M512.091,568.601l-3.766-3.275c5.236-4.912,14.903-16.542,16.585-27.311l4.778,1.464
		C527.816,550.581,518.479,563.031,512.091,568.601"/>
</g>
<g>
	<rect x="883.864" y="520" fill="#FDEEC1" width="576.136" height="460"/>
	<g>
		<g>
			<path fill="#28284E" d="M1092.287,686.398c0.354,0.318,0.793,0.298,1.113-0.057l1.803-1.994
				c2.533-2.782,3.415-6.938-1.008-10.949c-4.507-4.089-8.47-2.719-10.99,0.064l-1.81,1.99c-0.319,0.353-0.298,0.796,0.055,1.115
				L1092.287,686.398z"/>
			<path fill="#28284E" d="M1059.288,724.654c-1.591-0.311-2.937,0.795-3.315,2.735l-0.709,3.608
				c-0.089,0.469,0.156,0.84,0.62,0.931l3.956,0.774c0.467,0.096,0.838-0.152,0.938-0.62l0.633-3.463
				C1061.779,726.557,1060.957,724.985,1059.288,724.654"/>
			<path fill="#28284E" d="M1138.127,849.412l-0.923-0.301c-0.177-0.061-0.315,0.014-0.37,0.182l-1.313,4.013
				c-0.056,0.167,0.015,0.308,0.191,0.36l0.94,0.308c1.853,0.601,3.34,0.126,3.792-1.243
				C1140.899,851.346,1139.994,850.018,1138.127,849.412"/>
			<path fill="#28284E" d="M1104.449,830.553c-0.141-0.109-0.297-0.104-0.408,0.035l-3.098,3.773
				c-0.111,0.138-0.094,0.297,0.049,0.408l0.935,0.764c1.478,1.207,3.325,1.164,4.307-0.031c1.05-1.283,0.604-2.996-0.849-4.188
				L1104.449,830.553z"/>
			<path fill="#28284E" d="M1115.768,838.689c-2.173-1.384-4.898-0.938-6.337,1.342c-1.471,2.314-0.711,4.982,1.456,6.365
				c2.189,1.383,4.919,0.939,6.385-1.377C1118.719,842.734,1117.947,840.074,1115.768,838.689"/>
			<path fill="#28284E" d="M1112.594,657.221c0.382,0.1,0.67-0.027,0.938-0.366c2.778-3.464,3.58-6.089,2.127-8.402
				c-1.234-2.024-4.135-2.983-6.759-1.439c-2.968,1.741-3.712,4.47-2.351,6.788C1107.631,655.643,1110.084,656.537,1112.594,657.221
				"/>
			<path fill="#28284E" d="M1078.104,795.727c-1.084-2.333-3.609-3.443-6.06-2.309c-2.493,1.151-3.302,3.812-2.218,6.145
				c1.088,2.354,3.627,3.453,6.12,2.304C1078.396,800.726,1079.193,798.078,1078.104,795.727"/>
			<path fill="#28284E" d="M1070.261,726.246c-1.558-0.303-2.856,1.014-3.298,3.264l-0.724,3.648
				c-0.091,0.461,0.158,0.834,0.665,0.938l3.73,0.729c0.457,0.094,0.832-0.155,0.924-0.626l0.713-3.604
				C1072.722,728.307,1071.932,726.576,1070.261,726.246"/>
			<path fill="#28284E" d="M1178.062,650.287c5.006,0.385,7.961-2.924,8.306-7.499c0.344-4.418-2.092-7.973-7.104-8.353
				c-5.003-0.385-7.938,2.766-8.277,7.182C1170.637,646.197,1173.052,649.908,1178.062,650.287"/>
			<path fill="#28284E" d="M1268.096,700.853c3.771-2.302,5.246-6.343,2.631-10.623c-2.613-4.282-6.87-4.825-10.648-2.521
				c-3.909,2.383-5.508,6.506-2.899,10.789C1259.791,702.775,1264.193,703.24,1268.096,700.853"/>
			<path fill="#28284E" d="M1242.028,667.754c1.886,1.621,3.976,1.436,5.448-0.277c1.438-1.683,1.285-3.746-0.584-5.346
				l-1.533-1.311c-0.354-0.31-0.805-0.273-1.109,0.084l-3.814,4.447c-0.304,0.357-0.275,0.803,0.09,1.112L1242.028,667.754z"/>
			<path fill="#28284E" d="M1292.717,738.139l-24.816,5.305c-1.201,0.257-1.957-0.229-2.207-1.428l-0.529-2.479
				c-0.193-0.927-0.037-1.688,0.575-2.428l10.688-13.886c0.457-0.542,0.144-1.042-0.552-0.897l-12.179,2.607
				c-1.002,0.217-1.709-0.242-1.924-1.246l-0.746-3.479c-0.207-1.008,0.244-1.715,1.248-1.924l24.822-5.311
				c1.195-0.258,1.945,0.23,2.205,1.43l0.281,1.316c0.191,0.924,0.038,1.688-0.578,2.426l-12.257,15.438
				c-0.493,0.551-0.221,1.059,0.554,0.895l13.988-2.997c1.006-0.211,1.719,0.245,1.93,1.247l0.742,3.48
				C1294.175,737.18,1293.719,737.92,1292.717,738.139 M1281.052,765.904c-2.624,0-4.754-2.129-4.754-4.766
				c0-2.625,2.13-4.754,4.754-4.754c2.625,0,4.756,2.129,4.756,4.754C1285.807,763.775,1283.677,765.904,1281.052,765.904
				 M1277.846,783.316c-0.613,2.148-2.162,3.444-4.193,3.566c-0.287,0.025-0.413-0.162-0.33-0.444l0.216-0.753
				c0.062-0.225,0.208-0.331,0.431-0.351c1.318-0.199,2.196-1.12,2.553-2.388c0.397-1.416-0.037-2.639-1.012-2.912
				c-2.727-0.764-3.124,5.953-7.271,4.783c-1.737-0.486-2.487-2.37-1.854-4.584c0.577-2.044,2.116-3.099,3.901-3.141
				c0.282-0.004,0.398,0.196,0.325,0.467l-0.202,0.719c-0.064,0.222-0.21,0.334-0.433,0.354c-1.096,0.152-1.939,0.813-2.271,1.973
				c-0.377,1.32,0.005,2.408,0.966,2.676c2.816,0.793,3.314-5.911,7.239-4.808C1277.772,778.99,1278.465,781.155,1277.846,783.316
				 M1273.935,794.343c-0.093,0.239-0.282,0.326-0.513,0.229l-8.682-3.399c-0.229-0.09-0.42-0.008-0.514,0.229l-1.053,2.673
				c-0.095,0.235-0.277,0.318-0.516,0.23l-0.623-0.246c-0.229-0.091-0.313-0.279-0.221-0.521l3.033-7.707
				c0.094-0.241,0.281-0.327,0.52-0.231l0.617,0.24c0.23,0.096,0.308,0.282,0.22,0.521l-1.081,2.749
				c-0.098,0.238-0.016,0.424,0.223,0.521l8.67,3.403c0.235,0.088,0.313,0.281,0.221,0.521L1273.935,794.343z M1270.743,801.813
				l-0.161,0.301c-0.132,0.243-0.313,0.384-0.576,0.442l-10.365,2.131c-0.258,0.041-0.313,0.229-0.069,0.363l6.997,3.729
				c0.221,0.122,0.283,0.321,0.16,0.547l-0.298,0.54c-0.114,0.233-0.313,0.292-0.534,0.178l-9.369-5.002
				c-0.293-0.15-0.371-0.416-0.209-0.716l0.074-0.145c0.135-0.238,0.31-0.367,0.576-0.433l10.809-2.122
				c0.259-0.045,0.296-0.244,0.062-0.372l-7.337-3.909c-0.227-0.123-0.277-0.314-0.158-0.545l0.287-0.535
				c0.121-0.229,0.313-0.286,0.533-0.166l9.371,4.992C1270.83,801.256,1270.901,801.514,1270.743,801.813 M1264.178,813.554
				l-0.483,0.688c-0.134,0.191-0.318,0.258-0.535,0.206l-2.233-0.579c-0.115-0.021-0.216,0.007-0.285,0.113l-3.199,4.513
				c-0.076,0.101-0.063,0.209-0.006,0.315l1.262,1.933c0.133,0.194,0.124,0.388-0.011,0.573l-0.462,0.648
				c-0.155,0.211-0.396,0.229-0.554-0.017l-6.254-9.857c-0.104-0.179-0.108-0.356,0.013-0.53l0.717-1.011
				c0.121-0.167,0.298-0.222,0.497-0.183l11.346,2.662C1264.283,813.109,1264.35,813.314,1264.178,813.554 M1252.201,828.925
				c-0.191,0.228-0.418,0.241-0.634,0.054l-7.979-7.049c-0.216-0.189-0.228-0.418-0.035-0.637l3.839-4.322
				c0.174-0.188,0.375-0.202,0.563-0.036l0.413,0.363c0.188,0.165,0.199,0.368,0.03,0.565l-2.896,3.263
				c-0.114,0.132-0.108,0.284,0.021,0.401l2.404,2.129c0.127,0.111,0.287,0.103,0.402-0.033l2.68-3.018
				c0.173-0.194,0.375-0.209,0.568-0.043l0.428,0.38c0.185,0.167,0.195,0.37,0.021,0.561l-2.675,3.023
				c-0.116,0.134-0.109,0.29,0.018,0.399l2.35,2.076c0.131,0.113,0.288,0.101,0.406-0.034l2.945-3.323
				c0.172-0.19,0.373-0.209,0.566-0.039l0.424,0.378c0.193,0.165,0.201,0.374,0.023,0.564L1252.201,828.925z M1245.273,835.986
				c-2.52,2.251-6.276,2.332-8.643-0.278c-2.314-2.567-1.826-6.263,0.688-8.521c2.061-1.838,4.854-1.973,6.746-0.527
				c0.216,0.16,0.216,0.382,0.01,0.566l-0.505,0.451c-0.184,0.17-0.376,0.17-0.575,0.023c-1.391-0.96-3.226-0.859-4.754,0.505
				c-1.848,1.665-2.199,4.415-0.369,6.448c1.838,2.033,4.633,1.979,6.484,0.318c1.551-1.388,1.943-3.037,1.235-4.465
				c-0.089-0.18-0.255-0.189-0.401-0.06l-2.234,2.004c-0.191,0.179-0.396,0.165-0.564-0.022l-0.371-0.413
				c-0.171-0.185-0.16-0.389,0.031-0.562l3.186-2.853c0.271-0.241,0.523-0.22,0.705-0.016l0.045,0.048
				C1247.933,830.786,1247.714,833.795,1245.273,835.986 M1237.223,842.389l-0.63,0.473c-0.21,0.15-0.408,0.126-0.563-0.078
				l-6.396-8.628c-0.147-0.204-0.12-0.401,0.091-0.556l0.622-0.475c0.21-0.152,0.406-0.129,0.563,0.072l6.396,8.631
				C1237.459,842.031,1237.427,842.232,1237.223,842.389 M1233.285,845.359l-0.807,0.497c-0.176,0.114-0.342,0.117-0.546,0.042
				l-4.765-1.891c-0.235-0.104-0.414,0.01-0.432,0.262l-0.514,5.183c-0.021,0.205-0.104,0.352-0.287,0.462l-0.75,0.477
				c-0.291,0.18-0.489,0.041-0.463-0.276l0.672-6.498c0.021-0.216-0.076-0.345-0.252-0.418l-5.688-2.27
				c-0.31-0.123-0.318-0.36-0.045-0.528l0.784-0.492c0.181-0.11,0.347-0.123,0.544-0.043l4.557,1.801
				c0.23,0.102,0.412-0.01,0.432-0.261l0.432-4.923c0.02-0.215,0.109-0.342,0.285-0.451l0.706-0.438
				c0.286-0.187,0.479-0.059,0.452,0.273l-0.59,6.164c-0.013,0.198,0.083,0.343,0.259,0.416l5.968,2.379
				C1233.543,844.949,1233.556,845.186,1233.285,845.359 M1222.057,852.012l-5.245,2.562c-0.265,0.13-0.479,0.062-0.604-0.192
				l-4.632-9.582c-0.127-0.262-0.051-0.475,0.214-0.603l5.181-2.524c0.229-0.119,0.42-0.057,0.529,0.178l0.24,0.494
				c0.113,0.229,0.046,0.417-0.189,0.535l-3.906,1.904c-0.158,0.085-0.214,0.23-0.138,0.387l1.39,2.891
				c0.078,0.152,0.233,0.205,0.388,0.123l3.616-1.764c0.233-0.117,0.434-0.051,0.543,0.176l0.241,0.516
				c0.109,0.229,0.044,0.416-0.188,0.533l-3.614,1.764c-0.162,0.078-0.218,0.227-0.143,0.39l1.365,2.813
				c0.069,0.151,0.219,0.203,0.379,0.125l3.982-1.94c0.235-0.11,0.43-0.056,0.539,0.177l0.248,0.519
				C1222.364,851.702,1222.293,851.899,1222.057,852.012 M1204.127,859.629c-2.123,0.688-4.047,0.104-5.268-1.521
				c-0.17-0.227-0.082-0.434,0.193-0.525l0.744-0.239c0.217-0.063,0.387-0.003,0.527,0.162c0.887,0.999,2.123,1.218,3.376,0.809
				c1.403-0.438,2.174-1.488,1.864-2.452c-0.858-2.698-6.656,0.688-7.964-3.416c-0.551-1.715,0.604-3.385,2.791-4.088
				c2.02-0.645,3.739,0.047,4.754,1.521c0.153,0.231,0.054,0.444-0.211,0.53l-0.704,0.229c-0.223,0.07-0.396,0.008-0.535-0.161
				c-0.725-0.832-1.734-1.173-2.884-0.802c-1.304,0.42-1.997,1.34-1.688,2.285c0.884,2.791,6.729-0.515,7.963,3.382
				C1207.68,857.172,1206.261,858.938,1204.127,859.629 M1195.485,861.979l-0.343,0.063c-0.271,0.055-0.496,0-0.711-0.166
				l-8.186-6.76c-0.189-0.168-0.381-0.087-0.324,0.188l1.483,7.81c0.048,0.257-0.071,0.415-0.327,0.472l-0.604,0.115
				c-0.26,0.047-0.434-0.066-0.48-0.313l-1.984-10.469c-0.061-0.326,0.095-0.551,0.43-0.619l0.16-0.027
				c0.273-0.051,0.48,0.006,0.691,0.176l8.471,7.102c0.197,0.175,0.379,0.072,0.322-0.189l-1.555-8.19
				c-0.043-0.245,0.072-0.416,0.33-0.46l0.586-0.117c0.258-0.051,0.43,0.064,0.479,0.313l1.99,10.466
				C1195.976,861.689,1195.814,861.908,1195.485,861.979 M1181.146,864.256l-0.771,0.068c-0.26,0.025-0.418-0.104-0.447-0.352
				l-1.029-10.686c-0.028-0.254,0.104-0.408,0.363-0.434l0.771-0.076c0.26-0.021,0.418,0.105,0.445,0.359l1.03,10.682
				C1181.539,864.076,1181.406,864.227,1181.146,864.256 M1176.452,864.678l-6.546,0.146c-0.355,0.016-0.572-0.188-0.582-0.541
				l-0.24-10.597c-0.006-0.257,0.142-0.398,0.398-0.405l0.783-0.018c0.258-0.014,0.414,0.135,0.414,0.385l0.215,9.408
				c0,0.18,0.121,0.287,0.297,0.284l5.229-0.118c0.26-0.008,0.408,0.133,0.418,0.387l0.014,0.664
				C1176.854,864.529,1176.714,864.673,1176.452,864.678 M1166.136,854.227c-0.021,0.256-0.181,0.381-0.442,0.364l-4.345-0.336
				c-0.173-0.02-0.3,0.081-0.312,0.257l-0.234,3.195c-0.019,0.173,0.094,0.291,0.271,0.307l4.02,0.307
				c0.258,0.02,0.393,0.178,0.375,0.431l-0.039,0.563c-0.021,0.249-0.184,0.385-0.436,0.363l-4.024-0.313
				c-0.179-0.014-0.297,0.081-0.314,0.254l-0.231,3.112c-0.012,0.18,0.096,0.298,0.271,0.313l4.429,0.342
				c0.26,0.02,0.395,0.172,0.375,0.426l-0.045,0.563c-0.021,0.252-0.178,0.382-0.436,0.357l-5.837-0.445
				c-0.29-0.025-0.44-0.191-0.425-0.479l0.803-10.6c0.021-0.277,0.189-0.423,0.482-0.398l5.76,0.441
				c0.259,0.021,0.396,0.174,0.374,0.424L1166.136,854.227z M1156.825,853.404c-0.037,0.252-0.206,0.367-0.462,0.324l-4.303-0.732
				c-0.176-0.036-0.309,0.055-0.336,0.227l-0.546,3.24c-0.034,0.171,0.061,0.297,0.235,0.336l4.221,0.723
				c0.259,0.042,0.382,0.204,0.342,0.455l-0.103,0.561c-0.042,0.252-0.208,0.369-0.462,0.322l-4.225-0.722
				c-0.179-0.038-0.309,0.058-0.344,0.229l-0.709,4.221c-0.047,0.252-0.213,0.364-0.473,0.313l-0.76-0.127
				c-0.258-0.045-0.381-0.207-0.342-0.455l1.791-10.547c0.051-0.286,0.231-0.41,0.525-0.367l5.706,0.988
				c0.258,0.042,0.379,0.205,0.335,0.455L1156.825,853.404z M1141.974,853.225c-0.622,1.914-2.955,2.699-4.665,2.244l-0.083-0.01
				c-0.166-0.019-0.282,0.13-0.159,0.334l2.287,4.234c0.166,0.32,0.007,0.52-0.342,0.408l-1.058-0.367
				c-0.187-0.058-0.32-0.172-0.417-0.346l-2.289-4.439c-0.113-0.234-0.308-0.22-0.385,0.025l-0.992,3.021
				c-0.077,0.24-0.259,0.327-0.508,0.247l-0.744-0.234c-0.244-0.082-0.342-0.258-0.262-0.508l3.332-10.176
				c0.089-0.271,0.291-0.376,0.57-0.277l2.305,0.746C1141.207,848.986,1142.676,851.072,1141.974,853.225 M1123.459,854.744
				c-2.636-1.221-3.688-3.906-2.432-6.635l2.63-5.705c0.11-0.229,0.308-0.301,0.542-0.184l0.739,0.334
				c0.233,0.108,0.306,0.299,0.201,0.523l-2.672,5.803c-0.86,1.861-0.231,3.736,1.588,4.572c1.743,0.799,3.616,0.163,4.509-1.771
				l2.673-5.801c0.104-0.228,0.297-0.302,0.532-0.186l0.744,0.336c0.232,0.109,0.305,0.298,0.199,0.529l-2.629,5.714
				C1128.865,854.918,1126.182,855.996,1123.459,854.744 M1118.646,845.885c-1.88,2.975-5.545,3.531-8.486,1.653
				c-2.923-1.854-3.986-5.419-2.104-8.382c1.854-2.938,5.508-3.479,8.434-1.609C1119.43,839.41,1120.502,842.953,1118.646,845.885
				 M1101.041,836.563l-0.912-0.738c-0.137-0.113-0.299-0.105-0.41,0.027l-1.702,2.08c-0.161,0.197-0.365,0.215-0.563,0.049
				l-0.605-0.494c-0.203-0.166-0.228-0.37-0.066-0.566l6.788-8.27c0.178-0.219,0.403-0.244,0.629-0.061l2.023,1.652
				c2.184,1.785,2.832,4.398,1.271,6.291C1106.013,838.342,1103.246,838.367,1101.041,836.563 M1094.86,819.822l-6.959,6.354
				c-0.128,0.119-0.134,0.275-0.013,0.408l3.532,3.86c0.175,0.19,0.17,0.396-0.021,0.565l-0.492,0.451
				c-0.184,0.172-0.389,0.153-0.563-0.037l-4.427-4.832c-0.236-0.268-0.229-0.563,0.021-0.795l7.838-7.156
				c0.188-0.172,0.396-0.156,0.567,0.039l0.529,0.571C1095.056,819.448,1095.051,819.648,1094.86,819.822 M1083.869,822.084
				c0.159,0.212,0.135,0.41-0.07,0.563l-0.455,0.337c-0.199,0.155-0.406,0.121-0.562-0.079l-3.508-4.697
				c-0.171-0.229-0.144-0.455,0.085-0.628l8.529-6.396c0.227-0.17,0.449-0.134,0.627,0.104l3.457,4.619
				c0.158,0.213,0.13,0.412-0.074,0.564l-0.442,0.337c-0.199,0.148-0.399,0.114-0.558-0.091l-2.613-3.493
				c-0.104-0.146-0.262-0.163-0.401-0.062l-2.569,1.926c-0.138,0.104-0.158,0.26-0.053,0.403l2.42,3.232
				c0.154,0.208,0.128,0.407-0.071,0.562l-0.458,0.339c-0.203,0.151-0.4,0.125-0.561-0.089l-2.416-3.229
				c-0.107-0.145-0.268-0.168-0.401-0.068l-2.507,1.891c-0.141,0.103-0.16,0.26-0.057,0.4L1083.869,822.084z M1075.512,811.784
				c-0.215,0.125-0.412,0.077-0.549-0.142l-0.441-0.73c-0.14-0.219-0.094-0.42,0.12-0.55l7.917-4.843
				c0.213-0.135,0.261-0.327,0.121-0.558l-1.506-2.457c-0.14-0.225-0.096-0.423,0.125-0.555l0.563-0.352
				c0.215-0.131,0.414-0.075,0.549,0.14l4.354,7.115c0.138,0.213,0.096,0.421-0.118,0.551l-0.57,0.347
				c-0.211,0.13-0.407,0.081-0.546-0.144l-1.557-2.533c-0.13-0.227-0.329-0.271-0.543-0.138L1075.512,811.784z M1068.6,800.137
				c-1.457-3.154-0.436-6.719,2.764-8.197c3.148-1.465,6.516,0.067,7.974,3.219c1.461,3.164,0.444,6.729-2.704,8.186
				C1073.438,804.823,1070.063,803.303,1068.6,800.137 M1064.557,790.072l-0.229-0.744c-0.072-0.254,0.018-0.436,0.264-0.51l4-1.229
				c0.271-0.079,0.375-0.285,0.286-0.566l-1.81-5.949c-0.082-0.279-0.28-0.394-0.556-0.303l-3.998,1.22
				c-0.243,0.078-0.423-0.021-0.497-0.268l-0.23-0.749c-0.072-0.254,0.021-0.438,0.264-0.503l10.299-3.165
				c0.245-0.068,0.429,0.021,0.501,0.276l0.229,0.747c0.072,0.247-0.021,0.426-0.265,0.506l-4.044,1.235
				c-0.275,0.085-0.381,0.288-0.292,0.567l1.808,5.949c0.084,0.281,0.283,0.388,0.561,0.311l4.046-1.243
				c0.238-0.075,0.415,0.024,0.493,0.274l0.225,0.746c0.078,0.246-0.014,0.434-0.261,0.504l-10.297,3.162
				C1064.813,790.418,1064.635,790.32,1064.557,790.072 M1059.414,760.961c0-2.625,2.129-4.755,4.76-4.755
				c2.625,0,4.752,2.13,4.752,4.755c0,2.637-2.127,4.765-4.752,4.765C1061.543,765.726,1059.414,763.598,1059.414,760.961
				 M1048.059,735.831l1.944-9.896c1.31-6.68,6.173-9.672,10.284-8.866c2.53,0.497,3.725,1.782,4.509,3.789
				c0.285,0.783,0.984,0.917,1.5,0.337c1.804-1.984,4.25-2.752,6.424-2.328c4.932,0.973,6.917,6.037,5.68,12.326l-2,10.208
				c-0.282,1.438-1.212,2.062-2.654,1.776l-23.91-4.699C1048.399,738.198,1047.777,737.27,1048.059,735.831 M1082.098,794.254
				l-0.064,2.49c-0.021,0.188-0.143,0.298-0.329,0.298l-0.315,0.003c-0.192-0.003-0.298-0.115-0.313-0.308l-0.23-1.927
				c-0.03-0.254-0.111-0.428-0.284-0.622l-1.274-1.362c-0.137-0.141-0.166-0.279-0.046-0.43l0.205-0.24
				c0.125-0.145,0.276-0.184,0.436-0.072l1.916,1.521C1082.01,793.772,1082.109,793.977,1082.098,794.254 M1057.425,702.041
				l5.991-12.125c0.451-0.924,1.256-1.191,2.168-0.734l2.73,1.348c0.921,0.457,1.225,1.27,0.772,2.19l-3.212,6.487
				c-0.228,0.463-0.066,0.85,0.364,1.063l3.083,1.519c0.423,0.215,0.826,0.105,1.058-0.356l2.893-5.85
				c0.458-0.919,1.251-1.188,2.174-0.732l2.696,1.333c0.924,0.457,1.186,1.249,0.737,2.17l-2.901,5.848
				c-0.219,0.466-0.066,0.854,0.397,1.078l2.979,1.478c0.431,0.206,0.834,0.101,1.062-0.356l3.482-7.059
				c0.465-0.922,1.293-1.175,2.207-0.719l2.729,1.352c0.929,0.453,1.189,1.248,0.737,2.17l-6.274,12.693
				c-0.65,1.311-1.704,1.668-3.018,1.021l-21.841-10.795C1057.132,704.408,1056.778,703.354,1057.425,702.041 M1072.433,675.92
				l6.084-6.708c6.267-6.909,14.952-7.31,21.072-1.761c6.387,5.788,6.552,14.268,0.308,21.146l-6.083,6.707
				c-0.987,1.084-2.1,1.139-3.181,0.158l-18.046-16.36C1071.502,678.121,1071.451,677.003,1072.433,675.92 M1107.894,645.307
				c3.817-2.242,7.73-0.966,9.476,2.002c1.723,2.933,0.954,5.998-1.817,9.782c-0.312,0.413-0.233,0.777,0.308,0.921l9.185,2.133
				c0.489,0.125,0.832-0.074,0.813-0.57c0.035-2.359-0.584-4.748-1.581-6.683c-0.155-0.331-0.116-0.577,0.229-0.78l0.576-0.343
				c0.314-0.177,0.61-0.13,0.761,0.2c1.304,2.447,2.023,5.324,1.894,8.151c0,0.464,0.177,0.679,0.606,0.787l5.172,1.236
				c0.271,0.069,0.471,0.179,0.612,0.42c0.12,0.2,0,0.456-0.311,0.64l-0.716,0.422c-0.242,0.139-0.484,0.189-0.756,0.121
				l-4.304-1.006c-0.42-0.078-0.688,0.082-0.854,0.5c-0.738,3.048-2.643,5.816-5.851,7.697c-4.908,2.883-9.812,2.188-11.995-1.531
				c-1.92-3.272-0.389-6.748,1.935-9.758c0.306-0.408,0.194-0.755-0.293-0.885c-2.548-0.75-4.995-1.79-6.259-3.939
				C1102.805,651.551,1103.799,647.705,1107.894,645.307 M1132.359,633.448l8.486-2.113c6.563-1.641,12.61,1.012,14.035,6.73
				c0.92,3.688-0.236,7.24-3.221,9.488c-0.586,0.433-0.703,1.076-0.062,1.566l6.59,5.492c1.146,0.814,1.015,1.912-0.374,2.255
				l-5.563,1.392c-0.807,0.199-1.52,0.133-2.118-0.493l-5.604-5.942c-0.716-0.757-1.479-0.205-1.229,0.797l1.45,5.837
				c0.254,0.996-0.182,1.72-1.174,1.97l-4.456,1.105c-1,0.251-1.716-0.184-1.969-1.184l-6.145-24.647
				C1130.713,634.514,1131.166,633.746,1132.359,633.448 M1179.793,627.573c9.428,0.721,15.203,7.623,14.582,15.828
				c-0.641,8.4-7.404,14.468-16.84,13.75c-9.464-0.719-15.196-7.744-14.553-16.141
				C1163.607,632.806,1170.33,626.852,1179.793,627.573 M1197.177,657.648l10.063-23.328c0.484-1.126,1.317-1.459,2.443-0.971
				l1.24,0.535c0.873,0.375,1.396,0.944,1.645,1.875l5.482,18.957c0.164,0.721,0.735,0.794,1.053,0.064l5.675-13.153
				c0.407-0.942,1.188-1.257,2.128-0.846l3.271,1.408c0.91,0.393,1.262,1.188,0.848,2.136l-10.063,23.33
				c-0.484,1.123-1.317,1.457-2.443,0.966l-2.332-1.001c-0.867-0.377-1.396-0.947-1.637-1.872l-5.135-16.782
				c-0.187-0.684-0.771-0.725-1.051-0.064l-4.937,11.445c-0.413,0.944-1.196,1.254-2.134,0.847l-3.271-1.409
				C1197.076,659.371,1196.762,658.598,1197.177,657.648 M1244.424,651.524l6.639,5.688c5.135,4.397,6.476,10.863,2.637,15.34
				c-2.465,2.881-6.025,3.998-9.595,2.867c-0.696-0.227-1.292,0.043-1.308,0.857l-0.668,8.549c0,1.404-0.967,1.93-2.053,0.998
				l-4.352-3.729c-0.629-0.54-0.988-1.163-0.828-2.011l1.602-8.01c0.202-1.023-0.688-1.32-1.362-0.537l-3.914,4.563
				c-0.667,0.783-1.499,0.849-2.28,0.179l-3.489-2.985c-0.774-0.674-0.838-1.51-0.177-2.285l16.527-19.279
				C1242.602,650.797,1243.495,650.727,1244.424,651.524 M1165.094,851.145c0.043,0.252-0.061,0.408-0.344,0.432l-3.017,0.254
				c-0.249,0.032-0.419-0.071-0.485-0.314l-0.021-0.113c-0.051-0.238,0.045-0.392,0.313-0.47l2.986-0.696
				c0.245-0.063,0.437,0.078,0.481,0.317L1165.094,851.145z M1089.066,749.996c0-45.684,37.176-82.861,82.867-82.861
				c45.689,0,82.863,37.18,82.863,82.861c0,45.696-37.172,82.869-82.863,82.869S1089.066,795.694,1089.066,749.996
				 M1276.596,686.649c4.914,8.056,2.689,16.771-4.323,21.046c-7.181,4.383-16.042,2.438-20.962-5.619
				c-4.931-8.09-2.593-16.83,4.592-21.212C1262.922,676.584,1271.66,678.559,1276.596,686.649 M1171.934,614.5
				c-74.715,0-135.5,60.783-135.5,135.496c0,74.717,60.789,135.504,135.5,135.504c74.717,0,135.498-60.787,135.498-135.504
				C1307.432,675.283,1246.65,614.5,1171.934,614.5"/>
			<path fill="#28284E" d="M1113.229,660.015c-2.164,2.646-3.664,5.636-2.063,8.368c1.606,2.727,5.418,3.196,9.228,0.953
				c2.699-1.578,4.209-3.936,4.868-6.48c0.169-0.417-0.011-0.727-0.466-0.87l-10.544-2.426
				C1113.861,659.459,1113.541,659.605,1113.229,660.015"/>
			<path fill="#28284E" d="M1253.314,811.965c-0.193-0.058-0.287,0.072-0.166,0.239l3.166,4.892
				c0.076,0.131,0.221,0.135,0.313,0.004l2.424-3.424c0.095-0.138,0.057-0.27-0.102-0.292L1253.314,811.965z"/>
			<path fill="#28284E" d="M1142.291,645.285l1.918-0.477c2.418-0.604,3.479-2.416,2.926-4.605c-0.529-2.152-2.309-3.22-4.688-2.627
				l-1.963,0.492c-0.459,0.112-0.68,0.496-0.58,0.958l1.431,5.683C1141.442,645.172,1141.828,645.402,1142.291,645.285"/>
			<path fill="#28284E" d="M1161.111,766.301c0.587,0,1.062-0.477,1.062-1.061c0-0.586-0.475-1.059-1.062-1.059
				c-0.576,0-1.058,0.473-1.058,1.059C1160.054,765.824,1160.535,766.301,1161.111,766.301"/>
			<path fill="#28284E" d="M1159.26,762.581c0.584,0,1.059-0.475,1.059-1.048c0-0.594-0.475-1.068-1.059-1.068
				c-0.59,0-1.063,0.482-1.063,1.068C1158.197,762.108,1158.672,762.581,1159.26,762.581"/>
			<path fill="#28284E" d="M1176.07,766.311c-0.587,0-1.06-0.475-1.06-1.058c0-0.585,0.473-1.062,1.06-1.062
				c0.59,0,1.063,0.477,1.063,1.062C1177.135,765.836,1176.666,766.311,1176.07,766.311"/>
			<path fill="#28284E" d="M1177.93,762.605c-0.586,0-1.063-0.486-1.063-1.06c0-0.599,0.477-1.069,1.063-1.069
				c0.588,0,1.063,0.473,1.063,1.069C1178.992,762.117,1178.523,762.605,1177.93,762.605"/>
			<path fill="#28284E" d="M1158.633,750.352c0-5.01-4.074-9.076-9.095-9.076c-4.997,0-9.071,4.066-9.071,9.076h-2.896
				c0-6.607,5.365-11.977,11.968-11.977c6.612,0,11.987,5.367,11.987,11.977H1158.633z"/>
			<path fill="#28284E" d="M1197.104,750.352c0-5.01-4.074-9.076-9.094-9.076c-4.998,0-9.072,4.066-9.072,9.076h-2.896
				c0-6.607,5.365-11.977,11.969-11.977c6.609,0,11.988,5.367,11.988,11.977H1197.104z"/>
			<path fill="#28284E" d="M1138.195,721.217c-0.264-1.5-0.449-4.158-0.264-5.648c0.225,1.004,1.529,2.648,2.502,3.707
				c-0.344-1.146-0.914-3.971-1.002-6.266c0.425,0.915,2.943,3.595,4.057,4.588c-0.804-1.654-2.813-7.125-2.469-8.118
				c0.42,1.534,5.039,5.856,6.068,6.783c-0.193-0.729-1.188-3.872-2.604-5.979c1.61,1.036,4.088,3.076,6.067,5.053
				c-2.112-5.283-8.448-10.996-16.196-12.064c-2.4,5.999-0.694,16.289,1.572,20.051c0.159-0.143,0.311-2.51,0.504-3.81
				L1138.195,721.217z"/>
			<path fill="#28284E" d="M1201.174,719.512c0.19,1.301,0.344,3.668,0.502,3.811c2.269-3.762,3.973-14.052,1.571-20.051
				c-7.747,1.068-14.085,6.781-16.196,12.064c1.979-1.977,4.457-4.017,6.066-5.053c-1.412,2.105-2.41,5.25-2.604,5.979
				c1.031-0.927,5.647-5.251,6.067-6.781c0.351,0.991-1.667,6.462-2.469,8.116c1.112-0.993,3.632-3.673,4.058-4.588
				c-0.087,2.293-0.657,5.118-1,6.266c0.97-1.059,2.275-2.703,2.502-3.707c0.185,1.49,0,4.148-0.268,5.646L1201.174,719.512z"/>
			<path fill="#28284E" d="M1192.727,764.227v-1.744h-5.941c-0.047-1.033-0.284-1.972-0.516-2.678
				c-0.19-0.586-0.816-0.911-1.426-0.718c-0.593,0.19-0.916,0.833-0.72,1.424c0.176,0.541,0.35,1.242,0.399,1.972h-4.518v1.744
				h4.263c-0.239,1.189-0.711,2.259-1.45,3.164l-2.878-1.211l-0.688,1.604l2.147,0.902c-1.212,0.875-2.618,1.496-4.224,1.496
				c-4.069,0-7.379-3.312-7.379-7.381v-0.61c1.884-0.632,3.939-1.846,4.418-3.007c-0.884-0.881-2.975-1.5-5.414-1.5
				s-4.533,0.619-5.406,1.5c1.036,1.662,2.438,2.559,4.143,3.029v0.588c0,4.069-3.311,7.381-7.379,7.381
				c-1.561,0-2.93-0.598-4.123-1.425l2.313-0.976l-0.688-1.604l-3.087,1.297c-0.771-0.923-1.257-2.028-1.508-3.25h4.021v-1.744
				h-4.275c0.053-0.729,0.223-1.431,0.398-1.972c0.195-0.593-0.127-1.231-0.719-1.425c-0.607-0.198-1.23,0.133-1.426,0.719
				c-0.232,0.706-0.471,1.645-0.516,2.678h-7.707v1.744h7.813c0.229,1.547,0.816,2.971,1.693,4.188l-6.876,2.894l0.688,1.6
				l7.396-3.107c1.729,1.63,4.038,2.646,6.596,2.646c3.709,0,6.896-2.132,8.508-5.21c1.613,3.078,4.803,5.21,8.51,5.21
				c2.601,0,4.951-1.044,6.687-2.722l7.571,3.184l0.688-1.6l-7.067-2.978c0.844-1.195,1.396-2.597,1.623-4.104L1192.727,764.227
				L1192.727,764.227z"/>
			<path fill="#28284E" d="M1198.471,790.544c-1.99,0.971-3.661,2.471-4.831,4.365l-0.521,0.827l1.672,1.049l0.52-0.85
				c0.965-1.577,2.368-2.813,4.021-3.628l0.879-0.431l-0.86-1.766L1198.471,790.544z"/>
			<path fill="#28284E" d="M1235.51,773.812c-0.643,1.67-2.49,2.79-4.602,2.79c-1.313,0-3.77-0.479-5.793-3.381l2.006-4.963
				l-1.855-0.75l-2.02,4.979c-4.484,1.136-7.852,0.186-11.514-3.283l0.49-5.273l-1.996-0.188l-0.494,5.282
				c-1.545,1.085-3.258,1.693-4.83,1.693c-2.268,0-3.925-1.219-4.662-3.426c-0.459-1.365-0.385-3.488,0.813-5.154
				c1.389-1.932,4.015-2.786,7.606-2.596l0.688,0.055l0.458-0.516c2.788-3.109,6.112-3.762,8.408-3.762
				c5.52,0,10.576,3.602,11.754,8.377l0.166,0.672l0.631,0.283C1236.016,766.979,1236.469,771.484,1235.51,773.812
				 M1217.994,791.258c-3.035-3.855-7.564-6.415-12.738-6.842v-4.571h5.146v-3.109h-13.252v3.109h5.129v4.575
				c-8.687,0.723-15.591,7.514-16.483,16.148h-52.95c1.591-7.911,4.983-14.467,10.345-19.954c0.868,0.347,1.771,0.683,2.707,1.015
				l-5.686,3.719c-0.207,0.135-0.262,0.409-0.129,0.618c0.091,0.121,0.229,0.197,0.377,0.197c0.088,0,0.166-0.021,0.24-0.076
				l6.243-4.09c0.491,0.162,1.003,0.323,1.515,0.479l-4.865,3.324c-0.199,0.142-0.254,0.404-0.115,0.613
				c0.08,0.135,0.225,0.197,0.367,0.197c0.091,0,0.172-0.021,0.242-0.074l5.459-3.732c0.502,0.146,0.979,0.308,1.502,0.448
				l-3.51,2.502c-0.197,0.146-0.253,0.419-0.113,0.628c0.082,0.122,0.227,0.188,0.365,0.188c0.085,0,0.174-0.029,0.25-0.078
				l4.137-2.947c0.48,0.125,0.969,0.25,1.47,0.373l-2.183,1.484c-0.194,0.132-0.252,0.409-0.113,0.617
				c0.094,0.121,0.229,0.188,0.371,0.188c0.094,0,0.175-0.021,0.244-0.075l2.818-1.928c4.014,0.935,8.516,1.719,13.584,2.303
				l0.229,0.034c9.521-1.147,19.771-3.765,26.574-10.184c-7.795,4.566-15.304,6.713-26.322,7.711
				c-12.367-0.84-32.132-6.66-40.871-16.207c0.441-0.063,0.918-0.145,1.487-0.268l2.198,1.957c0.074,0.057,0.17,0.089,0.259,0.089
				l0.007-0.011c0.098,0,0.202-0.038,0.271-0.121c0.134-0.15,0.119-0.389-0.037-0.529l-1.808-1.599
				c1.036-0.255,2.137-0.555,3.258-0.929c-2.501,0.168-4.462-0.182-7.493-0.889c-0.011-0.016-0.023-0.033-0.037-0.05
				c-6.324-1.56-11.766-3.685-13.709-7.125c5.823-3.088,10.507-11.945,13.477-19.233c3.133-7.676,4.035-8.855,6.557-13.232
				c-3.66-8.671-3.737-18.555-0.266-26.297c8.297-0.617,18.707,7.321,22.235,14.029c6.707-1.411,15.56-2.999,29.475,0.089
				c3.882-6.44,12.65-14.358,21.618-13.767c3.405,7.601,2.771,17.177-0.699,25.713c-0.078,0.147-0.129,0.232-0.129,0.232
				c0.01,0.016,0.017,0.025,0.024,0.045c-0.025,0.07-0.052,0.145-0.08,0.217l0.251,0.078c2.365,4.088,3.316,5.434,6.361,12.896
				c1.492,3.661,4.683,9.663,7.063,13.337c-0.018,0-0.029-0.003-0.043-0.003c-3.832,0-7.371,1.481-10.041,4.195
				c-5.352-0.152-8.113,1.991-9.412,3.794c-1.904,2.648-1.835,5.804-1.199,7.699c1.121,3.354,3.865,5.354,7.34,5.354
				c1.847,0,3.791-0.571,5.587-1.632c3.957,3.47,7.91,4.543,12.709,3.509c0.813,1.036,1.775,1.841,2.804,2.491
				C1224.426,782.814,1220.778,788.654,1217.994,791.258 M1188.159,800.57c0.954-7.797,7.571-13.844,15.616-13.844
				c8.041,0,14.665,6.058,15.619,13.844H1188.159z M1232.525,762.357c-1.434-4.614-5.708-8.209-10.768-9.401
				c-2.396-3.572-5.74-10.235-7.653-14.468c-1.707-3.772-3.862-8.498-6.105-12.327c3.916-9.794,4.043-19.229-0.28-28.1l-0.482-0.96
				l-1.063-0.109c-9.816-1.005-20.217,6.707-24.115,13.113c-8.521-1.773-18.221-1.764-26.748,0.035
				c-3.905-6.421-14.302-14.145-23.985-13.148l-1.063,0.109l-0.47,0.96c-4.312,8.808-4.287,17.995-0.493,27.705
				c-2.333,3.893-4.587,8.804-6.359,12.72c-3.461,7.674-6.732,14.93-12.633,18.029l-1.949,1.037l1.268,1.786
				c3.006,4.247,7.064,6.478,14.594,8.361c3.385,3.778,8.174,8.055,16.083,11.682c-5.45,5.896-8.975,12.847-10.601,21.188h-15.232
				l3.279,3.529h108.076l3.439-3.529h-7.502c-0.261-2.508-1.013-4.852-2.189-6.953c2.965-2.715,7.098-8.566,9.028-14.515
				c0.751,0.202,1.522,0.321,2.313,0.321c3.271,0,6.18-1.848,7.222-4.564C1239.537,771.444,1238.676,765.434,1232.525,762.357"/>
		</g>
	</g>
</g>
<g>
	<rect x="883.864" y="20" fill="#28284E" width="576.136" height="460"/>
	<g>
		<circle fill="#FFFFFF" cx="1171.934" cy="250.11" r="77.109"/>
		<g>
			<path fill="#FFFFFF" d="M1058.182,224.414c-1.605-0.314-2.965,0.803-3.351,2.762l-0.718,3.646
				c-0.089,0.473,0.16,0.848,0.627,0.938l3.995,0.784c0.473,0.095,0.848-0.156,0.946-0.627l0.639-3.496
				C1060.697,226.335,1059.867,224.749,1058.182,224.414"/>
			<g>
				<path fill="#FFFFFF" d="M1091.508,185.781c0.354,0.323,0.801,0.303,1.124-0.057l1.818-2.013
					c2.56-2.812,3.448-7.005-1.019-11.058c-4.551-4.13-8.553-2.744-11.1,0.064l-1.826,2.012c-0.321,0.354-0.303,0.805,0.057,1.126
					L1091.508,185.781z"/>
				<path fill="#FFFFFF" d="M1137.797,350.399l-0.934-0.303c-0.178-0.063-0.318,0.011-0.374,0.181l-1.326,4.053
					c-0.056,0.168,0.017,0.312,0.193,0.365l0.951,0.312c1.869,0.605,3.372,0.128,3.829-1.258
					C1140.595,352.349,1139.68,351.008,1137.797,350.399"/>
				<path fill="#FFFFFF" d="M1103.787,331.353c-0.143-0.111-0.3-0.104-0.412,0.035l-3.129,3.813c-0.109,0.141-0.094,0.3,0.049,0.413
					l0.943,0.771c1.49,1.219,3.357,1.176,4.348-0.032c1.063-1.296,0.61-3.027-0.854-4.229L1103.787,331.353z"/>
				<path fill="#FFFFFF" d="M1115.217,339.569c-2.193-1.396-4.945-0.948-6.397,1.354c-1.483,2.338-0.718,5.03,1.47,6.429
					c2.215,1.396,4.97,0.948,6.447-1.391C1118.194,343.654,1117.418,340.969,1115.217,339.569"/>
				<path fill="#FFFFFF" d="M1112.012,156.318c0.385,0.103,0.677-0.025,0.943-0.369c2.809-3.496,3.615-6.147,2.149-8.483
					c-1.249-2.047-4.177-3.015-6.825-1.456c-2.997,1.759-3.749,4.514-2.374,6.854
					C1106.998,154.724,1109.477,155.63,1112.012,156.318"/>
				<path fill="#FFFFFF" d="M1077.182,296.184c-1.094-2.354-3.646-3.477-6.118-2.331c-2.518,1.164-3.332,3.849-2.237,6.204
					c1.1,2.377,3.662,3.488,6.182,2.327C1077.478,301.233,1078.283,298.561,1077.182,296.184"/>
				<path fill="#FFFFFF" d="M1069.262,226.024c-1.57-0.306-2.886,1.021-3.33,3.293l-0.729,3.688
					c-0.091,0.465,0.16,0.842,0.672,0.946l3.769,0.737c0.462,0.093,0.841-0.159,0.934-0.632l0.722-3.641
					C1071.748,228.102,1070.949,226.356,1069.262,226.024"/>
				<path fill="#FFFFFF" d="M1178.121,149.319c5.058,0.389,8.039-2.95,8.39-7.571c0.345-4.461-2.111-8.053-7.174-8.437
					c-5.054-0.388-8.017,2.793-8.358,7.253C1170.625,145.187,1173.063,148.937,1178.121,149.319"/>
				<path fill="#FFFFFF" d="M1269.041,200.379c3.811-2.325,5.299-6.405,2.656-10.729c-2.639-4.322-6.938-4.873-10.754-2.545
					c-3.947,2.406-5.562,6.569-2.93,10.896C1260.654,202.321,1265.1,202.792,1269.041,200.379"/>
				<path fill="#FFFFFF" d="M1242.719,166.956c1.902,1.637,4.014,1.447,5.502-0.281c1.454-1.699,1.298-3.783-0.591-5.397
					l-1.548-1.321c-0.357-0.313-0.813-0.277-1.119,0.085l-3.854,4.489c-0.307,0.361-0.276,0.813,0.091,1.124L1242.719,166.956z"/>
				<path fill="#FFFFFF" d="M1293.901,238.031l-25.06,5.356c-1.215,0.259-1.979-0.231-2.23-1.442l-0.533-2.502
					c-0.195-0.935-0.037-1.704,0.58-2.448l10.793-14.022c0.461-0.548,0.146-1.053-0.557-0.906l-12.297,2.632
					c-1.015,0.22-1.729-0.243-1.945-1.258l-0.752-3.514c-0.209-1.015,0.246-1.729,1.26-1.941l25.066-5.359
					c1.21-0.263,1.967,0.23,2.229,1.441l0.284,1.329c0.194,0.936,0.038,1.705-0.585,2.45l-12.376,15.587
					c-0.499,0.556-0.223,1.068,0.56,0.903l14.127-3.026c1.016-0.213,1.732,0.247,1.945,1.259l0.752,3.517
					C1295.373,237.062,1294.916,237.81,1293.901,238.031 M1282.122,266.068c-2.647,0-4.8-2.147-4.8-4.812c0-2.651,2.15-4.8,4.8-4.8
					c2.651,0,4.804,2.147,4.804,4.8C1286.926,263.919,1284.773,266.068,1282.122,266.068 M1278.885,283.652
					c-0.619,2.169-2.185,3.479-4.232,3.604c-0.291,0.025-0.418-0.165-0.334-0.449l0.217-0.76c0.063-0.229,0.212-0.334,0.436-0.354
					c1.333-0.201,2.219-1.131,2.578-2.409c0.4-1.431-0.038-2.664-1.022-2.938c-2.751-0.771-3.152,6.011-7.341,4.829
					c-1.756-0.49-2.513-2.395-1.871-4.628c0.584-2.064,2.138-3.129,3.941-3.171c0.285-0.004,0.401,0.196,0.329,0.47l-0.205,0.726
					c-0.067,0.225-0.212,0.339-0.438,0.358c-1.104,0.155-1.958,0.821-2.293,1.992c-0.38,1.333,0.007,2.431,0.977,2.702
					c2.846,0.8,3.349-5.973,7.313-4.855C1278.813,279.286,1279.51,281.47,1278.885,283.652 M1274.936,294.787
					c-0.094,0.239-0.283,0.329-0.518,0.229l-8.766-3.435c-0.232-0.088-0.425-0.006-0.52,0.229l-1.063,2.7
					c-0.094,0.237-0.279,0.321-0.519,0.232l-0.629-0.248c-0.233-0.094-0.317-0.282-0.225-0.524l3.063-7.783
					c0.096-0.246,0.283-0.333,0.522-0.233l0.623,0.241c0.233,0.098,0.313,0.284,0.225,0.527l-1.094,2.775
					c-0.099,0.241-0.017,0.428,0.225,0.522l8.756,3.439c0.238,0.088,0.317,0.284,0.223,0.526L1274.936,294.787z M1271.715,302.329
					l-0.163,0.306c-0.132,0.245-0.317,0.387-0.583,0.445l-10.469,2.151c-0.26,0.042-0.314,0.232-0.068,0.367l7.064,3.765
					c0.225,0.124,0.285,0.325,0.162,0.555l-0.302,0.545c-0.115,0.234-0.315,0.295-0.539,0.178l-9.461-5.05
					c-0.296-0.154-0.374-0.42-0.212-0.726l0.076-0.146c0.136-0.241,0.313-0.37,0.581-0.437l10.915-2.143
					c0.262-0.046,0.299-0.249,0.061-0.377l-7.406-3.948c-0.229-0.124-0.282-0.315-0.161-0.551l0.29-0.539
					c0.123-0.229,0.314-0.29,0.541-0.168l9.463,5.041C1271.802,301.768,1271.873,302.028,1271.715,302.329 M1265.084,314.187
					l-0.486,0.697c-0.137,0.192-0.323,0.258-0.541,0.208l-2.257-0.585c-0.116-0.021-0.22,0.005-0.288,0.112l-3.23,4.559
					c-0.077,0.1-0.064,0.211-0.006,0.316l1.273,1.952c0.135,0.196,0.125,0.391-0.012,0.579l-0.467,0.655
					c-0.157,0.213-0.4,0.229-0.558-0.015l-6.315-9.957c-0.104-0.18-0.109-0.359,0.012-0.535l0.725-1.021
					c0.123-0.168,0.301-0.222,0.502-0.183l11.457,2.688C1265.191,313.738,1265.26,313.944,1265.084,314.187 M1252.988,329.709
					c-0.191,0.229-0.422,0.242-0.639,0.054l-8.059-7.118c-0.22-0.19-0.229-0.422-0.036-0.643l3.878-4.364
					c0.174-0.19,0.377-0.205,0.565-0.037l0.417,0.366c0.189,0.167,0.201,0.374,0.03,0.571l-2.925,3.296
					c-0.117,0.132-0.111,0.286,0.021,0.404l2.43,2.15c0.129,0.111,0.291,0.102,0.406-0.033l2.704-3.047
					c0.176-0.197,0.38-0.211,0.576-0.044l0.429,0.384c0.188,0.168,0.199,0.374,0.021,0.565l-2.701,3.054
					c-0.117,0.135-0.109,0.292,0.018,0.403l2.372,2.098c0.132,0.115,0.29,0.1,0.411-0.036l2.976-3.354
					c0.175-0.193,0.377-0.211,0.571-0.041l0.429,0.382c0.196,0.167,0.202,0.377,0.024,0.568L1252.988,329.709z M1245.993,336.839
					c-2.544,2.271-6.337,2.354-8.727-0.282c-2.338-2.594-1.845-6.322,0.696-8.604c2.078-1.854,4.898-1.993,6.813-0.531
					c0.217,0.16,0.217,0.385,0.009,0.57l-0.51,0.456c-0.185,0.171-0.38,0.171-0.581,0.025c-1.404-0.97-3.257-0.87-4.801,0.51
					c-1.865,1.681-2.221,4.458-0.371,6.512c1.854,2.054,4.676,1.998,6.547,0.322c1.566-1.402,1.963-3.067,1.248-4.509
					c-0.089-0.181-0.256-0.191-0.406-0.061l-2.256,2.024c-0.192,0.178-0.398,0.167-0.572-0.024l-0.373-0.417
					c-0.174-0.185-0.161-0.393,0.031-0.564l3.217-2.879c0.271-0.243,0.528-0.224,0.713-0.017l0.046,0.048
					C1248.679,331.59,1248.457,334.627,1245.993,336.839 M1237.863,343.304l-0.635,0.478c-0.213,0.153-0.412,0.128-0.569-0.079
					l-6.461-8.712c-0.147-0.207-0.12-0.408,0.091-0.562l0.629-0.479c0.215-0.151,0.412-0.128,0.568,0.075l6.459,8.716
					C1238.103,342.945,1238.068,343.147,1237.863,343.304 M1233.887,346.304l-0.814,0.502c-0.176,0.114-0.344,0.118-0.551,0.043
					l-4.812-1.91c-0.237-0.104-0.418,0.011-0.435,0.264l-0.52,5.234c-0.021,0.207-0.105,0.353-0.29,0.467l-0.76,0.479
					c-0.294,0.181-0.491,0.041-0.467-0.279l0.679-6.562c0.021-0.22-0.077-0.35-0.254-0.424l-5.741-2.292
					c-0.313-0.125-0.322-0.362-0.046-0.532l0.791-0.497c0.186-0.113,0.353-0.124,0.553-0.043l4.6,1.817
					c0.234,0.102,0.418-0.011,0.437-0.264l0.435-4.971c0.019-0.219,0.11-0.347,0.289-0.456l0.713-0.442
					c0.289-0.186,0.483-0.057,0.457,0.279l-0.596,6.224c-0.016,0.201,0.084,0.346,0.262,0.42l6.024,2.402
					C1234.148,345.893,1234.16,346.13,1233.887,346.304 M1222.551,353.021l-5.298,2.587c-0.268,0.131-0.483,0.062-0.606-0.196
					l-4.677-9.675c-0.129-0.263-0.053-0.478,0.216-0.605l5.229-2.553c0.234-0.118,0.425-0.055,0.535,0.182l0.244,0.499
					c0.115,0.231,0.047,0.421-0.191,0.541l-3.944,1.924c-0.16,0.086-0.216,0.231-0.14,0.389l1.403,2.918
					c0.079,0.154,0.235,0.208,0.392,0.125l3.65-1.78c0.236-0.117,0.438-0.051,0.549,0.179l0.243,0.52
					c0.112,0.229,0.046,0.421-0.188,0.538l-3.652,1.782c-0.163,0.078-0.218,0.226-0.142,0.391l1.379,2.844
					c0.069,0.15,0.221,0.202,0.383,0.125l4.021-1.963c0.236-0.11,0.434-0.054,0.545,0.18l0.25,0.522
					C1222.859,352.711,1222.787,352.907,1222.551,353.021 M1204.443,360.715c-2.145,0.691-4.088,0.104-5.318-1.536
					c-0.173-0.229-0.084-0.438,0.194-0.531l0.751-0.242c0.219-0.063,0.391-0.003,0.535,0.164c0.893,1.009,2.145,1.229,3.408,0.816
					c1.417-0.441,2.193-1.503,1.884-2.478c-0.869-2.725-6.723,0.694-8.043-3.449c-0.556-1.73,0.612-3.419,2.819-4.129
					c2.037-0.649,3.773,0.049,4.8,1.534c0.155,0.235,0.055,0.451-0.213,0.537l-0.712,0.229c-0.226,0.07-0.401,0.007-0.54-0.163
					c-0.73-0.841-1.753-1.186-2.911-0.812c-1.316,0.424-2.02,1.354-1.705,2.311c0.891,2.817,6.795-0.521,8.041,3.415
					C1208.03,358.233,1206.598,360.016,1204.443,360.715 M1195.719,363.086l-0.348,0.063c-0.271,0.052-0.502,0-0.719-0.169
					l-8.264-6.825c-0.193-0.17-0.385-0.088-0.329,0.188l1.499,7.887c0.049,0.258-0.072,0.419-0.33,0.476l-0.611,0.116
					c-0.262,0.048-0.436-0.066-0.482-0.313l-2.006-10.569c-0.062-0.331,0.096-0.556,0.434-0.628l0.162-0.027
					c0.277-0.051,0.486,0.005,0.7,0.179l8.551,7.17c0.201,0.176,0.384,0.072,0.328-0.191l-1.57-8.271
					c-0.044-0.249,0.073-0.422,0.333-0.466l0.593-0.12c0.261-0.048,0.435,0.068,0.483,0.316l2.011,10.568
					C1196.214,362.795,1196.051,363.018,1195.719,363.086 M1181.236,365.387l-0.779,0.069c-0.262,0.025-0.422-0.104-0.451-0.354
					l-1.041-10.788c-0.027-0.257,0.106-0.415,0.367-0.438l0.78-0.077c0.262-0.023,0.422,0.104,0.45,0.36l1.041,10.787
					C1181.635,365.205,1181.5,365.357,1181.236,365.387 M1176.496,365.813l-6.607,0.147c-0.361,0.014-0.578-0.192-0.589-0.547
					l-0.242-10.7c-0.005-0.261,0.142-0.402,0.401-0.409l0.791-0.02c0.262-0.011,0.418,0.138,0.418,0.391l0.219,9.5
					c0,0.182,0.122,0.29,0.301,0.287l5.279-0.12c0.26-0.007,0.411,0.135,0.422,0.392l0.011,0.67
					C1176.902,365.661,1176.76,365.808,1176.496,365.813 M1166.078,355.259c-0.02,0.258-0.18,0.385-0.444,0.368l-4.39-0.341
					c-0.174-0.018-0.302,0.083-0.313,0.26l-0.238,3.228c-0.017,0.174,0.096,0.295,0.273,0.312l4.059,0.31
					c0.26,0.018,0.396,0.178,0.379,0.433l-0.04,0.569c-0.021,0.251-0.183,0.388-0.438,0.367l-4.066-0.314
					c-0.178-0.013-0.299,0.083-0.316,0.258l-0.233,3.144c-0.012,0.182,0.097,0.301,0.272,0.313l4.475,0.347
					c0.26,0.02,0.396,0.173,0.377,0.431l-0.044,0.567c-0.023,0.255-0.182,0.386-0.44,0.362l-5.894-0.448
					c-0.292-0.028-0.445-0.196-0.428-0.484l0.809-10.702c0.021-0.281,0.193-0.427,0.49-0.403l5.813,0.446
					c0.262,0.021,0.401,0.175,0.378,0.427L1166.078,355.259z M1156.677,354.429c-0.038,0.253-0.208,0.37-0.467,0.327l-4.347-0.74
					c-0.178-0.038-0.312,0.054-0.338,0.227l-0.553,3.272c-0.033,0.173,0.062,0.3,0.239,0.339l4.263,0.73
					c0.26,0.04,0.384,0.205,0.343,0.459l-0.101,0.565c-0.043,0.253-0.211,0.372-0.468,0.325l-4.267-0.729
					c-0.18-0.036-0.311,0.06-0.347,0.233l-0.716,4.26c-0.048,0.255-0.214,0.37-0.479,0.318l-0.768-0.128
					c-0.261-0.046-0.386-0.21-0.347-0.459l1.812-10.651c0.05-0.289,0.234-0.414,0.531-0.371l5.762,0.998
					c0.261,0.043,0.383,0.208,0.338,0.459L1156.677,354.429z M1141.68,354.245c-0.629,1.936-2.984,2.729-4.711,2.269l-0.084-0.011
					c-0.168-0.018-0.285,0.131-0.16,0.337l2.309,4.276c0.168,0.324,0.009,0.523-0.345,0.413l-1.064-0.371
					c-0.188-0.058-0.323-0.174-0.422-0.349l-2.313-4.483c-0.116-0.237-0.313-0.223-0.391,0.025l-1,3.05
					c-0.077,0.242-0.263,0.331-0.515,0.25l-0.752-0.239c-0.246-0.083-0.344-0.26-0.264-0.513l3.362-10.272
					c0.093-0.274,0.297-0.381,0.577-0.281l2.327,0.753C1140.906,349.967,1142.387,352.073,1141.68,354.245 M1122.984,355.781
					c-2.662-1.23-3.727-3.944-2.456-6.7l2.655-5.762c0.109-0.229,0.309-0.303,0.547-0.185l0.746,0.338
					c0.236,0.111,0.311,0.301,0.203,0.529l-2.697,5.856c-0.869,1.881-0.234,3.775,1.604,4.619c1.762,0.807,3.65,0.166,4.555-1.788
					l2.697-5.857c0.104-0.229,0.301-0.304,0.537-0.187l0.752,0.34c0.235,0.11,0.309,0.3,0.201,0.534l-2.654,5.771
					C1128.443,355.955,1125.732,357.048,1122.984,355.781 M1118.123,346.835c-1.896,3.003-5.598,3.563-8.568,1.671
					c-2.951-1.875-4.026-5.474-2.123-8.466c1.872-2.968,5.563-3.512,8.517-1.627
					C1118.914,340.298,1119.997,343.877,1118.123,346.835 M1100.346,337.421l-0.924-0.745c-0.137-0.117-0.301-0.108-0.414,0.026
					l-1.72,2.102c-0.161,0.199-0.368,0.217-0.567,0.05l-0.613-0.499c-0.205-0.168-0.229-0.374-0.064-0.574l6.854-8.349
					c0.181-0.222,0.408-0.247,0.636-0.063l2.042,1.671c2.206,1.803,2.861,4.44,1.287,6.354
					C1105.365,339.218,1102.572,339.243,1100.346,337.421 M1094.104,320.517l-7.027,6.416c-0.129,0.12-0.136,0.28-0.012,0.411
					l3.566,3.899c0.176,0.192,0.171,0.399-0.021,0.57l-0.497,0.456c-0.185,0.174-0.393,0.157-0.567-0.037l-4.47-4.879
					c-0.239-0.268-0.231-0.568,0.021-0.803l7.915-7.229c0.188-0.172,0.398-0.157,0.573,0.04l0.534,0.578
					C1094.302,320.141,1094.296,320.341,1094.104,320.517 M1083.007,322.8c0.159,0.215,0.134,0.417-0.073,0.568l-0.459,0.343
					c-0.201,0.154-0.41,0.123-0.566-0.081l-3.541-4.743c-0.173-0.231-0.146-0.459,0.086-0.635l8.613-6.462
					c0.229-0.172,0.452-0.136,0.632,0.104l3.491,4.665c0.16,0.215,0.131,0.417-0.074,0.57l-0.445,0.34
					c-0.203,0.15-0.406,0.116-0.563-0.091l-2.639-3.528c-0.105-0.146-0.268-0.165-0.408-0.062l-2.594,1.942
					c-0.142,0.106-0.161,0.263-0.056,0.409l2.444,3.264c0.154,0.21,0.129,0.411-0.073,0.567l-0.463,0.342
					c-0.205,0.154-0.405,0.127-0.564-0.089l-2.438-3.261c-0.106-0.145-0.268-0.169-0.406-0.068l-2.53,1.907
					c-0.141,0.104-0.16,0.262-0.056,0.406L1083.007,322.8z M1074.564,312.402c-0.216,0.126-0.415,0.078-0.554-0.143l-0.445-0.738
					c-0.142-0.221-0.095-0.424,0.12-0.555l7.995-4.892c0.216-0.136,0.264-0.331,0.124-0.563l-1.522-2.481
					c-0.139-0.225-0.095-0.427,0.127-0.558l0.567-0.355c0.218-0.132,0.418-0.074,0.555,0.143l4.396,7.185
					c0.141,0.215,0.098,0.425-0.118,0.557l-0.576,0.35c-0.214,0.13-0.413,0.082-0.552-0.145l-1.572-2.558
					c-0.131-0.229-0.332-0.277-0.548-0.14L1074.564,312.402z M1067.588,300.638c-1.475-3.187-0.438-6.785,2.787-8.278
					c3.182-1.479,6.578,0.068,8.053,3.25c1.475,3.196,0.451,6.792-2.73,8.266C1072.471,305.37,1069.063,303.835,1067.588,300.638
					 M1063.502,290.475l-0.229-0.752c-0.074-0.257,0.016-0.438,0.264-0.514l4.039-1.241c0.275-0.08,0.38-0.288,0.291-0.572
					l-1.826-6.008c-0.084-0.284-0.281-0.397-0.561-0.306l-4.038,1.23c-0.246,0.079-0.428-0.021-0.503-0.271l-0.231-0.756
					c-0.073-0.258,0.021-0.44,0.266-0.51l10.398-3.194c0.247-0.069,0.435,0.021,0.507,0.278l0.232,0.756
					c0.072,0.25-0.021,0.429-0.268,0.51l-4.084,1.25c-0.277,0.086-0.385,0.292-0.294,0.571l1.825,6.009
					c0.084,0.284,0.284,0.392,0.563,0.313l4.086-1.255c0.24-0.076,0.418,0.025,0.496,0.277l0.229,0.753
					c0.078,0.249-0.015,0.438-0.265,0.51l-10.396,3.192C1063.76,290.824,1063.58,290.725,1063.502,290.475 M1058.31,261.078
					c0-2.65,2.149-4.802,4.804-4.802c2.652,0,4.8,2.149,4.8,4.802c0,2.661-2.146,4.811-4.8,4.811
					C1060.459,265.889,1058.31,263.74,1058.31,261.078 M1046.844,235.703l1.964-9.992c1.323-6.746,6.231-9.769,10.388-8.954
					c2.557,0.501,3.76,1.8,4.551,3.826c0.289,0.791,0.996,0.927,1.517,0.34c1.821-2.006,4.292-2.779,6.487-2.352
					c4.979,0.98,6.982,6.097,5.733,12.446l-2.021,10.311c-0.285,1.449-1.227,2.08-2.682,1.794l-24.146-4.746
					C1047.187,238.091,1046.558,237.153,1046.844,235.703 M1081.218,294.698l-0.065,2.518c-0.021,0.188-0.143,0.299-0.334,0.299
					l-0.316,0.003c-0.194-0.003-0.303-0.116-0.313-0.309l-0.235-1.946c-0.028-0.257-0.11-0.431-0.286-0.628l-1.286-1.375
					c-0.141-0.142-0.166-0.284-0.046-0.437l0.207-0.24c0.125-0.146,0.277-0.187,0.438-0.074l1.938,1.535
					C1081.127,294.211,1081.229,294.417,1081.218,294.698 M1056.301,201.579l6.052-12.244c0.456-0.933,1.266-1.203,2.188-0.741
					l2.759,1.36c0.93,0.461,1.234,1.279,0.78,2.212l-3.242,6.551c-0.229,0.467-0.067,0.858,0.367,1.074l3.112,1.534
					c0.429,0.215,0.835,0.104,1.068-0.362l2.919-5.907c0.464-0.926,1.264-1.198,2.193-0.74l2.724,1.348
					c0.934,0.462,1.197,1.262,0.747,2.19l-2.933,5.905c-0.222,0.468-0.066,0.86,0.402,1.087l3.006,1.491
					c0.436,0.208,0.842,0.101,1.071-0.36l3.517-7.127c0.472-0.932,1.309-1.186,2.229-0.724l2.758,1.361
					c0.938,0.458,1.201,1.263,0.745,2.191l-6.337,12.817c-0.658,1.322-1.724,1.685-3.047,1.03l-22.057-10.898
					C1056.002,203.971,1055.647,202.904,1056.301,201.579 M1071.457,175.201l6.145-6.773c6.328-6.977,15.098-7.379,21.279-1.776
					c6.447,5.847,6.613,14.405,0.311,21.354l-6.143,6.771c-0.996,1.097-2.121,1.149-3.213,0.159l-18.224-16.521
					C1070.516,177.426,1070.467,176.295,1071.457,175.201 M1107.265,144.288c3.854-2.267,7.808-0.978,9.568,2.021
					c1.735,2.961,0.964,6.059-1.839,9.878c-0.313,0.417-0.232,0.787,0.313,0.932l9.271,2.151c0.495,0.127,0.844-0.075,0.823-0.576
					c0.036-2.384-0.59-4.795-1.597-6.748c-0.156-0.334-0.117-0.583,0.229-0.786l0.584-0.348c0.317-0.179,0.616-0.13,0.769,0.202
					c1.314,2.472,2.045,5.376,1.91,8.233c0,0.467,0.18,0.684,0.612,0.795l5.225,1.248c0.271,0.068,0.476,0.181,0.618,0.424
					c0.12,0.202,0,0.461-0.313,0.646l-0.724,0.427c-0.244,0.14-0.488,0.191-0.765,0.124l-4.344-1.018
					c-0.424-0.079-0.694,0.082-0.863,0.504c-0.745,3.078-2.669,5.874-5.907,7.773c-4.955,2.911-9.905,2.208-12.11-1.546
					c-1.939-3.309-0.394-6.814,1.953-9.854c0.307-0.412,0.194-0.763-0.297-0.894c-2.572-0.757-5.046-1.809-6.319-3.979
					C1102.127,150.593,1103.13,146.712,1107.265,144.288 M1131.971,132.313l8.568-2.135c6.627-1.655,12.736,1.021,14.173,6.799
					c0.931,3.726-0.237,7.313-3.25,9.582c-0.593,0.438-0.714,1.086-0.063,1.583l6.655,5.546c1.156,0.824,1.022,1.934-0.378,2.278
					l-5.619,1.403c-0.813,0.202-1.532,0.134-2.141-0.498l-5.656-6.001c-0.727-0.766-1.494-0.207-1.244,0.805l1.467,5.895
					c0.254,1.008-0.184,1.734-1.187,1.987l-4.5,1.119c-1.011,0.253-1.731-0.188-1.987-1.196l-6.205-24.889
					C1130.307,133.388,1130.766,132.615,1131.971,132.313 M1179.869,126.38c9.521,0.727,15.354,7.699,14.727,15.982
					c-0.646,8.483-7.479,14.61-17.004,13.888c-9.559-0.728-15.35-7.821-14.695-16.301
					C1163.525,131.664,1170.314,125.652,1179.869,126.38 M1197.426,156.75l10.163-23.56c0.487-1.137,1.329-1.473,2.467-0.979
					l1.253,0.54c0.882,0.379,1.409,0.956,1.66,1.894l5.537,19.145c0.165,0.728,0.743,0.802,1.063,0.065l5.73-13.284
					c0.411-0.951,1.195-1.268,2.146-0.853l3.305,1.422c0.918,0.396,1.273,1.2,0.855,2.157l-10.162,23.56
					c-0.49,1.136-1.331,1.472-2.468,0.977l-2.355-1.014c-0.876-0.38-1.409-0.958-1.651-1.89l-5.187-16.949
					c-0.187-0.688-0.778-0.729-1.06-0.063l-4.984,11.558c-0.417,0.954-1.209,1.268-2.154,0.854l-3.302-1.425
					C1197.324,158.493,1197.008,157.709,1197.426,156.75 M1245.135,150.566l6.705,5.745c5.186,4.443,6.537,10.972,2.66,15.491
					c-2.487,2.909-6.087,4.037-9.688,2.896c-0.702-0.228-1.305,0.042-1.32,0.866l-0.674,8.633c0,1.418-0.975,1.948-2.07,1.011
					l-4.396-3.769c-0.634-0.545-0.997-1.174-0.835-2.031l1.615-8.087c0.205-1.034-0.696-1.334-1.377-0.542l-3.952,4.605
					c-0.673,0.791-1.517,0.855-2.302,0.181l-3.524-3.016c-0.784-0.679-0.846-1.523-0.178-2.31l16.688-19.469
					C1243.299,149.831,1244.197,149.761,1245.135,150.566 M1165.025,352.147c0.043,0.254-0.061,0.412-0.346,0.435l-3.046,0.26
					c-0.251,0.03-0.423-0.074-0.49-0.32l-0.021-0.114c-0.054-0.242,0.045-0.396,0.315-0.474l3.017-0.703
					c0.248-0.064,0.438,0.078,0.486,0.32L1165.025,352.147z M1088.252,250.007c0-46.132,37.541-83.678,83.684-83.678
					c46.14,0,83.676,37.545,83.676,83.678c0,46.145-37.536,83.683-83.676,83.683C1125.793,333.69,1088.252,296.152,1088.252,250.007
					 M1277.623,186.036c4.965,8.135,2.72,16.936-4.363,21.253c-7.252,4.425-16.199,2.461-21.168-5.678
					c-4.979-8.169-2.618-16.993,4.637-21.42C1263.813,175.872,1272.64,177.865,1277.623,186.036 M1171.934,113.178
					c-75.447,0-136.831,61.382-136.831,136.829s61.387,136.832,136.831,136.832c75.45,0,136.828-61.385,136.828-136.832
					C1308.762,174.561,1247.385,113.178,1171.934,113.178"/>
				<path fill="#FFFFFF" d="M1112.652,159.14c-2.186,2.672-3.7,5.691-2.084,8.451c1.622,2.752,5.47,3.229,9.316,0.962
					c2.725-1.593,4.25-3.972,4.916-6.544c0.17-0.421-0.012-0.733-0.471-0.879l-10.647-2.449
					C1113.291,158.58,1112.969,158.727,1112.652,159.14"/>
				<path fill="#FFFFFF" d="M1254.113,312.581c-0.192-0.057-0.29,0.075-0.168,0.243l3.197,4.938
					c0.078,0.132,0.224,0.136,0.316,0.003l2.443-3.457c0.098-0.138,0.059-0.271-0.101-0.295L1254.113,312.581z"/>
				<path fill="#FFFFFF" d="M1142,144.267l1.938-0.479c2.44-0.61,3.51-2.439,2.951-4.651c-0.534-2.175-2.328-3.25-4.733-2.651
					l-1.979,0.496c-0.463,0.114-0.688,0.501-0.586,0.968l1.441,5.736C1141.143,144.151,1141.532,144.384,1142,144.267"/>
			</g>
		</g>
		<path fill="#28284E" d="M1161.008,266.47c0.592,0,1.067-0.479,1.067-1.07c0-0.592-0.478-1.067-1.067-1.067
			c-0.582,0-1.068,0.478-1.068,1.067S1160.426,266.47,1161.008,266.47"/>
		<path fill="#28284E" d="M1159.135,262.715c0.59,0,1.068-0.479,1.068-1.06c0-0.6-0.479-1.078-1.068-1.078
			c-0.595,0-1.072,0.487-1.072,1.078C1158.063,262.236,1158.541,262.715,1159.135,262.715"/>
		<path fill="#28284E" d="M1176.11,266.48c-0.592,0-1.069-0.479-1.069-1.067c0-0.593,0.479-1.069,1.069-1.069
			c0.597,0,1.074,0.479,1.074,1.069C1177.185,266,1176.715,266.48,1176.11,266.48"/>
		<path fill="#28284E" d="M1177.988,262.738c-0.592,0-1.069-0.488-1.069-1.068c0-0.604,0.479-1.079,1.069-1.079
			c0.596,0,1.074,0.478,1.074,1.079C1179.063,262.248,1178.59,262.738,1177.988,262.738"/>
		<path fill="#28284E" d="M1158.502,250.363c0-5.058-4.113-9.165-9.184-9.165c-5.047,0-9.162,4.106-9.162,9.165h-2.924
			c0-6.671,5.418-12.094,12.086-12.094c6.678,0,12.105,5.422,12.105,12.094H1158.502z"/>
		<path fill="#28284E" d="M1197.35,250.363c0-5.058-4.113-9.165-9.183-9.165c-5.048,0-9.16,4.106-9.16,9.165h-2.927
			c0-6.671,5.421-12.094,12.087-12.094c6.678,0,12.105,5.422,12.105,12.094H1197.35z"/>
		<path fill="#28284E" d="M1137.865,220.943c-0.268-1.515-0.455-4.198-0.268-5.704c0.228,1.016,1.545,2.676,2.527,3.743
			c-0.351-1.159-0.926-4.01-1.015-6.328c0.431,0.927,2.978,3.633,4.099,4.635c-0.813-1.67-2.846-7.194-2.494-8.198
			c0.425,1.549,5.09,5.915,6.13,6.85c-0.196-0.733-1.201-3.91-2.63-6.037c1.627,1.048,4.129,3.107,6.127,5.104
			c-2.134-5.335-8.531-11.104-16.355-12.186c-2.424,6.061-0.701,16.45,1.588,20.249c0.161-0.144,0.313-2.533,0.512-3.847
			L1137.865,220.943z"/>
		<path fill="#28284E" d="M1201.459,219.221c0.194,1.313,0.35,3.704,0.51,3.848c2.289-3.799,4.012-14.188,1.588-20.249
			c-7.824,1.08-14.227,6.851-16.356,12.186c1.999-1.994,4.501-4.054,6.127-5.104c-1.425,2.127-2.435,5.304-2.63,6.037
			c1.043-0.936,5.705-5.302,6.129-6.848c0.354,1.001-1.684,6.523-2.492,8.196c1.125-1.003,3.668-3.709,4.098-4.636
			c-0.086,2.316-0.664,5.169-1.01,6.328c0.979-1.067,2.299-2.729,2.524-3.743c0.187,1.506,0,4.188-0.269,5.702L1201.459,219.221z"/>
		<path fill="#28284E" d="M1192.93,264.375v-1.763h-5.999c-0.046-1.043-0.287-1.99-0.521-2.703c-0.19-0.593-0.822-0.921-1.438-0.727
			c-0.6,0.195-0.925,0.842-0.727,1.438c0.178,0.546,0.353,1.255,0.402,1.99h-4.562v1.763h4.306c-0.243,1.2-0.719,2.279-1.465,3.193
			l-2.906-1.222l-0.697,1.62l2.17,0.912c-1.224,0.883-2.645,1.511-4.266,1.511c-4.107,0-7.451-3.342-7.451-7.454v-0.616
			c1.902-0.639,3.981-1.862,4.463-3.036c-0.893-0.89-3.004-1.515-5.469-1.515c-2.463,0-4.578,0.625-5.459,1.515
			c1.047,1.68,2.461,2.584,4.184,3.061v0.593c0,4.112-3.344,7.454-7.449,7.454c-1.576,0-2.959-0.602-4.163-1.438l2.334-0.983
			l-0.694-1.62l-3.115,1.31c-0.779-0.933-1.271-2.049-1.522-3.281h4.062v-1.763h-4.316c0.053-0.735,0.225-1.443,0.404-1.99
			c0.195-0.598-0.129-1.243-0.727-1.438c-0.617-0.201-1.246,0.133-1.438,0.727c-0.235,0.713-0.478,1.66-0.521,2.703h-7.782v1.763
			h7.892c0.233,1.562,0.824,3,1.711,4.229l-6.943,2.921l0.695,1.615l7.471-3.14c1.745,1.646,4.077,2.673,6.66,2.673
			c3.744,0,6.964-2.153,8.59-5.261c1.631,3.105,4.854,5.261,8.595,5.261c2.625,0,5-1.054,6.75-2.748l7.646,3.215l0.697-1.615
			l-7.142-3.006c0.854-1.209,1.411-2.622,1.642-4.145L1192.93,264.375L1192.93,264.375z"/>
		<path fill="#28284E" d="M1198.73,290.951c-2.009,0.979-3.696,2.493-4.877,4.409l-0.524,0.835l1.688,1.061l0.521-0.858
			c0.977-1.592,2.393-2.84,4.061-3.664l0.887-0.435l-0.87-1.781L1198.73,290.951z"/>
		<path fill="#28284E" d="M1236.134,274.054c-0.646,1.687-2.516,2.818-4.646,2.818c-1.323,0-3.805-0.483-5.85-3.415l2.024-5.013
			l-1.875-0.757l-2.036,5.028c-4.53,1.146-7.93,0.186-11.627-3.315l0.495-5.327l-2.017-0.188l-0.5,5.334
			c-1.562,1.095-3.291,1.709-4.877,1.709c-2.291,0-3.964-1.229-4.709-3.457c-0.463-1.381-0.389-3.525,0.82-5.207
			c1.4-1.949,4.053-2.813,7.684-2.619l0.694,0.052l0.464-0.519c2.813-3.141,6.172-3.798,8.489-3.798
			c5.573,0,10.68,3.637,11.869,8.46l0.168,0.678l0.638,0.286C1236.645,267.155,1237.102,271.704,1236.134,274.054 M1218.446,291.672
			c-3.063-3.896-7.64-6.479-12.864-6.91v-4.616h5.195v-3.14h-13.383v3.14h5.18v4.62c-8.771,0.73-15.744,7.588-16.646,16.31h-53.473
			c1.607-7.987,5.032-14.608,10.447-20.149c0.876,0.349,1.788,0.688,2.732,1.021l-5.741,3.758c-0.208,0.136-0.263,0.413-0.13,0.624
			c0.092,0.123,0.233,0.198,0.381,0.198c0.088,0,0.166-0.021,0.244-0.076l6.305-4.131c0.496,0.165,1.013,0.327,1.528,0.485
			l-4.914,3.357c-0.201,0.143-0.257,0.408-0.117,0.62c0.081,0.136,0.229,0.199,0.372,0.199c0.092,0,0.173-0.021,0.244-0.075
			l5.514-3.771c0.507,0.148,0.989,0.311,1.518,0.453l-3.543,2.525c-0.201,0.146-0.254,0.425-0.115,0.636
			c0.084,0.123,0.229,0.188,0.371,0.188c0.086,0,0.175-0.031,0.252-0.079l4.176-2.979c0.486,0.126,0.979,0.252,1.483,0.377
			l-2.202,1.5c-0.197,0.133-0.254,0.413-0.115,0.623c0.095,0.123,0.232,0.188,0.375,0.188c0.095,0,0.177-0.021,0.248-0.076
			l2.847-1.944c4.054,0.94,8.6,1.733,13.718,2.323l0.229,0.032c9.616-1.156,19.966-3.798,26.836-10.279
			c-7.868,4.609-15.452,6.776-26.582,7.786c-12.486-0.85-32.444-6.728-41.271-16.366c0.447-0.063,0.928-0.146,1.504-0.271
			l2.221,1.979c0.074,0.057,0.17,0.089,0.26,0.089l0.008-0.012c0.099,0,0.203-0.038,0.273-0.121
			c0.137-0.152,0.121-0.393-0.037-0.535l-1.823-1.615c1.046-0.257,2.155-0.558,3.29-0.937c-2.525,0.17-4.508-0.185-7.566-0.896
			c-0.012-0.016-0.025-0.034-0.038-0.05c-6.388-1.576-11.881-3.721-13.843-7.195c5.879-3.118,10.607-12.063,13.604-19.422
			c3.164-7.752,4.076-8.944,6.621-13.365c-3.693-8.756-3.771-18.734-0.268-26.555c8.379-0.623,18.891,7.396,22.455,14.168
			c6.771-1.425,15.711-3.028,29.762,0.089c3.921-6.505,12.775-14.501,21.831-13.9c3.44,7.674,2.799,17.346-0.706,25.967
			c-0.079,0.146-0.129,0.232-0.129,0.232c0.008,0.018,0.016,0.027,0.022,0.045c-0.024,0.071-0.052,0.146-0.079,0.222l0.254,0.077
			c2.389,4.13,3.35,5.487,6.425,13.023c1.506,3.698,4.728,9.76,7.133,13.468c-0.019,0-0.03-0.004-0.045-0.004
			c-3.868,0-7.442,1.498-10.138,4.238c-5.404-0.155-8.195,2.011-9.506,3.832c-1.924,2.674-1.854,5.858-1.213,7.772
			c1.135,3.389,3.903,5.408,7.412,5.408c1.863,0,3.828-0.579,5.643-1.646c3.996,3.502,7.988,4.587,12.834,3.541
			c0.818,1.049,1.793,1.856,2.831,2.518C1224.939,283.145,1221.26,289.042,1218.446,291.672 M1188.318,301.074
			c0.965-7.872,7.646-13.979,15.771-13.979c8.119,0,14.809,6.117,15.771,13.979H1188.318z M1233.121,262.487
			c-1.447-4.657-5.765-8.289-10.875-9.491c-2.419-3.609-5.796-10.339-7.727-14.61c-1.725-3.813-3.9-8.581-6.168-12.448
			c3.955-9.89,4.083-19.421-0.283-28.376l-0.486-0.969l-1.074-0.111c-9.913-1.014-20.414,6.773-24.354,13.243
			c-8.604-1.791-18.399-1.78-27.01,0.035c-3.945-6.483-14.443-14.281-24.223-13.277l-1.074,0.111l-0.477,0.969
			c-4.354,8.896-4.328,18.173-0.498,27.979c-2.354,3.931-4.631,8.891-6.422,12.845c-3.496,7.749-6.799,15.077-12.758,18.207
			l-1.967,1.046l1.277,1.805c3.032,4.29,7.137,6.54,14.735,8.444c3.417,3.816,8.253,8.133,16.24,11.795
			c-5.505,5.956-9.063,12.972-10.703,21.396h-15.384l3.313,3.563h109.137l3.475-3.563h-7.575c-0.263-2.531-1.021-4.897-2.212-7.021
			c2.994-2.743,7.167-8.653,9.118-14.657c0.759,0.204,1.539,0.325,2.335,0.325c3.303,0,6.24-1.864,7.293-4.61
			C1240.201,271.664,1239.328,265.595,1233.121,262.487"/>
	</g>
</g>
</svg>
