<?xml version="1.0" encoding="utf-8"?>
<!-- Generator: Adobe Illustrator 16.0.0, SVG Export Plug-In . SVG Version: 6.00 Build 0)  -->
<!DOCTYPE svg PUBLIC "-//W3C//DTD SVG 1.1//EN" "http://www.w3.org/Graphics/SVG/1.1/DTD/svg11.dtd">
<svg version="1.1" id="Layer_1" xmlns="http://www.w3.org/2000/svg" xmlns:xlink="http://www.w3.org/1999/xlink" x="0px" y="0px"
	 width="1500px" height="1000px" viewBox="0 0 1500 1000" enable-background="new 0 0 1500 1000" xml:space="preserve">
<g>
	<rect x="883.864" y="520" width="576.136" height="460"/>
</g>
<g>
	<rect x="883.864" y="20" fill="#5A6E7F" width="576.136" height="460"/>
</g>
<g>
	<g>
		<path fill="#5A6D7E" d="M343.954,564.432v-49.899h18.313c7.878,0,14.267,2.272,19.235,6.743
			c5.039,4.473,7.524,10.506,7.524,18.027c0,7.597-2.485,13.702-7.524,18.313c-4.968,4.545-11.357,6.815-19.235,6.815H343.954z
			 M353.252,523.334v32.295h8.73c5.252,0,9.44-1.419,12.563-4.328c3.194-2.912,4.755-6.955,4.755-11.998
			c0-9.937-6.814-15.969-17.318-15.969H353.252z"/>
		<path fill="#5A6D7E" d="M413.431,514.532h9.937l18.384,49.899h-10.008l-3.62-10.434h-20.088l-3.619,10.434h-9.513L413.431,514.532
			z M425.356,546.189l-7.24-20.867l-7.312,20.867H425.356z"/>
		<path fill="#5A6D7E" d="M484.968,529.721h-9.583c-0.284-5.181-3.336-8.021-8.731-8.021c-4.755,0-8.021,2.272-8.021,5.894
			c0,3.121,1.42,4.684,6.459,6.174l7.736,2.272c9.156,2.626,12.919,6.887,12.919,13.698c0,9.866-6.885,15.616-18.171,15.616
			c-11.995,0-19.307-6.246-19.59-17.249h9.44c0.212,5.75,3.833,9.015,10.008,9.015c5.75,0,8.944-2.412,8.944-6.742
			c0-3.053-1.563-4.756-7.454-6.459l-7.169-2.13c-8.873-2.627-12.421-6.813-12.421-13.841c0-4.26,1.632-7.737,4.897-10.363
			c3.335-2.627,7.524-3.975,12.564-3.975C477.585,513.61,484.398,519.501,484.968,529.721z"/>
		<path fill="#5A6D7E" d="M502.987,521.062c5.04-4.967,11.285-7.451,18.88-7.451c7.596,0,13.841,2.484,18.881,7.451
			c5.039,4.899,7.524,11.074,7.524,18.384c0,7.666-3.195,14.765-8.802,19.663l8.163,11.002h-10.149l-5.041-6.743
			c-3.193,1.349-6.813,1.987-10.576,1.987c-7.595,0-13.84-2.483-18.88-7.454c-4.97-4.967-7.454-11.144-7.454-18.455
			C495.533,532.136,498.017,525.961,502.987,521.062z M514.84,539.517h10.149l9.014,12.209c3.055-3.123,4.687-7.452,4.687-12.28
			c0-4.825-1.631-8.872-4.828-12.136c-3.193-3.337-7.168-4.971-11.995-4.971c-4.827,0-8.801,1.634-11.994,4.971
			c-3.196,3.264-4.758,7.311-4.758,12.136c0,4.971,1.562,9.085,4.687,12.352c3.192,3.266,7.168,4.896,12.065,4.896
			c1.703,0,3.264-0.212,5.181-0.709L514.84,539.517z"/>
		<path fill="#5A6D7E" d="M589.141,514.532h9.298v33.006c0,5.183-1.776,9.511-5.395,12.847c-3.62,3.337-8.163,4.97-13.699,4.97
			c-5.465,0-10.009-1.633-13.628-4.97c-3.549-3.336-5.324-7.664-5.324-12.847v-33.006h9.3v32.722c0,5.609,3.762,9.299,9.37,9.299
			c6.032,0,10.078-3.832,10.078-9.299V514.532z"/>
		<path fill="#5A6D7E" d="M645.275,564.432h-31.729v-49.899h31.374v8.518h-22.075v11.997h20.372v8.092h-20.372v12.774h22.431
			V564.432z"/>
		<path fill="#5A6D7E" d="M676.921,564.432h-9.228V523.05H653.71v-8.518h37.194v8.518h-13.983V564.432z"/>
	</g>
	<g>
		<g>
			<path fill="#B69C69" d="M357.055,582.063h3.913l12.824,33.145h-3.96l-3.3-8.677H351.21l-3.3,8.677h-3.772L357.055,582.063z
				 M365.354,603.375l-6.459-17.067l-6.506,17.067H365.354z"/>
			<path fill="#B69C69" d="M410.51,615.208h-3.913l-11.976-33.145h4.102l9.9,28.193l9.948-28.193h3.913L410.51,615.208z"/>
			<path fill="#B69C69" d="M451.139,586.497c3.347-3.349,7.449-4.999,12.304-4.999c4.904,0,9.005,1.65,12.352,4.999
				c3.348,3.299,4.999,7.354,4.999,12.116c0,4.809-1.651,8.863-4.999,12.212c-3.347,3.298-7.448,4.948-12.352,4.948
				c-4.903,0-9.004-1.65-12.352-4.948c-3.3-3.349-4.951-7.403-4.951-12.212C446.141,593.852,447.792,589.796,451.139,586.497z
				 M473.014,588.996c-2.592-2.642-5.798-3.962-9.57-3.962c-3.771,0-6.978,1.32-9.57,3.962c-2.594,2.591-3.866,5.797-3.866,9.617
				c0,3.817,1.272,7.071,3.866,9.713c2.592,2.591,5.751,3.912,9.57,3.912c3.819,0,6.978-1.321,9.57-3.912
				c2.594-2.642,3.913-5.896,3.913-9.713C476.927,594.842,475.607,591.634,473.014,588.996z"/>
			<path fill="#B69C69" d="M540.231,602.431c-0.847,3.912-2.83,7.12-5.893,9.618c-3.067,2.498-6.65,3.725-10.749,3.725
				c-4.809,0-8.865-1.65-12.164-4.997c-3.254-3.349-4.904-7.401-4.904-12.163s1.65-8.817,4.904-12.116
				c3.299-3.349,7.354-4.999,12.164-4.999c4.007,0,7.542,1.18,10.56,3.584c3.065,2.404,5.045,5.469,5.987,9.286h-3.961
				c-0.895-2.829-2.497-5.091-4.809-6.787c-2.31-1.7-4.903-2.547-7.824-2.547c-3.677,0-6.79,1.32-9.335,3.962
				c-2.546,2.638-3.817,5.846-3.817,9.617c0,3.817,1.271,7.024,3.817,9.665c2.546,2.639,5.658,3.96,9.335,3.96
				c3.063,0,5.75-0.898,8.108-2.688c2.357-1.84,3.961-4.197,4.761-7.12H540.231z"/>
			<path fill="#B69C69" d="M576.474,582.063h3.915l12.821,33.145h-3.958l-3.301-8.677h-15.322l-3.298,8.677h-3.773L576.474,582.063z
				 M584.771,603.375l-6.458-17.067l-6.506,17.067H584.771z"/>
			<path fill="#B69C69" d="M626.675,615.208h-3.677v-29.747h-9.949v-3.397h23.622v3.397h-9.996V615.208z"/>
			<path fill="#B69C69" d="M683.759,591.823h-3.771c-0.376-4.573-3.113-7.025-7.78-7.025c-4.148,0-6.977,2.122-6.977,5.328
				c0,2.829,1.274,4.385,5.988,5.704l4.194,1.18c6.744,1.885,9.007,4.432,9.007,8.911c0,3.063-1.037,5.467-3.111,7.214
				c-2.028,1.741-4.81,2.639-8.252,2.639c-7.683,0-12.257-4.055-12.491-11.268h3.722c0.236,5.139,3.349,7.966,8.675,7.966
				c4.854,0,7.685-2.31,7.685-6.316c0-1.413-0.471-2.546-1.367-3.443c-0.896-0.894-2.734-1.694-5.468-2.496l-3.49-0.991
				c-3.349-0.942-5.658-2.12-6.931-3.489c-1.271-1.367-1.884-3.203-1.884-5.421c0-2.593,0.989-4.715,3.017-6.364
				c2.028-1.651,4.619-2.452,7.731-2.452C679.091,581.498,683.336,585.224,683.759,591.823z"/>
		</g>
	</g>
	<g>
		<g>
			<g>
				<g>
					<path fill="#5A6D7E" d="M230.059,470.934c-0.24-0.37-0.321-0.826-0.18-1.267c-0.208,0.417-0.579,0.686-1.012,0.78
						c0.194,0.233,0.314,0.507,0.37,0.804C229.484,471.079,229.759,470.966,230.059,470.934z"/>
				</g>
				<g>
					<path fill="#5A6D7E" d="M227.133,468.566c-0.204,0.413-0.578,0.68-1.005,0.772c0.192,0.232,0.313,0.505,0.369,0.799
						c0.246-0.171,0.521-0.284,0.823-0.319C227.079,469.454,227,469.005,227.133,468.566z"/>
				</g>
				<g>
					<path fill="#5A6D7E" d="M240.637,474.406c-0.216,0.255-0.499,0.418-0.815,0.49c0.165,0.203,0.275,0.432,0.341,0.682
						L240.637,474.406z"/>
				</g>
				<g>
					<path fill="#5A6D7E" d="M237.078,473.788c0.191,0.232,0.312,0.508,0.369,0.804c0.245-0.174,0.523-0.287,0.825-0.321
						c-0.236-0.358-0.316-0.798-0.191-1.236C237.866,473.435,237.5,473.694,237.078,473.788z"/>
				</g>
				<g>
					<path fill="#5A6D7E" d="M224.369,468.207l-0.24,0.603c0.145-0.06,0.299-0.082,0.457-0.099
						C224.479,468.557,224.41,468.389,224.369,468.207z"/>
				</g>
				<g>
					<path fill="#5A6D7E" d="M235.534,473.156c-0.235-0.359-0.314-0.798-0.189-1.234c-0.216,0.404-0.58,0.662-0.997,0.755
						c0.188,0.23,0.307,0.501,0.363,0.796C234.957,473.301,235.232,473.187,235.534,473.156z"/>
				</g>
				<g>
					<path fill="#5A6D7E" d="M232.798,472.049c-0.243-0.367-0.327-0.816-0.189-1.255c-0.208,0.413-0.577,0.676-1.002,0.769
						c0.194,0.234,0.312,0.508,0.369,0.807C232.22,472.198,232.495,472.084,232.798,472.049z"/>
				</g>
				<path fill="#5A6D7E" d="M273.611,377.039l-9.321-8.106l-39.308,97.747c0.231-0.157,0.489-0.262,0.771-0.274
					c-0.216-0.309-0.292-0.706-0.137-1.084c0.23-0.593,0.909-0.869,1.498-0.633c0.597,0.248,0.88,0.919,0.642,1.509
					c-0.158,0.377-0.489,0.606-0.857,0.677c0.364,0.386,0.494,0.947,0.322,1.477c0.252-0.494,0.736-0.808,1.27-0.833
					c-0.217-0.309-0.292-0.707-0.143-1.081c0.241-0.583,0.921-0.878,1.509-0.633c0.597,0.235,0.877,0.914,0.636,1.5
					c-0.152,0.373-0.484,0.606-0.853,0.681c0.363,0.384,0.493,0.945,0.322,1.479c0.249-0.496,0.734-0.811,1.266-0.831
					c-0.217-0.309-0.29-0.708-0.139-1.083c0.238-0.59,0.907-0.875,1.506-0.632c0.587,0.225,0.878,0.904,0.63,1.496
					c-0.15,0.376-0.482,0.609-0.85,0.683c0.366,0.384,0.493,0.941,0.329,1.465c0.253-0.494,0.732-0.802,1.265-0.821
					c-0.219-0.307-0.297-0.702-0.143-1.08c0.242-0.591,0.924-0.875,1.499-0.64c0.605,0.247,0.877,0.917,0.644,1.509
					c-0.155,0.371-0.486,0.604-0.858,0.676c0.362,0.378,0.49,0.923,0.342,1.444c0.253-0.477,0.724-0.777,1.245-0.796
					c-0.214-0.313-0.288-0.707-0.138-1.083c0.247-0.598,0.915-0.875,1.511-0.629c0.585,0.239,0.879,0.905,0.629,1.504
					c-0.148,0.368-0.482,0.599-0.851,0.672c0.359,0.381,0.489,0.934,0.334,1.462c0.256-0.481,0.73-0.786,1.253-0.813
					c-0.214-0.312-0.29-0.71-0.138-1.083c0.239-0.587,0.917-0.877,1.504-0.622c0.592,0.23,0.869,0.901,0.643,1.496
					c-0.154,0.379-0.491,0.605-0.861,0.676c0.283,0.302,0.419,0.707,0.395,1.122l30.23-74.636
					c19.396,20.223,29.212,43.637,29.212,69.744c0,36.51-19.606,70.665-51.163,89.12l8.849,15.127
					c36.91-21.587,59.836-61.537,59.836-104.247C317.945,433.445,303.035,402.621,273.611,377.039z M243.002,457.008
					c0.153,0.059,0.229,0.235,0.158,0.387c-0.062,0.156-0.233,0.224-0.393,0.161c-0.147-0.053-0.231-0.233-0.164-0.383
					C242.672,457.024,242.855,456.943,243.002,457.008z M242.089,459.234c0.224,0.085,0.333,0.34,0.245,0.576
					c-0.1,0.218-0.351,0.323-0.572,0.236c-0.224-0.094-0.339-0.349-0.244-0.567C241.62,459.25,241.866,459.137,242.089,459.234z
					 M241.31,461.159c0.273,0.119,0.401,0.42,0.291,0.688c-0.111,0.265-0.417,0.396-0.683,0.299
					c-0.273-0.12-0.406-0.419-0.293-0.692C240.733,461.184,241.043,461.048,241.31,461.159z M240.874,464.109
					c-0.15,0.353-0.556,0.524-0.917,0.383c-0.354-0.145-0.531-0.558-0.381-0.907c0.145-0.365,0.551-0.534,0.907-0.388
					C240.835,463.341,241.013,463.751,240.874,464.109z M240.263,455.884c0.158,0.067,0.231,0.242,0.165,0.398
					c-0.062,0.153-0.236,0.229-0.39,0.166c-0.163-0.061-0.231-0.231-0.17-0.381C239.938,455.902,240.109,455.828,240.263,455.884z
					 M239.359,458.127c0.221,0.094,0.334,0.342,0.229,0.572c-0.083,0.219-0.338,0.327-0.56,0.227
					c-0.221-0.085-0.334-0.339-0.237-0.561C238.883,458.143,239.134,458.041,239.359,458.127z M238.568,460.051
					c0.278,0.103,0.403,0.41,0.29,0.69c-0.105,0.262-0.412,0.391-0.685,0.284c-0.263-0.106-0.402-0.419-0.292-0.688
					C238.003,460.071,238.305,459.944,238.568,460.051z M238.13,462.994c-0.144,0.359-0.56,0.546-0.913,0.388
					c-0.354-0.15-0.528-0.557-0.39-0.916c0.165-0.36,0.566-0.534,0.916-0.384C238.104,462.223,238.271,462.638,238.13,462.994z
					 M237.532,454.781c0.145,0.065,0.221,0.238,0.155,0.391c-0.056,0.155-0.235,0.227-0.38,0.164
					c-0.158-0.063-0.237-0.241-0.174-0.391C237.191,454.791,237.37,454.718,237.532,454.781z M236.621,457.004
					c0.223,0.094,0.332,0.357,0.235,0.571c-0.081,0.23-0.346,0.334-0.565,0.246c-0.221-0.094-0.334-0.343-0.244-0.568
					C236.141,457.019,236.399,456.916,236.621,457.004z M235.832,458.942c0.273,0.102,0.405,0.416,0.29,0.692
					c-0.101,0.255-0.416,0.389-0.682,0.279c-0.27-0.112-0.399-0.412-0.29-0.689C235.259,458.956,235.564,458.831,235.832,458.942z
					 M235.395,461.886c-0.152,0.354-0.563,0.53-0.912,0.378c-0.356-0.14-0.54-0.556-0.393-0.907c0.14-0.358,0.563-0.527,0.915-0.382
					C235.359,461.119,235.544,461.533,235.395,461.886z M234.792,453.66c0.148,0.066,0.224,0.244,0.163,0.393
					c-0.069,0.159-0.242,0.235-0.387,0.169c-0.162-0.058-0.23-0.234-0.174-0.391C234.451,453.676,234.633,453.604,234.792,453.66z
					 M233.879,455.904c0.224,0.084,0.326,0.337,0.235,0.56c-0.089,0.224-0.344,0.334-0.56,0.246
					c-0.227-0.096-0.339-0.351-0.251-0.571C233.4,455.918,233.655,455.806,233.879,455.904z M233.096,457.83
					c0.277,0.11,0.407,0.418,0.286,0.679c-0.103,0.272-0.413,0.394-0.679,0.289c-0.271-0.105-0.394-0.41-0.289-0.682
					C232.52,457.845,232.83,457.707,233.096,457.83z M232.355,452.656c0.147,0.063,0.231,0.239,0.163,0.388
					c-0.069,0.157-0.239,0.236-0.387,0.173c-0.155-0.06-0.229-0.234-0.171-0.391C232.02,452.671,232.201,452.595,232.355,452.656z
					 M232.274,459.857c0.351,0.145,0.53,0.553,0.384,0.922c-0.148,0.346-0.561,0.528-0.912,0.375
					c-0.357-0.146-0.527-0.55-0.388-0.911C231.503,459.883,231.911,459.709,232.274,459.857z M230.58,455.024
					c0.083-0.227,0.343-0.333,0.563-0.238c0.222,0.093,0.338,0.344,0.242,0.563c-0.087,0.225-0.349,0.34-0.564,0.243
					C230.591,455.505,230.486,455.251,230.58,455.024z M230.361,456.713c0.267,0.11,0.393,0.416,0.285,0.684
					c-0.104,0.269-0.416,0.405-0.687,0.292c-0.267-0.12-0.399-0.422-0.286-0.688C229.78,456.74,230.09,456.609,230.361,456.713z
					 M229.535,458.747c0.349,0.146,0.523,0.549,0.381,0.909c-0.143,0.358-0.551,0.533-0.91,0.393
					c-0.358-0.14-0.528-0.559-0.388-0.917C228.764,458.778,229.175,458.604,229.535,458.747z M228.424,464.001
					c-0.189,0.482-0.747,0.72-1.24,0.528c-0.481-0.199-0.725-0.756-0.525-1.25c0.201-0.485,0.761-0.715,1.237-0.521
					C228.388,462.962,228.629,463.515,228.424,464.001z M229.26,461.757c-0.185,0.459-0.697,0.676-1.152,0.5
					c-0.447-0.186-0.666-0.697-0.487-1.159c0.189-0.45,0.713-0.656,1.147-0.471C229.228,460.805,229.441,461.317,229.26,461.757z
					 M231.169,465.111c-0.209,0.498-0.762,0.723-1.246,0.528c-0.496-0.204-0.724-0.754-0.528-1.243
					c0.196-0.487,0.754-0.717,1.241-0.526C231.125,464.07,231.36,464.631,231.169,465.111z M231.997,462.878
					c-0.189,0.454-0.699,0.663-1.152,0.482c-0.449-0.177-0.664-0.693-0.477-1.147c0.179-0.442,0.693-0.662,1.153-0.479
					C231.965,461.916,232.179,462.422,231.997,462.878z M233.903,466.222c-0.199,0.487-0.747,0.73-1.243,0.536
					c-0.486-0.207-0.728-0.756-0.523-1.245c0.207-0.494,0.75-0.732,1.229-0.523C233.864,465.183,234.095,465.736,233.903,466.222z
					 M234.736,463.989c-0.188,0.452-0.703,0.668-1.152,0.483c-0.452-0.179-0.673-0.689-0.483-1.145
					c0.189-0.45,0.692-0.674,1.144-0.489C234.692,463.032,234.922,463.537,234.736,463.989z M236.64,467.343
					c-0.201,0.483-0.759,0.721-1.238,0.521c-0.487-0.203-0.721-0.76-0.531-1.242c0.197-0.491,0.759-0.73,1.251-0.527
					C236.61,466.295,236.839,466.849,236.64,467.343z M237.463,465.103c-0.177,0.451-0.688,0.667-1.142,0.495
					c-0.453-0.181-0.673-0.707-0.479-1.156c0.181-0.452,0.688-0.662,1.14-0.487C237.438,464.137,237.65,464.661,237.463,465.103z
					 M239.381,468.452c-0.207,0.485-0.764,0.724-1.251,0.522c-0.485-0.194-0.722-0.751-0.525-1.245
					c0.204-0.485,0.757-0.713,1.241-0.521C239.34,467.398,239.578,467.961,239.381,468.452z M240.205,466.218
					c-0.177,0.457-0.7,0.665-1.15,0.481c-0.449-0.18-0.667-0.696-0.484-1.142c0.189-0.453,0.698-0.669,1.153-0.491
					C240.181,465.253,240.386,465.771,240.205,466.218z M242.111,469.564c-0.196,0.481-0.757,0.733-1.237,0.525
					c-0.487-0.199-0.723-0.759-0.526-1.248c0.192-0.484,0.754-0.717,1.249-0.518C242.084,468.523,242.31,469.072,242.111,469.564z
					 M242.944,467.331c-0.18,0.451-0.703,0.665-1.147,0.48c-0.459-0.176-0.668-0.695-0.487-1.145
					c0.188-0.452,0.701-0.669,1.144-0.487C242.909,466.365,243.126,466.877,242.944,467.331z M243.603,465.225
					c-0.142,0.361-0.553,0.527-0.915,0.381c-0.354-0.146-0.525-0.551-0.391-0.91c0.155-0.368,0.565-0.541,0.917-0.393
					C243.58,464.458,243.758,464.864,243.603,465.225z M244.332,462.965c-0.108,0.267-0.417,0.393-0.687,0.285
					c-0.26-0.11-0.399-0.411-0.293-0.683c0.116-0.272,0.421-0.405,0.696-0.295C244.313,462.377,244.45,462.693,244.332,462.965z
					 M244.504,461.154c-0.229-0.09-0.332-0.344-0.236-0.567c0.079-0.224,0.342-0.33,0.563-0.243
					c0.219,0.096,0.332,0.354,0.238,0.575C244.98,461.142,244.72,461.24,244.504,461.154z M245.905,458.514
					c-0.072,0.152-0.243,0.22-0.396,0.162c-0.15-0.063-0.234-0.241-0.162-0.398c0.071-0.15,0.231-0.223,0.396-0.159
					C245.897,458.177,245.966,458.351,245.905,458.514z"/>
			</g>
			<g>
				<g>
					<path fill="#5A6D7E" d="M233.856,576.408c-0.081,0.41-0.324,0.771-0.709,0.987c0.423-0.143,0.853-0.075,1.207,0.142
						c0.024-0.288,0.125-0.556,0.285-0.796C234.353,576.695,234.085,576.592,233.856,576.408z"/>
				</g>
				<g>
					<path fill="#5A6D7E" d="M235.004,579.012c-0.079,0.418-0.328,0.786-0.721,0.997c0.423-0.146,0.857-0.083,1.216,0.143
						c0.024-0.294,0.125-0.564,0.286-0.81C235.5,579.298,235.232,579.192,235.004,579.012z"/>
				</g>
				<g>
					<g>
						<path fill="#5A6D7E" d="M235.21,582.712c-0.504,0.165-1.042,0.055-1.42-0.282c-0.059,0.358-0.273,0.686-0.631,0.839
							c-0.563,0.248-1.216-0.004-1.465-0.573c-0.252-0.55,0-1.214,0.571-1.463c0.355-0.156,0.742-0.093,1.043,0.105
							c0.008-0.514,0.295-0.99,0.765-1.234c-0.509,0.171-1.049,0.061-1.43-0.285c-0.056,0.357-0.268,0.688-0.628,0.845
							c-0.563,0.244-1.226-0.016-1.465-0.567c-0.256-0.57,0.007-1.223,0.567-1.471c0.356-0.158,0.745-0.095,1.049,0.107
							c0.005-0.51,0.288-0.979,0.747-1.236c-0.499,0.167-1.034,0.057-1.41-0.28c-0.059,0.358-0.274,0.685-0.632,0.842
							c-0.569,0.244-1.221-0.013-1.466-0.579c-0.245-0.557,0-1.218,0.575-1.462c0.352-0.156,0.735-0.092,1.04,0.104
							c0.005-0.502,0.288-0.972,0.754-1.231c-0.503,0.158-1.039,0.051-1.417-0.284c-0.059,0.359-0.275,0.688-0.632,0.844
							c-0.56,0.244-1.221-0.012-1.456-0.579c-0.257-0.56,0.005-1.213,0.56-1.468c0.361-0.156,0.749-0.089,1.051,0.111
							c0.01-0.509,0.295-0.985,0.762-1.242c-0.507,0.183-1.047,0.07-1.425-0.267c-0.061,0.354-0.278,0.682-0.636,0.838
							c-0.563,0.241-1.223-0.012-1.469-0.568c-0.243-0.569,0.009-1.224,0.575-1.472c0.356-0.158,0.744-0.095,1.049,0.102
							c0.008-0.515,0.289-0.982,0.757-1.239c-0.501,0.175-1.042,0.067-1.42-0.272c-0.061,0.358-0.275,0.685-0.632,0.842
							c-0.567,0.244-1.223-0.02-1.468-0.575c-0.244-0.563,0.012-1.221,0.575-1.466c0.358-0.156,0.742-0.094,1.046,0.105
							c0.01-0.549,0.327-1.071,0.86-1.308c0.452-0.201,0.938-0.122,1.327,0.117c0.04-0.443,0.24-0.851,0.583-1.146l-31.454,13.295
							l19.943-50.113l16.782,34.589l0.656,1.354c0.007,0.012,0.02,0.021,0.024,0.033c0.004,0.01,0.002,0.019,0.007,0.027
							l0.435,0.899l23.364,48.158h19.72l-53.277-109.401H209.68l-42.558,106.91l67.611-28.574
							C234.856,582.965,235.011,582.819,235.21,582.712z M229.25,577.553c0.205,0.461-0.008,1.006-0.474,1.211
							c-0.467,0.201-1.005-0.015-1.209-0.472c-0.211-0.463,0-1.009,0.469-1.22C228.503,576.876,229.046,577.088,229.25,577.553z
							 M228.103,574.939c0.206,0.466-0.009,1.01-0.472,1.215s-1.005-0.009-1.211-0.478c-0.205-0.469,0.01-1.001,0.477-1.204
							C227.356,574.267,227.911,574.473,228.103,574.939z M224.086,579.075c0.342-0.146,0.737,0.007,0.892,0.346
							c0.145,0.34-0.01,0.743-0.346,0.887c-0.344,0.154-0.742,0-0.885-0.339C223.595,579.629,223.747,579.226,224.086,579.075z
							 M223.495,577.707c-0.354,0.153-0.75-0.008-0.895-0.348c-0.152-0.346,0-0.749,0.349-0.894c0.339-0.156,0.737,0.012,0.892,0.35
							C223.98,577.154,223.833,577.553,223.495,577.707z M224.387,576.577c-0.189-0.432,0.004-0.932,0.43-1.121
							c0.433-0.192,0.936,0.014,1.12,0.436c0.199,0.432-0.004,0.933-0.433,1.122C225.069,577.196,224.567,577.001,224.387,576.577z
							 M225.963,578.063c0.433-0.195,0.934,0.008,1.122,0.443c0.184,0.422-0.009,0.923-0.435,1.115
							c-0.435,0.184-0.933-0.012-1.127-0.435C225.332,578.748,225.538,578.25,225.963,578.063z M226.958,572.331
							c0.21,0.469,0,1.009-0.469,1.214c-0.465,0.202-1.003-0.005-1.214-0.476c-0.206-0.463,0.009-1.004,0.477-1.206
							C226.216,571.661,226.759,571.873,226.958,572.331z M224.604,569.248c0.465-0.195,1.01,0.016,1.214,0.489
							c0.206,0.453-0.01,0.997-0.474,1.199c-0.467,0.195-1.007-0.007-1.209-0.477C223.931,570.005,224.145,569.453,224.604,569.248z
							 M224.792,573.285c0.186,0.431-0.008,0.931-0.43,1.12c-0.431,0.184-0.931,0-1.121-0.443c-0.192-0.422,0.005-0.924,0.438-1.111
							C224.105,572.659,224.604,572.858,224.792,573.285z M222.534,570.242c0.43-0.187,0.931,0.007,1.118,0.435
							c0.189,0.432-0.007,0.937-0.435,1.118c-0.428,0.188-0.939-0.005-1.118-0.439C221.912,570.924,222.099,570.429,222.534,570.242
							z M222.694,574.203c0.144,0.346-0.01,0.74-0.349,0.894c-0.339,0.146-0.737-0.003-0.89-0.354c-0.152-0.328,0-0.732,0.347-0.879
							C222.143,573.708,222.539,573.872,222.694,574.203z M220.657,571.255c0.337-0.146,0.737,0.003,0.89,0.339
							c0.151,0.35,0,0.747-0.349,0.891c-0.342,0.149-0.737,0-0.892-0.341C220.16,571.805,220.314,571.406,220.657,571.255z
							 M214.788,574.881c-0.148,0.059-0.304-0.012-0.375-0.154c-0.069-0.144,0-0.313,0.145-0.382
							c0.142-0.06,0.321,0.008,0.381,0.151C215.006,574.643,214.938,574.81,214.788,574.881z M215.939,577.49
							c-0.155,0.063-0.321,0-0.385-0.149c-0.064-0.15,0-0.32,0.15-0.391c0.145-0.056,0.312,0,0.38,0.153
							C216.146,577.249,216.08,577.423,215.939,577.49z M217.077,580.096c-0.149,0.057-0.312,0-0.381-0.154
							c-0.071-0.146,0-0.313,0.15-0.383c0.15-0.061,0.319,0.013,0.383,0.155C217.292,579.857,217.229,580.036,217.077,580.096z
							 M217.087,574.01c-0.217,0.095-0.462,0-0.553-0.21c-0.094-0.22,0-0.46,0.214-0.555c0.211-0.099,0.466,0,0.557,0.217
							C217.401,573.671,217.305,573.919,217.087,574.01z M218.225,582.7c-0.14,0.06-0.322-0.005-0.381-0.153
							c-0.066-0.142,0-0.312,0.153-0.374c0.145-0.065,0.308,0,0.375,0.153C218.438,582.464,218.371,582.644,218.225,582.7z
							 M218.241,576.619c-0.219,0.096-0.464-0.009-0.56-0.209c-0.094-0.223,0-0.471,0.221-0.562c0.204-0.098,0.459,0,0.551,0.221
							C218.548,576.272,218.448,576.526,218.241,576.619z M218.371,572.992c-0.112-0.261,0.008-0.555,0.261-0.67
							c0.255-0.117,0.563,0.009,0.673,0.257c0.108,0.263-0.01,0.556-0.265,0.666C218.784,573.367,218.487,573.245,218.371,572.992z
							 M219.375,585.311c-0.155,0.064-0.324,0-0.396-0.144c-0.066-0.152,0-0.321,0.155-0.389c0.147-0.063,0.317,0.004,0.383,0.15
							C219.583,585.078,219.517,585.243,219.375,585.311z M219.375,579.226c-0.207,0.101-0.462,0-0.556-0.208
							c-0.086-0.215,0.01-0.469,0.222-0.563c0.213-0.09,0.459,0.012,0.55,0.217C219.689,578.889,219.591,579.134,219.375,579.226z
							 M219.517,575.601c-0.107-0.254,0.01-0.551,0.266-0.673c0.252-0.11,0.547,0,0.661,0.264c0.118,0.257,0,0.56-0.255,0.663
							C219.923,575.977,219.626,575.854,219.517,575.601z M220.509,587.917c-0.142,0.067-0.309,0-0.38-0.155
							c-0.059-0.142,0.007-0.307,0.155-0.37c0.143-0.067,0.313,0,0.374,0.142C220.723,587.679,220.657,587.856,220.509,587.917z
							 M220.527,581.837c-0.221,0.092-0.468,0-0.558-0.217c-0.096-0.208,0-0.456,0.219-0.557c0.214-0.085,0.459,0.008,0.553,0.219
							C220.831,581.498,220.741,581.749,220.527,581.837z M220.657,578.21c-0.11-0.255,0.005-0.563,0.27-0.673
							c0.257-0.11,0.553,0.009,0.664,0.265c0.108,0.256,0,0.552-0.252,0.668C221.071,578.586,220.775,578.47,220.657,578.21z
							 M221.667,584.443c-0.211,0.091-0.457-0.008-0.556-0.224c-0.09-0.208,0-0.455,0.227-0.548c0.209-0.096,0.456,0.007,0.54,0.22
							C221.973,584.103,221.877,584.352,221.667,584.443z M221.802,580.816c-0.111-0.264,0.007-0.562,0.263-0.671
							c0.255-0.109,0.55,0.007,0.67,0.254c0.11,0.264,0,0.561-0.26,0.672C222.22,581.189,221.912,581.071,221.802,580.816z
							 M222.813,587.051c-0.224,0.1-0.469,0-0.56-0.211c-0.094-0.213,0.005-0.467,0.221-0.553c0.208-0.106,0.459,0,0.549,0.214
							C223.116,586.712,223.024,586.957,222.813,587.051z M223.62,583.69c-0.263,0.101-0.558-0.012-0.671-0.267
							c-0.119-0.257,0-0.554,0.265-0.67c0.251-0.11,0.548,0.006,0.668,0.263C223.993,583.269,223.875,583.576,223.62,583.69z
							 M224.759,586.296c-0.255,0.107-0.552-0.009-0.663-0.265c-0.12-0.256,0-0.563,0.266-0.67c0.242-0.114,0.55,0.008,0.658,0.26
							C225.13,585.878,225.02,586.177,224.759,586.296z M224.887,582.574c-0.154-0.339,0.005-0.737,0.347-0.891
							c0.339-0.153,0.749,0,0.892,0.346c0.145,0.344-0.009,0.743-0.347,0.896C225.425,583.065,225.03,582.916,224.887,582.574z
							 M226.924,585.531c-0.339,0.153-0.737-0.012-0.89-0.348c-0.149-0.338,0.005-0.748,0.347-0.893
							c0.339-0.145,0.739,0.011,0.879,0.348C227.416,584.978,227.26,585.388,226.924,585.531z M226.668,581.794
							c-0.187-0.434,0.017-0.938,0.442-1.115c0.42-0.193,0.926,0,1.123,0.424c0.189,0.428-0.01,0.939-0.445,1.123
							C227.356,582.415,226.868,582.22,226.668,581.794z M228.933,584.834c-0.43,0.185-0.931,0-1.121-0.435
							c-0.181-0.428,0-0.935,0.436-1.119c0.432-0.187,0.936,0.008,1.121,0.441C229.558,584.146,229.369,584.647,228.933,584.834z
							 M228.704,580.895c-0.201-0.47,0.013-1.004,0.48-1.208c0.466-0.205,1.009,0.009,1.207,0.466
							c0.201,0.47-0.01,1.012-0.471,1.217C229.455,581.573,228.912,581.36,228.704,580.895z M231.065,583.972
							c-0.474,0.208-1.009,0-1.201-0.461c-0.214-0.472,0-1.013,0.454-1.216c0.47-0.201,1.013,0,1.224,0.465
							C231.736,583.229,231.538,583.771,231.065,583.972z"/>
					</g>
				</g>
				<g>
					<path fill="#5A6D7E" d="M236.925,581.956c-0.285-0.048-0.55-0.153-0.781-0.331c-0.079,0.414-0.325,0.777-0.715,0.991
						c0.225-0.073,0.449-0.085,0.67-0.054l0.626-0.264C236.77,582.173,236.852,582.068,236.925,581.956z"/>
				</g>
				<g>
					<path fill="#5A6D7E" d="M238.887,580.458c-0.029,0.275-0.125,0.528-0.274,0.761c0.145,0.024,0.285,0.047,0.418,0.106
						l0.395-0.17c0.022-0.106,0.02-0.221,0.062-0.318C239.266,580.75,239.067,580.616,238.887,580.458z"/>
				</g>
				<g>
					<path fill="#5A6D7E" d="M232.714,573.797c-0.076,0.408-0.316,0.768-0.698,0.984c0.415-0.133,0.843-0.066,1.194,0.152
						c0.025-0.291,0.127-0.56,0.29-0.802C233.212,574.084,232.946,573.977,232.714,573.797z"/>
				</g>
				<g>
					<path fill="#5A6D7E" d="M233.766,567.793c-0.221-0.086-0.42-0.221-0.599-0.377c-0.03,0.275-0.125,0.532-0.275,0.762
						c0.272,0.046,0.523,0.147,0.745,0.31C233.64,568.247,233.68,568.01,233.766,567.793z"/>
				</g>
				<g>
					<path fill="#5A6D7E" d="M231.355,565.539c0.416-0.028,0.809,0.098,1.138,0.343c0.007-0.338,0.121-0.654,0.287-0.943
						L231.355,565.539z"/>
				</g>
				<g>
					<path fill="#5A6D7E" d="M231.569,571.188c-0.081,0.418-0.327,0.783-0.72,0.993c0.42-0.143,0.854-0.075,1.213,0.146
						c0.024-0.291,0.128-0.562,0.288-0.804C232.063,571.475,231.797,571.367,231.569,571.188z"/>
				</g>
				<g>
					<path fill="#5A6D7E" d="M238.217,578.922c0.005-0.237,0.044-0.478,0.13-0.694c-0.222-0.085-0.421-0.217-0.603-0.373
						c-0.029,0.274-0.123,0.526-0.274,0.755C237.743,578.653,237.996,578.755,238.217,578.922z"/>
				</g>
				<g>
					<path fill="#5A6D7E" d="M230.427,568.585c-0.079,0.415-0.324,0.773-0.713,0.982c0.418-0.142,0.851-0.075,1.207,0.146
						c0.024-0.29,0.125-0.557,0.283-0.798C230.921,568.869,230.655,568.763,230.427,568.585z"/>
				</g>
				<g>
					<path fill="#5A6D7E" d="M235.925,573.702c0.005-0.236,0.044-0.473,0.13-0.694c-0.222-0.083-0.42-0.216-0.6-0.37
						c-0.029,0.271-0.125,0.524-0.277,0.758C235.451,573.435,235.702,573.539,235.925,573.702z"/>
				</g>
				<g>
					<path fill="#5A6D7E" d="M234.781,571.097c0.005-0.24,0.046-0.479,0.135-0.701c-0.221-0.086-0.42-0.218-0.602-0.374
						c-0.026,0.276-0.123,0.535-0.278,0.766C234.309,570.833,234.559,570.931,234.781,571.097z"/>
				</g>
				<g>
					<path fill="#5A6D7E" d="M237.072,576.315c0.007-0.24,0.044-0.477,0.13-0.696c-0.22-0.084-0.419-0.214-0.602-0.372
						c-0.03,0.274-0.125,0.528-0.277,0.757C236.596,576.047,236.849,576.148,237.072,576.315z"/>
				</g>
			</g>
		</g>
	</g>
</g>
<g>
	<path fill="#FFFFFF" d="M1117.698,775.964v-28.029h10.286c4.426,0,8.015,1.275,10.805,3.787c2.832,2.512,4.228,5.902,4.228,10.127
		c0,4.268-1.396,7.696-4.228,10.288c-2.79,2.552-6.379,3.827-10.805,3.827H1117.698z M1122.921,752.88v18.142h4.904
		c2.951,0,5.303-0.799,7.058-2.434c1.794-1.636,2.671-3.906,2.671-6.739c0-5.581-3.828-8.969-9.729-8.969H1122.921z"/>
	<path fill="#FFFFFF" d="M1156.732,747.935h5.582l10.327,28.029h-5.621l-2.034-5.859h-11.284l-2.033,5.859h-5.343L1156.732,747.935z
		 M1163.432,765.717l-4.066-11.722l-4.108,11.722H1163.432z"/>
	<path fill="#FFFFFF" d="M1196.924,756.466h-5.382c-0.161-2.91-1.875-4.506-4.905-4.506c-2.672,0-4.506,1.276-4.506,3.311
		c0,1.756,0.799,2.632,3.629,3.469l4.346,1.276c5.144,1.477,7.257,3.867,7.257,7.695c0,5.543-3.868,8.773-10.207,8.773
		c-6.739,0-10.846-3.509-11.005-9.69h5.303c0.12,3.23,2.153,5.063,5.623,5.063c3.229,0,5.023-1.356,5.023-3.787
		c0-1.716-0.877-2.673-4.188-3.63l-4.026-1.195c-4.984-1.475-6.979-3.828-6.979-7.776c0-2.391,0.918-4.345,2.752-5.819
		c1.874-1.477,4.227-2.232,7.058-2.232C1192.777,747.417,1196.605,750.725,1196.924,756.466z"/>
	<path fill="#FFFFFF" d="M1207.05,751.604c2.832-2.793,6.341-4.187,10.606-4.187c4.267,0,7.775,1.394,10.605,4.187
		c2.831,2.75,4.228,6.219,4.228,10.325c0,4.308-1.795,8.294-4.944,11.047l4.585,6.179h-5.701l-2.831-3.788
		c-1.794,0.759-3.827,1.118-5.941,1.118c-4.266,0-7.774-1.396-10.606-4.188c-2.79-2.793-4.186-6.261-4.186-10.368
		C1202.864,757.822,1204.26,754.354,1207.05,751.604z M1213.71,761.969h5.701l5.063,6.859c1.714-1.755,2.632-4.187,2.632-6.899
		c0-2.71-0.918-4.982-2.712-6.816c-1.794-1.876-4.026-2.793-6.738-2.793c-2.711,0-4.943,0.917-6.738,2.793
		c-1.795,1.834-2.671,4.106-2.671,6.816c0,2.791,0.876,5.104,2.631,6.938c1.794,1.836,4.027,2.753,6.778,2.753
		c0.957,0,1.834-0.121,2.91-0.399L1213.71,761.969z"/>
	<path fill="#FFFFFF" d="M1255.455,747.935h5.223v18.54c0,2.911-0.996,5.343-3.029,7.217c-2.034,1.873-4.586,2.793-7.695,2.793
		c-3.07,0-5.623-0.92-7.656-2.793c-1.994-1.874-2.991-4.306-2.991-7.217v-18.54h5.225v18.38c0,3.152,2.112,5.225,5.263,5.225
		c3.39,0,5.662-2.153,5.662-5.225V747.935z"/>
	<path fill="#FFFFFF" d="M1286.992,775.964h-17.822v-28.029h17.623v4.784h-12.4v6.739h11.443v4.546h-11.443v7.176h12.6V775.964z"/>
	<path fill="#FFFFFF" d="M1304.774,775.964h-5.183v-23.245h-7.854v-4.784h20.893v4.784h-7.855V775.964z"/>
</g>
<g>
	<g>
		<path fill="#DBBD8B" d="M1125.061,785.87h2.198l7.204,18.621h-2.225l-1.854-4.873h-8.609l-1.854,4.873h-2.119L1125.061,785.87z
			 M1129.722,797.845l-3.629-9.59l-3.656,9.59H1129.722z"/>
		<path fill="#DBBD8B" d="M1155.093,804.491h-2.199l-6.728-18.621h2.305l5.563,15.84l5.589-15.84h2.198L1155.093,804.491z"/>
		<path fill="#DBBD8B" d="M1177.922,788.359c1.88-1.88,4.185-2.806,6.912-2.806c2.755,0,5.06,0.926,6.94,2.806
			c1.881,1.856,2.808,4.134,2.808,6.809c0,2.701-0.927,4.98-2.808,6.861c-1.881,1.854-4.186,2.781-6.94,2.781
			s-5.059-0.928-6.939-2.781c-1.854-1.881-2.781-4.16-2.781-6.861C1175.113,792.493,1176.04,790.216,1177.922,788.359z
			 M1190.212,789.765c-1.457-1.483-3.259-2.226-5.378-2.226s-3.92,0.742-5.377,2.226c-1.456,1.457-2.171,3.257-2.171,5.403
			c0,2.146,0.715,3.973,2.171,5.456c1.457,1.459,3.231,2.199,5.377,2.199c2.146,0,3.921-0.74,5.378-2.199
			c1.457-1.483,2.198-3.311,2.198-5.456C1192.41,793.049,1191.669,791.248,1190.212,789.765z"/>
		<path fill="#DBBD8B" d="M1227.978,797.313c-0.476,2.199-1.589,4-3.312,5.405c-1.721,1.402-3.733,2.092-6.038,2.092
			c-2.702,0-4.98-0.928-6.835-2.809c-1.827-1.88-2.754-4.157-2.754-6.834c0-2.675,0.927-4.952,2.754-6.809
			c1.854-1.88,4.133-2.806,6.835-2.806c2.251,0,4.238,0.66,5.934,2.012c1.721,1.352,2.834,3.074,3.364,5.218h-2.226
			c-0.503-1.588-1.404-2.859-2.702-3.814c-1.299-0.952-2.755-1.43-4.396-1.43c-2.066,0-3.814,0.742-5.245,2.226
			s-2.146,3.284-2.146,5.403c0,2.146,0.715,3.948,2.146,5.432s3.179,2.224,5.245,2.224c1.722,0,3.23-0.504,4.556-1.51
			c1.324-1.033,2.226-2.358,2.676-4H1227.978z"/>
		<path fill="#DBBD8B" d="M1248.341,785.87h2.198l7.205,18.621h-2.225l-1.855-4.873h-8.607l-1.854,4.873h-2.119L1248.341,785.87z
			 M1253.003,797.845l-3.629-9.59l-3.655,9.59H1253.003z"/>
		<path fill="#DBBD8B" d="M1276.546,804.491h-2.065v-16.714h-5.589v-1.907h13.271v1.907h-5.617V804.491z"/>
		<path fill="#DBBD8B" d="M1308.619,791.354h-2.119c-0.212-2.57-1.747-3.946-4.371-3.946c-2.33,0-3.919,1.191-3.919,2.993
			c0,1.589,0.715,2.463,3.364,3.206l2.357,0.66c3.788,1.06,5.059,2.491,5.059,5.008c0,1.722-0.583,3.071-1.748,4.053
			c-1.139,0.979-2.701,1.483-4.636,1.483c-4.317,0-6.887-2.279-7.02-6.33h2.093c0.132,2.886,1.881,4.475,4.873,4.475
			c2.729,0,4.319-1.296,4.319-3.549c0-0.795-0.266-1.431-0.769-1.935c-0.503-0.502-1.536-0.952-3.073-1.403l-1.961-0.555
			c-1.88-0.531-3.178-1.193-3.894-1.961c-0.715-0.77-1.059-1.803-1.059-3.047c0-1.457,0.556-2.648,1.694-3.576
			c1.14-0.928,2.597-1.376,4.345-1.376C1305.997,785.554,1308.382,787.646,1308.619,791.354z"/>
	</g>
</g>
<g>
	<g>
		<path fill="#FFFFFF" d="M1056.524,723.431c-0.136-0.207-0.181-0.464-0.101-0.712c-0.118,0.234-0.327,0.387-0.569,0.442
			c0.108,0.129,0.177,0.283,0.208,0.45C1056.202,723.516,1056.355,723.451,1056.524,723.431z"/>
		<path fill="#FFFFFF" d="M1054.88,722.104c-0.113,0.232-0.324,0.379-0.565,0.431c0.108,0.132,0.177,0.285,0.208,0.45
			c0.137-0.096,0.293-0.158,0.463-0.179C1054.849,722.599,1054.806,722.347,1054.88,722.104z"/>
		<path fill="#FFFFFF" d="M1062.467,725.383c-0.121,0.145-0.28,0.234-0.458,0.276c0.093,0.113,0.154,0.241,0.193,0.382
			L1062.467,725.383z"/>
		<path fill="#FFFFFF" d="M1060.468,725.034c0.108,0.132,0.177,0.288,0.207,0.453c0.138-0.098,0.294-0.16,0.462-0.181
			c-0.131-0.201-0.177-0.448-0.105-0.693C1060.91,724.838,1060.705,724.983,1060.468,725.034z"/>
		<path fill="#FFFFFF" d="M1053.327,721.9l-0.136,0.337c0.082-0.031,0.169-0.045,0.257-0.056
			C1053.389,722.097,1053.35,722.003,1053.327,721.9z"/>
		<path fill="#FFFFFF" d="M1059.602,724.68c-0.133-0.2-0.178-0.448-0.106-0.693c-0.122,0.228-0.326,0.372-0.562,0.424
			c0.106,0.132,0.174,0.281,0.205,0.448C1059.276,724.76,1059.431,724.697,1059.602,724.68z"/>
		<path fill="#FFFFFF" d="M1058.063,724.058c-0.137-0.205-0.185-0.457-0.107-0.703c-0.117,0.23-0.324,0.38-0.563,0.431
			c0.109,0.13,0.177,0.286,0.208,0.453C1057.737,724.143,1057.894,724.077,1058.063,724.058z"/>
		<path fill="#FFFFFF" d="M1080.993,670.677l-5.236-4.556l-22.085,54.921c0.13-0.09,0.274-0.147,0.435-0.156
			c-0.123-0.172-0.165-0.395-0.078-0.606c0.129-0.335,0.511-0.491,0.842-0.357c0.335,0.139,0.494,0.516,0.36,0.848
			c-0.088,0.212-0.274,0.342-0.48,0.382c0.204,0.216,0.276,0.53,0.181,0.829c0.141-0.278,0.413-0.455,0.712-0.468
			c-0.121-0.175-0.163-0.397-0.08-0.607c0.137-0.327,0.518-0.492,0.848-0.356c0.337,0.132,0.494,0.513,0.358,0.843
			c-0.086,0.21-0.272,0.342-0.479,0.382c0.204,0.219,0.277,0.531,0.181,0.832c0.139-0.279,0.412-0.457,0.711-0.466
			c-0.121-0.175-0.162-0.397-0.078-0.611c0.136-0.328,0.511-0.491,0.848-0.355c0.329,0.13,0.492,0.512,0.353,0.844
			c-0.085,0.21-0.27,0.341-0.478,0.384c0.206,0.214,0.277,0.528,0.185,0.823c0.143-0.279,0.412-0.451,0.712-0.462
			c-0.123-0.172-0.167-0.395-0.081-0.606c0.137-0.333,0.519-0.493,0.843-0.362c0.34,0.141,0.492,0.516,0.361,0.851
			c-0.086,0.207-0.273,0.339-0.481,0.379c0.203,0.212,0.274,0.52,0.191,0.81c0.143-0.266,0.408-0.433,0.701-0.446
			c-0.121-0.174-0.163-0.396-0.078-0.606c0.138-0.337,0.515-0.493,0.849-0.354c0.328,0.134,0.494,0.509,0.353,0.846
			c-0.082,0.207-0.27,0.334-0.478,0.377c0.203,0.214,0.275,0.523,0.188,0.822c0.146-0.271,0.412-0.443,0.705-0.457
			c-0.119-0.176-0.163-0.399-0.078-0.608c0.135-0.33,0.516-0.493,0.846-0.351c0.333,0.13,0.489,0.507,0.361,0.841
			c-0.086,0.214-0.275,0.339-0.484,0.379c0.159,0.17,0.235,0.397,0.222,0.632l16.985-41.936
			c10.896,11.362,16.413,24.519,16.413,39.186c0,20.515-11.016,39.702-28.747,50.07l4.973,8.501
			c20.737-12.128,33.619-34.574,33.619-58.571C1105.903,702.367,1097.525,685.051,1080.993,670.677z M1063.796,715.607
			c0.087,0.034,0.13,0.135,0.091,0.217c-0.036,0.089-0.133,0.127-0.224,0.092c-0.082-0.029-0.129-0.132-0.093-0.217
			C1063.61,715.617,1063.713,715.572,1063.796,715.607z M1063.283,716.857c0.125,0.049,0.188,0.193,0.138,0.325
			c-0.056,0.123-0.196,0.179-0.321,0.132c-0.126-0.052-0.19-0.196-0.137-0.319C1063.019,716.868,1063.158,716.806,1063.283,716.857z
			 M1062.845,717.941c0.153,0.064,0.226,0.234,0.164,0.386c-0.063,0.149-0.235,0.221-0.384,0.169
			c-0.153-0.071-0.228-0.238-0.165-0.393C1062.521,717.954,1062.695,717.879,1062.845,717.941z M1062.6,719.599
			c-0.083,0.196-0.312,0.292-0.514,0.214c-0.199-0.08-0.299-0.313-0.214-0.509c0.081-0.205,0.308-0.301,0.509-0.218
			C1062.579,719.166,1062.68,719.397,1062.6,719.599z M1062.258,714.977c0.088,0.038,0.13,0.134,0.093,0.223
			c-0.035,0.088-0.133,0.13-0.22,0.094c-0.092-0.035-0.13-0.129-0.095-0.216C1062.074,714.985,1062.17,714.945,1062.258,714.977z
			 M1061.749,716.237c0.124,0.053,0.188,0.191,0.13,0.321c-0.048,0.124-0.191,0.183-0.315,0.127
			c-0.124-0.049-0.188-0.189-0.134-0.314C1061.482,716.243,1061.623,716.188,1061.749,716.237z M1061.306,717.316
			c0.155,0.059,0.227,0.232,0.161,0.389c-0.058,0.146-0.229,0.221-0.385,0.16c-0.146-0.061-0.227-0.234-0.164-0.388
			C1060.988,717.328,1061.157,717.259,1061.306,717.316z M1061.061,718.972c-0.082,0.201-0.316,0.306-0.515,0.217
			c-0.198-0.083-0.297-0.313-0.219-0.514c0.093-0.203,0.318-0.301,0.513-0.216C1061.045,718.539,1061.137,718.771,1061.061,718.972z
			 M1060.724,714.356c0.081,0.036,0.123,0.134,0.086,0.221c-0.031,0.087-0.133,0.125-0.215,0.092
			c-0.087-0.036-0.132-0.134-0.097-0.219C1060.53,714.361,1060.632,714.321,1060.724,714.356z M1060.211,715.605
			c0.126,0.052,0.186,0.201,0.133,0.321c-0.047,0.13-0.196,0.188-0.318,0.136c-0.124-0.051-0.188-0.189-0.137-0.318
			C1059.94,715.614,1060.086,715.555,1060.211,715.605z M1059.769,716.696c0.152,0.056,0.227,0.232,0.162,0.386
			c-0.057,0.144-0.233,0.221-0.383,0.156c-0.15-0.063-0.226-0.231-0.162-0.388C1059.447,716.703,1059.618,716.632,1059.769,716.696z
			 M1059.521,718.347c-0.083,0.201-0.314,0.3-0.512,0.215c-0.198-0.078-0.303-0.311-0.22-0.511c0.079-0.201,0.315-0.297,0.514-0.215
			C1059.503,717.919,1059.605,718.15,1059.521,718.347z M1059.183,713.726c0.084,0.038,0.126,0.138,0.092,0.223
			c-0.038,0.089-0.134,0.132-0.215,0.094c-0.093-0.031-0.132-0.132-0.1-0.221C1058.992,713.734,1059.094,713.696,1059.183,713.726z
			 M1058.671,714.988c0.124,0.046,0.182,0.189,0.131,0.314c-0.049,0.124-0.192,0.187-0.313,0.136
			c-0.128-0.052-0.19-0.194-0.142-0.321C1058.401,714.994,1058.545,714.932,1058.671,714.988z M1058.23,716.069
			c0.155,0.063,0.229,0.234,0.16,0.382c-0.058,0.151-0.231,0.221-0.381,0.16c-0.153-0.058-0.222-0.228-0.163-0.381
			C1057.907,716.078,1058.081,716.001,1058.23,716.069z M1057.814,713.161c0.083,0.038,0.13,0.136,0.091,0.219
			c-0.038,0.091-0.134,0.134-0.217,0.096c-0.087-0.031-0.128-0.127-0.096-0.219C1057.625,713.172,1057.728,713.128,1057.814,713.161
			z M1057.77,717.21c0.196,0.08,0.298,0.31,0.216,0.517c-0.084,0.194-0.315,0.295-0.512,0.21c-0.201-0.082-0.298-0.31-0.22-0.511
			C1057.335,717.223,1057.563,717.127,1057.77,717.21z M1056.816,714.495c0.047-0.128,0.194-0.189,0.316-0.137
			c0.126,0.054,0.191,0.194,0.137,0.317c-0.051,0.127-0.196,0.191-0.317,0.136C1056.823,714.763,1056.763,714.62,1056.816,714.495z
			 M1056.693,715.442c0.15,0.061,0.221,0.234,0.161,0.384c-0.059,0.149-0.233,0.228-0.386,0.165
			c-0.151-0.068-0.225-0.238-0.161-0.386C1056.367,715.456,1056.541,715.383,1056.693,715.442z M1056.229,716.585
			c0.195,0.082,0.295,0.31,0.214,0.511c-0.08,0.201-0.309,0.299-0.511,0.219c-0.2-0.076-0.296-0.311-0.217-0.513
			C1055.797,716.603,1056.027,716.502,1056.229,716.585z M1055.606,719.536c-0.106,0.272-0.42,0.406-0.698,0.299
			c-0.271-0.114-0.406-0.426-0.295-0.703c0.113-0.271,0.428-0.403,0.696-0.294C1055.585,718.954,1055.721,719.264,1055.606,719.536z
			 M1056.076,718.275c-0.104,0.259-0.395,0.38-0.648,0.281c-0.251-0.104-0.374-0.393-0.274-0.651
			c0.108-0.252,0.401-0.368,0.646-0.266C1056.057,717.74,1056.179,718.028,1056.076,718.275z M1057.147,720.16
			c-0.117,0.279-0.427,0.406-0.699,0.297c-0.28-0.115-0.408-0.424-0.297-0.698c0.109-0.271,0.423-0.403,0.696-0.294
			C1057.123,719.576,1057.256,719.891,1057.147,720.16z M1057.613,718.907c-0.105,0.254-0.395,0.37-0.647,0.27
			c-0.252-0.101-0.374-0.391-0.268-0.645c0.101-0.25,0.388-0.372,0.646-0.268C1057.595,718.365,1057.715,718.65,1057.613,718.907z
			 M1058.685,720.785c-0.112,0.272-0.42,0.408-0.699,0.299c-0.272-0.116-0.408-0.424-0.294-0.698
			c0.116-0.276,0.421-0.412,0.689-0.294C1058.661,720.201,1058.793,720.511,1058.685,720.785z M1059.151,719.529
			c-0.104,0.257-0.395,0.375-0.646,0.272c-0.254-0.099-0.379-0.389-0.271-0.643c0.106-0.252,0.388-0.379,0.643-0.276
			C1059.127,718.992,1059.257,719.277,1059.151,719.529z M1060.223,721.414c-0.114,0.272-0.428,0.404-0.696,0.295
			c-0.273-0.116-0.404-0.429-0.299-0.698c0.109-0.276,0.426-0.411,0.703-0.297C1060.206,720.825,1060.334,721.138,1060.223,721.414z
			 M1060.683,720.156c-0.099,0.252-0.386,0.375-0.641,0.278c-0.253-0.103-0.378-0.396-0.269-0.648
			c0.101-0.257,0.387-0.373,0.64-0.276C1060.67,719.612,1060.789,719.908,1060.683,720.156z M1061.763,722.036
			c-0.116,0.272-0.43,0.408-0.702,0.295c-0.274-0.109-0.407-0.422-0.296-0.7c0.114-0.271,0.425-0.399,0.696-0.293
			C1061.739,721.445,1061.872,721.76,1061.763,722.036z M1062.225,720.783c-0.1,0.254-0.394,0.372-0.646,0.268
			c-0.253-0.099-0.375-0.389-0.272-0.638c0.105-0.257,0.392-0.377,0.647-0.279C1062.21,720.238,1062.326,720.531,1062.225,720.783z
			 M1063.295,722.663c-0.11,0.271-0.424,0.411-0.695,0.295c-0.273-0.114-0.404-0.429-0.295-0.703c0.107-0.271,0.424-0.401,0.7-0.29
			C1063.28,722.079,1063.406,722.387,1063.295,722.663z M1063.764,721.405c-0.101,0.257-0.395,0.375-0.646,0.272
			c-0.257-0.099-0.374-0.391-0.273-0.643c0.105-0.255,0.395-0.377,0.644-0.274C1063.744,720.865,1063.866,721.151,1063.764,721.405z
			 M1064.134,720.226c-0.079,0.203-0.312,0.296-0.513,0.212c-0.2-0.081-0.296-0.309-0.221-0.509
			c0.088-0.208,0.317-0.306,0.515-0.224C1064.121,719.793,1064.221,720.021,1064.134,720.226z M1064.544,718.954
			c-0.061,0.151-0.235,0.221-0.387,0.16c-0.147-0.063-0.223-0.231-0.165-0.384c0.065-0.151,0.236-0.228,0.391-0.165
			C1064.532,718.626,1064.61,718.8,1064.544,718.954z M1064.641,717.937c-0.129-0.051-0.187-0.194-0.133-0.318
			c0.044-0.125,0.191-0.186,0.316-0.137c0.123,0.054,0.186,0.198,0.134,0.323C1064.909,717.93,1064.761,717.985,1064.641,717.937z
			 M1065.428,716.453c-0.04,0.087-0.139,0.125-0.222,0.092c-0.085-0.036-0.132-0.136-0.092-0.224
			c0.039-0.084,0.129-0.127,0.222-0.089C1065.422,716.264,1065.462,716.362,1065.428,716.453z"/>
	</g>
	<g>
		<path fill="#FFFFFF" d="M1058.657,782.691c-0.045,0.232-0.182,0.436-0.398,0.556c0.237-0.078,0.479-0.04,0.678,0.083
			c0.014-0.165,0.071-0.314,0.16-0.449C1058.937,782.854,1058.786,782.794,1058.657,782.691z"/>
		<path fill="#FFFFFF" d="M1059.303,784.155c-0.045,0.234-0.185,0.443-0.404,0.562c0.236-0.084,0.482-0.047,0.683,0.078
			c0.014-0.162,0.071-0.316,0.161-0.452C1059.581,784.315,1059.431,784.258,1059.303,784.155z"/>
		<path fill="#FFFFFF" d="M1059.418,786.234c-0.283,0.094-0.584,0.031-0.797-0.156c-0.032,0.2-0.154,0.384-0.354,0.471
			c-0.316,0.138-0.685-0.005-0.823-0.321c-0.143-0.311,0-0.685,0.32-0.823c0.199-0.089,0.417-0.054,0.586,0.058
			c0.005-0.287,0.165-0.555,0.43-0.693c-0.285,0.096-0.589,0.035-0.803-0.161c-0.032,0.203-0.151,0.389-0.355,0.476
			c-0.314,0.139-0.687-0.009-0.821-0.319c-0.145-0.318,0.005-0.687,0.32-0.825c0.198-0.089,0.417-0.054,0.589,0.061
			c0.003-0.286,0.16-0.549,0.419-0.694c-0.281,0.094-0.581,0.031-0.793-0.158c-0.033,0.203-0.154,0.384-0.354,0.474
			c-0.32,0.136-0.687-0.007-0.824-0.328c-0.138-0.311,0-0.683,0.323-0.821c0.197-0.087,0.413-0.051,0.583,0.061
			c0.004-0.283,0.163-0.547,0.425-0.691c-0.283,0.089-0.583,0.026-0.797-0.161c-0.033,0.203-0.154,0.386-0.354,0.476
			c-0.314,0.136-0.687-0.005-0.818-0.326c-0.144-0.314,0.003-0.68,0.313-0.825c0.204-0.087,0.422-0.049,0.593,0.064
			c0.004-0.287,0.165-0.553,0.427-0.7c-0.284,0.105-0.588,0.04-0.801-0.146c-0.034,0.198-0.154,0.381-0.357,0.468
			c-0.317,0.139-0.688-0.004-0.825-0.318c-0.137-0.319,0.006-0.688,0.323-0.828c0.2-0.087,0.418-0.051,0.59,0.058
			c0.003-0.289,0.163-0.553,0.425-0.695c-0.282,0.098-0.586,0.038-0.798-0.154c-0.034,0.203-0.153,0.386-0.354,0.476
			c-0.32,0.136-0.688-0.012-0.825-0.326s0.007-0.685,0.322-0.82c0.201-0.092,0.416-0.054,0.587,0.058
			c0.007-0.31,0.186-0.603,0.484-0.736c0.254-0.111,0.527-0.068,0.746,0.067c0.021-0.248,0.135-0.478,0.326-0.645l-17.673,7.47
			l11.206-28.157l9.43,19.436l0.367,0.759c0.005,0.007,0.012,0.014,0.015,0.02c0.003,0.007,0.003,0.012,0.004,0.016l0.245,0.507
			l13.126,27.058h11.08l-29.934-61.47h-9.485l-23.912,60.071l37.988-16.057C1059.22,786.377,1059.306,786.297,1059.418,786.234z
			 M1056.07,783.336c0.114,0.259-0.005,0.564-0.267,0.681c-0.263,0.114-0.565-0.009-0.68-0.266c-0.119-0.261,0-0.566,0.264-0.687
			C1055.649,782.955,1055.956,783.075,1056.07,783.336z M1055.426,781.866c0.115,0.264-0.007,0.566-0.266,0.683
			c-0.26,0.116-0.564-0.002-0.682-0.268c-0.113-0.261,0.007-0.56,0.269-0.676C1055.005,781.489,1055.317,781.605,1055.426,781.866z
			 M1053.168,784.19c0.192-0.08,0.414,0.005,0.501,0.196c0.082,0.189-0.006,0.417-0.194,0.498c-0.193,0.084-0.416,0-0.497-0.192
			C1052.893,784.503,1052.978,784.277,1053.168,784.19z M1052.837,783.424c-0.2,0.084-0.422-0.005-0.504-0.194
			c-0.085-0.196,0-0.422,0.197-0.504c0.19-0.087,0.412,0.006,0.501,0.196C1053.107,783.113,1053.025,783.336,1052.837,783.424z
			 M1053.338,782.788c-0.107-0.241,0.001-0.522,0.242-0.63c0.24-0.108,0.524,0.007,0.628,0.246c0.112,0.24-0.003,0.521-0.242,0.629
			C1053.72,783.136,1053.438,783.026,1053.338,782.788z M1054.222,783.624c0.245-0.111,0.525,0.002,0.632,0.248
			c0.103,0.238-0.005,0.518-0.243,0.627c-0.245,0.103-0.525-0.007-0.635-0.246C1053.867,784.008,1053.983,783.729,1054.222,783.624z
			 M1054.782,780.401c0.118,0.263,0,0.566-0.264,0.682c-0.262,0.114-0.563-0.002-0.683-0.268c-0.116-0.259,0.005-0.562,0.269-0.676
			C1054.365,780.026,1054.669,780.145,1054.782,780.401z M1053.459,778.672c0.261-0.111,0.568,0.007,0.682,0.271
			c0.116,0.256-0.005,0.562-0.267,0.678c-0.262,0.109-0.565-0.005-0.678-0.27C1053.082,779.096,1053.201,778.786,1053.459,778.672z
			 M1053.564,780.937c0.104,0.245-0.004,0.526-0.242,0.631c-0.24,0.104-0.522,0-0.628-0.247c-0.108-0.239,0.001-0.521,0.245-0.627
			C1053.18,780.588,1053.459,780.697,1053.564,780.937z M1052.296,779.228c0.242-0.104,0.524,0.005,0.628,0.245
			c0.107,0.243-0.005,0.526-0.245,0.627c-0.24,0.107-0.526-0.002-0.628-0.245C1051.947,779.611,1052.051,779.335,1052.296,779.228z
			 M1052.387,781.451c0.08,0.196-0.006,0.42-0.196,0.505c-0.191,0.082-0.414,0-0.501-0.199c-0.084-0.185,0-0.41,0.196-0.493
			C1052.076,781.175,1052.299,781.267,1052.387,781.451z M1051.242,779.799c0.188-0.083,0.415,0.002,0.498,0.189
			c0.087,0.198,0,0.419-0.195,0.5c-0.191,0.087-0.414,0-0.5-0.19C1050.962,780.106,1051.05,779.884,1051.242,779.799z
			 M1047.943,781.833c-0.083,0.033-0.171-0.005-0.21-0.085c-0.038-0.08,0-0.176,0.081-0.214c0.079-0.033,0.181,0.004,0.213,0.085
			C1048.065,781.701,1048.027,781.795,1047.943,781.833z M1048.592,783.301c-0.088,0.035-0.181,0-0.218-0.083
			c-0.036-0.084,0-0.181,0.085-0.221c0.082-0.028,0.176,0,0.213,0.087C1048.708,783.165,1048.67,783.263,1048.592,783.301z
			 M1049.229,784.764c-0.082,0.034-0.174,0-0.214-0.087c-0.04-0.08,0-0.174,0.085-0.212c0.085-0.035,0.179,0.005,0.215,0.085
			C1049.351,784.633,1049.315,784.73,1049.229,784.764z M1049.236,781.347c-0.122,0.054-0.261,0-0.312-0.118
			c-0.052-0.125,0-0.261,0.121-0.313c0.117-0.058,0.262,0,0.313,0.123C1049.412,781.155,1049.359,781.295,1049.236,781.347z
			 M1049.875,786.229c-0.078,0.033-0.181-0.002-0.215-0.087c-0.035-0.08,0-0.174,0.087-0.21c0.081-0.038,0.172,0,0.21,0.085
			C1049.995,786.096,1049.957,786.196,1049.875,786.229z M1049.885,782.813c-0.123,0.054-0.26-0.005-0.315-0.118
			c-0.052-0.125,0-0.264,0.125-0.317c0.113-0.054,0.259,0,0.31,0.127C1050.057,782.616,1050.001,782.759,1049.885,782.813z
			 M1049.957,780.775c-0.063-0.149,0.006-0.314,0.147-0.377c0.143-0.066,0.315,0.003,0.378,0.143
			c0.061,0.147-0.007,0.313-0.148,0.375C1050.189,780.985,1050.021,780.916,1049.957,780.775z M1050.521,787.695
			c-0.088,0.035-0.183,0-0.223-0.083c-0.038-0.082,0-0.179,0.087-0.216c0.082-0.036,0.178,0.002,0.215,0.082
			C1050.639,787.563,1050.601,787.657,1050.521,787.695z M1050.521,784.277c-0.116,0.056-0.261,0-0.313-0.118
			c-0.048-0.12,0.006-0.263,0.125-0.316c0.119-0.052,0.257,0.007,0.308,0.123C1050.699,784.088,1050.642,784.227,1050.521,784.277z
			 M1050.601,782.239c-0.061-0.144,0.007-0.311,0.149-0.377c0.142-0.063,0.308,0,0.371,0.146c0.066,0.146,0,0.314-0.143,0.373
			C1050.829,782.451,1050.663,782.382,1050.601,782.239z M1051.159,789.16c-0.081,0.036-0.174,0-0.214-0.087
			c-0.033-0.08,0.003-0.176,0.086-0.207c0.08-0.04,0.176,0,0.211,0.076C1051.278,789.026,1051.242,789.125,1051.159,789.16z
			 M1051.17,785.743c-0.125,0.052-0.265,0-0.316-0.12c-0.052-0.118,0-0.259,0.125-0.314c0.119-0.047,0.257,0.004,0.311,0.122
			C1051.34,785.554,1051.289,785.694,1051.17,785.743z M1051.242,783.704c-0.063-0.143,0.002-0.316,0.15-0.374
			c0.145-0.065,0.313,0.002,0.374,0.145c0.061,0.146,0,0.313-0.144,0.377C1051.474,783.916,1051.308,783.852,1051.242,783.704z
			 M1051.809,787.206c-0.119,0.052-0.257-0.004-0.312-0.124c-0.051-0.116,0-0.255,0.126-0.309c0.117-0.053,0.257,0.003,0.305,0.123
			C1051.981,787.015,1051.928,787.157,1051.809,787.206z M1051.886,785.17c-0.063-0.149,0.003-0.316,0.147-0.377
			c0.143-0.063,0.308,0.005,0.375,0.143c0.063,0.147,0,0.317-0.145,0.377C1052.118,785.38,1051.947,785.313,1051.886,785.17z
			 M1052.453,788.672c-0.126,0.059-0.263,0-0.314-0.118c-0.054-0.12,0.003-0.263,0.125-0.31c0.117-0.061,0.258,0,0.308,0.12
			C1052.623,788.482,1052.571,788.621,1052.453,788.672z M1052.906,786.783c-0.147,0.058-0.313-0.007-0.376-0.15
			c-0.067-0.143,0-0.31,0.147-0.374c0.143-0.063,0.308,0.004,0.375,0.146C1053.114,786.549,1053.049,786.721,1052.906,786.783z
			 M1053.546,788.248c-0.143,0.063-0.31-0.004-0.371-0.149c-0.068-0.143,0-0.314,0.147-0.375c0.137-0.064,0.31,0.005,0.371,0.146
			C1053.755,788.014,1053.693,788.182,1053.546,788.248z M1053.619,786.156c-0.089-0.188,0.002-0.413,0.193-0.5s0.422,0,0.501,0.196
			c0.081,0.191-0.006,0.415-0.194,0.502C1053.921,786.433,1053.698,786.35,1053.619,786.156z M1054.763,787.817
			c-0.19,0.087-0.415-0.004-0.5-0.193c-0.083-0.19,0.003-0.422,0.194-0.502c0.191-0.081,0.416,0.007,0.494,0.193
			C1055.037,787.508,1054.951,787.737,1054.763,787.817z M1054.618,785.719c-0.104-0.243,0.01-0.526,0.249-0.627
			c0.237-0.107,0.521,0,0.631,0.239c0.107,0.238-0.006,0.528-0.25,0.631C1055.005,786.066,1054.73,785.957,1054.618,785.719z
			 M1055.892,787.428c-0.242,0.103-0.521,0-0.63-0.243c-0.102-0.241,0-0.526,0.245-0.629c0.242-0.107,0.525,0.004,0.63,0.247
			C1056.243,787.041,1056.137,787.322,1055.892,787.428z M1055.764,785.215c-0.114-0.266,0.007-0.564,0.269-0.679
			c0.262-0.115,0.566,0.003,0.678,0.262c0.113,0.261-0.005,0.566-0.263,0.683C1056.185,785.594,1055.88,785.476,1055.764,785.215z
			 M1057.09,786.943c-0.267,0.116-0.566,0-0.675-0.259c-0.121-0.266,0-0.568,0.255-0.685c0.265-0.111,0.569,0,0.688,0.263
			C1057.467,786.524,1057.355,786.829,1057.09,786.943z"/>
		<path fill="#FFFFFF" d="M1060.382,785.808c-0.159-0.024-0.309-0.084-0.439-0.185c-0.043,0.234-0.183,0.437-0.401,0.558
			c0.128-0.04,0.252-0.047,0.377-0.031l0.353-0.146C1060.296,785.931,1060.341,785.873,1060.382,785.808z"/>
		<path fill="#FFFFFF" d="M1061.484,784.969c-0.018,0.154-0.069,0.297-0.154,0.427c0.081,0.013,0.16,0.024,0.235,0.058l0.222-0.092
			c0.012-0.06,0.01-0.124,0.035-0.181C1061.698,785.132,1061.585,785.059,1061.484,784.969z"/>
		<path fill="#FFFFFF" d="M1058.017,781.227c-0.044,0.229-0.179,0.433-0.393,0.553c0.232-0.076,0.474-0.038,0.671,0.085
			c0.014-0.163,0.071-0.314,0.162-0.45C1058.296,781.387,1058.146,781.326,1058.017,781.227z"/>
		<path fill="#FFFFFF" d="M1058.606,777.852c-0.124-0.047-0.235-0.123-0.337-0.212c-0.017,0.156-0.069,0.299-0.154,0.428
			c0.153,0.027,0.294,0.083,0.419,0.177C1058.537,778.107,1058.559,777.974,1058.606,777.852z"/>
		<path fill="#FFFFFF" d="M1057.252,776.587c0.233-0.019,0.454,0.056,0.641,0.191c0.003-0.191,0.066-0.368,0.16-0.531
			L1057.252,776.587z"/>
		<path fill="#FFFFFF" d="M1057.373,779.761c-0.046,0.234-0.185,0.439-0.404,0.556c0.235-0.076,0.479-0.04,0.682,0.082
			c0.013-0.163,0.07-0.314,0.162-0.45C1057.65,779.921,1057.501,779.861,1057.373,779.761z"/>
		<path fill="#FFFFFF" d="M1061.108,784.104c0.003-0.132,0.024-0.266,0.072-0.391c-0.124-0.046-0.235-0.118-0.338-0.207
			c-0.017,0.154-0.068,0.295-0.154,0.424C1060.84,783.956,1060.983,784.013,1061.108,784.104z"/>
		<path fill="#FFFFFF" d="M1056.731,778.298c-0.045,0.231-0.182,0.435-0.4,0.553c0.235-0.08,0.478-0.045,0.677,0.08
			c0.014-0.162,0.07-0.313,0.16-0.448C1057.008,778.458,1056.859,778.397,1056.731,778.298z"/>
		<path fill="#FFFFFF" d="M1059.82,781.175c0.003-0.136,0.024-0.268,0.072-0.393c-0.124-0.047-0.235-0.123-0.336-0.207
			c-0.017,0.151-0.07,0.294-0.156,0.424C1059.554,781.023,1059.693,781.081,1059.82,781.175z"/>
		<path fill="#FFFFFF" d="M1059.177,779.709c0.003-0.136,0.026-0.27,0.076-0.395c-0.125-0.047-0.237-0.123-0.338-0.212
			c-0.016,0.158-0.07,0.304-0.156,0.433C1058.911,779.56,1059.053,779.615,1059.177,779.709z"/>
		<path fill="#FFFFFF" d="M1060.465,782.641c0.003-0.137,0.024-0.268,0.072-0.391c-0.124-0.047-0.235-0.12-0.338-0.207
			c-0.017,0.151-0.069,0.294-0.155,0.421C1060.195,782.491,1060.339,782.547,1060.465,782.641z"/>
	</g>
</g>
<g>
	<path fill="#FFFFFF" d="M1117.698,271.59v-28.03h10.286c4.426,0,8.015,1.276,10.805,3.788c2.832,2.512,4.228,5.901,4.228,10.128
		c0,4.266-1.396,7.694-4.228,10.286c-2.79,2.552-6.379,3.828-10.805,3.828H1117.698z M1122.921,248.504v18.142h4.904
		c2.951,0,5.303-0.797,7.058-2.433c1.794-1.634,2.671-3.907,2.671-6.737c0-5.583-3.828-8.972-9.729-8.972H1122.921z"/>
	<path fill="#FFFFFF" d="M1156.732,243.56h5.582l10.327,28.03h-5.621l-2.034-5.861h-11.284l-2.033,5.861h-5.343L1156.732,243.56z
		 M1163.432,261.343l-4.066-11.722l-4.108,11.722H1163.432z"/>
	<path fill="#FFFFFF" d="M1196.924,252.092h-5.382c-0.161-2.91-1.875-4.505-4.905-4.505c-2.672,0-4.506,1.276-4.506,3.309
		c0,1.754,0.799,2.631,3.629,3.469l4.346,1.276c5.144,1.476,7.257,3.868,7.257,7.696c0,5.542-3.868,8.772-10.207,8.772
		c-6.739,0-10.846-3.509-11.005-9.689h5.303c0.12,3.229,2.153,5.063,5.623,5.063c3.229,0,5.023-1.356,5.023-3.788
		c0-1.715-0.877-2.672-4.188-3.629l-4.026-1.196c-4.984-1.476-6.979-3.828-6.979-7.775c0-2.392,0.918-4.346,2.752-5.822
		c1.874-1.476,4.227-2.233,7.058-2.233C1192.777,243.042,1196.605,246.351,1196.924,252.092z"/>
	<path fill="#FFFFFF" d="M1207.05,247.229c2.832-2.792,6.341-4.187,10.606-4.187c4.267,0,7.775,1.395,10.605,4.187
		c2.831,2.751,4.228,6.22,4.228,10.327c0,4.306-1.795,8.293-4.944,11.045l4.585,6.18h-5.701l-2.831-3.788
		c-1.794,0.757-3.827,1.117-5.941,1.117c-4.266,0-7.774-1.396-10.606-4.187c-2.79-2.791-4.186-6.26-4.186-10.367
		C1202.864,253.448,1204.26,249.98,1207.05,247.229z M1213.71,257.595h5.701l5.063,6.858c1.714-1.754,2.632-4.187,2.632-6.898
		s-0.918-4.984-2.712-6.818c-1.794-1.874-4.026-2.792-6.738-2.792c-2.711,0-4.943,0.918-6.738,2.792
		c-1.795,1.833-2.671,4.106-2.671,6.818c0,2.792,0.876,5.104,2.631,6.938c1.794,1.833,4.027,2.75,6.778,2.75
		c0.957,0,1.834-0.119,2.91-0.398L1213.71,257.595z"/>
	<path fill="#FFFFFF" d="M1255.455,243.56h5.223v18.541c0,2.91-0.996,5.342-3.029,7.216c-2.034,1.875-4.586,2.792-7.695,2.792
		c-3.07,0-5.623-0.917-7.656-2.792c-1.994-1.874-2.991-4.307-2.991-7.216V243.56h5.225v18.381c0,3.15,2.112,5.223,5.263,5.223
		c3.39,0,5.662-2.154,5.662-5.223V243.56z"/>
	<path fill="#FFFFFF" d="M1286.992,271.59h-17.822v-28.03h17.623v4.785h-12.4v6.739h11.443v4.545h-11.443v7.177h12.6V271.59z"/>
	<path fill="#FFFFFF" d="M1304.774,271.59h-5.183v-23.246h-7.854v-4.785h20.893v4.785h-7.855V271.59z"/>
</g>
<g>
	<g>
		<path fill="#DBBD8B" d="M1125.061,281.498h2.198l7.204,18.621h-2.225l-1.854-4.874h-8.609l-1.854,4.874h-2.119L1125.061,281.498z
			 M1129.722,293.47l-3.629-9.589l-3.656,9.589H1129.722z"/>
		<path fill="#DBBD8B" d="M1155.093,300.119h-2.199l-6.728-18.621h2.305l5.563,15.839l5.589-15.839h2.198L1155.093,300.119z"/>
		<path fill="#DBBD8B" d="M1177.922,283.987c1.88-1.88,4.185-2.807,6.912-2.807c2.755,0,5.06,0.927,6.94,2.807
			c1.881,1.855,2.808,4.132,2.808,6.808c0,2.702-0.927,4.979-2.808,6.86c-1.881,1.854-4.186,2.781-6.94,2.781
			s-5.059-0.927-6.939-2.781c-1.854-1.881-2.781-4.158-2.781-6.86C1175.113,288.119,1176.04,285.842,1177.922,283.987z
			 M1190.212,285.391c-1.457-1.483-3.259-2.225-5.378-2.225s-3.92,0.742-5.377,2.225c-1.456,1.457-2.171,3.258-2.171,5.404
			c0,2.146,0.715,3.974,2.171,5.457c1.457,1.457,3.231,2.198,5.377,2.198c2.146,0,3.921-0.742,5.378-2.198
			c1.457-1.483,2.198-3.312,2.198-5.457C1192.41,288.676,1191.669,286.875,1190.212,285.391z"/>
		<path fill="#DBBD8B" d="M1227.978,292.94c-0.476,2.198-1.589,4-3.312,5.404c-1.721,1.404-3.733,2.092-6.038,2.092
			c-2.702,0-4.98-0.927-6.835-2.807c-1.827-1.881-2.754-4.159-2.754-6.834c0-2.676,0.927-4.953,2.754-6.808
			c1.854-1.88,4.133-2.807,6.835-2.807c2.251,0,4.238,0.663,5.934,2.013c1.721,1.351,2.834,3.073,3.364,5.218h-2.226
			c-0.503-1.589-1.404-2.86-2.702-3.814c-1.299-0.954-2.755-1.431-4.396-1.431c-2.066,0-3.814,0.742-5.245,2.225
			s-2.146,3.285-2.146,5.404c0,2.146,0.715,3.947,2.146,5.43s3.179,2.225,5.245,2.225c1.722,0,3.23-0.503,4.556-1.51
			c1.324-1.033,2.226-2.357,2.676-4H1227.978z"/>
		<path fill="#DBBD8B" d="M1248.341,281.498h2.198l7.205,18.621h-2.225l-1.855-4.874h-8.607l-1.854,4.874h-2.119L1248.341,281.498z
			 M1253.003,293.47l-3.629-9.589l-3.655,9.589H1253.003z"/>
		<path fill="#DBBD8B" d="M1276.546,300.119h-2.065v-16.714h-5.589v-1.907h13.271v1.907h-5.617V300.119z"/>
		<path fill="#DBBD8B" d="M1308.619,286.98h-2.119c-0.212-2.57-1.747-3.947-4.371-3.947c-2.33,0-3.919,1.192-3.919,2.994
			c0,1.589,0.715,2.464,3.364,3.206l2.357,0.662c3.788,1.06,5.059,2.49,5.059,5.006c0,1.722-0.583,3.072-1.748,4.053
			c-1.139,0.98-2.701,1.483-4.636,1.483c-4.317,0-6.887-2.277-7.02-6.331h2.093c0.132,2.888,1.881,4.477,4.873,4.477
			c2.729,0,4.319-1.298,4.319-3.55c0-0.794-0.266-1.43-0.769-1.934c-0.503-0.503-1.536-0.954-3.073-1.403l-1.961-0.557
			c-1.88-0.53-3.178-1.192-3.894-1.96c-0.715-0.768-1.059-1.801-1.059-3.046c0-1.457,0.556-2.649,1.694-3.576
			c1.14-0.927,2.597-1.377,4.345-1.377C1305.997,281.18,1308.382,283.272,1308.619,286.98z"/>
	</g>
</g>
<g>
	<g>
		<path fill="#FFFFFF" d="M1056.524,219.059c-0.136-0.209-0.181-0.464-0.101-0.712c-0.118,0.234-0.327,0.384-0.569,0.438
			c0.108,0.131,0.177,0.284,0.208,0.452C1056.202,219.14,1056.355,219.077,1056.524,219.059z"/>
		<path fill="#FFFFFF" d="M1054.88,217.727c-0.113,0.233-0.324,0.383-0.565,0.434c0.108,0.132,0.177,0.284,0.208,0.45
			c0.137-0.097,0.293-0.16,0.463-0.179C1054.849,218.227,1054.806,217.976,1054.88,217.727z"/>
		<path fill="#FFFFFF" d="M1062.467,221.008c-0.121,0.144-0.28,0.235-0.458,0.276c0.093,0.114,0.154,0.242,0.193,0.383
			L1062.467,221.008z"/>
		<path fill="#FFFFFF" d="M1060.468,220.662c0.108,0.13,0.177,0.285,0.207,0.452c0.138-0.098,0.294-0.162,0.462-0.181
			c-0.131-0.201-0.177-0.449-0.105-0.694C1060.91,220.463,1060.705,220.608,1060.468,220.662z"/>
		<path fill="#FFFFFF" d="M1053.327,217.526l-0.136,0.338c0.082-0.033,0.169-0.045,0.257-0.055
			C1053.389,217.723,1053.35,217.629,1053.327,217.526z"/>
		<path fill="#FFFFFF" d="M1059.602,220.307c-0.133-0.202-0.178-0.449-0.106-0.693c-0.122,0.227-0.326,0.372-0.562,0.423
			c0.106,0.129,0.174,0.282,0.205,0.447C1059.276,220.388,1059.431,220.324,1059.602,220.307z"/>
		<path fill="#FFFFFF" d="M1058.063,219.685c-0.137-0.206-0.185-0.458-0.107-0.705c-0.117,0.232-0.324,0.379-0.563,0.431
			c0.109,0.132,0.177,0.286,0.208,0.454C1057.737,219.768,1057.894,219.704,1058.063,219.685z"/>
		<path fill="#FFFFFF" d="M1080.993,166.303l-5.236-4.555l-22.085,54.92c0.13-0.088,0.274-0.148,0.435-0.155
			c-0.123-0.174-0.165-0.396-0.078-0.609c0.129-0.334,0.511-0.488,0.842-0.356c0.335,0.14,0.494,0.517,0.36,0.847
			c-0.088,0.213-0.274,0.341-0.48,0.381c0.204,0.216,0.276,0.531,0.181,0.83c0.141-0.278,0.413-0.455,0.712-0.469
			c-0.121-0.174-0.163-0.397-0.08-0.608c0.137-0.328,0.518-0.493,0.848-0.355c0.337,0.133,0.494,0.513,0.358,0.843
			c-0.086,0.21-0.272,0.342-0.479,0.383c0.204,0.216,0.277,0.532,0.181,0.831c0.139-0.278,0.412-0.455,0.711-0.467
			c-0.121-0.173-0.162-0.396-0.078-0.608c0.136-0.331,0.511-0.491,0.848-0.354c0.329,0.127,0.492,0.508,0.353,0.84
			c-0.085,0.211-0.27,0.342-0.478,0.384c0.206,0.215,0.277,0.528,0.185,0.822c0.143-0.278,0.412-0.45,0.712-0.46
			c-0.123-0.173-0.167-0.396-0.081-0.607c0.137-0.332,0.519-0.492,0.843-0.359c0.34,0.138,0.492,0.515,0.361,0.847
			c-0.086,0.209-0.273,0.34-0.481,0.38c0.203,0.213,0.274,0.519,0.191,0.812c0.143-0.268,0.408-0.437,0.701-0.447
			c-0.121-0.175-0.163-0.398-0.078-0.608c0.138-0.335,0.515-0.492,0.849-0.354c0.328,0.134,0.494,0.508,0.353,0.844
			c-0.082,0.208-0.27,0.337-0.478,0.379c0.203,0.213,0.275,0.524,0.188,0.821c0.146-0.271,0.412-0.442,0.705-0.457
			c-0.119-0.176-0.163-0.399-0.078-0.609c0.135-0.33,0.516-0.493,0.846-0.349c0.333,0.129,0.489,0.506,0.361,0.841
			c-0.086,0.212-0.275,0.339-0.484,0.379c0.159,0.17,0.235,0.398,0.222,0.631l16.985-41.936
			c10.896,11.363,16.413,24.519,16.413,39.186c0,20.515-11.016,39.704-28.747,50.073l4.973,8.5
			c20.737-12.129,33.619-34.576,33.619-58.573C1105.903,197.995,1097.525,180.677,1080.993,166.303z M1063.796,211.233
			c0.087,0.033,0.13,0.133,0.091,0.219c-0.036,0.086-0.133,0.125-0.224,0.09c-0.082-0.029-0.129-0.131-0.093-0.216
			C1063.61,211.243,1063.713,211.198,1063.796,211.233z M1063.283,212.483c0.125,0.049,0.188,0.192,0.138,0.325
			c-0.056,0.123-0.196,0.181-0.321,0.133c-0.126-0.053-0.19-0.196-0.137-0.319C1063.019,212.494,1063.158,212.43,1063.283,212.483z
			 M1062.845,213.566c0.153,0.066,0.226,0.236,0.164,0.387c-0.063,0.149-0.235,0.223-0.384,0.169
			c-0.153-0.068-0.228-0.236-0.165-0.389C1062.521,213.581,1062.695,213.504,1062.845,213.566z M1062.6,215.224
			c-0.083,0.197-0.312,0.293-0.514,0.215c-0.199-0.081-0.299-0.313-0.214-0.51c0.081-0.206,0.308-0.301,0.509-0.218
			C1062.579,214.792,1062.68,215.022,1062.6,215.224z M1062.258,210.603c0.088,0.038,0.13,0.135,0.093,0.224
			c-0.035,0.085-0.133,0.129-0.22,0.093c-0.092-0.035-0.13-0.13-0.095-0.215C1062.074,210.613,1062.17,210.571,1062.258,210.603z
			 M1061.749,211.863c0.124,0.053,0.188,0.192,0.13,0.322c-0.048,0.123-0.191,0.183-0.315,0.127
			c-0.124-0.048-0.188-0.191-0.134-0.315C1061.482,211.871,1061.623,211.815,1061.749,211.863z M1061.306,212.944
			c0.155,0.058,0.227,0.23,0.161,0.388c-0.058,0.147-0.229,0.22-0.385,0.16c-0.146-0.061-0.227-0.236-0.164-0.386
			C1060.988,212.955,1061.157,212.884,1061.306,212.944z M1061.061,214.597c-0.082,0.201-0.316,0.307-0.515,0.218
			c-0.198-0.084-0.297-0.313-0.219-0.515c0.093-0.201,0.318-0.299,0.513-0.215C1061.045,214.164,1061.137,214.397,1061.061,214.597z
			 M1060.724,209.982c0.081,0.037,0.123,0.134,0.086,0.22c-0.031,0.087-0.133,0.126-0.215,0.093
			c-0.087-0.036-0.132-0.135-0.097-0.219C1060.53,209.989,1060.632,209.947,1060.724,209.982z M1060.211,211.232
			c0.126,0.052,0.186,0.2,0.133,0.32c-0.047,0.13-0.196,0.188-0.318,0.138c-0.124-0.053-0.188-0.192-0.137-0.319
			C1059.94,211.241,1060.086,211.183,1060.211,211.232z M1059.769,212.321c0.152,0.056,0.227,0.233,0.162,0.388
			c-0.057,0.143-0.233,0.22-0.383,0.157c-0.15-0.063-0.226-0.232-0.162-0.388C1059.447,212.328,1059.618,212.258,1059.769,212.321z
			 M1059.521,213.975c-0.083,0.199-0.314,0.298-0.512,0.213c-0.198-0.078-0.303-0.312-0.22-0.509
			c0.079-0.202,0.315-0.297,0.514-0.215C1059.503,213.544,1059.605,213.776,1059.521,213.975z M1059.183,209.352
			c0.084,0.038,0.126,0.139,0.092,0.222c-0.038,0.09-0.134,0.133-0.215,0.095c-0.093-0.032-0.132-0.131-0.1-0.22
			C1058.992,209.362,1059.094,209.322,1059.183,209.352z M1058.671,210.614c0.124,0.046,0.182,0.189,0.131,0.314
			c-0.049,0.126-0.192,0.188-0.313,0.138c-0.128-0.053-0.19-0.197-0.142-0.321C1058.401,210.623,1058.545,210.559,1058.671,210.614z
			 M1058.23,211.696c0.155,0.063,0.229,0.235,0.16,0.381c-0.058,0.153-0.231,0.222-0.381,0.162c-0.153-0.059-0.222-0.23-0.163-0.384
			C1057.907,211.704,1058.081,211.627,1058.23,211.696z M1057.814,208.789c0.083,0.034,0.13,0.133,0.091,0.218
			c-0.038,0.087-0.134,0.132-0.217,0.096c-0.087-0.033-0.128-0.13-0.096-0.219C1057.625,208.797,1057.728,208.754,1057.814,208.789z
			 M1057.77,212.834c0.196,0.082,0.298,0.311,0.216,0.518c-0.084,0.194-0.315,0.296-0.512,0.211
			c-0.201-0.083-0.298-0.309-0.22-0.512C1057.335,212.85,1057.563,212.752,1057.77,212.834z M1056.816,210.119
			c0.047-0.126,0.194-0.187,0.316-0.133c0.126,0.052,0.191,0.193,0.137,0.316c-0.051,0.127-0.196,0.192-0.317,0.137
			C1056.823,210.39,1056.763,210.247,1056.816,210.119z M1056.693,211.068c0.15,0.062,0.221,0.235,0.161,0.385
			c-0.059,0.15-0.233,0.228-0.386,0.164c-0.151-0.067-0.225-0.237-0.161-0.387C1056.367,211.083,1056.541,211.01,1056.693,211.068z
			 M1056.229,212.211c0.195,0.083,0.295,0.31,0.214,0.511c-0.08,0.201-0.309,0.299-0.511,0.22c-0.2-0.079-0.296-0.313-0.217-0.515
			C1055.797,212.229,1056.027,212.131,1056.229,212.211z M1055.606,215.163c-0.106,0.271-0.42,0.405-0.698,0.297
			c-0.271-0.112-0.406-0.425-0.295-0.703c0.113-0.272,0.428-0.401,0.696-0.293C1055.585,214.579,1055.721,214.89,1055.606,215.163z
			 M1056.076,213.902c-0.104,0.257-0.395,0.379-0.648,0.282c-0.251-0.105-0.374-0.393-0.274-0.653
			c0.108-0.252,0.401-0.368,0.646-0.264C1056.057,213.368,1056.179,213.655,1056.076,213.902z M1057.147,215.787
			c-0.117,0.279-0.427,0.405-0.699,0.297c-0.28-0.114-0.408-0.423-0.297-0.698c0.109-0.274,0.423-0.403,0.696-0.295
			C1057.123,215.202,1057.256,215.516,1057.147,215.787z M1057.613,214.532c-0.105,0.256-0.395,0.373-0.647,0.271
			c-0.252-0.1-0.374-0.389-0.268-0.644c0.101-0.249,0.388-0.371,0.646-0.269C1057.595,213.992,1057.715,214.276,1057.613,214.532z
			 M1058.685,216.411c-0.112,0.273-0.42,0.41-0.699,0.301c-0.272-0.116-0.408-0.425-0.294-0.701
			c0.116-0.276,0.421-0.411,0.689-0.293C1058.661,215.827,1058.793,216.138,1058.685,216.411z M1059.151,215.156
			c-0.104,0.254-0.395,0.376-0.646,0.272c-0.254-0.102-0.379-0.388-0.271-0.643c0.106-0.253,0.388-0.379,0.643-0.275
			C1059.127,214.618,1059.257,214.902,1059.151,215.156z M1060.223,217.04c-0.114,0.272-0.428,0.405-0.696,0.293
			c-0.273-0.113-0.404-0.426-0.299-0.697c0.109-0.276,0.426-0.41,0.703-0.296C1060.206,216.453,1060.334,216.763,1060.223,217.04z
			 M1060.683,215.782c-0.099,0.254-0.386,0.375-0.641,0.279c-0.253-0.103-0.378-0.398-0.269-0.651
			c0.101-0.254,0.387-0.372,0.64-0.273C1060.67,215.24,1060.789,215.533,1060.683,215.782z M1061.763,217.663
			c-0.116,0.273-0.43,0.408-0.702,0.294c-0.274-0.109-0.407-0.423-0.296-0.7c0.114-0.272,0.425-0.399,0.696-0.292
			C1061.739,217.072,1061.872,217.389,1061.763,217.663z M1062.225,216.408c-0.1,0.257-0.394,0.375-0.646,0.271
			c-0.253-0.101-0.375-0.391-0.272-0.642c0.105-0.254,0.392-0.376,0.647-0.276C1062.21,215.866,1062.326,216.157,1062.225,216.408z
			 M1063.295,218.289c-0.11,0.27-0.424,0.413-0.695,0.295c-0.273-0.112-0.404-0.427-0.295-0.702c0.107-0.271,0.424-0.403,0.7-0.291
			C1063.28,217.705,1063.406,218.013,1063.295,218.289z M1063.764,217.034c-0.101,0.253-0.395,0.374-0.646,0.27
			c-0.257-0.1-0.374-0.391-0.273-0.643c0.105-0.254,0.395-0.375,0.644-0.274C1063.744,216.491,1063.866,216.779,1063.764,217.034z
			 M1064.134,215.85c-0.079,0.203-0.312,0.297-0.513,0.215c-0.2-0.082-0.296-0.31-0.221-0.511c0.088-0.207,0.317-0.304,0.515-0.221
			C1064.121,215.42,1064.221,215.648,1064.134,215.85z M1064.544,214.581c-0.061,0.15-0.235,0.221-0.387,0.159
			c-0.147-0.062-0.223-0.23-0.165-0.383c0.065-0.153,0.236-0.227,0.391-0.166C1064.532,214.251,1064.61,214.428,1064.544,214.581z
			 M1064.641,213.564c-0.129-0.051-0.187-0.194-0.133-0.319c0.044-0.126,0.191-0.185,0.316-0.136
			c0.123,0.053,0.186,0.198,0.134,0.323C1064.909,213.557,1064.761,213.612,1064.641,213.564z M1065.428,212.079
			c-0.04,0.086-0.139,0.125-0.222,0.092c-0.085-0.036-0.132-0.136-0.092-0.224c0.039-0.084,0.129-0.125,0.222-0.089
			C1065.422,211.89,1065.462,211.988,1065.428,212.079z"/>
	</g>
	<g>
		<path fill="#FFFFFF" d="M1058.657,278.319c-0.045,0.231-0.182,0.434-0.398,0.555c0.237-0.08,0.479-0.042,0.678,0.08
			c0.014-0.162,0.071-0.312,0.16-0.447C1058.937,278.48,1058.786,278.422,1058.657,278.319z"/>
		<path fill="#FFFFFF" d="M1059.303,279.783c-0.045,0.235-0.185,0.442-0.404,0.561c0.236-0.083,0.482-0.047,0.683,0.079
			c0.014-0.164,0.071-0.317,0.161-0.453C1059.581,279.943,1059.431,279.883,1059.303,279.783z"/>
		<path fill="#FFFFFF" d="M1059.418,281.861c-0.283,0.093-0.584,0.03-0.797-0.159c-0.032,0.203-0.154,0.385-0.354,0.472
			c-0.316,0.14-0.685-0.002-0.823-0.323c-0.143-0.31,0-0.682,0.32-0.821c0.199-0.088,0.417-0.053,0.586,0.058
			c0.005-0.287,0.165-0.555,0.43-0.693c-0.285,0.097-0.589,0.035-0.803-0.16c-0.032,0.202-0.151,0.386-0.355,0.475
			c-0.314,0.138-0.687-0.01-0.821-0.319c-0.145-0.32,0.005-0.687,0.32-0.827c0.198-0.088,0.417-0.053,0.589,0.061
			c0.003-0.286,0.16-0.55,0.419-0.695c-0.281,0.094-0.581,0.032-0.793-0.157c-0.033,0.201-0.154,0.384-0.354,0.472
			c-0.32,0.138-0.687-0.005-0.824-0.326c-0.138-0.312,0-0.684,0.323-0.821c0.197-0.087,0.413-0.051,0.583,0.059
			c0.004-0.283,0.163-0.546,0.425-0.693c-0.283,0.09-0.583,0.029-0.797-0.158c-0.033,0.202-0.154,0.386-0.354,0.474
			c-0.314,0.138-0.687-0.006-0.818-0.324c-0.144-0.315,0.003-0.682,0.313-0.825c0.204-0.089,0.422-0.05,0.593,0.063
			c0.004-0.287,0.165-0.554,0.427-0.698c-0.284,0.102-0.588,0.039-0.801-0.15c-0.034,0.2-0.154,0.383-0.357,0.471
			c-0.317,0.136-0.688-0.006-0.825-0.319c-0.137-0.32,0.006-0.687,0.323-0.826c0.2-0.089,0.418-0.054,0.59,0.056
			c0.003-0.288,0.163-0.552,0.425-0.695c-0.282,0.098-0.586,0.037-0.798-0.153c-0.034,0.201-0.153,0.385-0.354,0.473
			c-0.32,0.137-0.688-0.01-0.825-0.324c-0.138-0.317,0.007-0.686,0.322-0.823c0.201-0.088,0.416-0.052,0.587,0.06
			c0.007-0.31,0.186-0.603,0.484-0.736c0.254-0.113,0.527-0.069,0.746,0.066c0.021-0.249,0.135-0.478,0.326-0.645l-17.673,7.47
			l11.206-28.157l9.43,19.434l0.367,0.761c0.005,0.007,0.012,0.012,0.015,0.019c0.003,0.006,0.003,0.01,0.004,0.016l0.245,0.505
			l13.126,27.059h11.08l-29.934-61.468h-9.485l-23.912,60.068l37.988-16.054C1059.22,282.003,1059.306,281.922,1059.418,281.861z
			 M1056.07,278.962c0.114,0.26-0.005,0.565-0.267,0.681c-0.263,0.113-0.565-0.007-0.68-0.265c-0.119-0.261,0-0.568,0.264-0.687
			C1055.649,278.582,1055.956,278.702,1056.07,278.962z M1055.426,277.494c0.115,0.263-0.007,0.567-0.266,0.684
			c-0.26,0.114-0.564-0.005-0.682-0.27c-0.113-0.261,0.007-0.562,0.269-0.676C1055.005,277.116,1055.317,277.232,1055.426,277.494z
			 M1053.168,279.817c0.192-0.082,0.414,0.005,0.501,0.196c0.082,0.19-0.006,0.417-0.194,0.496c-0.193,0.087-0.416,0-0.497-0.189
			C1052.893,280.129,1052.978,279.903,1053.168,279.817z M1052.837,279.049c-0.2,0.086-0.422-0.004-0.504-0.194
			c-0.085-0.196,0-0.421,0.197-0.504c0.19-0.087,0.412,0.007,0.501,0.198C1053.107,278.739,1053.025,278.962,1052.837,279.049z
			 M1053.338,278.414c-0.107-0.242,0.001-0.524,0.242-0.63c0.24-0.108,0.524,0.008,0.628,0.246c0.112,0.243-0.003,0.523-0.242,0.629
			C1053.72,278.763,1053.438,278.653,1053.338,278.414z M1054.222,279.25c0.245-0.11,0.525,0.004,0.632,0.248
			c0.103,0.237-0.005,0.52-0.243,0.627c-0.245,0.104-0.525-0.006-0.635-0.245C1053.867,279.634,1053.983,279.354,1054.222,279.25z
			 M1054.782,276.028c0.118,0.264,0,0.567-0.264,0.681c-0.262,0.115-0.563,0-0.683-0.266c-0.116-0.261,0.005-0.563,0.269-0.677
			C1054.365,275.653,1054.669,275.771,1054.782,276.028z M1053.459,274.297c0.261-0.11,0.568,0.008,0.682,0.274
			c0.116,0.255-0.005,0.56-0.267,0.674c-0.262,0.11-0.565-0.004-0.678-0.268C1053.082,274.721,1053.201,274.411,1053.459,274.297z
			 M1053.564,276.564c0.104,0.243-0.004,0.525-0.242,0.631c-0.24,0.102-0.522,0-0.628-0.249c-0.108-0.237,0.001-0.52,0.245-0.625
			C1053.18,276.213,1053.459,276.325,1053.564,276.564z M1052.296,274.854c0.242-0.104,0.524,0.005,0.628,0.245
			c0.107,0.243-0.005,0.525-0.245,0.628c-0.24,0.106-0.526-0.003-0.628-0.248C1051.947,275.237,1052.051,274.959,1052.296,274.854z
			 M1052.387,277.08c0.08,0.195-0.006,0.417-0.196,0.504c-0.191,0.081-0.414-0.003-0.501-0.2c-0.084-0.185,0-0.411,0.196-0.494
			C1052.076,276.803,1052.299,276.894,1052.387,277.08z M1051.242,275.423c0.188-0.081,0.415,0.002,0.498,0.191
			c0.087,0.197,0,0.419-0.195,0.501c-0.191,0.083-0.414,0-0.5-0.192C1050.962,275.732,1051.05,275.509,1051.242,275.423z
			 M1047.943,277.46c-0.083,0.033-0.171-0.005-0.21-0.085c-0.038-0.082,0-0.177,0.081-0.216c0.079-0.033,0.181,0.004,0.213,0.086
			C1048.065,277.327,1048.027,277.421,1047.943,277.46z M1048.592,278.927c-0.088,0.036-0.181,0-0.218-0.083
			c-0.036-0.084,0-0.181,0.085-0.22c0.082-0.031,0.176,0,0.213,0.086C1048.708,278.792,1048.67,278.889,1048.592,278.927z
			 M1049.229,280.391c-0.082,0.031-0.174,0-0.214-0.087c-0.04-0.082,0-0.175,0.085-0.214c0.085-0.035,0.179,0.006,0.215,0.086
			C1049.351,280.258,1049.315,280.357,1049.229,280.391z M1049.236,276.973c-0.122,0.052-0.261,0-0.312-0.118
			c-0.052-0.124,0-0.259,0.121-0.311c0.117-0.057,0.262,0,0.313,0.121C1049.412,276.782,1049.359,276.921,1049.236,276.973z
			 M1049.875,281.855c-0.078,0.033-0.181-0.004-0.215-0.087c-0.035-0.08,0-0.175,0.087-0.21c0.081-0.037,0.172,0,0.21,0.085
			C1049.995,281.722,1049.957,281.823,1049.875,281.855z M1049.885,278.439c-0.123,0.053-0.26-0.005-0.315-0.118
			c-0.052-0.126,0-0.266,0.125-0.316c0.113-0.054,0.259,0,0.31,0.124C1050.057,278.244,1050.001,278.385,1049.885,278.439z
			 M1049.957,276.4c-0.063-0.147,0.006-0.313,0.147-0.376c0.143-0.066,0.315,0.004,0.378,0.144c0.061,0.148-0.007,0.313-0.148,0.376
			C1050.189,276.61,1050.021,276.543,1049.957,276.4z M1050.521,283.32c-0.088,0.038-0.183,0-0.223-0.08
			c-0.038-0.086,0-0.181,0.087-0.218c0.082-0.037,0.178,0.002,0.215,0.084C1050.639,283.19,1050.601,283.283,1050.521,283.32z
			 M1050.521,279.903c-0.116,0.056-0.261,0-0.313-0.118c-0.048-0.121,0.006-0.264,0.125-0.316c0.119-0.051,0.257,0.007,0.308,0.123
			C1050.699,279.713,1050.642,279.851,1050.521,279.903z M1050.601,277.865c-0.061-0.143,0.007-0.309,0.149-0.376
			c0.142-0.062,0.308,0,0.371,0.148c0.066,0.144,0,0.315-0.143,0.373C1050.829,278.076,1050.663,278.009,1050.601,277.865z
			 M1051.159,284.786c-0.081,0.037-0.174,0-0.214-0.087c-0.033-0.08,0.003-0.174,0.086-0.208c0.08-0.039,0.176,0,0.211,0.079
			C1051.278,284.653,1051.242,284.751,1051.159,284.786z M1051.17,281.37c-0.125,0.051-0.265,0-0.316-0.122
			c-0.052-0.117,0-0.256,0.125-0.313c0.119-0.048,0.257,0.004,0.311,0.124C1051.34,281.179,1051.289,281.32,1051.17,281.37z
			 M1051.242,279.331c-0.063-0.142,0.002-0.315,0.15-0.377c0.145-0.063,0.313,0.004,0.374,0.148c0.061,0.143,0,0.31-0.144,0.375
			C1051.474,279.542,1051.308,279.478,1051.242,279.331z M1051.809,282.834c-0.119,0.052-0.257-0.005-0.312-0.125
			c-0.051-0.118,0-0.256,0.126-0.309c0.117-0.054,0.257,0.002,0.305,0.123C1051.981,282.643,1051.928,282.783,1051.809,282.834z
			 M1051.886,280.797c-0.063-0.148,0.003-0.316,0.147-0.378c0.143-0.062,0.308,0.003,0.375,0.142c0.063,0.149,0,0.316-0.145,0.377
			C1052.118,281.005,1051.947,280.938,1051.886,280.797z M1052.453,284.299c-0.126,0.056-0.263,0-0.314-0.119
			c-0.054-0.12,0.003-0.262,0.125-0.311c0.117-0.059,0.258,0,0.308,0.121C1052.623,284.108,1052.571,284.247,1052.453,284.299z
			 M1052.906,282.411c-0.147,0.056-0.313-0.008-0.376-0.149c-0.067-0.145,0-0.312,0.147-0.377c0.143-0.062,0.308,0.004,0.375,0.147
			C1053.114,282.174,1053.049,282.347,1052.906,282.411z M1053.546,283.875c-0.143,0.06-0.31-0.006-0.371-0.149
			c-0.068-0.144,0-0.316,0.147-0.377c0.137-0.063,0.31,0.005,0.371,0.146C1053.755,283.641,1053.693,283.809,1053.546,283.875z
			 M1053.619,281.784c-0.089-0.191,0.002-0.415,0.193-0.501c0.191-0.085,0.422,0,0.501,0.195c0.081,0.193-0.006,0.417-0.194,0.504
			C1053.921,282.06,1053.698,281.976,1053.619,281.784z M1054.763,283.444c-0.19,0.087-0.415-0.005-0.5-0.195
			c-0.083-0.19,0.003-0.421,0.194-0.5c0.191-0.082,0.416,0.005,0.494,0.194C1055.037,283.134,1054.951,283.365,1054.763,283.444z
			 M1054.618,281.345c-0.104-0.243,0.01-0.526,0.249-0.627c0.237-0.107,0.521,0,0.631,0.239c0.107,0.24-0.006,0.527-0.25,0.631
			C1055.005,281.694,1054.73,281.585,1054.618,281.345z M1055.892,283.054c-0.242,0.104-0.521,0-0.63-0.244
			c-0.102-0.24,0-0.524,0.245-0.629c0.242-0.105,0.525,0.005,0.63,0.248C1056.243,282.667,1056.137,282.949,1055.892,283.054z
			 M1055.764,280.839c-0.114-0.264,0.007-0.563,0.269-0.679c0.262-0.114,0.566,0.006,0.678,0.262
			c0.113,0.264-0.005,0.569-0.263,0.684C1056.185,281.221,1055.88,281.102,1055.764,280.839z M1057.09,282.569
			c-0.267,0.116-0.566,0-0.675-0.26c-0.121-0.263,0-0.568,0.255-0.683c0.265-0.114,0.569,0,0.688,0.262
			C1057.467,282.152,1057.355,282.457,1057.09,282.569z"/>
		<path fill="#FFFFFF" d="M1060.382,281.436c-0.159-0.027-0.309-0.085-0.439-0.186c-0.043,0.233-0.183,0.437-0.401,0.558
			c0.128-0.042,0.252-0.048,0.377-0.031l0.353-0.148C1060.296,281.558,1060.341,281.5,1060.382,281.436z"/>
		<path fill="#FFFFFF" d="M1061.484,280.596c-0.018,0.154-0.069,0.297-0.154,0.426c0.081,0.014,0.16,0.026,0.235,0.06l0.222-0.094
			c0.012-0.062,0.01-0.125,0.035-0.181C1061.698,280.758,1061.585,280.684,1061.484,280.596z"/>
		<path fill="#FFFFFF" d="M1058.017,276.852c-0.044,0.229-0.179,0.432-0.393,0.554c0.232-0.075,0.474-0.037,0.671,0.085
			c0.014-0.164,0.071-0.315,0.162-0.452C1058.296,277.014,1058.146,276.953,1058.017,276.852z"/>
		<path fill="#FFFFFF" d="M1058.606,273.479c-0.124-0.048-0.235-0.123-0.337-0.211c-0.017,0.154-0.069,0.298-0.154,0.428
			c0.153,0.025,0.294,0.083,0.419,0.174C1058.537,273.734,1058.559,273.602,1058.606,273.479z"/>
		<path fill="#FFFFFF" d="M1057.252,272.212c0.233-0.016,0.454,0.056,0.641,0.192c0.003-0.19,0.066-0.367,0.16-0.53
			L1057.252,272.212z"/>
		<path fill="#FFFFFF" d="M1057.373,275.386c-0.046,0.235-0.185,0.44-0.404,0.558c0.235-0.079,0.479-0.042,0.682,0.082
			c0.013-0.163,0.07-0.314,0.162-0.451C1057.65,275.548,1057.501,275.487,1057.373,275.386z"/>
		<path fill="#FFFFFF" d="M1061.108,279.731c0.003-0.133,0.024-0.268,0.072-0.391c-0.124-0.047-0.235-0.122-0.338-0.209
			c-0.017,0.153-0.068,0.296-0.154,0.424C1060.84,279.582,1060.983,279.638,1061.108,279.731z"/>
		<path fill="#FFFFFF" d="M1056.731,273.924c-0.045,0.233-0.182,0.436-0.4,0.553c0.235-0.081,0.478-0.043,0.677,0.081
			c0.014-0.163,0.07-0.313,0.16-0.448C1057.008,274.085,1056.859,274.024,1056.731,273.924z"/>
		<path fill="#FFFFFF" d="M1059.82,276.8c0.003-0.134,0.024-0.267,0.072-0.391c-0.124-0.046-0.235-0.121-0.336-0.208
			c-0.017,0.154-0.07,0.295-0.156,0.425C1059.554,276.649,1059.693,276.707,1059.82,276.8z"/>
		<path fill="#FFFFFF" d="M1059.177,275.335c0.003-0.136,0.026-0.27,0.076-0.396c-0.125-0.046-0.237-0.121-0.338-0.209
			c-0.016,0.156-0.07,0.301-0.156,0.431C1058.911,275.187,1059.053,275.243,1059.177,275.335z"/>
		<path fill="#FFFFFF" d="M1060.465,278.267c0.003-0.135,0.024-0.268,0.072-0.391c-0.124-0.047-0.235-0.12-0.338-0.209
			c-0.017,0.153-0.069,0.296-0.155,0.424C1060.195,278.116,1060.339,278.173,1060.465,278.267z"/>
	</g>
</g>
</svg>
