<?xml version="1.0" encoding="utf-8"?>
<!-- Generator: Adobe Illustrator 16.0.0, SVG Export Plug-In . SVG Version: 6.00 Build 0)  -->
<!DOCTYPE svg PUBLIC "-//W3C//DTD SVG 1.1//EN" "http://www.w3.org/Graphics/SVG/1.1/DTD/svg11.dtd">
<svg version="1.1" id="Layer_1" xmlns="http://www.w3.org/2000/svg" xmlns:xlink="http://www.w3.org/1999/xlink" x="0px" y="0px"
	 width="1500px" height="1000px" viewBox="0 0 1500 1000" enable-background="new 0 0 1500 1000" xml:space="preserve">
<g>
	<g>
		<g>
			<path d="M717.346,244.459c4.112-21.616,22.832-34.371,39.599-35.876c17.261-1.917,27.5,7.992,26.911,18.323
				c-0.763,13.547-12.782,25.142-34.412,25.985c0.3-3.892,1.19-7.942,6.424-9.129c10.978-2.53,19.314-8.475,17.659-18.801
				c-1.021-6.312-11.212-8.336-18.255-7.148c-10.583,1.405-23.495,12.315-26.71,26.524c-8.291,36.688,51.583,30.489,70.577,3.198
				c0.87-15.799-1.368-31.102-7.144-48.623c-30.769-10.129-54.688-9.41-86.497,0c-10.147,30.769-9.419,54.691,0,86.491
				c31.81,9.425,55.729,10.147,86.497,0c2.423-8.186,4.26-15.846,5.494-23.239C778.268,282.95,707.865,294.284,717.346,244.459z"/>
		</g>
		<image overflow="visible" width="71" height="51" xlink:href="F4C256D2.png"  transform="matrix(1 0 0 1 705.4998 198.5002)">
		</image>
		<image overflow="visible" width="28" height="24" xlink:href="F4C256D3.png"  transform="matrix(1 0 0 1 743.4998 229.5002)">
		</image>
		<image overflow="visible" width="62" height="22" xlink:href="F4C256D4.png"  transform="matrix(1 0 0 1 734.4998 246.5002)">
		</image>
	</g>
	<g>
		<g>
			<g>
				<path d="M997.094,415.8v2.557h-18.92v-5.441c0-1.934,0.491-3.433,1.472-4.496c0.977-1.064,2.392-1.593,4.26-1.593
					c0.835,0,1.6,0.134,2.284,0.408c0.677,0.275,1.259,0.657,1.744,1.159c0.478,0.508,0.856,1.118,1.127,1.792
					c0.254,0.716,0.385,1.506,0.385,2.369v3.246H997.094z M987.291,412.897c0.014-1.071-0.288-1.895-0.904-2.49
					c-0.615-0.596-1.474-0.896-2.568-0.896c-1.04,0-1.872,0.321-2.5,0.97c-0.629,0.635-0.937,1.486-0.937,2.516v2.804h6.883
					L987.291,412.897z"/>
				<path d="M997.094,385.44v2.569h-18.92v-5.809c0-1.92,0.444-3.386,1.305-4.383c0.876-0.997,2.168-1.499,3.874-1.499
					c1.071,0,2.032,0.268,2.885,0.776c0.849,0.521,1.435,1.357,1.742,2.529c0.816-0.529,1.649-0.991,2.479-1.399
					c0.84-0.388,1.777-0.836,2.812-1.305l3.823-1.807v2.851l-3.652,1.66c-0.637,0.287-1.191,0.535-1.671,0.749
					c-0.472,0.214-0.882,0.422-1.257,0.603c-0.362,0.18-0.68,0.388-0.952,0.602c-0.28,0.215-0.522,0.469-0.766,0.776v3.085H997.094z
					 M986.601,382.462c0-1.084-0.289-1.947-0.85-2.557c-0.576-0.615-1.389-0.943-2.415-0.943c-0.931,0-1.661,0.295-2.176,0.843
					c-0.532,0.583-0.779,1.352-0.779,2.336v3.299h6.22V382.462z"/>
			</g>
			<path d="M997.094,371.729h-16.478c-1.841,0-2.464-0.958-2.464-2.577h18.941V371.729z"/>
			<path d="M980.498,356.445c-0.097,0.234-0.184,0.468-0.272,0.71c-0.151,0.415-0.225,0.83-0.225,1.23
				c0,0.997,0.243,1.787,0.708,2.396c0.472,0.589,1.125,0.89,2.011,0.89c0.365,0,0.687-0.046,0.948-0.133
				c0.284-0.08,0.551-0.254,0.806-0.536c0.267-0.268,0.532-0.656,0.785-1.171c0.252-0.516,0.54-1.198,0.854-2.081
				c0.295-0.883,0.639-1.633,0.992-2.242c0.369-0.616,0.801-1.118,1.26-1.485c0.458-0.375,0.989-0.643,1.579-0.804
				c0.602-0.167,1.271-0.241,2.044-0.241c0.816,0,1.563,0.147,2.219,0.435c0.669,0.314,1.237,0.743,1.717,1.292
				c0.464,0.562,0.832,1.224,1.087,2.007c0.261,0.763,0.395,1.62,0.395,2.576c0,0.596-0.101,1.218-0.329,1.828
				c-0.197,0.622-0.433,1.19-0.688,1.712c-0.261,0.522-0.595,1.104-1.013,1.773l-1.854-1.104c0.33-0.495,0.622-0.943,0.823-1.325
				c0.211-0.388,0.4-0.843,0.578-1.352c0.175-0.516,0.27-1.037,0.27-1.579c0-0.516-0.082-0.983-0.246-1.432
				c-0.156-0.428-0.371-0.816-0.651-1.131c-0.284-0.328-0.615-0.575-1.004-0.756c-0.379-0.188-0.787-0.267-1.224-0.267
				c-0.439,0-0.834,0.053-1.172,0.167c-0.341,0.127-0.67,0.321-0.95,0.59c-0.282,0.28-0.545,0.655-0.787,1.13
				c-0.251,0.469-0.485,1.051-0.725,1.773c-0.507,1.593-1.176,2.831-2.012,3.687c-0.833,0.857-1.987,1.292-3.467,1.292
				c-1.578,0-2.837-0.516-3.74-1.54c-0.911-1.017-1.369-2.409-1.369-4.182c0-0.502,0.087-1.038,0.255-1.613
				c0.177-0.569,0.376-1.084,0.572-1.565c0.19-0.482,0.479-1.025,0.822-1.66C980.431,354.055,981.033,355.173,980.498,356.445z"/>
			<path d="M978.152,398.823v-0.882l18.941-6.371v2.676l-5.105,1.646v7.3l5.105,1.519v2.47l-17.265-5.868
				C977.982,400.697,978.152,399.861,978.152,398.823z M980.689,399.492l9.269,3.018v-5.982L980.689,399.492z"/>
		</g>
		<path d="M545.885,408.64c7.061-1.994,8.007,2.85,8.673,5.581c-26.7,10.727-51.895-0.188-51.801-29.009
			c0.064-17.325,12.988-30.273,28.059-31.698c16.703-1.921,26.359,8.404,27.476,18.744c1.476,13.531-12.292,20.971-34.181,19.761
			c-0.348-3.895,1.482-8.124,6.08-8.138c9.291,0.014,21.122-3.306,17.198-14.387c-2.051-5.775-11.039-7.602-16.707-6.745
			c-9.756,1.532-16.783,11.67-16.896,22.35C513.488,413.177,539.671,410.4,545.885,408.64z"/>
		<path d="M951.848,408.64c7.059-1.994,8.002,2.85,8.671,5.581c-26.698,10.727-51.894-0.188-51.799-29.009
			c0.06-17.325,12.586-30.28,27.655-31.712c16.702-1.92,26.76,8.418,27.878,18.757c1.474,13.531-12.291,20.971-34.18,19.761
			c-0.349-3.895,1.477-8.124,6.075-8.138c9.294,0.014,21.125-3.306,17.198-14.387c-2.049-5.775-11.438-7.609-17.105-6.753
			c-9.756,1.526-16.381,11.678-16.494,22.358C919.446,413.177,945.638,410.4,951.848,408.64z"/>
		<path d="M610.613,362.654v55.703H599.97v-63.738c0,0,1.362,0,3.302,0C605.615,354.618,610.613,355.789,610.613,362.654z"/>
		<path d="M817.538,361.831c-6.725,0-13.463,2.744-13.463,11.229v45.297h-10.774v-47.291c0-10.071,9.649-17.847,23.924-17.847
			c13.558,0,24.558,6.13,24.558,17.847v47.291h-5.387c-1.539,0-2.804-0.495-3.773-1.466c-0.971-0.977-1.459-2.221-1.459-3.767
			V373.06C831.163,364.876,824.785,361.831,817.538,361.831z"/>
		<path d="M582.836,337.159v81.198h-10.639v-89.234c0,0,1.361,0,3.302,0C577.838,329.123,582.836,330.294,582.836,337.159z"/>
		<path d="M627.065,415.379l2.463-7.107c16.592,3.286,25.903,1.526,25.803-8.571c-0.073-7.315-12.654-9.75-20.456-13.985
			c-6.451-3.5-10.158-7.275-10.158-15.251c0-14.802,13.591-17.165,21.049-17.204c6.471-0.027,9.244,0.401,14.638,1.11
			c-1.753,5.36-3.924,7.944-10.031,7.288c-8.638-0.93-15.933,1.586-15.933,7.782c0,6.291,6.026,7.923,15.646,12.273
			c12.313,5.568,16.093,12.045,16.093,18.629C666.178,412.12,658.079,422.846,627.065,415.379z"/>
		<path d="M675.888,415.379l2.462-7.107c16.592,3.286,25.903,1.526,25.803-8.571c-0.074-7.315-12.654-9.75-20.456-13.985
			c-6.451-3.5-10.158-7.275-10.158-15.251c0-14.802,13.591-17.165,21.048-17.204c6.472-0.027,9.245,0.401,14.638,1.11
			c-1.753,5.36-3.925,7.944-10.031,7.288c-8.639-0.93-15.933,1.586-15.933,7.782c0,6.291,6.026,7.923,15.645,12.273
			c12.313,5.568,16.094,12.045,16.094,18.629C715.002,412.12,706.901,422.846,675.888,415.379z"/>
		<g>
			<g>
				<path d="M754.984,353.26c-10.968,0-30.073,7.668-30.073,31.672c0,19.205,9.343,33.425,30.629,33.425
					c4.474,0,10.778-2.688,14.718-5.402c1.461,3.452,4.831,4.158,6.629,4.158c1.94,0,3.748,0,3.748,0v-20.189v-1.967
					c0-5.369,0-20.022,0-22.109C780.635,357.89,764.955,353.26,754.984,353.26z M769.546,397.01v7.182
					c-4.42,3.788-9.006,5.25-13.872,5.25c-9.536,0-19.303-4.31-19.303-24.618c0-20.008,12.905-22.645,19.169-22.645
					c5.607,0,14.006,1.64,14.006,12.226c0,4.827,0,15.724,0,20.551V397.01z"/>
			</g>
		</g>
		<g>
			<path d="M864.709,385.26c-0.295,28.084,23.682,25.529,30.26,22.37c3.7-1.787,8.003,2.851,8.666,5.581
				c-26.968,12.768-50.482,0.555-50.383-28.266"/>
			<path d="M853.252,384.945c0-20.056,20.725-43.088,48.436-25.335l-4.458,5.942c-17.599-10.098-32.521,4.805-32.521,19.708"/>
		</g>
	</g>
</g>
<g>
	<g>
		<path d="M368.149,843.258c-3.354-11.321-3.614-19.843,0-30.795c11.327-3.356,19.846-3.611,30.8,0
			c3.614,10.952,3.353,19.474,0,30.795C387.995,846.871,379.476,846.615,368.149,843.258z"/>
		<path fill="#FFFFFF" d="M401.541,833.426c-6.109,9.343-32.662,13.597-29.172-4.747c1.464-7.697,8.128-12.239,14.1-12.775
			c6.15-0.683,9.791,2.844,9.582,6.526c-0.27,4.821-4.551,8.949-12.251,9.252c0.105-1.387,0.423-2.831,2.284-3.25
			c3.913-0.901,6.881-3.021,6.29-6.696c-0.362-2.248-3.991-2.969-6.501-2.545c-3.77,0.499-8.365,4.385-9.512,9.444
			c-3.059,13.538,19.953,11.286,25.813-0.745C402.175,827.89,402.559,831.459,401.541,833.426z"/>
		<image overflow="visible" width="26" height="19" xlink:href="F4C256D5.png"  transform="matrix(1 0 0 1 367.4998 811.5002)">
		</image>
		<image overflow="visible" width="10" height="9" xlink:href="F4C256D0.png"  transform="matrix(1 0 0 1 381.4998 823.5002)">
		</image>
		<image overflow="visible" width="22" height="9" xlink:href="F4C256D1.png"  transform="matrix(1 0 0 1 378.4998 828.5002)">
		</image>
	</g>
	<g>
		<g>
			<g>
				<path d="M347.565,841.369v1.157h-8.57v-2.464c0-0.877,0.222-1.556,0.667-2.038c0.442-0.481,1.083-0.721,1.929-0.721
					c0.378,0,0.725,0.06,1.036,0.185c0.306,0.124,0.57,0.297,0.79,0.524c0.217,0.23,0.386,0.506,0.512,0.813
					c0.114,0.324,0.172,0.682,0.172,1.072v1.472H347.565z M343.124,840.053c0.006-0.484-0.13-0.857-0.409-1.128
					c-0.279-0.27-0.666-0.406-1.163-0.406c-0.471,0-0.847,0.146-1.132,0.44c-0.284,0.288-0.424,0.673-0.424,1.139v1.271h3.117
					L343.124,840.053z"/>
				<path d="M347.565,827.615v1.164h-8.57v-2.631c0-0.872,0.2-1.535,0.592-1.987c0.397-0.451,0.982-0.679,1.755-0.679
					c0.484,0,0.919,0.12,1.308,0.352c0.384,0.237,0.648,0.615,0.787,1.146c0.37-0.24,0.749-0.449,1.126-0.634
					c0.378-0.176,0.803-0.379,1.271-0.591l1.731-0.819v1.292l-1.654,0.752c-0.288,0.131-0.54,0.242-0.755,0.34
					c-0.216,0.098-0.4,0.191-0.57,0.273c-0.163,0.082-0.311,0.176-0.431,0.271c-0.128,0.098-0.235,0.213-0.349,0.354v1.397H347.565z
					 M342.812,826.264c0-0.491-0.131-0.881-0.385-1.157c-0.261-0.279-0.628-0.427-1.095-0.427c-0.422,0-0.752,0.132-0.985,0.381
					c-0.24,0.264-0.352,0.613-0.352,1.059v1.495h2.816V826.264z"/>
			</g>
			<path d="M347.565,821.402h-7.464c-0.834,0-1.116-0.433-1.116-1.168h8.58V821.402z"/>
			<path d="M340.047,814.474c-0.043,0.106-0.082,0.216-0.123,0.325c-0.067,0.188-0.102,0.375-0.102,0.554
				c0,0.455,0.11,0.813,0.322,1.089c0.212,0.264,0.51,0.403,0.909,0.403c0.167,0,0.313-0.021,0.431-0.061
				c0.127-0.037,0.248-0.115,0.364-0.242c0.12-0.122,0.242-0.301,0.357-0.531c0.112-0.233,0.243-0.545,0.386-0.942
				c0.132-0.4,0.29-0.743,0.45-1.017c0.167-0.281,0.361-0.506,0.571-0.673c0.205-0.173,0.449-0.29,0.715-0.363
				c0.274-0.076,0.576-0.109,0.925-0.109c0.37,0,0.71,0.066,1.007,0.193c0.303,0.144,0.561,0.34,0.775,0.589
				c0.213,0.252,0.38,0.556,0.496,0.91c0.117,0.345,0.177,0.733,0.177,1.167c0,0.27-0.045,0.552-0.147,0.827
				c-0.093,0.282-0.197,0.539-0.313,0.777c-0.117,0.235-0.27,0.498-0.462,0.8l-0.839-0.501c0.151-0.221,0.282-0.424,0.373-0.597
				c0.097-0.176,0.181-0.382,0.264-0.612c0.078-0.233,0.121-0.474,0.121-0.719c0-0.233-0.036-0.442-0.113-0.646
				c-0.068-0.196-0.165-0.369-0.293-0.512c-0.131-0.147-0.278-0.261-0.454-0.343c-0.173-0.085-0.358-0.124-0.555-0.124
				c-0.2,0-0.38,0.026-0.53,0.079c-0.155,0.057-0.305,0.146-0.432,0.263c-0.126,0.131-0.248,0.301-0.357,0.517
				c-0.112,0.212-0.218,0.476-0.328,0.8c-0.23,0.725-0.533,1.285-0.913,1.674c-0.375,0.388-0.897,0.585-1.569,0.585
				c-0.715,0-1.285-0.233-1.695-0.701c-0.412-0.457-0.618-1.091-0.618-1.891c0-0.228,0.04-0.474,0.115-0.734
				c0.079-0.255,0.17-0.487,0.258-0.705c0.088-0.22,0.218-0.464,0.373-0.752C340.016,813.395,340.29,813.9,340.047,814.474z"/>
			<path d="M338.985,833.677v-0.4l8.58-2.887v1.214l-2.313,0.745v3.308l2.313,0.689v1.118l-7.821-2.658
				C338.907,834.527,338.985,834.148,338.985,833.677z M340.135,833.981l4.198,1.366v-2.709L340.135,833.981z"/>
		</g>
		<path d="M143.142,838.125c3.196-0.903,3.626,1.291,3.927,2.528c-12.095,4.859-23.512-0.085-23.467-13.143
			c0.027-7.853,5.885-13.716,12.709-14.362c7.57-0.869,11.942,3.808,12.451,8.493c0.667,6.13-5.572,9.501-15.49,8.952
			c-0.157-1.765,0.674-3.681,2.756-3.687c4.208,0.006,9.572-1.498,7.792-6.521c-0.928-2.613-4.999-3.44-7.567-3.054
			c-4.423,0.695-7.606,5.288-7.658,10.128C128.462,840.181,140.326,838.922,143.142,838.125z"/>
		<path d="M327.068,838.125c3.198-0.903,3.626,1.291,3.929,2.528c-12.096,4.859-23.51-0.085-23.469-13.143
			c0.027-7.853,5.704-13.719,12.531-14.367c7.568-0.871,12.124,3.813,12.63,8.498c0.667,6.13-5.57,9.501-15.486,8.952
			c-0.158-1.765,0.67-3.681,2.753-3.687c4.211,0.006,9.571-1.498,7.791-6.521c-0.927-2.613-5.181-3.443-7.749-3.056
			c-4.421,0.689-7.422,5.29-7.474,10.13C312.388,840.181,324.255,838.922,327.068,838.125z"/>
		<path d="M172.465,817.29v25.236h-4.82v-28.876c0,0,0.616,0,1.495,0C170.204,813.651,172.465,814.18,172.465,817.29z"/>
		<path d="M266.217,816.918c-3.046,0-6.1,1.239-6.1,5.087v20.521h-4.881v-21.425c0-4.563,4.372-8.086,10.838-8.086
			c6.143,0,11.126,2.777,11.126,8.086v21.425h-2.439c-0.698,0-1.271-0.225-1.711-0.663c-0.439-0.443-0.66-1.007-0.66-1.707v-18.151
			C272.39,818.297,269.501,816.918,266.217,816.918z"/>
		<path d="M159.884,805.74v36.787h-4.823v-40.432c0,0,0.618,0,1.498,0C157.615,802.095,159.884,802.63,159.884,805.74z"/>
		<path d="M179.921,841.178l1.116-3.22c7.516,1.489,11.736,0.691,11.69-3.884c-0.033-3.313-5.733-4.417-9.268-6.336
			c-2.923-1.586-4.603-3.296-4.603-6.91c0-6.706,6.158-7.776,9.535-7.794c2.933-0.017,4.19,0.183,6.634,0.504
			c-0.795,2.428-1.78,3.598-4.545,3.301c-3.914-0.422-7.218,0.718-7.218,3.522c0,2.854,2.729,3.593,7.088,5.563
			c5.579,2.523,7.292,5.458,7.292,8.44C197.641,839.701,193.969,844.563,179.921,841.178z"/>
		<path d="M202.041,841.178l1.115-3.22c7.516,1.489,11.736,0.691,11.69-3.884c-0.033-3.313-5.733-4.417-9.268-6.336
			c-2.923-1.586-4.603-3.296-4.603-6.91c0-6.706,6.158-7.776,9.535-7.794c2.932-0.017,4.19,0.183,6.634,0.504
			c-0.795,2.428-1.78,3.598-4.545,3.301c-3.914-0.422-7.218,0.718-7.218,3.522c0,2.854,2.729,3.593,7.088,5.563
			c5.578,2.523,7.292,5.458,7.292,8.44C219.761,839.701,216.091,844.563,202.041,841.178z"/>
		<g>
			<g>
				<path d="M237.876,813.034c-4.969,0-13.624,3.475-13.624,14.349c0,8.702,4.232,15.144,13.876,15.144
					c2.027,0,4.884-1.218,6.668-2.446c0.663,1.564,2.189,1.883,3.004,1.883c0.878,0,1.697,0,1.697,0v-20.056
					C249.497,815.132,242.394,813.034,237.876,813.034z M244.473,836.107c-2.002,1.717-4.08,2.383-6.285,2.383
					c-4.32,0-8.747-1.953-8.747-11.154c0-9.065,5.849-10.261,8.687-10.261c2.541,0,6.346,0.744,6.346,5.54V836.107z"/>
			</g>
		</g>
		<g>
			<path d="M287.589,827.531c-0.133,12.726,10.729,11.566,13.709,10.137c1.677-0.81,3.626,1.291,3.927,2.527
				c-12.218,5.785-22.873,0.252-22.826-12.806"/>
			<path d="M282.398,827.39c0-9.086,9.389-19.521,21.944-11.481l-2.021,2.695c-7.973-4.576-14.733,2.176-14.733,8.928"/>
		</g>
	</g>
</g>
<g>
	<rect x="906.344" y="680.741" width="549.588" height="286.485"/>
	<g>
		<g>
			<g>
				<g>
					<path fill="#FFFFFF" d="M1287.885,869.88v1.105h-8.176v-2.352c0-0.836,0.213-1.483,0.637-1.943
						c0.422-0.46,1.033-0.688,1.84-0.688c0.361,0,0.691,0.059,0.988,0.177c0.291,0.118,0.543,0.283,0.752,0.5
						c0.207,0.22,0.371,0.483,0.488,0.775c0.109,0.31,0.166,0.65,0.166,1.023v1.402H1287.885z M1283.648,868.625
						c0.006-0.463-0.123-0.818-0.391-1.075c-0.266-0.258-0.637-0.388-1.109-0.388c-0.451,0-0.809,0.139-1.08,0.419
						c-0.271,0.275-0.406,0.643-0.406,1.088v1.211h2.975L1283.648,868.625z"/>
					<path fill="#FFFFFF" d="M1287.885,856.76v1.11h-8.176v-2.51c0-0.83,0.191-1.463,0.564-1.895
						c0.379-0.431,0.936-0.647,1.674-0.647c0.463,0,0.877,0.116,1.246,0.336c0.367,0.226,0.621,0.587,0.754,1.093
						c0.352-0.229,0.713-0.428,1.07-0.604c0.363-0.168,0.768-0.361,1.215-0.563l1.652-0.781v1.232l-1.578,0.717
						c-0.275,0.124-0.516,0.231-0.723,0.324c-0.203,0.092-0.381,0.182-0.543,0.26c-0.156,0.078-0.293,0.168-0.41,0.261
						c-0.121,0.092-0.227,0.202-0.332,0.335v1.333H1287.885z M1283.351,855.474c0-0.469-0.125-0.842-0.367-1.105
						c-0.25-0.266-0.602-0.407-1.045-0.407c-0.402,0-0.717,0.127-0.939,0.364c-0.23,0.252-0.338,0.584-0.338,1.009v1.426h2.689
						V855.474z"/>
				</g>
				<path fill="#FFFFFF" d="M1287.885,850.835h-7.121c-0.795,0-1.064-0.414-1.064-1.113h8.186V850.835z"/>
				<path fill="#FFFFFF" d="M1280.713,844.23c-0.041,0.102-0.078,0.203-0.117,0.307c-0.066,0.18-0.098,0.358-0.098,0.532
					c0,0.431,0.105,0.772,0.307,1.035c0.203,0.255,0.486,0.385,0.869,0.385c0.158,0,0.297-0.021,0.408-0.058
					c0.123-0.035,0.24-0.11,0.35-0.231c0.115-0.116,0.23-0.283,0.34-0.506c0.107-0.223,0.232-0.518,0.369-0.899
					c0.127-0.382,0.275-0.706,0.428-0.969c0.16-0.267,0.346-0.483,0.545-0.643c0.197-0.162,0.428-0.277,0.682-0.347
					c0.26-0.072,0.551-0.104,0.885-0.104c0.352,0,0.674,0.063,0.957,0.188c0.289,0.136,0.535,0.32,0.742,0.558
					c0.201,0.243,0.361,0.529,0.471,0.868c0.113,0.329,0.17,0.699,0.17,1.113c0,0.257-0.043,0.526-0.141,0.789
					c-0.086,0.27-0.189,0.515-0.299,0.74c-0.113,0.226-0.258,0.478-0.438,0.767l-0.801-0.478c0.143-0.214,0.268-0.407,0.355-0.572
					c0.09-0.168,0.174-0.364,0.25-0.584c0.074-0.223,0.115-0.448,0.115-0.683c0-0.223-0.035-0.425-0.105-0.619
					c-0.068-0.185-0.16-0.353-0.281-0.488c-0.123-0.142-0.268-0.249-0.434-0.327c-0.164-0.081-0.34-0.115-0.529-0.115
					s-0.361,0.023-0.508,0.072c-0.146,0.055-0.289,0.139-0.41,0.254c-0.121,0.122-0.234,0.284-0.34,0.489
					c-0.107,0.202-0.209,0.454-0.313,0.767c-0.219,0.688-0.508,1.223-0.869,1.593s-0.859,0.559-1.498,0.559
					c-0.684,0-1.227-0.223-1.617-0.665c-0.393-0.439-0.592-1.041-0.592-1.808c0-0.217,0.039-0.448,0.111-0.697
					c0.076-0.245,0.16-0.468,0.246-0.677c0.082-0.208,0.207-0.442,0.355-0.717C1280.685,843.198,1280.945,843.681,1280.713,844.23z"
					/>
				<path fill="#FFFFFF" d="M1279.699,862.544v-0.382l8.186-2.753v1.156l-2.205,0.712v3.154l2.205,0.657v1.066l-7.461-2.536
					C1279.627,863.354,1279.699,862.992,1279.699,862.544z M1280.797,862.833l4.004,1.304v-2.585L1280.797,862.833z"/>
			</g>
			<path fill="#FFFFFF" d="M1092.894,866.786c3.051-0.862,3.461,1.231,3.748,2.412c-11.539,4.635-22.426-0.081-22.387-12.536
				c0.029-7.487,5.613-13.083,12.127-13.699c7.217-0.83,11.391,3.633,11.873,8.101c0.639,5.847-5.313,9.063-14.771,8.539
				c-0.15-1.683,0.641-3.511,2.627-3.517c4.016,0.006,9.129-1.429,7.432-6.217c-0.885-2.496-4.77-3.285-7.219-2.915
				c-4.217,0.662-7.252,5.043-7.301,9.658C1078.894,868.747,1090.209,867.547,1092.894,866.786z"/>
			<path fill="#FFFFFF" d="M1268.332,866.786c3.051-0.862,3.459,1.231,3.748,2.412c-11.539,4.635-22.426-0.081-22.387-12.536
				c0.027-7.487,5.441-13.086,11.953-13.705c7.219-0.83,11.564,3.639,12.047,8.106c0.637,5.847-5.313,9.063-14.771,8.539
				c-0.15-1.683,0.639-3.511,2.627-3.517c4.016,0.006,9.129-1.429,7.432-6.217c-0.885-2.496-4.943-3.288-7.393-2.918
				c-4.215,0.659-7.078,5.046-7.127,9.661C1254.33,868.747,1265.648,867.547,1268.332,866.786z"/>
			<path fill="#FFFFFF" d="M1120.867,846.913v24.072h-4.6v-27.545c0,0,0.588,0,1.428,0
				C1118.707,843.441,1120.867,843.947,1120.867,846.913z"/>
			<path fill="#FFFFFF" d="M1210.291,846.558c-2.906,0-5.818,1.186-5.818,4.853v19.575h-4.656v-20.437
				c0-4.353,4.17-7.713,10.338-7.713c5.859,0,10.613,2.648,10.613,7.713v20.437h-2.328c-0.666,0-1.211-0.214-1.631-0.634
				c-0.42-0.422-0.631-0.96-0.631-1.628V851.41C1216.177,847.873,1213.422,846.558,1210.291,846.558z"/>
			<path fill="#FFFFFF" d="M1108.863,835.896v35.09h-4.598v-38.563c0,0,0.588,0,1.428,0
				C1106.703,832.422,1108.863,832.929,1108.863,835.896z"/>
			<path fill="#FFFFFF" d="M1127.976,869.698l1.064-3.071c7.17,1.42,11.195,0.659,11.15-3.704c-0.031-3.161-5.467-4.214-8.84-6.044
				c-2.787-1.513-4.389-3.144-4.389-6.591c0-6.396,5.873-7.418,9.096-7.435c2.797-0.012,3.994,0.173,6.326,0.479
				c-0.758,2.316-1.697,3.433-4.336,3.149c-3.732-0.402-6.885,0.686-6.885,3.363c0,2.719,2.604,3.424,6.762,5.304
				c5.32,2.406,6.953,5.205,6.953,8.051C1144.879,868.29,1141.379,872.926,1127.976,869.698z"/>
			<path fill="#FFFFFF" d="M1149.076,869.698l1.064-3.071c7.17,1.42,11.193,0.659,11.15-3.704c-0.031-3.161-5.469-4.214-8.84-6.044
				c-2.789-1.513-4.391-3.144-4.391-6.591c0-6.396,5.873-7.418,9.096-7.435c2.797-0.012,3.996,0.173,6.326,0.479
				c-0.758,2.316-1.695,3.433-4.334,3.149c-3.734-0.402-6.887,0.686-6.887,3.363c0,2.719,2.605,3.424,6.762,5.304
				c5.32,2.406,6.955,5.205,6.955,8.051C1165.978,868.29,1162.478,872.926,1149.076,869.698z"/>
			<g>
				<g>
					<path fill="#FFFFFF" d="M1183.258,842.854c-4.74,0-12.996,3.313-12.996,13.687c0,8.3,4.037,14.445,13.236,14.445
						c1.934,0,4.658-1.162,6.36-2.335c0.631,1.492,2.087,1.797,2.864,1.797c0.838,0,1.619,0,1.619,0v-8.725v-0.851
						c0-2.319,0-8.652,0-9.555C1194.342,844.855,1187.566,842.854,1183.258,842.854z M1189.551,861.76v3.101
						c-1.91,1.638-3.892,2.272-5.996,2.272c-4.121,0-8.342-1.862-8.342-10.639c0-8.646,5.578-9.786,8.285-9.786
						c2.422,0,6.053,0.709,6.053,5.283c0,2.089,0,6.8,0,8.881V861.76z"/>
				</g>
			</g>
			<g>
				<path fill="#FFFFFF" d="M1230.674,856.682c-0.127,12.138,10.234,11.032,13.078,9.668c1.6-0.772,3.459,1.231,3.744,2.411
					c-11.654,5.518-21.816,0.24-21.771-12.215"/>
				<path fill="#FFFFFF" d="M1225.724,856.546c0-8.667,8.955-18.62,20.93-10.948l-1.926,2.568
					c-7.605-4.364-14.055,2.076-14.055,8.516"/>
			</g>
		</g>
		<g>
			<g>
				<path fill="#FFFFFF" d="M1166.992,795.829c1.775-9.335,9.863-14.847,17.109-15.5c7.459-0.827,11.881,3.455,11.629,7.921
					c-0.33,5.85-5.523,10.861-14.869,11.226c0.129-1.68,0.512-3.433,2.775-3.941c4.744-1.093,8.344-3.667,7.629-8.129
					c-0.439-2.725-4.844-3.601-7.887-3.086c-4.574,0.604-10.152,5.321-11.541,11.461c-3.582,15.85,22.285,13.175,30.496,1.382
					c0.375-6.827-0.592-13.438-3.088-21.009c-13.295-4.384-23.631-4.069-37.373,0c-4.387,13.294-4.07,23.629,0,37.374
					c13.742,4.068,24.078,4.381,37.373,0c1.049-3.54,1.84-6.848,2.375-10.044C1193.31,812.466,1162.896,817.362,1166.992,795.829z"
					/>
			</g>
		</g>
	</g>
</g>
<g>
	<g>
		<g>
			<path d="M637.685,707.84c1.428-7.508,7.928-11.938,13.755-12.463c5.995-0.664,9.55,2.775,9.347,6.369
				c-0.265,4.701-4.44,8.729-11.952,9.025c0.104-1.354,0.411-2.764,2.23-3.174c3.815-0.877,6.71-2.945,6.134-6.531
				c-0.353-2.191-3.896-2.895-6.342-2.482c-3.676,0.486-8.16,4.277-9.278,9.215c-2.884,12.76,17.978,11.139,24.546,0.422
				c0.202-5.248-0.587-10.371-2.512-16.199c-10.685-3.523-18.996-3.275-30.046,0c-3.525,10.686-3.271,18.996,0,30.041
				c11.05,3.275,19.361,3.525,30.046,0c0.937-3.162,1.617-6.096,2.042-8.928C658.914,721.774,634.364,725.293,637.685,707.84z"/>
		</g>
		<image overflow="visible" width="25" height="18" xlink:href="F4C256DB.png"  transform="matrix(1 0 0 1 633.4998 691.5002)">
		</image>
		<image overflow="visible" width="10" height="9" xlink:href="F4C256DD.png"  transform="matrix(1 0 0 1 646.4998 702.5002)">
		</image>
		<image overflow="visible" width="22" height="9" xlink:href="F4C256DE.png"  transform="matrix(1 0 0 1 643.4998 707.5002)">
		</image>
	</g>
	<g>
		<g>
			<path d="M634.174,748.385h-1.129v-8.363h2.403c0.855,0,1.519,0.217,1.987,0.65c0.471,0.432,0.705,1.057,0.705,1.883
				c0,0.369-0.061,0.707-0.182,1.01c-0.12,0.299-0.288,0.557-0.512,0.77c-0.225,0.213-0.494,0.38-0.792,0.5
				c-0.317,0.112-0.666,0.17-1.047,0.17h-1.435V748.385z M635.458,744.051c0.474,0.006,0.836-0.127,1.101-0.398
				c0.263-0.273,0.395-0.654,0.395-1.137c0-0.459-0.142-0.826-0.428-1.105c-0.281-0.277-0.657-0.412-1.112-0.412h-1.239v3.041
				L635.458,744.051z"/>
			<path d="M647.592,748.385h-1.134v-8.363h2.566c0.848,0,1.496,0.197,1.938,0.576c0.438,0.389,0.66,0.957,0.66,1.713
				c0,0.473-0.117,0.896-0.343,1.273c-0.229,0.377-0.6,0.637-1.118,0.771c0.234,0.362,0.438,0.729,0.619,1.096
				c0.171,0.372,0.37,0.786,0.575,1.243l0.8,1.69h-1.26l-0.734-1.615c-0.127-0.28-0.235-0.526-0.33-0.737
				c-0.096-0.209-0.187-0.392-0.266-0.557c-0.08-0.159-0.172-0.3-0.268-0.421c-0.095-0.123-0.206-0.229-0.343-0.337h-1.364V748.385z
				 M648.908,743.746c0.479,0,0.86-0.127,1.13-0.375c0.273-0.256,0.418-0.613,0.418-1.068c0-0.41-0.131-0.732-0.373-0.961
				c-0.258-0.234-0.597-0.344-1.031-0.344h-1.46v2.748H648.908z"/>
		</g>
		<path d="M653.652,748.385v-7.283c0-0.814,0.423-1.09,1.139-1.09v8.373H653.652z"/>
		<path d="M660.41,741.049c-0.103-0.043-0.209-0.08-0.315-0.121c-0.184-0.066-0.367-0.1-0.542-0.1c-0.442,0-0.792,0.109-1.062,0.314
			c-0.258,0.207-0.394,0.496-0.394,0.889c0,0.16,0.021,0.303,0.059,0.418c0.037,0.125,0.114,0.244,0.238,0.357
			c0.116,0.117,0.292,0.234,0.517,0.348c0.228,0.109,0.533,0.238,0.92,0.375c0.39,0.131,0.724,0.283,0.99,0.439
			c0.276,0.164,0.494,0.354,0.658,0.558c0.168,0.203,0.282,0.438,0.354,0.696c0.073,0.268,0.106,0.563,0.106,0.905
			c0,0.361-0.065,0.69-0.19,0.981c-0.138,0.295-0.331,0.546-0.573,0.757c-0.245,0.206-0.541,0.368-0.888,0.48
			c-0.337,0.116-0.715,0.176-1.139,0.176c-0.263,0-0.538-0.045-0.808-0.145c-0.273-0.088-0.526-0.193-0.757-0.306
			c-0.229-0.114-0.487-0.263-0.78-0.448l0.487-0.819c0.217,0.146,0.415,0.275,0.583,0.363c0.173,0.094,0.374,0.178,0.598,0.256
			c0.227,0.078,0.462,0.119,0.7,0.119c0.229,0,0.432-0.036,0.631-0.108c0.191-0.069,0.359-0.164,0.5-0.289
			c0.146-0.124,0.254-0.271,0.334-0.442c0.083-0.168,0.121-0.348,0.121-0.542c0-0.192-0.026-0.368-0.076-0.517
			c-0.057-0.151-0.142-0.296-0.258-0.422c-0.127-0.123-0.293-0.24-0.503-0.347c-0.207-0.111-0.465-0.214-0.78-0.32
			c-0.708-0.224-1.254-0.519-1.633-0.89c-0.378-0.367-0.571-0.877-0.571-1.531c0-0.697,0.228-1.254,0.685-1.654
			c0.446-0.4,1.063-0.605,1.845-0.605c0.223,0,0.46,0.039,0.716,0.113c0.248,0.078,0.477,0.166,0.688,0.254
			c0.213,0.084,0.452,0.211,0.733,0.363C661.464,741.02,660.972,741.285,660.41,741.049z"/>
		<path d="M641.677,740.012h0.391l2.815,8.373H643.7l-0.728-2.257h-3.227l-0.671,2.257h-1.092l2.594-7.633
			C640.849,739.936,641.219,740.012,641.677,740.012z M641.381,741.133l-1.333,4.098h2.645L641.381,741.133z"/>
	</g>
	<path d="M657.645,939.436c-0.881-3.117,1.26-3.537,2.467-3.83c4.741,11.798-0.083,22.937-12.822,22.892
		c-7.658-0.027-13.38-5.741-14.009-12.4c-0.849-7.383,3.715-11.649,8.284-12.146c5.979-0.649,9.269,5.437,8.733,15.109
		c-1.722,0.154-3.591-0.654-3.597-2.688c0.006-4.104-1.461-9.337-6.361-7.601c-2.551,0.905-3.357,4.878-2.979,7.382
		c0.678,4.313,5.158,7.42,9.879,7.472C659.649,953.757,658.424,942.183,657.645,939.436z"/>
	<path d="M657.645,760.009c-0.881-3.12,1.26-3.537,2.467-3.833c4.741,11.801-0.083,22.937-12.822,22.896
		c-7.658-0.027-13.382-5.563-14.016-12.224c-0.849-7.383,3.722-11.829,8.291-12.321c5.979-0.65,9.269,5.432,8.733,15.106
		c-1.722,0.154-3.591-0.652-3.597-2.686c0.006-4.107-1.461-9.337-6.361-7.601c-2.551,0.905-3.359,5.054-2.981,7.56
		c0.674,4.313,5.161,7.24,9.882,7.29C659.649,774.33,658.424,762.755,657.645,760.009z"/>
	<path d="M637.32,910.827h24.62v4.705h-28.172c0,0,0-0.603,0-1.46C633.768,913.035,634.286,910.827,637.32,910.827z"/>
	<path d="M636.957,819.371c0,2.973,1.21,5.951,4.964,5.951h20.02v4.762h-20.901c-4.452,0-7.888-4.265-7.888-10.573
		c0-5.993,2.708-10.855,7.888-10.855h20.901v2.381c0,0.681-0.22,1.24-0.648,1.669c-0.432,0.429-0.981,0.645-1.665,0.645h-17.706
		C638.302,813.35,636.957,816.168,636.957,819.371z"/>
	<path d="M626.052,923.104h35.888v4.704h-39.442c0,0,0-0.602,0-1.459C622.498,925.316,623.016,923.104,626.052,923.104z"/>
	<path d="M660.623,903.557l-3.141-1.088c1.453-7.333,0.674-11.449-3.789-11.405c-3.232,0.033-4.308,5.593-6.181,9.041
		c-1.546,2.852-3.215,4.49-6.74,4.49c-6.543,0-7.587-6.006-7.604-9.303c-0.016-2.86,0.178-4.087,0.491-6.47
		c2.369,0.774,3.512,1.733,3.222,4.433c-0.412,3.819,0.7,7.041,3.436,7.041c2.783,0,3.505-2.662,5.428-6.914
		c2.46-5.441,5.323-7.113,8.234-7.113C659.183,886.269,663.925,889.85,660.623,903.557z"/>
	<path d="M660.623,881.978l-3.141-1.089c1.453-7.333,0.674-11.449-3.789-11.404c-3.232,0.033-4.308,5.593-6.181,9.042
		c-1.546,2.852-3.215,4.49-6.74,4.49c-6.543,0-7.587-6.008-7.604-9.304c-0.016-2.86,0.178-4.086,0.491-6.471
		c2.369,0.776,3.512,1.736,3.222,4.435c-0.412,3.818,0.7,7.042,3.436,7.042c2.783,0,3.505-2.663,5.428-6.915
		c2.46-5.442,5.323-7.113,8.234-7.113C659.183,864.691,663.925,868.271,660.623,881.978z"/>
	<g>
		<g>
			<path d="M659.552,840.269c1.526-0.646,1.838-2.136,1.838-2.931c0-0.856,0-1.655,0-1.655h-8.923h-0.87c-2.373,0-8.85,0-9.771,0
				c-6.609,0-8.657,6.929-8.657,11.337c0,4.847,3.391,13.29,13.999,13.29c8.488,0,14.773-4.128,14.773-13.536
				C661.94,844.796,660.751,842.01,659.552,840.269z M647.119,855.245c-8.843,0-10.008-5.704-10.008-8.472
				c0-2.479,0.724-6.19,5.403-6.19c2.135,0,6.953,0,9.082,0h0.909h3.171c1.674,1.953,2.323,3.981,2.323,6.131
				C658,850.928,656.095,855.245,647.119,855.245z"/>
		</g>
	</g>
	<g>
		<path d="M647.311,798.524c12.413,0.13,11.283-10.467,9.888-13.375c-0.791-1.635,1.26-3.537,2.466-3.83
			c5.644,11.92,0.246,22.313-12.492,22.269"/>
		<path d="M647.173,803.587c-8.864,0-19.044-9.16-11.2-21.408l2.629,1.971c-4.463,7.779,2.124,14.374,8.71,14.374"/>
	</g>
</g>
<line fill="none" stroke="#ADADAD" stroke-miterlimit="10" x1="611.5" y1="626.115" x2="43.248" y2="626.115"/>
<line fill="none" stroke="#ADADAD" stroke-miterlimit="10" x1="1453.248" y1="626.115" x2="884.5" y2="626.115"/>
<text transform="matrix(1 0 0 1 631.5847 631.2122)" fill="#ADADAD" font-family="'Steradian-Regular'" font-size="17.1474">Déclinaisons pour packaging</text>
</svg>
