<?xml version="1.0" encoding="utf-8"?>
<!-- Generator: Adobe Illustrator 16.0.0, SVG Export Plug-In . SVG Version: 6.00 Build 0)  -->
<!DOCTYPE svg PUBLIC "-//W3C//DTD SVG 1.1//EN" "http://www.w3.org/Graphics/SVG/1.1/DTD/svg11.dtd">
<svg version="1.1" id="Layer_1" xmlns="http://www.w3.org/2000/svg" xmlns:xlink="http://www.w3.org/1999/xlink" x="0px" y="0px"
	 width="1500px" height="1000px" viewBox="0 0 1500 1000" enable-background="new 0 0 1500 1000" xml:space="preserve">
<g>
	<rect x="777.431" y="629.492" width="682.568" height="334.243"/>
</g>
<g>
	<rect x="35.626" y="629.492" fill="#B92D50" width="682.568" height="334.243"/>
</g>
<g>
	<g>
		<g>
			<g>
				<path fill="#B92D50" d="M1077.277,392.663h-0.088c-8.888,0-15.871-6.848-15.871-16.096c0-6.245,2.614-10.26,6.363-12.962
					l4.935,6.368c-2.183,1.747-3.574,3.76-3.574,6.676c0,4.281,3.611,7.283,8.062,7.283h0.088c4.586,0,8.16-3.002,8.16-7.283
					c0-3.183-1.479-5.054-3.699-6.882l4.531-6.375c3.965,2.884,6.893,6.757,6.893,13.522
					C1093.075,385.635,1086.4,392.663,1077.277,392.663z"/>
				<path fill="#B92D50" d="M1077.277,361.673h-0.088c-8.758,0-15.871-7.065-15.871-16.494c0-9.411,7.021-16.396,15.783-16.396
					h0.089c8.773,0,15.885,7.065,15.885,16.494C1093.075,354.688,1086.047,361.673,1077.277,361.673z M1077.277,337.422h-0.088
					c-4.398,0-8.239,3.182-8.239,7.855c0,4.624,3.747,7.713,8.151,7.713h0.088c4.412,0,8.254-3.183,8.254-7.813
					C1085.443,340.523,1081.684,337.422,1077.277,337.422z"/>
			</g>
			<g>
				<g>
					<path fill="#B92D50" d="M1061.922,325.737v-1.881l16.537-15.516l-16.537-14.992v-1.893h30.544v8.42h-10.477l9.595,8.465v0.174
						l-9.508,8.943h10.39v8.279H1061.922L1061.922,325.737z"/>
				</g>
			</g>
		</g>
		<path fill="#B92D50" d="M1089.163,393.805c-2.158,0-3.905,1.746-3.905,3.9c0,2.165,1.747,3.917,3.905,3.917
			c2.165,0,3.912-1.751,3.912-3.917C1093.075,395.551,1091.328,393.805,1089.163,393.805z"/>
	</g>
	<g>
		<path d="M759.094,278.743H739.99v-72.599h30.26c8.259,0,14.972,2.062,20.236,6.299c5.267,4.232,7.85,9.911,7.85,17.038
			c0,5.059-1.344,9.498-4.029,13.219c-2.787,3.818-6.506,6.506-11.25,8.257l19.202,27.786h-23.13l-20.035-30.261V278.743
			L759.094,278.743z M758.991,222.871v14.868h10.119c2.79,0,4.962-0.718,6.712-2.063c1.652-1.344,2.479-3.205,2.479-5.576
			c0-2.17-0.827-4.025-2.479-5.375c-1.544-1.338-3.819-1.958-6.604-1.958L758.991,222.871z"/>
		<path d="M525.823,206.448h20.137v72.295h-20.137V206.448z"/>
		<path d="M553.717,266.76l11.152-13.322c7.125,5.68,15.079,8.677,23.445,8.677c5.375,0,8.263-1.861,8.263-4.956v-0.207
			c0-2.997-2.377-4.646-12.191-6.919c-15.383-3.515-27.258-7.85-27.258-22.722v-0.207c0-13.425,10.635-23.136,27.988-23.136
			c12.288,0,21.889,3.307,29.737,9.607l-10.014,14.149c-6.615-4.651-13.838-7.126-20.247-7.126c-4.853,0-7.224,2.067-7.224,4.651
			v0.207c0,3.303,2.479,4.744,12.495,7.017c16.63,3.618,26.954,8.988,26.954,22.516v0.207c0,14.769-11.674,23.548-29.229,23.548
			C574.785,278.743,562.6,274.712,553.717,266.76z"/>
		<path d="M637.74,224.009h-17.581v-17.561h55.186v17.561h-17.576v54.734H637.74V224.009z"/>
		<path d="M683.384,206.448h45.124v17.043h-25.295v10.945h25.295v15.802h-25.295v11.461h25.295v17.042h-45.124V206.448z"/>
		<path d="M442.49,206.448h17.745l10.804,33.069l26.333-33.069h14.035v72.295h-24.342v-27.825l-22.157,27.825h-6.789L447.941,247.9
			l-16.531,30.843h-29.582L442.49,206.448z"/>
	</g>
	<g>
		<g>
			<path fill="#B92D50" d="M442.621,449.06v-22.347h8.235c2.225,0,4.004,0.509,5.375,1.526c1.364,0.984,2.062,2.353,2.062,4.067
				c0,2.32-1.268,4.133-3.59,5.149c3.019,0.764,4.771,2.798,4.771,5.499c0,1.877-0.701,3.337-2.1,4.45
				c-1.366,1.111-3.177,1.653-5.402,1.653L442.621,449.06L442.621,449.06z M450.541,429.224h-4.868v7.278h4.993
				c2.704,0,4.515-1.431,4.515-3.75C455.181,430.592,453.337,429.224,450.541,429.224z M451.586,438.95h-5.913v7.599h5.913
				c2.834,0,4.738-1.496,4.738-3.911C456.323,440.38,454.42,438.95,451.586,438.95z"/>
			<path fill="#B92D50" d="M474.84,449.06v-2.287c-1.175,1.684-3.176,2.668-5.369,2.668c-1.561,0-2.861-0.413-3.879-1.271
				c-0.984-0.859-1.496-1.938-1.496-3.275c0-2.638,1.654-4.324,5.185-5.118l5.467-1.271v-0.224c0-1.907-1.464-3.179-3.656-3.179
				c-2.034,0-3.563,1.178-3.813,2.955h-2.802c0.163-1.558,0.859-2.86,2.101-3.878c1.24-1.047,2.763-1.556,4.547-1.556
				c4.069,0,6.484,2.32,6.484,6.008v10.426L474.84,449.06L474.84,449.06z M466.039,430.877l3.688-4.61h2.606l3.715,4.61h-2.604
				l-2.383-2.956l-2.447,2.956H466.039z M473.383,445.563c0.919-0.984,1.366-2.131,1.366-3.495v-1.179l-4.738,1.112
				c-2.002,0.479-3.019,1.368-3.019,2.639c0,1.496,1.115,2.386,3.019,2.386C471.348,447.025,472.457,446.549,473.383,445.563z"/>
			<path fill="#B92D50" d="M484.838,433.007v-4.991l2.927-0.698v5.689h4.194v2.606h-4.194v8.265c0,2.192,0.729,2.989,2.605,2.989
				c0.794,0,1.497-0.256,2.35-0.797v2.607c-0.92,0.54-1.812,0.763-2.954,0.763c-3.307,0-4.929-1.779-4.929-5.372v-8.456h-2.703
				v-2.606L484.838,433.007L484.838,433.007z"/>
			<path fill="#B92D50" d="M499.124,425.887c1.24,0,2.067,0.856,2.067,2.001c0,1.146-0.893,2.001-2.067,2.001
				s-2.067-0.856-2.067-2.001C497.056,426.743,497.884,425.887,499.124,425.887z M500.586,449.06h-2.926v-16.053h2.926V449.06z"/>
			<path fill="#B92D50" d="M510.319,449.06h-2.928v-16.053h2.804v2.288c1.108-1.684,2.92-2.668,4.954-2.668
				c2.448,0,4.391,1.143,5.375,3.147c1.109-2.005,3.084-3.147,5.467-3.147c1.844,0,3.307,0.571,4.417,1.746
				c1.115,1.145,1.653,2.671,1.653,4.547v10.141h-2.926v-9.696c0-2.512-1.432-4.069-3.846-4.069c-2.448,0-4.096,1.94-4.096,4.577
				v9.188h-2.927v-9.696c0-2.512-1.432-4.069-3.846-4.069c-2.448,0-4.102,1.94-4.102,4.577L510.319,449.06L510.319,449.06z"/>
			<path fill="#B92D50" d="M550.746,444.006h2.894c-1.114,3.337-4.102,5.436-7.888,5.436c-2.382,0-4.384-0.794-6.005-2.415
				c-1.588-1.621-2.383-3.624-2.383-6.009c0-2.319,0.827-4.321,2.447-5.945c1.622-1.621,3.624-2.445,5.974-2.445
				c2.383,0,4.357,0.794,5.913,2.35c1.556,1.559,2.355,3.531,2.355,5.852v1.017h-13.801c0.164,1.493,0.767,2.734,1.784,3.688
				c1.045,0.921,2.285,1.396,3.748,1.396C547.979,446.93,549.854,445.817,550.746,444.006z M540.417,439.428h10.679
				c-0.637-2.67-2.671-4.292-5.31-4.292C543.146,435.137,541.08,436.853,540.417,439.428z"/>
			<path fill="#B92D50" d="M562.464,449.06h-2.927v-16.053h2.802v2.257c1.143-1.686,2.986-2.638,5.113-2.638
				c1.877,0,3.372,0.571,4.481,1.746c1.116,1.145,1.688,2.671,1.688,4.547v10.141H570.7v-9.474c0-2.701-1.432-4.292-3.977-4.292
				c-2.541,0-4.26,1.94-4.26,4.577V449.06z"/>
			<path fill="#B92D50" d="M580.85,433.007v-4.991l2.927-0.698v5.689h4.194v2.606h-4.194v8.265c0,2.192,0.729,2.989,2.605,2.989
				c0.794,0,1.496-0.256,2.351-0.797v2.607c-0.918,0.54-1.812,0.763-2.954,0.763c-3.308,0-4.929-1.779-4.929-5.372v-8.456h-2.702
				v-2.606L580.85,433.007L580.85,433.007z"/>
		</g>
		<g>
			<path fill="#B92D50" d="M658.122,426.713h3.242l8.518,22.347h-3.273l-2.002-5.467h-9.917l-2.001,5.467h-3.118L658.122,426.713z
				 M663.654,441.017l-4.003-10.839l-4.011,10.839H663.654z"/>
			<path fill="#B92D50" d="M684.973,442.192v-9.187h2.922v16.053h-2.797v-2.287c-1.109,1.684-2.922,2.668-4.956,2.668
				c-1.812,0-3.274-0.571-4.391-1.717c-1.11-1.175-1.653-2.7-1.653-4.576v-10.141h2.928v9.473c0,2.64,1.431,4.292,3.813,4.292
				C683.286,446.772,684.973,444.833,684.973,442.192z"/>
			<path fill="#B92D50" d="M695.51,433.007v-4.991l2.928-0.698v5.689h4.193v2.606h-4.193v8.265c0,2.192,0.729,2.989,2.604,2.989
				c0.794,0,1.497-0.256,2.351-0.797v2.607c-0.919,0.54-1.811,0.763-2.953,0.763c-3.309,0-4.93-1.779-4.93-5.372v-8.456h-2.704
				v-2.606L695.51,433.007L695.51,433.007z"/>
			<path fill="#B92D50" d="M709.223,435.042c1.622-1.622,3.655-2.416,6.104-2.416c2.447,0,4.481,0.824,6.104,2.445
				c1.622,1.624,2.447,3.593,2.447,5.945c0,2.386-0.826,4.388-2.447,6.009c-1.62,1.621-3.655,2.415-6.104,2.415
				s-4.482-0.794-6.104-2.415s-2.447-3.624-2.447-6.009C706.775,438.634,707.602,436.663,709.223,435.042z M719.33,436.981
				c-1.083-1.113-2.415-1.654-4.003-1.654c-1.593,0-2.927,0.541-4.042,1.654c-1.077,1.111-1.621,2.446-1.621,4.035
				c0,1.621,0.544,2.956,1.621,4.069c1.082,1.112,2.421,1.653,4.042,1.653c1.622,0,2.954-0.541,4.037-1.653
				c1.077-1.113,1.62-2.449,1.62-4.069C720.984,439.428,720.441,438.093,719.33,436.981z"/>
			<path fill="#B92D50" d="M732.282,449.06h-2.927v-16.053h2.803v2.288c1.108-1.684,2.922-2.668,4.955-2.668
				c2.447,0,4.391,1.143,5.374,3.147c1.109-2.005,3.084-3.147,5.467-3.147c1.845,0,3.309,0.571,4.418,1.746
				c1.115,1.145,1.653,2.671,1.653,4.547v10.141h-2.927v-9.696c0-2.512-1.432-4.069-3.846-4.069c-2.449,0-4.098,1.94-4.098,4.577
				v9.188h-2.925v-9.696c0-2.512-1.432-4.069-3.848-4.069c-2.449,0-4.103,1.94-4.103,4.577v9.188H732.282z"/>
			<path fill="#B92D50" d="M761.777,435.042c1.621-1.622,3.654-2.416,6.104-2.416c2.446,0,4.483,0.824,6.104,2.445
				c1.621,1.624,2.447,3.593,2.447,5.945c0,2.386-0.826,4.388-2.447,6.009c-1.619,1.621-3.656,2.415-6.104,2.415
				c-2.448,0-4.481-0.794-6.104-2.415c-1.621-1.621-2.448-3.624-2.448-6.009C759.329,438.634,760.156,436.663,761.777,435.042z
				 M771.885,436.981c-1.084-1.113-2.415-1.654-4.004-1.654c-1.595,0-2.927,0.541-4.041,1.654c-1.078,1.111-1.622,2.446-1.622,4.035
				c0,1.621,0.544,2.956,1.622,4.069c1.082,1.112,2.42,1.653,4.041,1.653c1.62,0,2.953-0.541,4.035-1.653
				c1.077-1.113,1.621-2.449,1.621-4.069C773.537,439.428,772.993,438.093,771.885,436.981z"/>
			<path fill="#B92D50" d="M784.711,449.06h-2.802v-23.555h2.928v10.107c1.431-1.907,3.621-2.987,6.136-2.987
				c2.317,0,4.227,0.794,5.756,2.383c1.556,1.591,2.316,3.592,2.316,5.977c0,2.417-0.762,4.419-2.316,6.041
				c-1.563,1.621-3.498,2.415-5.854,2.415c-2.541,0-4.733-1.113-6.164-3.147V449.06L784.711,449.06z M794.404,436.948
				c-1.082-1.113-2.415-1.654-4.036-1.654c-1.62,0-2.959,0.541-4.035,1.654c-1.051,1.111-1.595,2.446-1.595,4.068
				c0,1.621,0.544,2.989,1.595,4.103c1.076,1.112,2.415,1.653,4.035,1.653c1.621,0,2.954-0.541,4.036-1.653
				c1.082-1.113,1.622-2.481,1.622-4.103C796.026,439.396,795.486,438.06,794.404,436.948z"/>
			<path fill="#B92D50" d="M806.09,425.887c1.24,0,2.066,0.856,2.066,2.001c0,1.146-0.893,2.001-2.066,2.001
				c-1.176,0-2.066-0.856-2.066-2.001C804.021,426.743,804.848,425.887,806.09,425.887z M807.552,449.06h-2.926v-16.053h2.926
				V449.06z"/>
			<path fill="#B92D50" d="M814.423,425.505h2.928v23.555h-2.928V425.505z"/>
			<path fill="#B92D50" d="M836.275,444.006h2.895c-1.117,3.337-4.104,5.436-7.888,5.436c-2.384,0-4.388-0.794-6.008-2.415
				c-1.587-1.621-2.383-3.624-2.383-6.009c0-2.319,0.827-4.321,2.447-5.945c1.622-1.621,3.623-2.445,5.976-2.445
				c2.383,0,4.354,0.794,5.911,2.35c1.557,1.559,2.355,3.531,2.355,5.852v1.017H825.78c0.163,1.493,0.767,2.734,1.784,3.688
				c1.045,0.921,2.284,1.396,3.748,1.396C833.506,446.93,835.383,445.817,836.275,444.006z M825.944,439.428h10.678
				c-0.637-2.67-2.671-4.292-5.308-4.292C828.676,435.137,826.608,436.853,825.944,439.428z"/>
		</g>
		<g>
			<path fill="#B92D50" d="M908.384,449.06h-3.052v-22.347h3.052V449.06z"/>
			<path fill="#B92D50" d="M918.251,449.06h-2.926v-16.053h2.802v2.257c1.142-1.686,2.986-2.638,5.114-2.638
				c1.876,0,3.371,0.571,4.48,1.746c1.115,1.145,1.688,2.671,1.688,4.547v10.141h-2.927v-9.474c0-2.701-1.427-4.292-3.973-4.292
				c-2.541,0-4.26,1.94-4.26,4.577L918.251,449.06L918.251,449.06z"/>
			<path fill="#B92D50" d="M937.018,447.058c-1.521-1.591-2.291-3.593-2.291-5.979c0-2.415,0.77-4.417,2.324-6.038
				c1.557-1.622,3.497-2.416,5.849-2.416c2.447,0,4.612,1.047,6.044,2.957v-10.077h2.92v23.555h-2.763v-2.828
				c-1.431,2.034-3.722,3.209-6.295,3.209C940.484,449.44,938.58,448.646,937.018,447.058z M939.375,445.119
				c1.076,1.112,2.414,1.653,4.035,1.653c1.622,0,2.955-0.541,4.004-1.653c1.083-1.113,1.621-2.448,1.621-4.069
				c0-1.622-0.538-2.99-1.621-4.102c-1.049-1.113-2.382-1.654-4.004-1.654c-1.621,0-2.959,0.574-4.035,1.688
				c-1.083,1.111-1.621,2.446-1.621,4.068C937.754,442.671,938.292,444.006,939.375,445.119z"/>
			<path fill="#B92D50" d="M969.303,442.192v-9.187h2.922v16.053h-2.797v-2.287c-1.108,1.684-2.92,2.668-4.955,2.668
				c-1.816,0-3.273-0.571-4.39-1.717c-1.11-1.175-1.654-2.7-1.654-4.576v-10.141h2.929v9.473c0,2.64,1.43,4.292,3.813,4.292
				C967.618,446.772,969.303,444.833,969.303,442.192z"/>
			<path fill="#B92D50" d="M990.525,437.647h-2.992c-0.033-1.779-1.144-2.672-3.275-2.672c-1.87,0-3.144,0.827-3.144,2.067
				c0,1.146,0.57,1.716,2.985,2.258l1.941,0.445c3.465,0.794,4.798,2.16,4.798,4.578c0,3.177-2.512,5.116-6.327,5.116
				c-4.292,0-6.799-1.97-6.929-5.53h3.052c0.03,2.063,1.397,3.177,3.786,3.177c2.159,0,3.464-0.921,3.464-2.477
				c0-1.179-0.668-1.846-2.671-2.321l-2.354-0.541c-3.4-0.764-4.675-2.096-4.675-4.482c0-2.799,2.515-4.64,6.104-4.64
				C988.076,432.626,990.362,434.438,990.525,437.647z"/>
			<path fill="#B92D50" d="M997.242,433.007v-4.991l2.927-0.698v5.689h4.194v2.606h-4.194v8.265c0,2.192,0.729,2.989,2.606,2.989
				c0.795,0,1.494-0.256,2.35-0.797v2.607c-0.92,0.54-1.813,0.763-2.953,0.763c-3.309,0-4.93-1.779-4.93-5.372v-8.456h-2.703v-2.606
				L997.242,433.007L997.242,433.007z"/>
			<path fill="#B92D50" d="M1012.926,440.636v8.424h-2.927v-16.053h2.801v2.986c1.045-2.064,2.89-3.209,5.146-3.209
				c0.289,0,0.604,0.033,0.828,0.063v2.768c-0.382-0.03-0.638-0.063-0.888-0.063C1014.861,435.55,1012.926,437.68,1012.926,440.636z
				"/>
			<path fill="#B92D50" d="M1025.209,425.887c1.24,0,2.066,0.856,2.066,2.001c0,1.146-0.893,2.001-2.066,2.001
				s-2.068-0.856-2.068-2.001C1023.14,426.743,1023.968,425.887,1025.209,425.887z M1026.672,449.06h-2.928v-16.053h2.928V449.06z"
				/>
			<path fill="#B92D50" d="M1045.592,444.006h2.895c-1.115,3.337-4.103,5.436-7.889,5.436c-2.383,0-4.384-0.794-6.005-2.415
				c-1.589-1.621-2.383-3.624-2.383-6.009c0-2.319,0.826-4.321,2.447-5.945c1.621-1.621,3.623-2.445,5.973-2.445
				c2.384,0,4.358,0.794,5.913,2.35c1.557,1.559,2.354,3.531,2.354,5.852v1.017h-13.8c0.163,1.493,0.768,2.734,1.784,3.688
				c1.044,0.921,2.284,1.396,3.747,1.396C1042.822,446.93,1044.699,445.817,1045.592,444.006z M1035.261,439.428h10.679
				c-0.638-2.67-2.671-4.292-5.311-4.292C1037.992,435.137,1035.924,436.853,1035.261,439.428z"/>
		</g>
		<path fill="#B92D50" d="M627.349,439.135c0,2.579-2.094,4.656-4.655,4.656c-2.573,0-4.651-2.078-4.651-4.656
			c0-2.567,2.078-4.65,4.651-4.65C625.255,434.484,627.349,436.567,627.349,439.135z"/>
		<path fill="#B92D50" d="M880.718,439.135c0,2.579-2.078,4.656-4.663,4.656c-2.562,0-4.645-2.078-4.645-4.656
			c0-2.567,2.083-4.65,4.645-4.65C878.639,434.484,880.718,436.567,880.718,439.135z"/>
	</g>
	<g>
		<polygon fill="#FFFFFF" points="401.849,375.337 384.606,406.626 414.187,406.626 416.38,402.459 401.849,402.459 		"/>
		<path fill="#B92D50" d="M735.535,328.017l-10.227,0.104v14.868h10.117c2.791,0,4.963-0.719,6.714-2.063
			c1.653-1.344,2.479-3.205,2.479-5.576c0-2.17-0.826-4.024-2.479-5.375C740.594,328.637,738.32,328.017,735.535,328.017z"/>
		<polygon fill="#B92D50" points="544.051,360.427 553.896,360.427 549.137,348.617 		"/>
		<polygon fill="#B92D50" points="840.669,360.427 850.515,360.427 845.756,348.617 		"/>
		<path fill="#B92D50" d="M401.849,291.456v83.881l35.071-63.64h17.745l10.803,33.067l26.333-33.067h14.035v72.294h-24.343v-27.825
			l-22.156,27.825h-6.789l-10.178-30.843l-25.99,49.311h0.021l-13.007,24.708l30.816-24.708h615.188V291.456H401.849z
			 M563.394,383.992l-3.884-9.64h-21.46l-4.149,9.64h-21.063l32.416-72.805h8.247l31.377,72.805H563.394z M640.188,329.257h-21.688
			v54.735H598.47v-54.735h-21.693v-17.56h63.411V329.257L640.188,329.257z M695.755,328.74H670.46v10.944h25.295v15.803H670.46
			v11.461h25.295v17.043h-45.128v-72.294h45.128V328.74z M745.447,383.992l-20.035-30.261v30.261h-19.104v-72.6h30.261
			c8.258,0,14.972,2.063,20.236,6.301c5.266,4.231,7.85,9.91,7.85,17.037c0,5.059-1.344,9.497-4.029,13.219
			c-2.787,3.818-6.507,6.505-11.25,8.257l19.202,27.787L745.447,383.992L745.447,383.992z M797.413,383.992h-20.138v-72.294h20.138
			V383.992z M860.013,383.992l-3.885-9.64H834.67l-4.15,9.64h-21.063l32.416-72.805h8.246l31.377,72.805H860.013z M952.109,351.767
			c0,23.343-13.327,33.563-33.879,33.563c-20.553,0-33.455-10.428-33.455-33.041v-40.592h20.345v40.178
			c0,10.428,5.266,15.384,13.316,15.384c8.063,0,13.327-4.75,13.327-14.873v-40.688h20.346V351.767L952.109,351.767z
			 M1008.009,383.992L994.17,362.2l-13.943,21.792h-22.515l24.784-36.768l-23.751-35.526h23.031l12.807,20.345l12.908-20.345h22.515
			l-23.756,35.32l24.784,36.975L1008.009,383.992L1008.009,383.992z"/>
	</g>
</g>
<g>
	<g>
		<g>
			<path fill="#FFFFFF" d="M242.456,854.44v-10.024h3.694c0.998,0,1.796,0.229,2.411,0.686c0.612,0.441,0.925,1.057,0.925,1.825
				c0,1.042-0.568,1.853-1.61,2.311c1.354,0.342,2.14,1.255,2.14,2.465c0,0.845-0.315,1.499-0.942,1.996
				c-0.613,0.501-1.425,0.742-2.423,0.742H242.456z M246.009,845.543h-2.184v3.266h2.24c1.213,0,2.026-0.643,2.026-1.685
				C248.091,846.158,247.263,845.543,246.009,845.543z M246.478,849.906h-2.652v3.409h2.652c1.271,0,2.125-0.671,2.125-1.755
				C248.603,850.548,247.749,849.906,246.478,849.906z"/>
			<path fill="#FFFFFF" d="M256.91,854.44v-1.025c-0.527,0.757-1.425,1.196-2.409,1.196c-0.7,0-1.283-0.186-1.74-0.568
				c-0.442-0.386-0.671-0.871-0.671-1.47c0-1.184,0.742-1.939,2.326-2.296l2.452-0.571v-0.098c0-0.856-0.656-1.428-1.64-1.428
				c-0.913,0-1.599,0.53-1.711,1.325h-1.256c0.073-0.697,0.385-1.283,0.942-1.737c0.556-0.471,1.239-0.698,2.04-0.698
				c1.825,0,2.909,1.04,2.909,2.694v4.676H256.91z M252.961,846.285l1.654-2.069h1.169l1.667,2.069h-1.169l-1.069-1.328
				l-1.098,1.328H252.961z M256.256,852.874c0.412-0.444,0.612-0.957,0.612-1.569v-0.529l-2.125,0.5
				c-0.898,0.215-1.354,0.612-1.354,1.184c0,0.671,0.5,1.068,1.354,1.068C255.343,853.527,255.841,853.315,256.256,852.874z"/>
			<path fill="#FFFFFF" d="M261.395,847.241v-2.24l1.313-0.312v2.552h1.881v1.167h-1.881v3.709c0,0.983,0.327,1.342,1.169,1.342
				c0.356,0,0.671-0.117,1.054-0.358v1.169c-0.413,0.244-0.813,0.342-1.325,0.342c-1.484,0-2.211-0.796-2.211-2.409v-3.794h-1.213
				v-1.167H261.395z"/>
			<path fill="#FFFFFF" d="M267.803,844.045c0.556,0,0.927,0.386,0.927,0.897c0,0.516-0.4,0.898-0.927,0.898
				s-0.927-0.383-0.927-0.898C266.876,844.431,267.247,844.045,267.803,844.045z M268.459,854.44h-1.313v-7.199h1.313V854.44z"/>
			<path fill="#FFFFFF" d="M272.825,854.44h-1.313v-7.199h1.256v1.025c0.498-0.757,1.311-1.196,2.223-1.196
				c1.098,0,1.969,0.513,2.411,1.411c0.498-0.898,1.384-1.411,2.453-1.411c0.827,0,1.483,0.254,1.981,0.781
				c0.5,0.515,0.742,1.2,0.742,2.04v4.549h-1.313v-4.349c0-1.128-0.642-1.825-1.725-1.825c-1.098,0-1.837,0.868-1.837,2.055v4.119
				h-1.313v-4.349c0-1.128-0.642-1.825-1.726-1.825c-1.098,0-1.84,0.868-1.84,2.055V854.44z"/>
			<path fill="#FFFFFF" d="M290.961,852.176h1.298c-0.5,1.496-1.84,2.436-3.539,2.436c-1.069,0-1.967-0.356-2.694-1.084
				c-0.713-0.727-1.069-1.625-1.069-2.693c0-1.04,0.371-1.938,1.098-2.668c0.727-0.727,1.625-1.096,2.679-1.096
				c1.069,0,1.955,0.356,2.653,1.055c0.698,0.698,1.057,1.581,1.057,2.623v0.456h-6.191c0.073,0.669,0.344,1.226,0.8,1.655
				c0.469,0.414,1.025,0.627,1.681,0.627C289.719,853.486,290.562,852.986,290.961,852.176z M286.328,850.121h4.79
				c-0.286-1.198-1.198-1.926-2.382-1.926C287.553,848.195,286.625,848.964,286.328,850.121z"/>
			<path fill="#FFFFFF" d="M296.218,854.44h-1.313v-7.199h1.256v1.011c0.513-0.757,1.34-1.182,2.294-1.182
				c0.842,0,1.513,0.254,2.011,0.781c0.5,0.515,0.757,1.2,0.757,2.04v4.549h-1.311v-4.249c0-1.213-0.642-1.925-1.784-1.925
				c-1.14,0-1.911,0.868-1.911,2.055V854.44z"/>
			<path fill="#FFFFFF" d="M304.466,847.241v-2.24l1.313-0.312v2.552h1.882v1.167h-1.882v3.709c0,0.983,0.327,1.342,1.169,1.342
				c0.356,0,0.671-0.117,1.054-0.358v1.169c-0.412,0.244-0.813,0.342-1.325,0.342c-1.483,0-2.21-0.796-2.21-2.409v-3.794h-1.213
				v-1.167H304.466z"/>
		</g>
		<g>
			<path fill="#FFFFFF" d="M339.13,844.416h1.455l3.821,10.024h-1.469l-0.898-2.45h-4.448l-0.898,2.45h-1.398L339.13,844.416z
				 M341.612,850.834l-1.796-4.861l-1.798,4.861H341.612z"/>
			<path fill="#FFFFFF" d="M351.176,851.36v-4.119h1.311v7.199h-1.254v-1.025c-0.498,0.757-1.311,1.196-2.223,1.196
				c-0.813,0-1.469-0.254-1.969-0.769c-0.498-0.527-0.742-1.213-0.742-2.053v-4.549h1.313v4.249c0,1.184,0.642,1.925,1.711,1.925
				C350.419,853.415,351.176,852.547,351.176,851.36z"/>
			<path fill="#FFFFFF" d="M355.902,847.241v-2.24l1.313-0.312v2.552h1.881v1.167h-1.881v3.709c0,0.983,0.327,1.342,1.169,1.342
				c0.356,0,0.671-0.117,1.054-0.358v1.169c-0.413,0.244-0.813,0.342-1.325,0.342c-1.483,0-2.211-0.796-2.211-2.409v-3.794h-1.213
				v-1.167H355.902z"/>
			<path fill="#FFFFFF" d="M362.055,848.154c0.727-0.728,1.64-1.084,2.738-1.084s2.011,0.369,2.738,1.096
				c0.728,0.73,1.098,1.613,1.098,2.668c0,1.068-0.371,1.967-1.098,2.693c-0.727,0.728-1.64,1.084-2.738,1.084
				s-2.011-0.356-2.738-1.084c-0.728-0.727-1.098-1.625-1.098-2.693C360.957,849.765,361.327,848.882,362.055,848.154z
				 M366.588,849.022c-0.485-0.497-1.083-0.741-1.796-0.741c-0.715,0-1.313,0.244-1.813,0.741c-0.483,0.498-0.728,1.099-0.728,1.812
				c0,0.727,0.244,1.327,0.728,1.825c0.485,0.497,1.086,0.741,1.813,0.741s1.325-0.244,1.811-0.741
				c0.483-0.498,0.728-1.099,0.728-1.825C367.331,850.121,367.086,849.521,366.588,849.022z"/>
			<path fill="#FFFFFF" d="M372.399,854.44h-1.313v-7.199h1.257v1.025c0.498-0.757,1.311-1.196,2.223-1.196
				c1.098,0,1.969,0.513,2.411,1.411c0.498-0.898,1.384-1.411,2.453-1.411c0.828,0,1.484,0.254,1.981,0.781
				c0.5,0.515,0.742,1.2,0.742,2.04v4.549h-1.313v-4.349c0-1.128-0.642-1.825-1.726-1.825c-1.098,0-1.837,0.868-1.837,2.055v4.119
				h-1.313v-4.349c0-1.128-0.642-1.825-1.725-1.825c-1.098,0-1.84,0.868-1.84,2.055V854.44z"/>
			<path fill="#FFFFFF" d="M385.63,848.154c0.728-0.728,1.64-1.084,2.738-1.084s2.011,0.369,2.738,1.096
				c0.727,0.73,1.098,1.613,1.098,2.668c0,1.068-0.371,1.967-1.098,2.693c-0.727,0.728-1.64,1.084-2.738,1.084
				s-2.011-0.356-2.738-1.084c-0.727-0.727-1.098-1.625-1.098-2.693C384.532,849.765,384.903,848.882,385.63,848.154z
				 M390.164,849.022c-0.485-0.497-1.083-0.741-1.796-0.741c-0.715,0-1.313,0.244-1.813,0.741c-0.483,0.498-0.727,1.099-0.727,1.812
				c0,0.727,0.244,1.327,0.727,1.825c0.486,0.497,1.086,0.741,1.813,0.741c0.727,0,1.325-0.244,1.811-0.741
				c0.483-0.498,0.728-1.099,0.728-1.825C390.906,850.121,390.662,849.521,390.164,849.022z"/>
			<path fill="#FFFFFF" d="M395.918,854.44h-1.257v-10.566h1.313v4.534c0.642-0.854,1.625-1.338,2.752-1.338
				c1.04,0,1.896,0.356,2.582,1.069c0.698,0.713,1.04,1.61,1.04,2.68c0,1.083-0.342,1.981-1.04,2.708
				c-0.701,0.728-1.569,1.084-2.626,1.084c-1.14,0-2.123-0.498-2.765-1.41V854.44z M400.267,849.008
				c-0.486-0.497-1.083-0.741-1.811-0.741c-0.727,0-1.327,0.244-1.811,0.741c-0.471,0.498-0.715,1.099-0.715,1.826
				c0,0.727,0.244,1.342,0.715,1.84c0.483,0.498,1.083,0.741,1.811,0.741c0.728,0,1.325-0.243,1.811-0.741
				c0.485-0.498,0.727-1.113,0.727-1.84C400.994,850.106,400.752,849.506,400.267,849.008z"/>
			<path fill="#FFFFFF" d="M405.509,844.045c0.556,0,0.927,0.386,0.927,0.897c0,0.516-0.4,0.898-0.927,0.898
				c-0.527,0-0.927-0.383-0.927-0.898C404.582,844.431,404.952,844.045,405.509,844.045z M406.165,854.44h-1.313v-7.199h1.313
				V854.44z"/>
			<path fill="#FFFFFF" d="M409.247,843.874h1.313v10.566h-1.313V843.874z"/>
			<path fill="#FFFFFF" d="M419.05,852.176h1.298c-0.5,1.496-1.84,2.436-3.539,2.436c-1.069,0-1.967-0.356-2.694-1.084
				c-0.713-0.727-1.069-1.625-1.069-2.693c0-1.04,0.371-1.938,1.098-2.668c0.727-0.727,1.625-1.096,2.679-1.096
				c1.069,0,1.955,0.356,2.653,1.055c0.698,0.698,1.057,1.581,1.057,2.623v0.456h-6.191c0.073,0.669,0.344,1.226,0.8,1.655
				c0.468,0.414,1.025,0.627,1.681,0.627C417.808,853.486,418.649,852.986,419.05,852.176z M414.416,850.121h4.79
				c-0.286-1.198-1.198-1.926-2.382-1.926S414.713,848.964,414.416,850.121z"/>
		</g>
		<g>
			<path fill="#FFFFFF" d="M451.398,854.44h-1.369v-10.024h1.369V854.44z"/>
			<path fill="#FFFFFF" d="M455.825,854.44h-1.313v-7.199h1.256v1.011c0.513-0.757,1.34-1.182,2.294-1.182
				c0.842,0,1.513,0.254,2.011,0.781c0.5,0.515,0.757,1.2,0.757,2.04v4.549h-1.313v-4.249c0-1.213-0.639-1.925-1.781-1.925
				c-1.14,0-1.911,0.868-1.911,2.055V854.44z"/>
			<path fill="#FFFFFF" d="M464.244,853.542c-0.684-0.712-1.027-1.61-1.027-2.679c0-1.084,0.344-1.981,1.042-2.709
				c0.698-0.728,1.569-1.084,2.623-1.084c1.098,0,2.069,0.469,2.711,1.325v-4.521h1.311v10.566h-1.239v-1.269
				c-0.642,0.912-1.669,1.439-2.824,1.439C465.798,854.611,464.944,854.255,464.244,853.542z M465.301,852.674
				c0.483,0.498,1.083,0.741,1.811,0.741c0.727,0,1.325-0.243,1.796-0.741c0.486-0.498,0.728-1.099,0.728-1.825
				c0-0.728-0.242-1.343-0.728-1.841c-0.471-0.497-1.069-0.741-1.796-0.741c-0.728,0-1.328,0.259-1.811,0.756
				c-0.486,0.498-0.728,1.099-0.728,1.826C464.573,851.575,464.815,852.176,465.301,852.674z"/>
			<path fill="#FFFFFF" d="M478.727,851.36v-4.119h1.311v7.199h-1.254v-1.025c-0.498,0.757-1.311,1.196-2.223,1.196
				c-0.815,0-1.469-0.254-1.969-0.769c-0.498-0.527-0.742-1.213-0.742-2.053v-4.549h1.313v4.249c0,1.184,0.642,1.925,1.71,1.925
				C477.971,853.415,478.727,852.547,478.727,851.36z"/>
			<path fill="#FFFFFF" d="M488.246,849.32h-1.342c-0.015-0.795-0.512-1.195-1.469-1.195c-0.84,0-1.411,0.371-1.411,0.927
				c0,0.513,0.256,0.77,1.34,1.011l0.871,0.2c1.554,0.356,2.153,0.971,2.153,2.055c0,1.425-1.128,2.294-2.838,2.294
				c-1.925,0-3.05-0.884-3.109-2.479h1.369c0.015,0.928,0.627,1.425,1.699,1.425c0.969,0,1.555-0.414,1.555-1.112
				c0-0.527-0.301-0.825-1.199-1.04l-1.057-0.244c-1.525-0.341-2.096-0.939-2.096-2.011c0-1.254,1.127-2.079,2.738-2.079
				C487.148,847.07,488.174,847.881,488.246,849.32z"/>
			<path fill="#FFFFFF" d="M491.261,847.241v-2.24l1.313-0.312v2.552h1.882v1.167h-1.882v3.709c0,0.983,0.327,1.342,1.169,1.342
				c0.356,0,0.671-0.117,1.055-0.358v1.169c-0.413,0.244-0.813,0.342-1.325,0.342c-1.484,0-2.211-0.796-2.211-2.409v-3.794h-1.213
				v-1.167H491.261z"/>
			<path fill="#FFFFFF" d="M498.296,850.663v3.777h-1.313v-7.199h1.257v1.338c0.469-0.925,1.296-1.44,2.309-1.44
				c0.13,0,0.271,0.015,0.371,0.029v1.24c-0.171-0.013-0.285-0.027-0.397-0.027C499.164,848.381,498.296,849.335,498.296,850.663z"
				/>
			<path fill="#FFFFFF" d="M503.806,844.045c0.557,0,0.928,0.386,0.928,0.897c0,0.516-0.4,0.898-0.928,0.898
				c-0.526,0-0.927-0.383-0.927-0.898C502.879,844.431,503.25,844.045,503.806,844.045z M504.463,854.44h-1.313v-7.199h1.313V854.44
				z"/>
			<path fill="#FFFFFF" d="M512.949,852.176h1.299c-0.5,1.496-1.84,2.436-3.539,2.436c-1.068,0-1.967-0.356-2.693-1.084
				c-0.713-0.727-1.069-1.625-1.069-2.693c0-1.04,0.371-1.938,1.099-2.668c0.727-0.727,1.625-1.096,2.68-1.096
				c1.068,0,1.954,0.356,2.652,1.055c0.697,0.698,1.057,1.581,1.057,2.623v0.456h-6.191c0.073,0.669,0.344,1.226,0.801,1.655
				c0.469,0.414,1.024,0.627,1.682,0.627C511.707,853.486,512.55,852.986,512.949,852.176z M508.315,850.121h4.79
				c-0.285-1.198-1.197-1.926-2.381-1.926S508.613,848.964,508.315,850.121z"/>
		</g>
		<path fill="#FFFFFF" d="M325.326,849.989c0,1.156-0.939,2.089-2.089,2.089c-1.154,0-2.086-0.933-2.086-2.089
			c0-1.151,0.932-2.087,2.086-2.087C324.386,847.902,325.326,848.838,325.326,849.989z"/>
		<path fill="#FFFFFF" d="M438.987,849.989c0,1.156-0.932,2.089-2.091,2.089c-1.149,0-2.084-0.933-2.084-2.089
			c0-1.151,0.935-2.087,2.084-2.087C438.055,847.902,438.987,848.838,438.987,849.989z"/>
	</g>
	<g>
		<g>
			<g>
				<g>
					<path fill="#FFFFFF" d="M527.164,829.142h-0.039c-3.987,0-7.12-3.072-7.12-7.221c0-2.802,1.174-4.603,2.854-5.815l2.214,2.858
						c-0.979,0.783-1.604,1.686-1.604,2.994c0,1.92,1.62,3.268,3.616,3.268h0.039c2.058,0,3.661-1.348,3.661-3.268
						c0-1.428-0.664-2.268-1.66-3.087l2.033-2.86c1.779,1.293,3.092,3.031,3.092,6.066
						C534.251,825.989,531.257,829.142,527.164,829.142z"/>
					<path fill="#FFFFFF" d="M527.164,815.239h-0.039c-3.929,0-7.12-3.17-7.12-7.398c0-4.222,3.15-7.355,7.081-7.355h0.039
						c3.937,0,7.126,3.17,7.126,7.399C534.251,812.106,531.098,815.239,527.164,815.239z M527.164,804.36h-0.039
						c-1.974,0-3.697,1.428-3.697,3.524c0,2.074,1.682,3.46,3.658,3.46h0.039c1.979,0,3.702-1.428,3.702-3.504
						C530.827,805.752,529.141,804.36,527.164,804.36z"/>
				</g>
				<g>
					<g>
						<path fill="#FFFFFF" d="M520.275,799.119v-0.845l7.418-6.959l-7.418-6.726v-0.85h13.702v3.777h-4.7l4.305,3.798v0.077
							l-4.266,4.013h4.661v3.714H520.275z"/>
					</g>
				</g>
			</g>
			<path fill="#FFFFFF" d="M532.496,829.654c-0.969,0-1.752,0.783-1.752,1.75c0,0.971,0.783,1.757,1.752,1.757
				c0.972,0,1.755-0.786,1.755-1.757C534.251,830.438,533.468,829.654,532.496,829.654z"/>
		</g>
		<g>
			<path fill="#FFFFFF" d="M384.427,778.037h-8.57V745.47h13.575c3.704,0,6.715,0.925,9.078,2.825
				c2.362,1.898,3.521,4.446,3.521,7.644c0,2.27-0.603,4.261-1.808,5.93c-1.25,1.713-2.918,2.918-5.046,3.704l8.614,12.465h-10.376
				l-8.988-13.575V778.037z M384.381,752.974v6.669h4.539c1.252,0,2.226-0.322,3.011-0.925c0.742-0.603,1.113-1.438,1.113-2.501
				c0-0.975-0.371-1.807-1.113-2.411c-0.693-0.601-1.713-0.879-2.962-0.879L384.381,752.974z"/>
			<path fill="#FFFFFF" d="M279.78,745.605h9.034v32.432h-9.034V745.605z"/>
			<path fill="#FFFFFF" d="M292.294,772.661l5.002-5.976c3.197,2.547,6.765,3.892,10.518,3.892c2.411,0,3.707-0.834,3.707-2.223
				v-0.093c0-1.345-1.066-2.084-5.469-3.104c-6.901-1.576-12.228-3.521-12.228-10.192v-0.093c0-6.023,4.771-10.379,12.555-10.379
				c5.513,0,9.82,1.483,13.341,4.31l-4.493,6.348c-2.967-2.087-6.208-3.197-9.083-3.197c-2.177,0-3.241,0.928-3.241,2.087v0.092
				c0,1.481,1.113,2.128,5.605,3.148c7.46,1.623,12.092,4.031,12.092,10.101v0.093c0,6.625-5.237,10.563-13.112,10.563
				C301.745,778.037,296.279,776.229,292.294,772.661z"/>
			<path fill="#FFFFFF" d="M329.987,753.483H322.1v-7.878h24.757v7.878h-7.885v24.554h-8.985V753.483z"/>
			<path fill="#FFFFFF" d="M350.463,745.605h20.242v7.646h-11.347v4.91h11.347v7.089h-11.347v5.142h11.347v7.646h-20.242V745.605z"
				/>
			<path fill="#FFFFFF" d="M242.397,745.605h7.96l4.847,14.835l11.813-14.835h6.296v32.432h-10.92v-12.481l-9.939,12.481h-3.045
				l-4.565-13.836l-7.416,13.836h-13.271L242.397,745.605z"/>
		</g>
		<g>
			<path fill="#FFFFFF" d="M373.858,800.142l-4.588,0.046v6.67h4.539c1.251,0,2.225-0.322,3.011-0.925
				c0.742-0.604,1.113-1.438,1.113-2.502c0-0.974-0.371-1.806-1.113-2.411C376.127,800.42,375.107,800.142,373.858,800.142z"/>
			<polygon fill="#FFFFFF" points="287.958,814.681 292.375,814.681 290.239,809.383 			"/>
			<polygon fill="#FFFFFF" points="421.021,814.681 425.438,814.681 423.303,809.383 			"/>
			<path fill="#FFFFFF" d="M224.166,783.74v37.629l15.732-28.549h7.96l4.846,14.835l11.813-14.835h6.296v32.432h-10.92V812.77
				l-9.939,12.482h-3.045l-4.566-13.836l-11.66,22.121h0.01l-5.835,11.084l13.824-11.084h275.975V783.74H224.166z M296.635,825.252
				l-1.742-4.324h-9.627l-1.862,4.324h-9.449l14.542-32.661h3.699l14.076,32.661H296.635z M331.085,800.698h-9.729v24.554h-8.985
				v-24.554h-9.732v-7.878h28.447V800.698z M356.012,800.466h-11.347v4.91h11.347v7.089h-11.347v5.142h11.347v7.646h-20.245V792.82
				h20.245V800.466z M378.304,825.252l-8.987-13.575v13.575h-8.57v-32.568h13.575c3.705,0,6.716,0.925,9.078,2.826
				c2.362,1.898,3.521,4.446,3.521,7.643c0,2.27-0.603,4.261-1.808,5.931c-1.25,1.713-2.918,2.918-5.046,3.704l8.614,12.465H378.304
				z M401.616,825.252h-9.034V792.82h9.034V825.252z M429.699,825.252l-1.742-4.324h-9.627l-1.862,4.324h-9.449l14.542-32.661h3.699
				l14.076,32.661H429.699z M471.013,810.796c0,10.471-5.979,15.057-15.198,15.057c-9.22,0-15.008-4.678-15.008-14.822v-18.21h9.126
				v18.024c0,4.678,2.362,6.901,5.974,6.901c3.616,0,5.979-2.131,5.979-6.672V792.82h9.126V810.796z M496.09,825.252l-6.208-9.775
				l-6.255,9.775h-10.1l11.118-16.494L473.99,792.82h10.333l5.745,9.127l5.79-9.127h10.101l-10.656,15.845l11.118,16.587H496.09z"/>
		</g>
	</g>
</g>
<g>
	<g>
		<g>
			<path fill="#FFFFFF" d="M991.456,854.44v-10.024h3.694c0.998,0,1.797,0.229,2.411,0.686c0.612,0.441,0.925,1.057,0.925,1.825
				c0,1.042-0.568,1.853-1.61,2.311c1.354,0.342,2.14,1.255,2.14,2.465c0,0.845-0.314,1.499-0.941,1.996
				c-0.613,0.501-1.426,0.742-2.424,0.742H991.456z M995.009,845.543h-2.184v3.266h2.239c1.213,0,2.026-0.643,2.026-1.685
				C997.091,846.158,996.264,845.543,995.009,845.543z M995.478,849.906h-2.652v3.409h2.652c1.271,0,2.126-0.671,2.126-1.755
				C997.604,850.548,996.749,849.906,995.478,849.906z"/>
			<path fill="#FFFFFF" d="M1005.91,854.44v-1.025c-0.527,0.757-1.426,1.196-2.409,1.196c-0.7,0-1.283-0.186-1.739-0.568
				c-0.442-0.386-0.672-0.871-0.672-1.47c0-1.184,0.742-1.939,2.326-2.296l2.452-0.571v-0.098c0-0.856-0.656-1.428-1.64-1.428
				c-0.912,0-1.599,0.53-1.711,1.325h-1.256c0.072-0.697,0.385-1.283,0.941-1.737c0.557-0.471,1.239-0.698,2.04-0.698
				c1.825,0,2.909,1.04,2.909,2.694v4.676H1005.91z M1001.961,846.285l1.654-2.069h1.17l1.666,2.069h-1.168l-1.069-1.328
				l-1.099,1.328H1001.961z M1005.256,852.874c0.412-0.444,0.612-0.957,0.612-1.569v-0.529l-2.126,0.5
				c-0.897,0.215-1.354,0.612-1.354,1.184c0,0.671,0.5,1.068,1.354,1.068C1004.344,853.527,1004.841,853.315,1005.256,852.874z"/>
			<path fill="#FFFFFF" d="M1010.395,847.241v-2.24l1.313-0.312v2.552h1.882v1.167h-1.882v3.709c0,0.983,0.327,1.342,1.169,1.342
				c0.355,0,0.671-0.117,1.055-0.358v1.169c-0.413,0.244-0.813,0.342-1.326,0.342c-1.483,0-2.211-0.796-2.211-2.409v-3.794h-1.213
				v-1.167H1010.395z"/>
			<path fill="#FFFFFF" d="M1016.803,844.045c0.557,0,0.928,0.386,0.928,0.897c0,0.516-0.4,0.898-0.928,0.898
				c-0.526,0-0.927-0.383-0.927-0.898C1015.876,844.431,1016.247,844.045,1016.803,844.045z M1017.459,854.44h-1.313v-7.199h1.313
				V854.44z"/>
			<path fill="#FFFFFF" d="M1021.825,854.44h-1.313v-7.199h1.257v1.025c0.498-0.757,1.311-1.196,2.223-1.196
				c1.098,0,1.969,0.513,2.411,1.411c0.498-0.898,1.384-1.411,2.452-1.411c0.828,0,1.484,0.254,1.982,0.781
				c0.5,0.515,0.741,1.2,0.741,2.04v4.549h-1.313v-4.349c0-1.128-0.641-1.825-1.725-1.825c-1.098,0-1.838,0.868-1.838,2.055v4.119
				h-1.313v-4.349c0-1.128-0.642-1.825-1.726-1.825c-1.098,0-1.84,0.868-1.84,2.055V854.44z"/>
			<path fill="#FFFFFF" d="M1039.961,852.176h1.299c-0.5,1.496-1.84,2.436-3.539,2.436c-1.068,0-1.967-0.356-2.693-1.084
				c-0.713-0.727-1.068-1.625-1.068-2.693c0-1.04,0.37-1.938,1.098-2.668c0.727-0.727,1.625-1.096,2.68-1.096
				c1.068,0,1.954,0.356,2.652,1.055c0.697,0.698,1.057,1.581,1.057,2.623v0.456h-6.191c0.074,0.669,0.344,1.226,0.801,1.655
				c0.469,0.414,1.025,0.627,1.682,0.627C1038.719,853.486,1039.562,852.986,1039.961,852.176z M1035.328,850.121h4.789
				c-0.285-1.198-1.197-1.926-2.381-1.926S1035.625,848.964,1035.328,850.121z"/>
			<path fill="#FFFFFF" d="M1045.218,854.44h-1.313v-7.199h1.257v1.011c0.512-0.757,1.34-1.182,2.293-1.182
				c0.842,0,1.514,0.254,2.012,0.781c0.5,0.515,0.756,1.2,0.756,2.04v4.549h-1.311v-4.249c0-1.213-0.642-1.925-1.783-1.925
				c-1.14,0-1.911,0.868-1.911,2.055V854.44z"/>
			<path fill="#FFFFFF" d="M1053.467,847.241v-2.24l1.313-0.312v2.552h1.881v1.167h-1.881v3.709c0,0.983,0.326,1.342,1.168,1.342
				c0.357,0,0.672-0.117,1.055-0.358v1.169c-0.412,0.244-0.813,0.342-1.325,0.342c-1.483,0-2.21-0.796-2.21-2.409v-3.794h-1.213
				v-1.167H1053.467z"/>
		</g>
		<g>
			<path fill="#FFFFFF" d="M1088.131,844.416h1.454l3.821,10.024h-1.469l-0.898-2.45h-4.448l-0.898,2.45h-1.397L1088.131,844.416z
				 M1090.612,850.834l-1.796-4.861l-1.799,4.861H1090.612z"/>
			<path fill="#FFFFFF" d="M1100.176,851.36v-4.119h1.311v7.199h-1.254v-1.025c-0.498,0.757-1.311,1.196-2.224,1.196
				c-0.813,0-1.47-0.254-1.97-0.769c-0.498-0.527-0.742-1.213-0.742-2.053v-4.549h1.313v4.249c0,1.184,0.642,1.925,1.711,1.925
				C1099.419,853.415,1100.176,852.547,1100.176,851.36z"/>
			<path fill="#FFFFFF" d="M1104.902,847.241v-2.24l1.313-0.312v2.552h1.882v1.167h-1.882v3.709c0,0.983,0.328,1.342,1.17,1.342
				c0.355,0,0.67-0.117,1.054-0.358v1.169c-0.413,0.244-0.813,0.342-1.325,0.342c-1.483,0-2.211-0.796-2.211-2.409v-3.794h-1.213
				v-1.167H1104.902z"/>
			<path fill="#FFFFFF" d="M1111.055,848.154c0.727-0.728,1.64-1.084,2.738-1.084c1.098,0,2.01,0.369,2.737,1.096
				c0.728,0.73,1.099,1.613,1.099,2.668c0,1.068-0.371,1.967-1.099,2.693c-0.728,0.728-1.64,1.084-2.737,1.084
				c-1.099,0-2.012-0.356-2.738-1.084c-0.728-0.727-1.098-1.625-1.098-2.693C1109.957,849.765,1110.327,848.882,1111.055,848.154z
				 M1115.588,849.022c-0.484-0.497-1.083-0.741-1.795-0.741c-0.715,0-1.313,0.244-1.813,0.741
				c-0.483,0.498-0.728,1.099-0.728,1.812c0,0.727,0.244,1.327,0.728,1.825c0.485,0.497,1.086,0.741,1.813,0.741
				c0.727,0,1.324-0.244,1.811-0.741c0.482-0.498,0.727-1.099,0.727-1.825C1116.33,850.121,1116.086,849.521,1115.588,849.022z"/>
			<path fill="#FFFFFF" d="M1121.398,854.44h-1.313v-7.199h1.257v1.025c0.497-0.757,1.311-1.196,2.224-1.196
				c1.098,0,1.969,0.513,2.41,1.411c0.498-0.898,1.384-1.411,2.453-1.411c0.827,0,1.483,0.254,1.98,0.781
				c0.501,0.515,0.742,1.2,0.742,2.04v4.549h-1.313v-4.349c0-1.128-0.642-1.825-1.726-1.825c-1.098,0-1.837,0.868-1.837,2.055v4.119
				h-1.313v-4.349c0-1.128-0.642-1.825-1.726-1.825c-1.098,0-1.84,0.868-1.84,2.055V854.44z"/>
			<path fill="#FFFFFF" d="M1134.63,848.154c0.728-0.728,1.64-1.084,2.738-1.084s2.011,0.369,2.737,1.096
				c0.728,0.73,1.099,1.613,1.099,2.668c0,1.068-0.371,1.967-1.099,2.693c-0.727,0.728-1.639,1.084-2.737,1.084
				s-2.011-0.356-2.738-1.084c-0.728-0.727-1.098-1.625-1.098-2.693C1133.532,849.765,1133.902,848.882,1134.63,848.154z
				 M1139.164,849.022c-0.485-0.497-1.084-0.741-1.796-0.741c-0.715,0-1.313,0.244-1.813,0.741
				c-0.482,0.498-0.727,1.099-0.727,1.812c0,0.727,0.244,1.327,0.727,1.825c0.486,0.497,1.086,0.741,1.813,0.741
				s1.325-0.244,1.811-0.741c0.483-0.498,0.728-1.099,0.728-1.825C1139.906,850.121,1139.662,849.521,1139.164,849.022z"/>
			<path fill="#FFFFFF" d="M1144.918,854.44h-1.256v-10.566h1.313v4.534c0.642-0.854,1.625-1.338,2.752-1.338
				c1.04,0,1.896,0.356,2.582,1.069c0.698,0.713,1.04,1.61,1.04,2.68c0,1.083-0.342,1.981-1.04,2.708
				c-0.7,0.728-1.568,1.084-2.625,1.084c-1.141,0-2.123-0.498-2.766-1.41V854.44z M1149.268,849.008
				c-0.486-0.497-1.084-0.741-1.812-0.741s-1.327,0.244-1.811,0.741c-0.471,0.498-0.715,1.099-0.715,1.826
				c0,0.727,0.244,1.342,0.715,1.84c0.483,0.498,1.083,0.741,1.811,0.741s1.325-0.243,1.812-0.741
				c0.484-0.498,0.727-1.113,0.727-1.84C1149.994,850.106,1149.752,849.506,1149.268,849.008z"/>
			<path fill="#FFFFFF" d="M1154.509,844.045c0.556,0,0.927,0.386,0.927,0.897c0,0.516-0.4,0.898-0.927,0.898
				c-0.527,0-0.927-0.383-0.927-0.898C1153.582,844.431,1153.952,844.045,1154.509,844.045z M1155.165,854.44h-1.313v-7.199h1.313
				V854.44z"/>
			<path fill="#FFFFFF" d="M1158.247,843.874h1.313v10.566h-1.313V843.874z"/>
			<path fill="#FFFFFF" d="M1168.05,852.176h1.298c-0.5,1.496-1.84,2.436-3.538,2.436c-1.069,0-1.967-0.356-2.694-1.084
				c-0.713-0.727-1.068-1.625-1.068-2.693c0-1.04,0.371-1.938,1.098-2.668c0.728-0.727,1.625-1.096,2.68-1.096
				c1.068,0,1.955,0.356,2.652,1.055c0.698,0.698,1.057,1.581,1.057,2.623v0.456h-6.19c0.073,0.669,0.344,1.226,0.8,1.655
				c0.469,0.414,1.025,0.627,1.682,0.627C1166.808,853.486,1167.649,852.986,1168.05,852.176z M1163.416,850.121h4.79
				c-0.286-1.198-1.198-1.926-2.382-1.926S1163.713,848.964,1163.416,850.121z"/>
		</g>
		<g>
			<path fill="#FFFFFF" d="M1200.398,854.44h-1.369v-10.024h1.369V854.44z"/>
			<path fill="#FFFFFF" d="M1204.825,854.44h-1.313v-7.199h1.257v1.011c0.513-0.757,1.34-1.182,2.294-1.182
				c0.842,0,1.514,0.254,2.011,0.781c0.501,0.515,0.757,1.2,0.757,2.04v4.549h-1.313v-4.249c0-1.213-0.64-1.925-1.781-1.925
				c-1.141,0-1.911,0.868-1.911,2.055V854.44z"/>
			<path fill="#FFFFFF" d="M1213.244,853.542c-0.684-0.712-1.027-1.61-1.027-2.679c0-1.084,0.344-1.981,1.042-2.709
				s1.569-1.084,2.623-1.084c1.099,0,2.069,0.469,2.711,1.325v-4.521h1.311v10.566h-1.239v-1.269
				c-0.643,0.912-1.67,1.439-2.824,1.439C1214.799,854.611,1213.944,854.255,1213.244,853.542z M1214.301,852.674
				c0.482,0.498,1.083,0.741,1.811,0.741c0.727,0,1.325-0.243,1.796-0.741c0.485-0.498,0.728-1.099,0.728-1.825
				c0-0.728-0.242-1.343-0.728-1.841c-0.471-0.497-1.069-0.741-1.796-0.741c-0.728,0-1.328,0.259-1.811,0.756
				c-0.486,0.498-0.728,1.099-0.728,1.826C1213.573,851.575,1213.814,852.176,1214.301,852.674z"/>
			<path fill="#FFFFFF" d="M1227.727,851.36v-4.119h1.311v7.199h-1.254v-1.025c-0.498,0.757-1.311,1.196-2.223,1.196
				c-0.815,0-1.47-0.254-1.97-0.769c-0.498-0.527-0.742-1.213-0.742-2.053v-4.549h1.313v4.249c0,1.184,0.642,1.925,1.711,1.925
				C1226.971,853.415,1227.727,852.547,1227.727,851.36z"/>
			<path fill="#FFFFFF" d="M1237.246,849.32h-1.342c-0.015-0.795-0.512-1.195-1.469-1.195c-0.84,0-1.41,0.371-1.41,0.927
				c0,0.513,0.256,0.77,1.34,1.011l0.871,0.2c1.554,0.356,2.152,0.971,2.152,2.055c0,1.425-1.128,2.294-2.838,2.294
				c-1.926,0-3.051-0.884-3.109-2.479h1.369c0.014,0.928,0.627,1.425,1.698,1.425c0.969,0,1.555-0.414,1.555-1.112
				c0-0.527-0.301-0.825-1.198-1.04l-1.057-0.244c-1.525-0.341-2.097-0.939-2.097-2.011c0-1.254,1.128-2.079,2.738-2.079
				C1236.148,847.07,1237.174,847.881,1237.246,849.32z"/>
			<path fill="#FFFFFF" d="M1240.261,847.241v-2.24l1.313-0.312v2.552h1.882v1.167h-1.882v3.709c0,0.983,0.327,1.342,1.169,1.342
				c0.356,0,0.671-0.117,1.055-0.358v1.169c-0.413,0.244-0.813,0.342-1.325,0.342c-1.484,0-2.211-0.796-2.211-2.409v-3.794h-1.213
				v-1.167H1240.261z"/>
			<path fill="#FFFFFF" d="M1247.296,850.663v3.777h-1.313v-7.199h1.257v1.338c0.469-0.925,1.296-1.44,2.309-1.44
				c0.13,0,0.271,0.015,0.371,0.029v1.24c-0.171-0.013-0.285-0.027-0.397-0.027C1248.164,848.381,1247.296,849.335,1247.296,850.663
				z"/>
			<path fill="#FFFFFF" d="M1252.806,844.045c0.557,0,0.928,0.386,0.928,0.897c0,0.516-0.4,0.898-0.928,0.898
				c-0.526,0-0.927-0.383-0.927-0.898C1251.879,844.431,1252.25,844.045,1252.806,844.045z M1253.463,854.44h-1.313v-7.199h1.313
				V854.44z"/>
			<path fill="#FFFFFF" d="M1261.949,852.176h1.299c-0.5,1.496-1.84,2.436-3.539,2.436c-1.068,0-1.967-0.356-2.693-1.084
				c-0.713-0.727-1.069-1.625-1.069-2.693c0-1.04,0.371-1.938,1.099-2.668c0.727-0.727,1.625-1.096,2.68-1.096
				c1.068,0,1.954,0.356,2.652,1.055c0.697,0.698,1.057,1.581,1.057,2.623v0.456h-6.191c0.073,0.669,0.344,1.226,0.801,1.655
				c0.469,0.414,1.024,0.627,1.682,0.627C1260.707,853.486,1261.55,852.986,1261.949,852.176z M1257.315,850.121h4.79
				c-0.285-1.198-1.197-1.926-2.381-1.926S1257.613,848.964,1257.315,850.121z"/>
		</g>
		<circle fill="#FFFFFF" cx="1072.238" cy="849.989" r="2.088"/>
		<path fill="#FFFFFF" d="M1187.986,849.989c0,1.156-0.932,2.089-2.091,2.089c-1.149,0-2.084-0.933-2.084-2.089
			c0-1.151,0.935-2.087,2.084-2.087C1187.055,847.902,1187.986,848.838,1187.986,849.989z"/>
	</g>
	<g>
		<g>
			<g>
				<g>
					<path fill="#EB3866" d="M1276.164,829.142h-0.039c-3.987,0-7.12-3.072-7.12-7.221c0-2.802,1.174-4.603,2.854-5.815l2.214,2.858
						c-0.979,0.783-1.604,1.686-1.604,2.994c0,1.92,1.62,3.268,3.616,3.268h0.039c2.058,0,3.661-1.348,3.661-3.268
						c0-1.428-0.664-2.268-1.66-3.087l2.033-2.86c1.779,1.293,3.092,3.031,3.092,6.066
						C1283.251,825.989,1280.257,829.142,1276.164,829.142z"/>
					<path fill="#EB3866" d="M1276.164,815.239h-0.039c-3.929,0-7.12-3.17-7.12-7.398c0-4.222,3.15-7.355,7.081-7.355h0.039
						c3.937,0,7.126,3.17,7.126,7.399C1283.251,812.106,1280.098,815.239,1276.164,815.239z M1276.164,804.36h-0.039
						c-1.974,0-3.697,1.428-3.697,3.524c0,2.074,1.682,3.46,3.658,3.46h0.039c1.979,0,3.702-1.428,3.702-3.504
						C1279.827,805.752,1278.141,804.36,1276.164,804.36z"/>
				</g>
				<g>
					<g>
						<path fill="#EB3866" d="M1269.275,799.119v-0.845l7.418-6.959l-7.418-6.726v-0.85h13.702v3.777h-4.7l4.305,3.798v0.077
							l-4.266,4.013h4.661v3.714H1269.275z"/>
					</g>
				</g>
			</g>
			<path fill="#EB3866" d="M1281.496,829.654c-0.969,0-1.752,0.783-1.752,1.75c0,0.971,0.783,1.757,1.752,1.757
				c0.972,0,1.755-0.786,1.755-1.757C1283.251,830.438,1282.468,829.654,1281.496,829.654z"/>
		</g>
		<g>
			<path fill="#FFFFFF" d="M1133.427,778.037h-8.569V745.47h13.574c3.705,0,6.716,0.925,9.078,2.825
				c2.362,1.898,3.521,4.446,3.521,7.644c0,2.27-0.603,4.261-1.809,5.93c-1.249,1.713-2.918,2.918-5.046,3.704l8.614,12.465h-10.377
				l-8.987-13.575V778.037z M1133.381,752.974v6.669h4.539c1.252,0,2.225-0.322,3.011-0.925c0.742-0.603,1.113-1.438,1.113-2.501
				c0-0.975-0.371-1.807-1.113-2.411c-0.692-0.601-1.713-0.879-2.962-0.879L1133.381,752.974z"/>
			<path fill="#FFFFFF" d="M1028.78,745.605h9.034v32.432h-9.034V745.605z"/>
			<path fill="#FFFFFF" d="M1041.294,772.661l5.003-5.976c3.196,2.547,6.764,3.892,10.518,3.892c2.41,0,3.707-0.834,3.707-2.223
				v-0.093c0-1.345-1.066-2.084-5.469-3.104c-6.901-1.576-12.229-3.521-12.229-10.192v-0.093c0-6.023,4.771-10.379,12.555-10.379
				c5.514,0,9.82,1.483,13.342,4.31l-4.493,6.348c-2.968-2.087-6.208-3.197-9.083-3.197c-2.176,0-3.24,0.928-3.24,2.087v0.092
				c0,1.481,1.113,2.128,5.605,3.148c7.46,1.623,12.092,4.031,12.092,10.101v0.093c0,6.625-5.237,10.563-13.111,10.563
				C1050.745,778.037,1045.279,776.229,1041.294,772.661z"/>
			<path fill="#FFFFFF" d="M1078.986,753.483h-7.887v-7.878h24.757v7.878h-7.885v24.554h-8.985V753.483z"/>
			<path fill="#FFFFFF" d="M1099.463,745.605h20.242v7.646h-11.348v4.91h11.348v7.089h-11.348v5.142h11.348v7.646h-20.242V745.605z"
				/>
			<path fill="#FFFFFF" d="M991.397,745.605h7.96l4.847,14.835l11.813-14.835h6.296v32.432h-10.921v-12.481l-9.939,12.481h-3.045
				l-4.565-13.836l-7.416,13.836h-13.271L991.397,745.605z"/>
		</g>
		<g>
			<path fill="#EB3866" d="M1122.858,800.142l-4.588,0.046v6.67h4.539c1.251,0,2.226-0.322,3.011-0.925
				c0.742-0.604,1.113-1.438,1.113-2.502c0-0.974-0.371-1.806-1.113-2.411C1125.127,800.42,1124.107,800.142,1122.858,800.142z"/>
			<polygon fill="#EB3866" points="1036.957,814.681 1041.375,814.681 1039.239,809.383 			"/>
			<polygon fill="#EB3866" points="1170.021,814.681 1174.438,814.681 1172.303,809.383 			"/>
			<path fill="#EB3866" d="M973.166,783.74v37.629l15.732-28.549h7.961l4.846,14.835l11.813-14.835h6.296v32.432h-10.92V812.77
				l-9.939,12.482h-3.045l-4.566-13.836l-11.66,22.121h0.01l-5.834,11.084l13.824-11.084h275.975V783.74H973.166z M1045.635,825.252
				l-1.742-4.324h-9.627l-1.861,4.324h-9.449l14.542-32.661h3.699l14.075,32.661H1045.635z M1080.085,800.698h-9.729v24.554h-8.985
				v-24.554h-9.731v-7.878h28.446V800.698z M1105.012,800.466h-11.347v4.91h11.347v7.089h-11.347v5.142h11.347v7.646h-20.244V792.82
				h20.244V800.466z M1127.305,825.252l-8.988-13.575v13.575h-8.57v-32.568h13.576c3.704,0,6.715,0.925,9.077,2.826
				c2.362,1.898,3.521,4.446,3.521,7.643c0,2.27-0.603,4.261-1.808,5.931c-1.25,1.713-2.919,2.918-5.047,3.704l8.614,12.465
				H1127.305z M1150.616,825.252h-9.034V792.82h9.034V825.252z M1178.699,825.252l-1.742-4.324h-9.627l-1.862,4.324h-9.448
				l14.541-32.661h3.699l14.076,32.661H1178.699z M1220.014,810.796c0,10.471-5.979,15.057-15.198,15.057
				s-15.008-4.678-15.008-14.822v-18.21h9.126v18.024c0,4.678,2.363,6.901,5.975,6.901c3.616,0,5.979-2.131,5.979-6.672V792.82
				h9.127V810.796z M1245.09,825.252l-6.208-9.775l-6.255,9.775h-10.1l11.117-16.494l-10.654-15.938h10.332l5.745,9.127l5.79-9.127
				h10.101l-10.656,15.845l11.118,16.587H1245.09z"/>
		</g>
	</g>
</g>
</svg>
