<?xml version="1.0" encoding="utf-8"?>
<!-- Generator: Adobe Illustrator 16.0.0, SVG Export Plug-In . SVG Version: 6.00 Build 0)  -->
<!DOCTYPE svg PUBLIC "-//W3C//DTD SVG 1.1//EN" "http://www.w3.org/Graphics/SVG/1.1/DTD/svg11.dtd">
<svg version="1.1" id="Layer_1" xmlns="http://www.w3.org/2000/svg" xmlns:xlink="http://www.w3.org/1999/xlink" x="0px" y="0px"
	 width="1500px" height="1000px" viewBox="0 0 1500 1000" enable-background="new 0 0 1500 1000" xml:space="preserve">
<g>
	<rect x="777.431" y="638.494" width="682.568" height="341.506"/>
</g>
<g>
	<rect x="35.626" y="638.494" fill="#E163A2" width="682.568" height="341.506"/>
</g>
<g>
	<path fill="#E163A2" d="M728.255,283.118c0-1.373-0.506-2.582-1.51-3.585c-0.999-0.999-2.203-1.504-3.575-1.504
		c-1.933,0-3.528,1.097-4.737,3.267c-1.102,2.006-2.058,7.107-2.933,15.185c-3.301-4.785-7.408-8.836-12.347-11.974
		c-6.19-3.979-12.664-6.001-19.24-6.001c-9.955,0-18.156,4.175-24.39,12.407c-5.654,7.48-8.518,16.411-8.518,26.532
		c0,9.731,2.919,17.953,8.681,24.44c6.006,6.897,13.942,10.4,23.579,10.4c6.56,0,13.016-1.745,19.185-5.191
		c5.308-2.963,9.71-6.774,13.243-11.271c0.497,4.44,0.823,6.957,1.016,7.763c1.273,5.848,3.391,8.699,6.46,8.699
		c1.372,0,2.577-0.506,3.575-1.509c1.004-1.003,1.51-2.208,1.51-3.58l-0.249-1.582c-2.251-8.493-3.391-18.738-3.391-30.46
		c0-11.716,1.14-21.966,3.391-30.463C728.014,284.67,728.255,283.118,728.255,283.118z M702.678,334.914
		c-6.092,4.779-12.604,7.201-19.352,7.201c-6.967,0-12.326-2.374-16.39-7.257c-3.828-4.519-5.766-10.414-5.766-17.526
		c0-7.355,1.998-13.885,5.933-19.412c4.343-6.225,9.856-9.247,16.87-9.247c7.194,0,13.796,3.009,19.622,8.943
		c5.826,5.941,8.784,12.65,8.784,19.938C712.38,323.999,709.113,329.838,702.678,334.914z M784.111,278.505
		c-15.521,0-27.609,11.455-36.046,33.808c-0.875-2.611-1.899-5.205-3.22-7.743c-2.739-5.333-5.389-7.926-8.094-7.926
		c-3.279,0-5.089,1.809-5.089,5.092c0,1.042,0.459,2.174,1.402,3.452c5.372,7.33,8.094,16.946,8.094,28.582l-0.111,2.958
		c-0.004,0.009-0.107,3.082-0.107,3.082c0,1.372,0.506,2.577,1.504,3.58c1,0.999,2.204,1.505,3.589,1.505
		c2.259,0,3.88-1.141,4.689-3.301c0.043-0.137,3.177-14.194,3.177-14.194c6.576-25.679,16.75-38.725,30.22-38.725
		c10.606,0,18.392,6.379,23.792,19.506c4.1,9.89,6.179,21.332,6.179,34.013l-0.316,7.233c0,3.279,1.8,5.088,5.074,5.088
		c1.767,0,4.057-0.725,4.943-4.167c0.313-1.179,0.468-3.215,0.468-6.212v-1.943c0-15.416-2.796-29.151-8.309-40.825
		C808.817,286.197,798.103,278.505,784.111,278.505z M842.084,284.781c-1.628,0-3.803,0.63-4.912,3.63
		c-0.04,0.133-1.672,7.559-1.672,7.559c-1.724,9.161-2.599,17.675-2.599,25.258c0,6.028,0.438,12.455,1.304,19.108
		c0.587,4.488,1.023,7.125,1.341,8.072c1.103,3.203,3.284,3.876,4.923,3.876c3.283,0,5.088-1.805,5.088-5.088
		c0-2.933-0.411-7.232-1.256-13.14c-0.819-5.684-1.234-10.001-1.234-12.827c0-8.436,1.298-18.545,3.862-30.043
		c-0.03,0.115,0.243-1.312,0.243-1.312c0-1.372-0.505-2.577-1.5-3.58C844.665,285.292,843.456,284.781,842.084,284.781z
		 M845.668,257.781c-2.642,0-5.049,0.969-7.159,2.881c-2.135,1.946-3.216,4.261-3.216,6.88c0,2.602,0.905,4.832,2.693,6.628
		c1.787,1.796,4.012,2.705,6.605,2.705c2.543,0,4.841-0.789,6.834-2.345c2.065-1.625,3.117-3.755,3.117-6.337
		c0-2.542-0.819-4.917-2.432-7.052C850.419,258.913,848.254,257.781,845.668,257.781z M923.609,336.445
		c-0.681,0-1.993,0.188-6.086,1.667c-0.043,0.017-5.925,2.251-5.925,2.251c-3.396,1.162-6.829,1.753-10.204,1.753
		c-6.275,0-12.024-1.298-17.084-3.862c-5.294-2.641-8.775-6.289-10.566-10.769c3.592,0.231,7.177,0.407,10.605,0.407
		c11.019,0,20.295-1.475,27.579-4.381c10.619-4.257,16.003-11.3,16.003-20.934c0-7.292-3.09-13.238-9.187-17.68
		c-5.346-3.922-11.841-5.911-19.296-5.911c-11.057,0-20.072,3.708-26.794,11.018c-6.16,6.649-9.604,15.412-10.389,25.966
		c-1.572-0.261-5.624-0.93-5.629-0.93c-3.39,0-5.195,1.818-5.195,5.109c0,1.767,0.887,4.12,5.119,5.295
		c0.107,0.039,0.402,0.129,6.237,0.904c1.664,8.004,6.418,14.525,14.294,19.317c7.18,4.39,15.36,6.62,24.302,6.62
		c6.508,0,13.616-1.582,21.123-4.699c4.158-1.706,6.182-3.69,6.182-6.066C928.699,338.245,926.894,336.445,923.609,336.445z
		 M879.684,297.57c4.863-5.585,11.513-8.42,19.769-8.42c4.711,0,8.865,1.132,12.342,3.366c4.021,2.525,5.968,5.83,5.968,10.118
		c0,5.942-4.184,10.053-12.792,12.562c-5.642,1.684-12.758,2.533-21.153,2.533c-3.669,0-7.519-0.228-11.402-0.579
		C872.925,309.157,875.33,302.547,879.684,297.57z M962.394,288.99c6.385,0,12.578,1.75,18.422,5.201
		c4.566,3.353,6.221,3.79,7.143,3.79c1.355,0,2.551-0.48,3.559-1.423c1.016-0.969,1.529-2.156,1.529-3.537
		c0-2.169-1.877-4.373-5.906-6.941c-7.537-4.814-15.862-7.253-24.736-7.253c-4.42,0-8.69,0.668-12.698,1.993
		c-4.111,1.35-7.52,3.776-10.13,7.207c-2.611,3.442-3.936,7.374-3.936,11.695c0,8.591,4.492,14.478,13.357,17.503l16.213,5.209
		c4.01,1.191,6.993,2.357,8.863,3.46c2.992,1.753,4.445,3.987,4.445,6.833c0,3.138-1.411,5.479-4.313,7.16
		c-2.482,1.483-5.569,2.228-9.18,2.228c-5.479,0-10.958-2.113-16.286-6.288c-1.208-0.961-2.315-1.433-3.373-1.433
		c-1.378,0-2.582,0.511-3.585,1.514c-0.999,0.999-1.509,2.207-1.509,3.592c0,1.269,0.489,2.491,1.45,3.627
		c2.42,2.813,6.026,5.101,10.716,6.82c4.207,1.548,8.403,2.336,12.476,2.336c6.392,0,11.841-1.595,16.188-4.746
		c5.029-3.588,7.58-8.579,7.58-14.833c0-4.373-1.552-8.295-4.617-11.653c-2.709-3.009-6.289-5.26-10.641-6.683l-21.479-6.868
		c-4.132-1.355-6.144-3.863-6.144-7.67c0-2.211,0.661-4.094,2.016-5.757C950.538,290.701,955.442,288.99,962.394,288.99z"/>
	<g>
		
			<radialGradient id="SVGID_1_" cx="581.0667" cy="309.0193" r="86.3005" fx="575.9758" fy="360.6437" gradientUnits="userSpaceOnUse">
			<stop  offset="0.236" style="stop-color:#F5ACCC"/>
			<stop  offset="1" style="stop-color:#E163A2"/>
		</radialGradient>
		<path fill="url(#SVGID_1_)" d="M580.433,223.948c-30.198,0-56.789,15.394-72.39,38.758c-2.507,1.034-5.14,1.368-7.836,0.892
			c-6.16-1.08-11.305-6.02-13.748-12.629c2.971,0.707,6.062,0.917,9.119,0.531c9.152-1.153,14.824-7.819,14.46-16.994
			c-0.159-3.935-1.903-7.438-4.905-9.869c-3.25-2.637-7.686-3.786-11.875-3.069c-6.247,1.059-13.076,4.102-15.927,11.841
			c-1.055-2.221-1.616-4.686-1.616-7.305c0-0.536,0.013-1.072,0.06-1.621c0.313-3.73,2.671-7.764,6.015-10.272
			c2.148-1.616,4.395-2.336,6.161-1.985c2.414,0.484,4.758-1.089,5.239-3.498c0.484-2.409-1.081-4.758-3.49-5.239
			c-4.321-0.862-9.028,0.412-13.26,3.597c-5.363,4.039-9.016,10.422-9.534,16.655c-0.069,0.806-0.107,1.608-0.107,2.4
			c0,7.117,2.705,13.586,7.738,18.413c0.522,0.501,1.08,0.969,1.642,1.433c0.03,0.257,0.047,0.501,0.085,0.767
			c1.65,13.053,10.863,23.586,22.399,25.619c1.218,0.21,2.427,0.313,3.623,0.33c-5.655,11.544-8.84,24.518-8.84,38.24
			c0,48.045,38.946,86.989,86.987,86.989c48.049,0,86.997-38.943,86.997-86.989C667.43,262.891,628.482,223.948,580.433,223.948z
			 M484.851,241.01c0.245-7.347,4.158-9.684,9.899-10.657c1.651-0.288,3.524,0.188,4.78,1.208c1.021,0.823,1.547,1.909,1.6,3.306
			c0.184,4.592-2.054,7.22-6.663,7.798C491.162,243.082,487.797,242.472,484.851,241.01z"/>
	</g>
	<path fill="#E163A2" d="M638.252,364.207c-1.565,1.466-3.502,2.204-5.607,2.131c-1-0.039-2.157-0.365-7.657-2.864
		c-18.087-8.235-45.507-13.216-71.058-14.125c-2.109-0.073-3.991-0.94-5.427-2.495c-1.462-1.569-2.195-3.503-2.122-5.604
		c0.077-2.101,0.943-3.979,2.508-5.437c0,0,52.268-48.691,58.188-54.205c-7.772-1.774-31.827-5.534-49.099,0.574l-1.813,0.232
		l-0.181-0.004c-2.096-0.073-3.974-0.93-5.432-2.482c-1.461-1.552-2.195-3.489-2.118-5.594c0.069-1.912,0.857-5.376,5.354-7.079
		c0.407-0.163,1.488-0.069,5.775-1.411c20.072-6.293,47.397-0.673,59.568,2.075l5.908,1.308l0.308,0.09l0.168,0.069
		c5.23,2.113,5.89,5.861,5.817,7.905c-0.078,2.093-0.896,3.906-2.47,5.428c0,0-50.188,46.746-56.353,52.49
		c22.327,2.328,40.997,6.349,55.329,12.158c8.832,4.192,9.007,4.3,9.264,4.458c2.448,1.732,3.742,4.192,3.644,6.927
		C640.674,360.86,639.812,362.745,638.252,364.207z"/>
	<path fill="#FFFFFF" d="M633.832,352.736c-1.513,1.521-3.421,2.328-5.526,2.328c-0.999,0-2.169-0.288-7.755-2.594
		c-18.366-7.587-45.944-11.596-71.513-11.596c-2.113,0-4.021-0.798-5.513-2.302c-1.518-1.514-2.319-3.422-2.319-5.522
		c0-2.104,0.801-4.012,2.315-5.522c0,0,50.51-50.513,56.233-56.236c-7.832-1.496-32.003-4.403-49.048,2.315l-1.805,0.299h-0.184
		c-2.096,0-4-0.792-5.513-2.289c-1.514-1.5-2.315-3.408-2.315-5.518c0-1.912,0.664-5.401,5.102-7.261
		c0.403-0.176,1.483-0.121,5.723-1.617c19.833-6.996,47.342-2.349,59.604-0.034l5.95,1.098l0.309,0.081l0.171,0.061
		c5.299,1.925,6.092,5.646,6.092,7.695c0,2.092-0.754,3.935-2.272,5.508c0,0-48.503,48.499-54.462,54.458
		c22.395,1.536,41.198,4.892,55.723,10.19c8.977,3.876,9.157,3.974,9.418,4.125c2.507,1.646,3.888,4.06,3.888,6.799
		C636.135,349.305,635.342,351.217,633.832,352.736z"/>
	<g>
		<g>
			<path fill="#E163A2" d="M1013.235,345.147v-14.288h6.331c1.274,0,2.243,0.128,2.908,0.385c0.66,0.257,1.191,0.708,1.586,1.36
				c0.398,0.647,0.596,1.362,0.596,2.147c0,1.012-0.326,1.869-0.986,2.559c-0.656,0.699-1.668,1.141-3.039,1.325
				c0.498,0.24,0.879,0.48,1.14,0.716c0.55,0.506,1.072,1.141,1.565,1.903l2.474,3.893h-2.361l-1.893-2.975
				c-0.552-0.861-1.007-1.517-1.366-1.972c-0.356-0.454-0.678-0.775-0.961-0.956c-0.283-0.18-0.569-0.309-0.861-0.382
				c-0.214-0.042-0.565-0.069-1.054-0.069h-2.196v6.354H1013.235z M1015.117,337.156h4.068c0.861,0,1.539-0.086,2.027-0.267
				c0.489-0.176,0.858-0.462,1.111-0.853c0.253-0.395,0.377-0.819,0.377-1.281c0-0.673-0.244-1.226-0.732-1.659
				c-0.493-0.438-1.266-0.656-2.323-0.656h-4.528V337.156z"/>
		</g>
		<g>
			<path fill="#E163A2" d="M1004.304,338.279c0,7.721,6.281,14.006,14.007,14.006c7.725,0,14.009-6.285,14.009-14.006
				c0-7.725-6.284-14.01-14.009-14.01C1010.586,324.269,1004.304,330.554,1004.304,338.279z M1006.415,338.279
				c0-6.559,5.337-11.896,11.896-11.896c6.559,0,11.896,5.337,11.896,11.896s-5.338,11.897-11.896,11.897
				C1011.752,350.176,1006.415,344.838,1006.415,338.279z"/>
		</g>
	</g>
</g>
<g>
	<path fill="#FFFFFF" d="M363.929,794.677c0-0.752-0.277-1.414-0.827-1.964c-0.548-0.548-1.208-0.825-1.961-0.825
		c-1.058,0-1.932,0.602-2.595,1.79c-0.604,1.1-1.129,3.896-1.608,8.322c-1.808-2.622-4.059-4.843-6.765-6.563
		c-3.393-2.18-6.94-3.289-10.545-3.289c-5.455,0-9.95,2.288-13.365,6.8c-3.099,4.1-4.67,8.993-4.67,14.54
		c0,5.334,1.601,9.84,4.758,13.395c3.293,3.78,7.642,5.7,12.922,5.7c3.596,0,7.134-0.957,10.515-2.846
		c2.907-1.623,5.321-3.712,7.256-6.177c0.273,2.435,0.452,3.813,0.558,4.255c0.698,3.205,1.857,4.768,3.54,4.768
		c0.753,0,1.413-0.277,1.961-0.827c0.55-0.55,0.827-1.21,0.827-1.962l-0.137-0.867c-1.232-4.654-1.857-10.27-1.857-16.692
		c0-6.421,0.625-12.039,1.858-16.695C363.796,795.528,363.929,794.677,363.929,794.677z M349.911,823.063
		c-3.337,2.62-6.906,3.947-10.605,3.947c-3.817,0-6.755-1.302-8.981-3.978c-2.098-2.477-3.16-5.707-3.16-9.604
		c0-4.032,1.094-7.61,3.252-10.639c2.38-3.411,5.401-5.067,9.244-5.067c3.944,0,7.562,1.649,10.755,4.9
		c3.193,3.257,4.813,6.934,4.813,10.928C355.228,817.081,353.439,820.281,349.911,823.063z M394.539,792.149
		c-8.504,0-15.129,6.278-19.753,18.528c-0.479-1.432-1.041-2.853-1.766-4.243c-1.501-2.923-2.953-4.345-4.436-4.345
		c-1.797,0-2.788,0.992-2.788,2.791c0,0.571,0.251,1.191,0.768,1.892c2.943,4.018,4.436,9.287,4.436,15.664l-0.062,1.621
		c-0.001,0.005-0.059,1.689-0.059,1.689c0,0.752,0.278,1.412,0.826,1.962c0.547,0.547,1.208,0.824,1.965,0.824
		c1.239,0,2.127-0.625,2.571-1.81c0.022-0.074,1.741-7.778,1.741-7.778c3.604-14.073,9.178-21.223,16.56-21.223
		c5.813,0,10.08,3.496,13.041,10.689c2.246,5.421,3.386,11.691,3.386,18.641l-0.175,3.964c0,1.797,0.988,2.789,2.783,2.789
		c0.968,0,2.222-0.397,2.708-2.284c0.173-0.646,0.256-1.762,0.256-3.404v-1.064c0-8.448-1.531-15.976-4.552-22.373
		C408.08,796.364,402.209,792.149,394.539,792.149z M426.312,795.588c-0.893,0-2.084,0.346-2.692,1.99
		c-0.022,0.073-0.917,4.143-0.917,4.143c-0.944,5.021-1.425,9.687-1.425,13.843c0,3.303,0.241,6.825,0.715,10.472
		c0.321,2.459,0.562,3.904,0.735,4.424c0.603,1.755,1.8,2.124,2.697,2.124c1.798,0,2.789-0.989,2.789-2.789
		c0-1.607-0.226-3.964-0.689-7.201c-0.448-3.115-0.675-5.481-0.675-7.029c0-4.624,0.712-10.164,2.117-16.465
		c-0.018,0.063,0.133-0.72,0.133-0.72c0-0.751-0.276-1.411-0.821-1.961C427.725,795.868,427.064,795.588,426.312,795.588z
		 M428.276,780.791c-1.448,0-2.769,0.531-3.924,1.579c-1.169,1.066-1.762,2.335-1.762,3.771c0,1.427,0.497,2.648,1.477,3.633
		c0.979,0.984,2.198,1.482,3.619,1.482c1.395,0,2.654-0.433,3.747-1.285c1.132-0.891,1.707-2.059,1.707-3.473
		c0-1.393-0.447-2.694-1.331-3.864C430.879,781.412,429.691,780.791,428.276,780.791z M470.991,823.902
		c-0.374,0-1.092,0.104-3.336,0.914c-0.023,0.01-3.247,1.233-3.247,1.233c-1.861,0.637-3.743,0.961-5.592,0.961
		c-3.439,0-6.59-0.712-9.362-2.117c-2.902-1.447-4.81-3.446-5.792-5.901c1.969,0.127,3.933,0.223,5.813,0.223
		c6.038,0,11.123-0.808,15.114-2.4c5.819-2.333,8.771-6.193,8.771-11.473c0-3.996-1.694-7.255-5.035-9.689
		c-2.93-2.149-6.489-3.239-10.575-3.239c-6.06,0-11,2.032-14.684,6.038c-3.376,3.644-5.263,8.446-5.693,14.23
		c-0.862-0.144-3.083-0.51-3.085-0.51c-1.858,0-2.849,0.996-2.849,2.8c0,0.969,0.488,2.258,2.807,2.902
		c0.059,0.021,0.221,0.07,3.418,0.495c0.912,4.387,3.517,7.96,7.833,10.587c3.935,2.406,8.418,3.628,13.319,3.628
		c3.566,0,7.462-0.867,11.576-2.575c2.279-0.936,3.388-2.023,3.388-3.324C473.78,824.889,472.791,823.902,470.991,823.902z
		 M446.919,802.597c2.664-3.062,6.308-4.614,10.833-4.614c2.582,0,4.858,0.62,6.764,1.844c2.204,1.385,3.27,3.195,3.27,5.545
		c0,3.257-2.293,5.51-7.011,6.884c-3.092,0.924-6.992,1.389-11.592,1.389c-2.011,0-4.121-0.124-6.249-0.317
		C443.214,808.948,444.531,805.324,446.919,802.597z M492.247,797.896c3.498,0,6.893,0.958,10.095,2.85
		c2.502,1.838,3.409,2.077,3.915,2.077c0.742,0,1.398-0.264,1.95-0.78c0.557-0.531,0.839-1.182,0.839-1.938
		c0-1.188-1.029-2.396-3.237-3.804c-4.13-2.638-8.693-3.975-13.557-3.975c-2.422,0-4.762,0.366-6.959,1.092
		c-2.253,0.74-4.121,2.07-5.552,3.95c-1.431,1.886-2.157,4.041-2.157,6.409c0,4.708,2.462,7.934,7.321,9.593l8.886,2.854
		c2.197,0.653,3.832,1.292,4.856,1.896c1.64,0.961,2.436,2.186,2.436,3.745c0,1.72-0.773,3.003-2.363,3.924
		c-1.36,0.813-3.052,1.222-5.03,1.222c-3.002,0-6.005-1.158-8.926-3.446c-0.662-0.526-1.269-0.785-1.849-0.785
		c-0.754,0-1.415,0.279-1.964,0.829c-0.547,0.548-0.827,1.21-0.827,1.969c0,0.696,0.268,1.365,0.794,1.988
		c1.327,1.541,3.303,2.796,5.874,3.737c2.305,0.849,4.605,1.281,6.837,1.281c3.503,0,6.489-0.874,8.872-2.602
		c2.756-1.966,4.154-4.701,4.154-8.129c0-2.396-0.851-4.546-2.53-6.386c-1.485-1.649-3.447-2.883-5.832-3.663l-11.771-3.764
		c-2.265-0.742-3.367-2.116-3.367-4.203c0-1.212,0.362-2.243,1.104-3.155C485.748,798.833,488.436,797.896,492.247,797.896z"/>
	<g>
		<path fill="#FFFFFF" d="M282.918,762.25c-16.549,0-31.125,8.437-39.673,21.241c-1.373,0.565-2.817,0.749-4.293,0.488
			c-3.376-0.592-6.197-3.299-7.536-6.921c1.627,0.387,3.321,0.502,4.999,0.291c5.016-0.632,8.125-4.285,7.925-9.313
			c-0.088-2.156-1.043-4.076-2.688-5.408c-1.781-1.445-4.215-2.074-6.509-1.683c-3.422,0.581-7.165,2.249-8.729,6.489
			c-0.576-1.217-0.885-2.567-0.885-4.003c0-0.294,0.008-0.588,0.034-0.889c0.17-2.044,1.464-4.255,3.296-5.629
			c1.176-0.886,2.407-1.28,3.376-1.088c1.322,0.266,2.607-0.597,2.87-1.917c0.267-1.32-0.593-2.608-1.912-2.871
			c-2.371-0.473-4.948,0.226-7.269,1.971c-2.937,2.214-4.94,5.712-5.223,9.128c-0.038,0.441-0.059,0.881-0.059,1.315
			c0,3.9,1.48,7.445,4.239,10.091c0.289,0.275,0.593,0.531,0.902,0.785c0.017,0.141,0.025,0.274,0.046,0.421
			c0.906,7.153,5.955,12.926,12.276,14.04c0.667,0.115,1.331,0.171,1.986,0.181c-3.101,6.327-4.844,13.437-4.844,20.957
			c0,26.33,21.342,47.673,47.671,47.673c26.333,0,47.676-21.343,47.676-47.673C330.594,783.592,309.25,762.25,282.918,762.25z
			 M230.535,771.601c0.133-4.027,2.278-5.308,5.424-5.841c0.906-0.157,1.933,0.104,2.621,0.662c0.56,0.451,0.847,1.046,0.876,1.812
			c0.1,2.517-1.127,3.957-3.651,4.273C233.994,772.736,232.15,772.402,230.535,771.601z M314.506,835.618
			c-0.828,0.834-1.875,1.275-3.028,1.275c-0.547,0-1.21-0.105-4.249-1.421c-1.838-0.766-2.956-1.233-3.615-1.581
			c0.005,0.009,0.042,0.084,0.042,0.084c-9.624-3.224-21.608-4.858-35.62-4.858c-1.157,0-2.204-0.437-3.021-1.262
			c-0.832-0.829-1.27-1.875-1.27-3.026c0-1.153,0.438-2.198,1.268-3.025c0,0,27.681-27.684,30.818-30.82
			c-3.94-0.513-7.711-0.832-11.125-0.832c-5.348,0-10.608,0.698-15.755,2.101l-0.989,0.164h-0.1c-1.149,0-2.193-0.435-3.022-1.254
			c-0.829-0.822-1.269-1.868-1.269-3.024c0-1.048,0.365-2.96,2.796-3.979c0.221-0.097,0.738-0.322,3.136-0.886
			c4.75-1.13,9.905-1.701,15.321-1.701c5.456,0,11.292,0.566,17.344,1.683l3.261,0.602l0.169,0.044l0.094,0.033
			c2.905,1.055,3.338,3.094,3.338,4.217c0,1.147-0.414,2.157-1.245,3.02c0,0-26.582,26.579-29.848,29.845
			c12.273,0.842,22.578,2.681,30.54,5.585c4.918,2.124,5.019,2.178,5.161,2.26c1.374,0.902,2.132,2.226,2.132,3.727
			C315.769,833.739,315.333,834.786,314.506,835.618z"/>
	</g>
	<g>
		<g>
			<path fill="#FFFFFF" d="M520.109,828.671v-7.831h3.47c0.698,0,1.229,0.07,1.593,0.212c0.362,0.141,0.653,0.388,0.87,0.744
				c0.218,0.355,0.327,0.747,0.327,1.178c0,0.555-0.179,1.024-0.541,1.402c-0.359,0.383-0.914,0.625-1.666,0.726
				c0.273,0.132,0.482,0.264,0.625,0.393c0.301,0.277,0.587,0.625,0.858,1.043l1.355,2.134h-1.294l-1.036-1.631
				c-0.303-0.472-0.552-0.831-0.75-1.08c-0.195-0.249-0.371-0.426-0.526-0.524s-0.313-0.169-0.472-0.209
				c-0.118-0.023-0.31-0.038-0.578-0.038h-1.203v3.482H520.109z M521.14,824.291h2.229c0.472,0,0.843-0.047,1.111-0.146
				c0.268-0.096,0.47-0.254,0.608-0.467c0.139-0.217,0.207-0.449,0.207-0.703c0-0.369-0.134-0.672-0.402-0.909
				c-0.271-0.239-0.693-0.359-1.273-0.359h-2.481V824.291z"/>
		</g>
		<g>
			<path fill="#FFFFFF" d="M515.215,824.907c0,4.231,3.442,7.676,7.675,7.676c4.234,0,7.678-3.444,7.678-7.676
				c0-4.234-3.444-7.679-7.678-7.679C518.657,817.229,515.215,820.673,515.215,824.907z M516.371,824.907
				c0-3.595,2.925-6.52,6.52-6.52s6.52,2.925,6.52,6.52s-2.925,6.52-6.52,6.52S516.371,828.502,516.371,824.907z"/>
		</g>
	</g>
</g>
<g>
	<path fill="#E163A2" d="M1115.318,794.677c0-0.752-0.277-1.414-0.827-1.964c-0.547-0.548-1.207-0.825-1.96-0.825
		c-1.059,0-1.933,0.602-2.596,1.79c-0.604,1.1-1.129,3.896-1.607,8.322c-1.809-2.622-4.06-4.843-6.766-6.563
		c-3.393-2.18-6.94-3.289-10.546-3.289c-5.454,0-9.949,2.288-13.364,6.8c-3.1,4.1-4.67,8.993-4.67,14.54
		c0,5.334,1.602,9.84,4.758,13.395c3.293,3.78,7.642,5.7,12.922,5.7c3.596,0,7.134-0.957,10.515-2.846
		c2.908-1.623,5.322-3.712,7.257-6.177c0.273,2.435,0.452,3.813,0.558,4.255c0.698,3.205,1.857,4.768,3.54,4.768
		c0.753,0,1.413-0.277,1.96-0.827c0.55-0.55,0.827-1.21,0.827-1.962l-0.138-0.867c-1.231-4.654-1.856-10.27-1.856-16.692
		c0-6.421,0.625-12.039,1.857-16.695C1115.185,795.528,1115.318,794.677,1115.318,794.677z M1101.301,823.063
		c-3.338,2.62-6.906,3.947-10.605,3.947c-3.817,0-6.755-1.302-8.981-3.978c-2.098-2.477-3.159-5.707-3.159-9.604
		c0-4.032,1.094-7.61,3.251-10.639c2.38-3.411,5.401-5.067,9.244-5.067c3.943,0,7.562,1.649,10.755,4.9
		c3.192,3.257,4.813,6.934,4.813,10.928C1106.617,817.081,1104.828,820.281,1101.301,823.063z M1145.927,792.149
		c-8.503,0-15.129,6.278-19.752,18.528c-0.479-1.432-1.041-2.853-1.766-4.243c-1.502-2.923-2.954-4.345-4.437-4.345
		c-1.797,0-2.787,0.992-2.787,2.791c0,0.571,0.251,1.191,0.768,1.892c2.943,4.018,4.437,9.287,4.437,15.664l-0.063,1.621
		c-0.001,0.005-0.059,1.689-0.059,1.689c0,0.752,0.278,1.412,0.825,1.962c0.548,0.547,1.208,0.824,1.966,0.824
		c1.239,0,2.127-0.625,2.571-1.81c0.022-0.074,1.741-7.778,1.741-7.778c3.604-14.073,9.178-21.223,16.56-21.223
		c5.814,0,10.081,3.496,13.041,10.689c2.246,5.421,3.386,11.691,3.386,18.641l-0.176,3.964c0,1.797,0.988,2.789,2.783,2.789
		c0.968,0,2.223-0.397,2.708-2.284c0.173-0.646,0.256-1.762,0.256-3.404v-1.064c0-8.448-1.53-15.976-4.552-22.373
		C1159.469,796.364,1153.597,792.149,1145.927,792.149z M1177.701,795.588c-0.893,0-2.084,0.346-2.692,1.99
		c-0.022,0.073-0.917,4.143-0.917,4.143c-0.944,5.021-1.425,9.687-1.425,13.843c0,3.303,0.241,6.825,0.716,10.472
		c0.32,2.459,0.562,3.904,0.735,4.424c0.603,1.755,1.8,2.124,2.697,2.124c1.798,0,2.789-0.989,2.789-2.789
		c0-1.607-0.226-3.964-0.69-7.201c-0.447-3.115-0.675-5.481-0.675-7.029c0-4.624,0.712-10.164,2.116-16.465
		c-0.018,0.063,0.133-0.72,0.133-0.72c0-0.751-0.275-1.411-0.82-1.961C1179.114,795.868,1178.453,795.588,1177.701,795.588z
		 M1179.665,780.791c-1.448,0-2.769,0.531-3.925,1.579c-1.169,1.066-1.762,2.335-1.762,3.771c0,1.427,0.497,2.648,1.477,3.633
		s2.197,1.482,3.619,1.482c1.395,0,2.654-0.433,3.746-1.285c1.133-0.891,1.707-2.059,1.707-3.473c0-1.393-0.447-2.694-1.331-3.864
		C1182.268,781.412,1181.081,780.791,1179.665,780.791z M1222.381,823.902c-0.374,0-1.093,0.104-3.337,0.914
		c-0.023,0.01-3.247,1.233-3.247,1.233c-1.86,0.637-3.742,0.961-5.591,0.961c-3.44,0-6.591-0.712-9.363-2.117
		c-2.901-1.447-4.809-3.446-5.791-5.901c1.969,0.127,3.933,0.223,5.813,0.223c6.038,0,11.122-0.808,15.114-2.4
		c5.819-2.333,8.771-6.193,8.771-11.473c0-3.996-1.694-7.255-5.035-9.689c-2.93-2.149-6.489-3.239-10.575-3.239
		c-6.059,0-11,2.032-14.684,6.038c-3.376,3.644-5.263,8.446-5.693,14.23c-0.861-0.144-3.082-0.51-3.084-0.51
		c-1.858,0-2.849,0.996-2.849,2.8c0,0.969,0.487,2.258,2.806,2.902c0.059,0.021,0.221,0.07,3.419,0.495
		c0.911,4.387,3.517,7.96,7.833,10.587c3.936,2.406,8.418,3.628,13.319,3.628c3.566,0,7.462-0.867,11.575-2.575
		c2.279-0.936,3.388-2.023,3.388-3.324C1225.169,824.889,1224.179,823.902,1222.381,823.902z M1198.308,802.597
		c2.664-3.062,6.308-4.614,10.833-4.614c2.582,0,4.858,0.62,6.764,1.844c2.204,1.385,3.271,3.195,3.271,5.545
		c0,3.257-2.293,5.51-7.011,6.884c-3.092,0.924-6.992,1.389-11.592,1.389c-2.012,0-4.121-0.124-6.25-0.317
		C1194.603,808.948,1195.921,805.324,1198.308,802.597z M1243.635,797.896c3.499,0,6.894,0.958,10.096,2.85
		c2.502,1.838,3.409,2.077,3.914,2.077c0.743,0,1.398-0.264,1.95-0.78c0.557-0.531,0.839-1.182,0.839-1.938
		c0-1.188-1.029-2.396-3.237-3.804c-4.131-2.638-8.693-3.975-13.557-3.975c-2.422,0-4.762,0.366-6.959,1.092
		c-2.253,0.74-4.121,2.07-5.552,3.95c-1.431,1.886-2.157,4.041-2.157,6.409c0,4.708,2.463,7.934,7.321,9.593l8.886,2.854
		c2.196,0.653,3.832,1.292,4.856,1.896c1.64,0.961,2.437,2.186,2.437,3.745c0,1.72-0.773,3.003-2.364,3.924
		c-1.36,0.813-3.052,1.222-5.03,1.222c-3.002,0-6.005-1.158-8.925-3.446c-0.663-0.526-1.269-0.785-1.85-0.785
		c-0.754,0-1.414,0.279-1.964,0.829c-0.547,0.548-0.827,1.21-0.827,1.969c0,0.696,0.268,1.365,0.794,1.988
		c1.328,1.541,3.304,2.796,5.874,3.737c2.305,0.849,4.604,1.281,6.837,1.281c3.503,0,6.489-0.874,8.871-2.602
		c2.756-1.966,4.154-4.701,4.154-8.129c0-2.396-0.851-4.546-2.53-6.386c-1.485-1.649-3.447-2.883-5.831-3.663l-11.771-3.764
		c-2.265-0.742-3.366-2.116-3.366-4.203c0-1.212,0.361-2.243,1.104-3.155C1237.137,798.833,1239.825,797.896,1243.635,797.896z"/>
	<g>
		<path fill="#E163A2" d="M1034.306,762.25c-16.549,0-31.124,8.437-39.672,21.241c-1.374,0.565-2.817,0.749-4.294,0.488
			c-3.376-0.592-6.197-3.299-7.536-6.921c1.627,0.387,3.321,0.502,4.998,0.291c5.017-0.632,8.125-4.285,7.925-9.313
			c-0.088-2.156-1.043-4.076-2.688-5.408c-1.78-1.445-4.215-2.074-6.509-1.683c-3.422,0.581-7.165,2.249-8.729,6.489
			c-0.576-1.217-0.885-2.567-0.885-4.003c0-0.294,0.009-0.588,0.034-0.889c0.17-2.044,1.464-4.255,3.296-5.629
			c1.177-0.886,2.407-1.28,3.376-1.088c1.322,0.266,2.607-0.597,2.87-1.917c0.267-1.32-0.593-2.608-1.911-2.871
			c-2.37-0.473-4.948,0.226-7.27,1.971c-2.937,2.214-4.939,5.712-5.223,9.128c-0.037,0.441-0.059,0.881-0.059,1.315
			c0,3.9,1.48,7.445,4.238,10.091c0.289,0.275,0.594,0.531,0.902,0.785c0.017,0.141,0.024,0.274,0.046,0.421
			c0.905,7.153,5.955,12.926,12.276,14.04c0.667,0.115,1.33,0.171,1.986,0.181c-3.102,6.327-4.845,13.437-4.845,20.957
			c0,26.33,21.342,47.673,47.671,47.673c26.333,0,47.677-21.343,47.677-47.673C1081.983,783.592,1060.639,762.25,1034.306,762.25z
			 M981.925,771.601c0.133-4.027,2.278-5.308,5.424-5.841c0.905-0.157,1.933,0.104,2.621,0.662c0.559,0.451,0.847,1.046,0.876,1.812
			c0.1,2.517-1.128,3.957-3.651,4.273C985.383,772.736,983.539,772.402,981.925,771.601z M1065.895,835.618
			c-0.828,0.834-1.875,1.275-3.028,1.275c-0.548,0-1.21-0.105-4.249-1.421c-1.839-0.766-2.956-1.233-3.614-1.581
			c0.004,0.009,0.042,0.084,0.042,0.084c-9.624-3.224-21.608-4.858-35.62-4.858c-1.157,0-2.204-0.437-3.021-1.262
			c-0.832-0.829-1.27-1.875-1.27-3.026c0-1.153,0.438-2.198,1.268-3.025c0,0,27.681-27.684,30.817-30.82
			c-3.94-0.513-7.711-0.832-11.125-0.832c-5.347,0-10.607,0.698-15.755,2.101l-0.989,0.164h-0.1c-1.149,0-2.193-0.435-3.022-1.254
			c-0.83-0.822-1.27-1.868-1.27-3.024c0-1.048,0.365-2.96,2.796-3.979c0.222-0.097,0.738-0.322,3.137-0.886
			c4.751-1.13,9.905-1.701,15.321-1.701c5.455,0,11.291,0.566,17.344,1.683l3.261,0.602l0.169,0.044l0.094,0.033
			c2.905,1.055,3.339,3.094,3.339,4.217c0,1.147-0.413,2.157-1.245,3.02c0,0-26.582,26.579-29.848,29.845
			c12.273,0.842,22.578,2.681,30.539,5.585c4.919,2.124,5.019,2.178,5.161,2.26c1.374,0.902,2.132,2.226,2.132,3.727
			C1067.158,833.739,1066.722,834.786,1065.895,835.618z"/>
	</g>
	<g>
		<g>
			<path fill="#E163A2" d="M1271.498,828.671v-7.831h3.471c0.697,0,1.229,0.07,1.593,0.212c0.361,0.141,0.653,0.388,0.869,0.744
				c0.219,0.355,0.326,0.747,0.326,1.178c0,0.555-0.179,1.024-0.54,1.402c-0.359,0.383-0.914,0.625-1.666,0.726
				c0.272,0.132,0.481,0.264,0.625,0.393c0.301,0.277,0.588,0.625,0.857,1.043l1.355,2.134h-1.294l-1.036-1.631
				c-0.303-0.472-0.553-0.831-0.75-1.08c-0.194-0.249-0.371-0.426-0.525-0.524c-0.155-0.099-0.313-0.169-0.473-0.209
				c-0.117-0.023-0.311-0.038-0.578-0.038h-1.203v3.482H1271.498z M1272.529,824.291h2.229c0.473,0,0.844-0.047,1.111-0.146
				c0.269-0.096,0.47-0.254,0.608-0.467c0.139-0.217,0.207-0.449,0.207-0.703c0-0.369-0.134-0.672-0.401-0.909
				c-0.271-0.239-0.693-0.359-1.273-0.359h-2.481V824.291z"/>
		</g>
		<g>
			<path fill="#E163A2" d="M1266.604,824.907c0,4.231,3.441,7.676,7.676,7.676c4.233,0,7.678-3.444,7.678-7.676
				c0-4.234-3.444-7.679-7.678-7.679C1270.046,817.229,1266.604,820.673,1266.604,824.907z M1267.76,824.907
				c0-3.595,2.926-6.52,6.521-6.52s6.52,2.925,6.52,6.52s-2.925,6.52-6.52,6.52S1267.76,828.502,1267.76,824.907z"/>
		</g>
	</g>
</g>
</svg>
